<svg width="42" height="24" viewBox="0 0 42 24" fill="none" xmlns="http://www.w3.org/2000/svg">
<g clip-path="url(#clip0_13135_71704)">
<path d="M41.2334 11.2621C41.5583 11.6362 41.5603 12.1917 41.2382 12.5682L31.7597 23.6431C31.1558 24.3487 30 23.9216 30 22.9928V20.2598C30 19.7075 29.5523 19.2598 29 19.2598H1C0.447716 19.2598 0 18.812 0 18.2598V6.06835C0 5.51607 0.447715 5.06835 1 5.06835H29C29.5523 5.06835 30 4.62064 30 4.06835V1.00701C30 0.0818816 31.1482 -0.347204 31.7549 0.3512L41.2334 11.2621Z" fill="#FDE3EB"/>
<path d="M6.9238 13.8396C6.9238 13.7077 6.90599 13.59 6.87038 13.4866C6.83477 13.3797 6.77002 13.2816 6.67613 13.1925C6.58224 13.1034 6.44951 13.0143 6.27792 12.9251C6.10634 12.8324 5.88133 12.738 5.60291 12.6417C5.28564 12.5276 4.98294 12.3993 4.69481 12.2567C4.40991 12.1105 4.15577 11.9412 3.93239 11.7487C3.709 11.5561 3.53256 11.3316 3.40306 11.0749C3.2768 10.8182 3.21367 10.5187 3.21367 10.1765C3.21367 9.84492 3.28004 9.54545 3.41278 9.27807C3.54551 9.0107 3.73166 8.78253 3.97124 8.59358C4.21081 8.40107 4.49247 8.2549 4.81621 8.15508C5.13996 8.05169 5.49608 8 5.88457 8C6.40257 8 6.85743 8.1016 7.24916 8.30481C7.64413 8.50446 7.95169 8.7861 8.17183 9.14973C8.39198 9.5098 8.50205 9.9287 8.50205 10.4064H6.92865C6.92865 10.1961 6.88818 10.0107 6.80725 9.85027C6.72955 9.68627 6.60976 9.55793 6.44789 9.46524C6.28925 9.37255 6.09015 9.3262 5.85058 9.3262C5.61748 9.3262 5.42162 9.36542 5.26298 9.44385C5.10758 9.51872 4.98942 9.6221 4.90848 9.75401C4.83078 9.88592 4.79193 10.0303 4.79193 10.1872C4.79193 10.3119 4.82107 10.426 4.87934 10.5294C4.94085 10.6292 5.02827 10.7237 5.14158 10.8128C5.25812 10.8984 5.40057 10.9804 5.56892 11.0588C5.73727 11.1373 5.9299 11.2121 6.14681 11.2834C6.52559 11.4153 6.86066 11.5615 7.15204 11.7219C7.44664 11.8824 7.69431 12.0642 7.89503 12.2674C8.09575 12.4706 8.2463 12.7005 8.34666 12.9572C8.45026 13.2139 8.50205 13.5045 8.50205 13.8289C8.50205 14.1747 8.44054 14.4813 8.31752 14.7487C8.19773 15.016 8.02291 15.2442 7.79305 15.4332C7.56643 15.6185 7.29448 15.7594 6.97721 15.8556C6.65994 15.9519 6.30544 16 5.91371 16C5.55759 16 5.20633 15.9501 4.85992 15.8503C4.51351 15.7469 4.19948 15.59 3.91782 15.3797C3.6394 15.1693 3.41601 14.902 3.24767 14.5775C3.08256 14.2496 3 13.861 3 13.4118H4.58312C4.58312 13.6471 4.61387 13.8467 4.67538 14.0107C4.73689 14.1711 4.82431 14.3012 4.93762 14.4011C5.05417 14.5009 5.19499 14.5722 5.3601 14.615C5.52521 14.6578 5.70975 14.6791 5.91371 14.6791C6.15004 14.6791 6.34105 14.6435 6.48674 14.5722C6.63566 14.4973 6.74574 14.3957 6.81696 14.2674C6.88818 14.139 6.9238 13.9964 6.9238 13.8396Z" fill="#C03060"/>
<path d="M15.3298 11.8289V12.1765C15.3298 12.7683 15.2554 13.2995 15.1065 13.7701C14.9608 14.2406 14.752 14.6417 14.48 14.9733C14.2113 15.3048 13.8908 15.5597 13.5185 15.738C13.1494 15.9127 12.7399 16 12.2899 16C11.8399 16 11.4287 15.9127 11.0564 15.738C10.6841 15.5597 10.3604 15.3048 10.0852 14.9733C9.81322 14.6417 9.60279 14.2406 9.45387 13.7701C9.30494 13.2995 9.23048 12.7683 9.23048 12.1765V11.8289C9.23048 11.2371 9.30494 10.7059 9.45387 10.2353C9.60279 9.76114 9.8116 9.35829 10.0803 9.02674C10.3523 8.69519 10.6744 8.44207 11.0467 8.26738C11.419 8.08913 11.8302 8 12.2802 8C12.7302 8 13.1413 8.08913 13.5136 8.26738C13.8859 8.44207 14.2064 8.69519 14.4752 9.02674C14.7471 9.35829 14.9575 9.76114 15.1065 10.2353C15.2554 10.7059 15.3298 11.2371 15.3298 11.8289ZM13.7322 12.1765V11.8182C13.7322 11.4225 13.6998 11.0731 13.635 10.7701C13.5703 10.4635 13.4764 10.2068 13.3534 10C13.2304 9.79323 13.0782 9.63815 12.8969 9.53476C12.7156 9.42781 12.51 9.37433 12.2802 9.37433C12.0406 9.37433 11.8318 9.42781 11.6537 9.53476C11.4757 9.63815 11.3251 9.79323 11.2021 10C11.0823 10.2068 10.99 10.4635 10.9253 10.7701C10.8638 11.0731 10.833 11.4225 10.833 11.8182V12.1765C10.833 12.5686 10.8638 12.918 10.9253 13.2246C10.99 13.5276 11.0839 13.7843 11.2069 13.9947C11.33 14.205 11.4805 14.3636 11.6586 14.4706C11.8399 14.5775 12.0503 14.631 12.2899 14.631C12.5197 14.631 12.7237 14.5775 12.9018 14.4706C13.0831 14.3636 13.2352 14.205 13.3582 13.9947C13.4813 13.7843 13.5735 13.5276 13.635 13.2246C13.6998 12.918 13.7322 12.5686 13.7322 12.1765Z" fill="#C03060"/>
<path d="M22.1965 11.8289V12.1765C22.1965 12.7683 22.122 13.2995 21.9731 13.7701C21.8274 14.2406 21.6186 14.6417 21.3467 14.9733C21.0779 15.3048 20.7574 15.5597 20.3851 15.738C20.0161 15.9127 19.6065 16 19.1565 16C18.7065 16 18.2954 15.9127 17.923 15.738C17.5507 15.5597 17.227 15.3048 16.9518 14.9733C16.6799 14.6417 16.4694 14.2406 16.3205 13.7701C16.1716 13.2995 16.0971 12.7683 16.0971 12.1765V11.8289C16.0971 11.2371 16.1716 10.7059 16.3205 10.2353C16.4694 9.76114 16.6782 9.35829 16.947 9.02674C17.2189 8.69519 17.541 8.44207 17.9133 8.26738C18.2856 8.08913 18.6968 8 19.1468 8C19.5968 8 20.008 8.08913 20.3803 8.26738C20.7526 8.44207 21.0731 8.69519 21.3418 9.02674C21.6137 9.35829 21.8242 9.76114 21.9731 10.2353C22.122 10.7059 22.1965 11.2371 22.1965 11.8289ZM20.5988 12.1765V11.8182C20.5988 11.4225 20.5664 11.0731 20.5017 10.7701C20.4369 10.4635 20.343 10.2068 20.22 10C20.097 9.79323 19.9448 9.63815 19.7635 9.53476C19.5822 9.42781 19.3767 9.37433 19.1468 9.37433C18.9072 9.37433 18.6984 9.42781 18.5204 9.53476C18.3423 9.63815 18.1918 9.79323 18.0687 10C17.9489 10.2068 17.8567 10.4635 17.7919 10.7701C17.7304 11.0731 17.6997 11.4225 17.6997 11.8182V12.1765C17.6997 12.5686 17.7304 12.918 17.7919 13.2246C17.8567 13.5276 17.9506 13.7843 18.0736 13.9947C18.1966 14.205 18.3472 14.3636 18.5252 14.4706C18.7065 14.5775 18.9169 14.631 19.1565 14.631C19.3864 14.631 19.5903 14.5775 19.7684 14.4706C19.9497 14.3636 20.1019 14.205 20.2249 13.9947C20.3479 13.7843 20.4402 13.5276 20.5017 13.2246C20.5664 12.918 20.5988 12.5686 20.5988 12.1765Z" fill="#C03060"/>
<path d="M29 8.10695V15.893H27.4217L24.7508 10.861V15.893H23.1677V8.10695H24.7508L27.4266 13.139V8.10695H29Z" fill="#C03060"/>
</g>
<defs>
<clipPath id="clip0_13135_71704">
<rect width="42" height="24" fill="white"/>
</clipPath>
</defs>
</svg>
