<svg width="24" height="24" viewBox="0 0 24 24" fill="none" xmlns="http://www.w3.org/2000/svg">
<mask id="path-1-inside-1_14093_251038" fill="white">
<path d="M21.2545 11.138C21.5852 11.5137 21.5873 12.076 21.2593 12.4541L13.7554 21.1044C13.1489 21.8035 12 21.3746 12 20.4491V19C12 18.4477 11.5523 18 11 18H4C3.44772 18 3 17.5523 3 17V6.99998C3 6.4477 3.44772 5.99998 4 5.99998H11C11.5523 5.99998 12 5.55227 12 4.99998V3.27679C12 2.35496 13.1413 1.92409 13.7505 2.61594L21.2545 11.138Z"/>
</mask>
<path d="M21.2545 11.138C21.5852 11.5137 21.5873 12.076 21.2593 12.4541L13.7554 21.1044C13.1489 21.8035 12 21.3746 12 20.4491V19C12 18.4477 11.5523 18 11 18H4C3.44772 18 3 17.5523 3 17V6.99998C3 6.4477 3.44772 5.99998 4 5.99998H11C11.5523 5.99998 12 5.55227 12 4.99998V3.27679C12 2.35496 13.1413 1.92409 13.7505 2.61594L21.2545 11.138Z" fill="#161E27"/>
<path d="M21.2593 12.4541L22.0147 13.1094L21.2593 12.4541ZM21.2545 11.138L22.005 10.4771L21.2545 11.138ZM21.2593 12.4541L20.5039 11.7988L13 20.4491L13.7554 21.1044L14.5108 21.7597L22.0147 13.1094L21.2593 12.4541ZM12 20.4491H13V19H12H11V20.4491H12ZM11 18V17H4V18V19H11V18ZM3 17H4V6.99998H3H2V17H3ZM4 5.99998V6.99999H11V5.99998V4.99998H4V5.99998ZM12 4.99998H13V3.27679H12H11V4.99998H12ZM13.7505 2.61594L13 3.27679L20.5039 11.7988L21.2545 11.138L22.005 10.4771L14.501 1.95508L13.7505 2.61594ZM12 3.27679H13V3.27679L13.7505 2.61594L14.501 1.95508C13.2827 0.571396 11 1.43314 11 3.27679H12ZM11 5.99998V6.99999C12.1046 6.99999 13 6.10455 13 4.99998H12H11V5.99998ZM3 6.99998H4V6.99999V5.99998V4.99998C2.89543 4.99998 2 5.89542 2 6.99998H3ZM4 18V17H4H3H2C2 18.1046 2.89543 19 4 19V18ZM12 19H13C13 17.8954 12.1046 17 11 17V18V19H12ZM13.7554 21.1044L13 20.4491V20.4491H12H11C11 22.3 13.2979 23.1578 14.5108 21.7597L13.7554 21.1044ZM21.2593 12.4541L22.0147 13.1094C22.6707 12.3532 22.6665 11.2285 22.005 10.4771L21.2545 11.138L20.5039 11.7988L21.2593 12.4541Z" fill="#9D3457" mask="url(#path-1-inside-1_14093_251038)"/>
</svg>
