<svg width="20" height="20" viewBox="0 0 20 20" fill="none" xmlns="http://www.w3.org/2000/svg">
<g id="Arrow-up-down 2">
<path id="Vector" fill-rule="evenodd" clip-rule="evenodd" d="M11.4404 16.4161C11.6808 16.5094 11.9539 16.4455 12.1279 16.2552L15.4612 12.6094C15.6941 12.3546 15.6764 11.9593 15.4217 11.7264C15.1669 11.4935 14.7716 11.5112 14.5387 11.7659L12.2916 14.2236V5.00014C12.2916 4.65496 12.0118 4.37514 11.6666 4.37514C11.3214 4.37514 11.0416 4.65496 11.0416 5.00014V15.8335C11.0416 16.0914 11.2 16.3228 11.4404 16.4161Z" fill="#7A69EE"/>
<path id="Vector_2" fill-rule="evenodd" clip-rule="evenodd" d="M8.55954 4.41739C8.79994 4.51073 8.95834 4.74214 8.95834 5.00002V15.8334C8.95834 16.1785 8.67852 16.4584 8.33334 16.4584C7.98816 16.4584 7.70834 16.1785 7.70834 15.8334V6.60986L5.46127 9.06759C5.22836 9.32234 4.83302 9.34004 4.57827 9.10713C4.32352 8.87421 4.30582 8.47888 4.53874 8.22413L7.87207 4.57829C8.04608 4.38797 8.31913 4.32406 8.55954 4.41739Z" fill="#DBDEE3"/>
</g>
</svg>
