<svg version="1.2" xmlns="http://www.w3.org/2000/svg" viewBox="0 0 20 20" width="20" height="20">
	<title>sort-desc</title>
	<style>
		.s0 { fill: #7a69ee } 
		.s1 { fill: #394452 } 
	</style>
	<g id="Arrow-up-down 2">
		<path id="Vector" fill-rule="evenodd" class="s0" d="m8.6 4.6c-0.3-0.1-0.6 0-0.7 0.1l-3.4 3.7c-0.2 0.2-0.2 0.6 0.1 0.9 0.2 0.2 0.6 0.2 0.9-0.1l2.2-2.4v9.2c0 0.3 0.3 0.6 0.6 0.6 0.4 0 0.7-0.3 0.7-0.6v-10.8c0-0.3-0.2-0.5-0.4-0.6z"/>
		<path id="Vector_2" fill-rule="evenodd" class="s1" d="m11.4 16.6c-0.2-0.1-0.4-0.3-0.4-0.6v-10.8c0-0.4 0.3-0.7 0.7-0.7 0.3 0 0.6 0.3 0.6 0.7v9.2l2.2-2.5c0.3-0.2 0.7-0.2 0.9 0 0.3 0.2 0.3 0.6 0.1 0.9l-3.4 3.6c-0.1 0.2-0.4 0.3-0.7 0.2z"/>
	</g>
</svg>