<svg width="24" height="24" viewBox="0 0 24 24" fill="none" xmlns="http://www.w3.org/2000/svg">
<path d="M22 2L2 22" stroke="#394452" stroke-width="1.5" stroke-linecap="round"/>
<path d="M18.4995 5.43982C16.8203 4.19423 14.6674 3.25 12 3.25C10.8312 3.25 9.75566 3.43223 8.77266 3.7449L9.22734 5.17433C10.0674 4.90713 10.9897 4.75 12 4.75C14.1833 4.75 15.9813 5.48816 17.426 6.51336L18.4995 5.43982Z" fill="#394452"/>
<path d="M14.6211 9.31819C13.9451 8.65732 13.0201 8.25 12 8.25C9.92893 8.25 8.25 9.92893 8.25 12C8.25 13.0201 8.65732 13.9451 9.31819 14.6211L10.379 13.5604C9.98949 13.1558 9.75 12.6059 9.75 12C9.75 10.7574 10.7574 9.75 12 9.75C12.6059 9.75 13.1558 9.98949 13.5604 10.379L14.6211 9.31819Z" fill="#394452"/>
<path d="M14.2427 11.8179L15.4744 10.5863C15.6521 11.0226 15.75 11.4999 15.75 12C15.75 14.0711 14.0711 15.75 12 15.75C11.4999 15.75 11.0226 15.6521 10.5863 15.4744L11.8179 14.2427C11.878 14.2475 11.9387 14.25 12 14.25C13.2426 14.25 14.25 13.2426 14.25 12C14.25 11.9387 14.2475 11.878 14.2427 11.8179Z" fill="#394452"/>
<path d="M7.81759 18.2431C9.01421 18.8556 10.4042 19.25 12 19.25C15.8496 19.25 18.5014 16.9551 20.1308 14.8382C20.5694 14.2684 20.8263 13.9279 20.9952 13.5455C21.1532 13.188 21.25 12.7511 21.25 12C21.25 11.2489 21.1532 10.812 20.9952 10.4545C20.8263 10.0721 20.5694 9.73159 20.1308 9.1618C19.6934 8.59356 19.1823 8.01249 18.5942 7.46643L19.655 6.40571C20.3008 7.00999 20.8544 7.64272 21.3194 8.24686L21.3513 8.28821C21.7504 8.80654 22.1179 9.28392 22.3673 9.8484C22.6344 10.4529 22.75 11.1117 22.75 12C22.75 12.8883 22.6344 13.5471 22.3673 14.1516C22.1179 14.7161 21.7504 15.1935 21.3513 15.7118L21.3194 15.7531C19.5547 18.0458 16.5141 20.75 12 20.75C9.93467 20.75 8.1778 20.1839 6.71046 19.3502L7.81759 18.2431Z" fill="#394452"/>
<path d="M6.50331 17.436C5.43297 16.6634 4.55939 15.7348 3.86922 14.8382C3.43064 14.2684 3.17374 13.9279 3.00476 13.5455C2.84684 13.188 2.75 12.7511 2.75 12C2.75 11.2489 2.84684 10.812 3.00476 10.4545C3.17374 10.0721 3.43063 9.73159 3.86922 9.1618C4.32817 8.56555 4.87221 7.95071 5.5043 7.37651C5.8109 7.098 5.83366 6.62367 5.55514 6.31707C5.27662 6.01048 4.8023 5.98771 4.4957 6.26623C3.78725 6.90979 3.18406 7.59274 2.68057 8.24686L2.64874 8.2882C2.24964 8.80653 1.88206 9.28392 1.63269 9.8484C1.36564 10.4529 1.25 11.1117 1.25 12C1.25 12.8883 1.36564 13.5471 1.63269 14.1516C1.88206 14.7161 2.24963 15.1935 2.64874 15.7118L2.68057 15.7531C3.38807 16.6723 4.30065 17.6576 5.43104 18.5083L6.50331 17.436Z" fill="#394452"/>
</svg>
