<svg width="24" height="24" viewBox="0 0 24 24" fill="none" xmlns="http://www.w3.org/2000/svg">
<path d="M15.844 14.8226C15.562 14.5406 15.1047 14.5406 14.8226 14.8226C14.5406 15.1047 14.5406 15.562 14.8226 15.844L15.844 14.8226ZM21.4893 22.5107C21.7714 22.7927 22.2286 22.7927 22.5107 22.5107C22.7927 22.2286 22.7927 21.7714 22.5107 21.4893L21.4893 22.5107ZM3.14805 7.35757C3.28486 6.98289 3.09204 6.56825 2.71737 6.43143C2.34269 6.29462 1.92805 6.48744 1.79123 6.86211L3.14805 7.35757ZM5.60477 2.37107C5.25742 2.56716 5.1348 3.00769 5.33088 3.35504C5.52696 3.70239 5.9675 3.82501 6.31485 3.62893L5.60477 2.37107ZM9.77778 16.8333C5.8811 16.8333 2.72222 13.6745 2.72222 9.77778H1.27778C1.27778 14.4722 5.08336 18.2778 9.77778 18.2778V16.8333ZM9.77778 2.72222C13.6745 2.72222 16.8333 5.8811 16.8333 9.77778H18.2778C18.2778 5.08336 14.4722 1.27778 9.77778 1.27778V2.72222ZM16.8333 9.77778C16.8333 13.6745 13.6745 16.8333 9.77778 16.8333V18.2778C14.4722 18.2778 18.2778 14.4722 18.2778 9.77778H16.8333ZM14.8226 15.844L21.4893 22.5107L22.5107 21.4893L15.844 14.8226L14.8226 15.844ZM2.72222 9.77778C2.72222 8.92623 2.87276 8.11146 3.14805 7.35757L1.79123 6.86211C1.45882 7.77244 1.27778 8.75477 1.27778 9.77778H2.72222ZM6.31485 3.62893C7.33718 3.0518 8.5179 2.72222 9.77778 2.72222V1.27778C8.26267 1.27778 6.83811 1.67483 5.60477 2.37107L6.31485 3.62893Z" fill="#394452"/>
</svg>
