<svg width="24" height="24" viewBox="0 0 24 24" fill="none" xmlns="http://www.w3.org/2000/svg">
<path opacity="0.5" d="M20.5355 20.5355C19.0711 22 16.714 22 12 22C7.28595 22 4.92893 22 3.46447 20.5355C2 19.0711 2 16.714 2 12C2 7.28596 2 4.92893 3.46447 3.46447C4.92893 2 7.28595 2 12 2C16.714 2 19.0711 2 20.5355 3.46447C22 4.92893 22 7.28596 22 12C22 16.714 22 19.0711 20.5355 20.5355Z" fill="#394452"/>
<path d="M15.5787 14.8281C15.5787 15.2423 15.2429 15.5781 14.8287 15.5781L10.5861 15.5781C10.1719 15.5781 9.83609 15.2423 9.83609 14.8281C9.83609 14.4139 10.1719 14.0781 10.5861 14.0781H13.0181L8.64154 9.70159C8.34865 9.4087 8.34865 8.93383 8.64154 8.64093C8.93444 8.34804 9.40931 8.34804 9.70221 8.64093L14.0787 13.0175L14.0787 10.5855C14.0787 10.1713 14.4145 9.83548 14.8287 9.83548C15.2429 9.83548 15.5787 10.1713 15.5787 10.5855L15.5787 14.8281Z" fill="#394452"/>
</svg>
