<svg width="24" height="24" viewBox="0 0 24 24" fill="none" xmlns="http://www.w3.org/2000/svg">
<path opacity="0.5" d="M17.75 18.9999C17.75 19.3138 17.5546 19.5944 17.2602 19.7033C16.9658 19.8122 16.6348 19.7263 16.4306 19.488L10.4306 12.488C10.1898 12.2071 10.1898 11.7927 10.4306 11.5118L16.4306 4.51182C16.6348 4.27352 16.9658 4.18761 17.2602 4.2965C17.5546 4.40539 17.75 4.68606 17.75 4.99991L17.75 18.9999Z" fill="#394452"/>
<path fill-rule="evenodd" clip-rule="evenodd" d="M13.4881 19.5695C13.8026 19.2999 13.839 18.8264 13.5694 18.5119L7.98781 12L13.5694 5.48811C13.839 5.17361 13.8026 4.70014 13.4881 4.43057C13.1736 4.161 12.7001 4.19743 12.4306 4.51192L6.43056 11.5119C6.18981 11.7928 6.18981 12.2072 6.43056 12.4881L12.4306 19.4881C12.7001 19.8026 13.1736 19.839 13.4881 19.5695Z" fill="#394452"/>
</svg>
