<svg width="24" height="24" viewBox="0 0 24 24" fill="none" xmlns="http://www.w3.org/2000/svg">
<g clip-path="url(#clip0_10165_9339)">
<path d="M8.30273 5.59561L11.6296 2.16485C11.8428 1.94505 12.1573 1.94505 12.3704 2.16485L18.8001 8.79533C19.2013 9.20906 18.9581 10 18.4297 10H12.7071L8.30273 5.59561Z" fill="#394452"/>
<path opacity="0.5" d="M11.2929 10H5.5703C5.04189 10 4.79869 9.20907 5.1999 8.79534L7.60648 6.3136L11.2929 10Z" fill="#394452"/>
<path d="M8.30273 18.4044L11.6296 21.8351C11.8428 22.0549 12.1573 22.0549 12.3704 21.8351L18.8001 15.2047C19.2013 14.7909 18.9581 14 18.4297 14H12.7071L8.30273 18.4044Z" fill="#394452"/>
<path opacity="0.5" d="M11.2929 14H5.5703C5.04189 14 4.79869 14.7909 5.1999 15.2047L7.60648 17.6864L11.2929 14Z" fill="#394452"/>
</g>
<defs>
<clipPath id="clip0_10165_9339">
<rect width="24" height="24" fill="white"/>
</clipPath>
</defs>
</svg>
