<svg width="152" height="68" viewBox="0 0 152 68" fill="none" xmlns="http://www.w3.org/2000/svg">
    <rect x="67" y="25.5" width="73" height="27" rx="3" fill="white"/>
    <rect x="67" y="25.5" width="73" height="27" rx="3" stroke="#C0C5CB" stroke-width="2" stroke-dasharray="4 4"/>
    <path d="M61 19V58" stroke="#7A69EE" stroke-width="2" stroke-linecap="round"/>
    <path d="M146 19V58" stroke="#7A69EE" stroke-width="2" stroke-linecap="round"/>
    <rect x="0.5" y="1.5" width="85" height="39" rx="3.5" fill="white"/>
    <rect x="0.5" y="1.5" width="85" height="39" rx="3.5" stroke="#7A69EE"/>
    <path d="M10 21C10 17.2288 10 15.3431 11.1716 14.1716C12.3431 13 14.2288 13 18 13H22C25.7712 13 27.6569 13 28.8284 14.1716C30 15.3431 30 17.2288 30 21C30 24.7712 30 26.6569 28.8284 27.8284C27.6569 29 25.7712 29 22 29H18C14.2288 29 12.3431 29 11.1716 27.8284C10 26.6569 10 24.7712 10 21Z" stroke="#394452" stroke-width="1.5"/>
    <path d="M14 17L16.1589 18.7991C17.9955 20.3296 18.9139 21.0949 20 21.0949C21.0861 21.0949 22.0045 20.3296 23.8411 18.7991L26 17" stroke="#394452" stroke-width="1.5" stroke-linecap="round"/>
    <path d="M43.5264 24.6396V26H38.2422V24.6396H43.5264ZM38.7275 16.0469V26H37.0117V16.0469H38.7275ZM42.8359 20.2031V21.543H38.2422V20.2031H42.8359ZM43.4922 16.0469V17.4141H38.2422V16.0469H43.4922ZM46.4111 20.1074V26H44.7637V18.6035H46.3154L46.4111 20.1074ZM46.1445 22.0283L45.584 22.0215C45.584 21.5111 45.6478 21.0394 45.7754 20.6064C45.903 20.1735 46.0898 19.7975 46.3359 19.4785C46.582 19.1549 46.8874 18.9066 47.252 18.7334C47.6211 18.5557 48.0472 18.4668 48.5303 18.4668C48.8675 18.4668 49.1751 18.5169 49.4531 18.6172C49.7357 18.7129 49.9795 18.8656 50.1846 19.0752C50.3942 19.2848 50.5537 19.5537 50.6631 19.8818C50.777 20.21 50.834 20.6064 50.834 21.0713V26H49.1865V21.2148C49.1865 20.8548 49.1318 20.5723 49.0225 20.3672C48.9176 20.1621 48.765 20.0163 48.5645 19.9297C48.3685 19.8385 48.1338 19.793 47.8604 19.793C47.5505 19.793 47.2861 19.8522 47.0674 19.9707C46.8532 20.0892 46.6777 20.251 46.541 20.4561C46.4043 20.6611 46.304 20.8981 46.2402 21.167C46.1764 21.4359 46.1445 21.723 46.1445 22.0283ZM50.7314 21.5908L49.959 21.7617C49.959 21.3151 50.0205 20.8936 50.1436 20.4971C50.2712 20.096 50.4557 19.7451 50.6973 19.4443C50.9434 19.139 51.2464 18.8997 51.6064 18.7266C51.9665 18.5534 52.3789 18.4668 52.8438 18.4668C53.222 18.4668 53.5592 18.5192 53.8555 18.624C54.1562 18.7243 54.4115 18.8838 54.6211 19.1025C54.8307 19.3213 54.9902 19.6061 55.0996 19.957C55.209 20.3034 55.2637 20.7227 55.2637 21.2148V26H53.6094V21.208C53.6094 20.8343 53.5547 20.5449 53.4453 20.3398C53.3405 20.1348 53.1901 19.9935 52.9941 19.916C52.7982 19.834 52.5635 19.793 52.29 19.793C52.0348 19.793 51.8092 19.8408 51.6133 19.9365C51.4219 20.0277 51.2601 20.1576 51.1279 20.3262C50.9958 20.4902 50.8955 20.6794 50.8271 20.8936C50.7633 21.1077 50.7314 21.3402 50.7314 21.5908ZM61.1289 24.5166V20.9893C61.1289 20.7249 61.0811 20.4971 60.9854 20.3057C60.8896 20.1143 60.7438 19.9661 60.5479 19.8613C60.3564 19.7565 60.1149 19.7041 59.8232 19.7041C59.5544 19.7041 59.3219 19.7497 59.126 19.8408C58.93 19.932 58.7773 20.055 58.668 20.21C58.5586 20.3649 58.5039 20.5404 58.5039 20.7363H56.8633C56.8633 20.4447 56.9339 20.1621 57.0752 19.8887C57.2165 19.6152 57.4215 19.3714 57.6904 19.1572C57.9593 18.943 58.2806 18.7744 58.6543 18.6514C59.028 18.5283 59.4473 18.4668 59.9121 18.4668C60.4681 18.4668 60.9603 18.5602 61.3887 18.7471C61.8216 18.9339 62.1611 19.2165 62.4072 19.5947C62.6579 19.9684 62.7832 20.4378 62.7832 21.0029V24.291C62.7832 24.6283 62.806 24.9313 62.8516 25.2002C62.9017 25.4645 62.9723 25.6947 63.0635 25.8906V26H61.375C61.2975 25.8223 61.236 25.5967 61.1904 25.3232C61.1494 25.0452 61.1289 24.7764 61.1289 24.5166ZM61.3682 21.502L61.3818 22.5205H60.1992C59.8939 22.5205 59.625 22.5501 59.3926 22.6094C59.1602 22.6641 58.9665 22.7461 58.8115 22.8555C58.6566 22.9648 58.5404 23.097 58.4629 23.252C58.3854 23.4069 58.3467 23.5824 58.3467 23.7783C58.3467 23.9743 58.3923 24.1543 58.4834 24.3184C58.5745 24.4779 58.7067 24.6032 58.8799 24.6943C59.0576 24.7855 59.2718 24.8311 59.5225 24.8311C59.8597 24.8311 60.1536 24.7627 60.4043 24.626C60.6595 24.4847 60.86 24.3138 61.0059 24.1133C61.1517 23.9082 61.2292 23.7145 61.2383 23.5322L61.7715 24.2637C61.7168 24.4505 61.6234 24.651 61.4912 24.8652C61.359 25.0794 61.1859 25.2845 60.9717 25.4805C60.762 25.6719 60.5091 25.8291 60.2129 25.9521C59.9212 26.0752 59.584 26.1367 59.2012 26.1367C58.7181 26.1367 58.2874 26.041 57.9092 25.8496C57.5309 25.6536 57.2347 25.3916 57.0205 25.0635C56.8063 24.7308 56.6992 24.3548 56.6992 23.9355C56.6992 23.5436 56.7721 23.1973 56.918 22.8965C57.0684 22.5911 57.2871 22.3359 57.5742 22.1309C57.8659 21.9258 58.2214 21.7708 58.6406 21.666C59.0599 21.5566 59.5384 21.502 60.0762 21.502H61.3682ZM66.2695 18.6035V26H64.6152V18.6035H66.2695ZM64.5059 16.6621C64.5059 16.4115 64.5879 16.2041 64.752 16.04C64.9206 15.8714 65.153 15.7871 65.4492 15.7871C65.7409 15.7871 65.971 15.8714 66.1396 16.04C66.3083 16.2041 66.3926 16.4115 66.3926 16.6621C66.3926 16.9082 66.3083 17.1133 66.1396 17.2773C65.971 17.4414 65.7409 17.5234 65.4492 17.5234C65.153 17.5234 64.9206 17.4414 64.752 17.2773C64.5879 17.1133 64.5059 16.9082 64.5059 16.6621ZM69.8379 15.5V26H68.1836V15.5H69.8379Z" fill="#212832"/>
    <g filter="url(#filter0_d_14831_175917)">
        <path fill-rule="evenodd" clip-rule="evenodd" d="M78.6727 4.8478C79.16 4.66244 80.1213 4.77595 80.3751 5.34036C80.5913 5.82147 80.777 6.63269 80.7872 6.45982C80.8116 6.07556 80.7628 5.24456 80.9263 4.81031C81.045 4.49374 81.2785 4.19591 81.6226 4.09074C81.9119 4.00118 82.252 3.96994 82.5525 4.03346C82.8702 4.10011 83.2042 4.33233 83.329 4.5531C83.6965 5.20186 83.7026 6.53063 83.7198 6.45982C83.7848 6.17657 83.7909 5.18 84.0071 4.81031C84.1502 4.56559 84.5116 4.34691 84.7045 4.3115C85.0029 4.25735 85.3704 4.24069 85.683 4.30317C85.9358 4.3542 86.2779 4.6614 86.3703 4.81031C86.5926 5.16854 86.7174 6.18074 86.755 6.53688C86.7712 6.68371 86.8301 6.12763 87.0524 5.77044C87.4646 5.10502 88.9243 4.97589 88.9791 6.43587C89.0055 7.11692 88.9994 7.08568 88.9994 7.54387C88.9994 8.08122 88.9872 8.40612 88.9588 8.79559C88.9283 9.21109 88.841 10.1535 88.7142 10.6096C88.6269 10.9231 88.3375 11.6281 88.0513 12.0509C88.0513 12.0509 86.9611 13.3526 86.8423 13.9378C86.7235 14.5241 86.7631 14.5283 86.7388 14.9427C86.7154 15.3582 86.8616 15.9039 86.8616 15.9039C86.8616 15.9039 86.0485 16.0122 85.6089 15.9393C85.212 15.8747 84.7207 15.0646 84.5938 14.8167C84.4192 14.4751 84.0467 14.5408 83.9015 14.7928C83.6742 15.1916 83.1818 15.907 82.8357 15.9518C82.1566 16.0393 80.7496 15.983 79.6482 15.9726C79.6482 15.9726 79.836 14.9198 79.4178 14.5585C79.1082 14.2877 78.5753 13.742 78.2565 13.4546L77.412 12.4955C77.1247 12.1206 76.3948 11.5281 76.1502 10.4284C75.934 9.45372 75.9553 8.97574 76.1878 8.58523C76.4233 8.18848 76.8679 7.97187 77.0547 7.93438C77.2658 7.89065 77.7571 7.89377 77.9429 7.99895C78.1692 8.12704 78.2606 8.16452 78.4382 8.40612C78.6717 8.72582 78.755 8.88098 78.6545 8.53212C78.5773 8.25929 78.3276 7.91252 78.2139 7.52201C78.1033 7.14608 77.8068 6.54001 77.8282 5.9329C77.8363 5.70276 77.9327 5.13001 78.6727 4.8478Z" fill="white"/>
        <path fill-rule="evenodd" clip-rule="evenodd" d="M78.6727 4.8478C79.16 4.66244 80.1213 4.77595 80.3751 5.34036C80.5913 5.82147 80.777 6.63269 80.7872 6.45982C80.8116 6.07556 80.7628 5.24456 80.9263 4.81031C81.045 4.49374 81.2785 4.19591 81.6226 4.09074C81.9119 4.00118 82.252 3.96994 82.5525 4.03346C82.8702 4.10011 83.2042 4.33233 83.329 4.5531C83.6965 5.20186 83.7026 6.53063 83.7198 6.45982C83.7848 6.17657 83.7909 5.18 84.0071 4.81031C84.1502 4.56559 84.5116 4.34691 84.7045 4.3115C85.0029 4.25735 85.3704 4.24069 85.683 4.30317C85.9358 4.3542 86.2779 4.6614 86.3703 4.81031C86.5926 5.16854 86.7174 6.18074 86.755 6.53688C86.7712 6.68371 86.8301 6.12763 87.0524 5.77044C87.4646 5.10502 88.9243 4.97589 88.9791 6.43587C89.0055 7.11692 88.9994 7.08568 88.9994 7.54387C88.9994 8.08122 88.9872 8.40612 88.9588 8.79559C88.9283 9.21109 88.841 10.1535 88.7142 10.6096C88.6269 10.9231 88.3375 11.6281 88.0513 12.0509C88.0513 12.0509 86.9611 13.3526 86.8423 13.9378C86.7235 14.5241 86.7631 14.5283 86.7388 14.9427C86.7154 15.3582 86.8616 15.9039 86.8616 15.9039C86.8616 15.9039 86.0485 16.0122 85.6089 15.9393C85.212 15.8747 84.7207 15.0646 84.5938 14.8167C84.4192 14.4751 84.0467 14.5408 83.9015 14.7928C83.6742 15.1916 83.1818 15.907 82.8357 15.9518C82.1566 16.0393 80.7496 15.983 79.6482 15.9726C79.6482 15.9726 79.836 14.9198 79.4178 14.5585C79.1082 14.2877 78.5753 13.742 78.2565 13.4546L77.412 12.4955C77.1247 12.1206 76.3948 11.5281 76.1502 10.4284C75.934 9.45372 75.9553 8.97574 76.1878 8.58523C76.4233 8.18848 76.8679 7.97187 77.0547 7.93438C77.2658 7.89065 77.7571 7.89377 77.9429 7.99895C78.1692 8.12704 78.2606 8.16452 78.4382 8.40612C78.6717 8.72582 78.755 8.88098 78.6545 8.53212C78.5773 8.25929 78.3276 7.91252 78.2139 7.52201C78.1033 7.14608 77.8068 6.54001 77.8282 5.9329C77.8363 5.70276 77.9327 5.13001 78.6727 4.8478Z" stroke="#080C11" stroke-width="0.75" stroke-linecap="round" stroke-linejoin="round"/>
    </g>
    <path d="M81.5 9C81.7761 9 82 9.22386 82 9.5V12.5C82 12.7761 81.7761 13 81.5 13C81.2239 13 81 12.7761 81 12.5V9.5C81 9.22386 81.2239 9 81.5 9ZM83.5 9C83.7761 9 84 9.22386 84 9.5V12.5C84 12.7761 83.7761 13 83.5 13C83.2239 13 83 12.7761 83 12.5V9.5C83 9.22386 83.2239 9 83.5 9ZM85.5 9C85.7761 9 86 9.22386 86 9.5V12.5C86 12.7761 85.7761 13 85.5 13C85.2239 13 85 12.7761 85 12.5V9.5C85 9.22386 85.2239 9 85.5 9Z" fill="#080C11"/>
    <path d="M70.5 61.5H137.5" stroke="#7A69EE" stroke-width="2" stroke-linecap="round"/>
    <path d="M96 15.5H137" stroke="#7A69EE" stroke-width="2" stroke-linecap="round"/>
    <defs>
        <filter id="filter0_d_14831_175917" x="73.625" y="2.625" width="17.75" height="16.75" filterUnits="userSpaceOnUse" color-interpolation-filters="sRGB">
            <feFlood flood-opacity="0" result="BackgroundImageFix"/>
            <feColorMatrix in="SourceAlpha" type="matrix" values="0 0 0 0 0 0 0 0 0 0 0 0 0 0 0 0 0 0 127 0" result="hardAlpha"/>
            <feOffset dy="1"/>
            <feGaussianBlur stdDeviation="1"/>
            <feColorMatrix type="matrix" values="0 0 0 0 0.027451 0 0 0 0 0.12549 0 0 0 0 0.239216 0 0 0 0.24 0"/>
            <feBlend mode="normal" in2="BackgroundImageFix" result="effect1_dropShadow_14831_175917"/>
            <feBlend mode="normal" in="SourceGraphic" in2="effect1_dropShadow_14831_175917" result="shape"/>
        </filter>
    </defs>
</svg>
