<svg width="199" height="200" viewBox="0 0 199 200" fill="none" xmlns="http://www.w3.org/2000/svg">
<g opacity="0.44">
<path d="M172.234 99.8958C172.234 140.958 138.946 174.245 97.8838 174.245C56.8216 174.245 23.5345 140.958 23.5345 99.8958C23.5345 58.8335 56.8216 25.5452 97.8838 25.5452C138.946 25.5452 172.234 58.8335 172.234 99.8958Z" fill="#8B929C" fill-opacity="0.3"/>
</g>
<mask id="mask0_3528_46593" style="mask-type:alpha" maskUnits="userSpaceOnUse" x="23" y="25" width="150" height="150">
<path d="M172.234 99.8958C172.234 140.958 138.946 174.245 97.8838 174.245C56.8216 174.245 23.5345 140.958 23.5345 99.8958C23.5345 58.8335 56.8216 25.5452 97.8838 25.5452C138.946 25.5452 172.234 58.8335 172.234 99.8958Z" fill="#232E3C"/>
</mask>
<g mask="url(#mask0_3528_46593)">
<path d="M85.7471 109.575C86.8394 109.864 87.4443 110.648 87.5135 111.681C87.6331 113.373 83.0096 114.711 81.8865 116.082C80.7724 117.455 78.7877 124.289 76.1774 126.114C76.1774 126.114 69.5388 129.965 63.3805 128.999C59.8438 128.445 57.5496 122.554 53.9982 122.988C54.4868 122.886 58.5489 117.308 62.498 116.082C64.012 115.616 66.2582 119.687 67.1788 119.198C67.2878 119.145 67.3906 119.084 67.4842 119.03C70.6226 117.148 73.844 116.362 75.4647 115.069C75.9585 114.684 76.5842 114.107 77.2894 113.467C78.9455 112.002 81.0521 110.229 83.0242 109.703C84.1313 109.413 85.04 109.393 85.7471 109.575Z" fill="#37C6AB"/>
<g opacity="0.14">
<path d="M85.7471 109.575C86.8394 109.864 87.4443 110.648 87.5135 111.681C87.6331 113.372 83.0096 114.711 81.8865 116.082C80.7725 117.455 78.6083 124.174 75.998 125.999C75.998 125.999 69.7647 129.946 63.3805 128.999C59.9777 128.494 57.3831 122.574 53.9983 122.988C54.4868 122.886 59.4314 126.726 63.3805 125.499C73.835 125.598 73.2944 121.004 80.9311 114.925C83.9942 112.489 87.0533 112.043 85.7471 109.575Z" fill="#C53434"/>
</g>
<g opacity="0.59">
<path d="M77.2902 113.467C77.3228 113.549 77.348 113.632 77.3817 113.714C77.501 114.043 77.6237 114.387 77.5641 114.727C77.5105 115.067 77.2855 115.356 77.0592 115.614C75.219 117.709 72.5306 119.043 69.7434 119.238C68.8906 119.297 68.0368 119.256 67.1797 119.198C67.2886 119.145 67.3915 119.084 67.4852 119.029C70.6234 117.148 73.8449 116.362 75.4655 115.069C75.9596 114.682 76.585 114.107 77.2902 113.467Z" fill="#01384D"/>
</g>
<path d="M66.9519 145.294C66.9519 145.294 74.2271 150.266 75.8604 155.619C77.4937 160.974 76.0909 163.779 75.3262 165.053C75.3262 165.053 81.6998 163.65 84.5054 165.053C87.3099 166.454 86.2888 169.84 82.975 170.059C79.6611 170.28 75.5815 168.749 68.9527 169.386C62.3239 170.025 60.1387 169.642 59.7026 166.71C59.2653 163.779 55.5178 145.804 66.9519 145.294Z" fill="#37C6AB"/>
<g opacity="0.14">
<path d="M66.9519 145.294C66.9519 145.294 74.2271 150.266 75.8604 155.619C77.4937 160.974 76.0909 163.779 75.3262 165.053C75.3262 165.053 81.6998 163.65 84.5054 165.053C87.3099 166.454 86.2888 169.84 82.975 170.059C79.6611 170.28 75.5815 168.749 68.9527 169.386C62.3239 170.025 60.1387 169.642 59.7026 166.71C59.2653 163.779 55.5178 145.804 66.9519 145.294Z" fill="#C53434"/>
</g>
<path d="M73.5451 160.593C73.0322 166.199 67.4268 167.729 62.9442 168.494C62.2481 168.608 61.5059 168.699 60.7188 168.761C57.9876 168.99 54.6844 168.938 50.7525 168.922C48.6796 168.922 46.4235 168.922 43.9914 168.983C43.7467 168.99 43.495 168.998 43.2421 169.006C37.736 169.166 29.4597 170.834 24.0529 169.618C23.9536 169.595 23.8543 169.573 23.7539 169.549C20.8171 168.807 18.7985 167.156 18.6378 163.843C18.6378 163.744 18.6295 163.628 18.6295 163.523C18.6224 162.704 18.6756 161.847 18.7832 160.967C19.1649 157.824 20.2203 154.329 21.5746 150.742C22.2624 148.905 23.0271 147.039 23.8224 145.181C25.6436 140.914 27.5853 136.706 29.0236 132.959C29.4597 131.827 29.8426 130.756 30.1629 129.724C30.1936 129.647 30.2173 129.564 30.2397 129.487C31.8387 124.248 32.4426 118.902 32.6648 115.1C32.848 111.858 32.7558 109.731 32.7558 109.731C32.7558 109.731 35.7387 112.882 42.6228 114.45C44.1521 114.801 45.8728 115.069 47.7933 115.208C52.6801 115.56 56.6498 114.695 59.5027 113.647C59.5181 113.647 59.5405 113.64 59.5571 113.633C59.6398 113.601 59.7166 113.571 59.8017 113.54C59.8159 113.54 59.8313 113.532 59.8466 113.525C62.9595 112.34 64.6578 111.001 64.6578 111.001C64.3895 112.461 64.3056 113.884 64.3517 115.284C64.4593 118.902 65.4071 122.351 66.2178 125.693C66.6929 127.628 67.1207 129.526 67.3122 131.399C67.8239 136.424 66.6468 141.533 66.2178 144.34C66.1575 144.73 66.1103 145.082 66.0878 145.373C66.0653 145.648 66.0654 145.877 66.0807 146.061C66.2639 147.843 74.058 154.979 73.5451 160.593Z" fill="#37C6AB"/>
<path d="M62.0407 147.171C61.4132 151.843 60.32 155.707 58.7754 158.062C57.7117 159.675 56.4342 160.587 54.9427 160.555C51.8145 160.493 49.6576 159.302 48.2584 157.06C47.3555 155.637 46.7669 153.786 46.4301 151.537C46.2162 150.123 46.1015 148.547 46.0708 146.827C46.0555 145.947 46.0625 145.036 46.0862 144.081C46.1169 143.216 46.1547 142.314 46.2162 141.381C46.2776 140.317 46.3615 139.217 46.4608 138.069C46.514 137.411 46.5601 136.746 46.5908 136.096C46.9501 127.032 44.3347 118.81 42.6211 114.451C44.1515 114.802 45.8723 115.07 47.7915 115.208C52.6795 115.56 56.6493 114.695 59.5022 113.648C59.5164 113.648 59.54 113.64 59.5554 113.633C59.67 113.594 59.7539 113.563 59.8 113.541C59.8154 113.541 59.8307 113.532 59.8461 113.525C60.1971 114.818 60.5115 116.149 60.7939 117.526C62.7983 127.162 63.2107 138.535 62.0407 147.171Z" fill="#FEF3C6"/>
<g opacity="0.14">
<path d="M64.3517 115.284C63.4795 116.018 62.2859 116.859 60.7956 117.524C60.3288 117.738 59.823 117.938 59.2888 118.106C54.8983 119.513 49.4596 119.047 47.8843 119.467C46.3172 119.888 46.7225 123.697 47.3572 127.766C47.655 129.655 47.8074 133.058 47.7011 136.554C47.6479 138.252 47.5333 139.98 47.3418 141.555C47.2343 142.458 47.1043 143.315 46.9364 144.087C46.7143 145.158 46.4389 146.076 46.1033 146.765C46.095 146.787 46.0796 146.803 46.0725 146.825C45.2003 148.653 45.6896 150.069 46.4306 151.537C47.2272 153.121 48.2979 154.765 48.2589 157.06C48.1833 161.51 47.9694 164.921 45.6057 166.963C44.0835 168.28 47.9079 167.652 50.7525 168.922C48.6796 168.922 46.4235 168.922 43.9913 168.983C43.7467 168.99 43.495 168.998 43.2421 169.006C37.736 169.166 29.4597 170.834 24.0517 169.618C23.9524 169.595 23.8532 169.573 23.7539 169.549C20.8171 168.807 18.7985 167.156 18.6366 163.843C18.6366 163.744 18.6295 163.628 18.6295 163.522C18.6224 162.704 18.6756 161.846 18.782 160.967C19.1649 157.824 20.2203 154.329 21.5746 150.742C22.2624 148.905 23.0271 147.039 23.8224 145.181C25.6436 140.914 27.5854 136.706 29.0236 132.959C29.4597 131.827 29.8414 130.756 30.1629 129.724C30.1936 129.647 30.2173 129.564 30.2397 129.487C31.8387 124.248 32.4426 118.902 32.6648 115.1C32.848 111.858 32.7558 109.731 32.7558 109.731C32.7558 109.731 35.7387 112.882 42.6228 114.45C44.1521 114.801 45.8728 115.069 47.7933 115.208C52.6801 115.559 56.6498 114.695 59.5027 113.647C59.5181 113.647 59.5405 113.639 59.5559 113.633C59.6398 113.601 59.7166 113.571 59.8005 113.539C59.8159 113.539 59.8313 113.532 59.8466 113.525C62.9595 112.34 64.6578 111.001 64.6578 111.001C64.3895 112.461 64.3056 113.883 64.3517 115.284Z" fill="#C53434"/>
</g>
<path d="M74.5707 131.692C74.7635 132.205 74.7255 132.76 74.4446 133.327C73.3202 135.584 68.3928 133.452 66.4365 134.638C64.4801 135.835 59.6531 143.123 57.3294 143.462C55.001 143.807 50.4001 142.498 44.6203 140.202C39.7148 138.24 31.8621 132.141 33.7125 127.291C34.6543 124.826 37.9851 122.971 42.5085 123.239C46.8786 123.496 52.3745 125.746 57.9105 131.35C58.2894 131.73 63.3125 127.86 68.0478 128.444C71.585 128.878 74.0404 130.135 74.5707 131.692Z" fill="#37C6AB"/>
<g opacity="0.14">
<path d="M74.5707 131.692C74.7635 132.205 74.7255 132.76 74.4446 133.327C73.3202 135.584 68.3928 133.452 66.4365 134.638C64.4801 135.835 59.6531 143.123 57.3294 143.462C55.001 143.807 50.4001 142.498 44.6203 140.202C39.7148 138.24 31.8621 132.141 33.7125 127.291C34.6543 124.826 37.9851 122.971 42.5085 123.239C36.1335 124.582 36.0027 128.75 45.6065 135.086C55.6128 141.683 58.6914 138.441 61.9781 135.227C65.2693 132.019 67.3145 132.512 71.3095 133.05C72.4689 133.209 73.5691 132.655 74.5707 131.692Z" fill="#C53434"/>
</g>
<g opacity="0.59">
<path d="M30.7198 140.623C30.429 141.281 29.779 141.694 29.1598 142.061C27.4 143.132 25.6332 144.203 23.8203 145.181C25.6415 140.914 27.5832 136.708 29.0215 132.96C29.5569 134.689 30.0237 136.448 30.5437 138.13C30.8037 138.94 31.0637 139.843 30.7198 140.623Z" fill="#01384D"/>
</g>
<path d="M49.4844 172.334C49.4998 173.396 48.6359 174.376 47.2898 174.66C44.6118 175.21 42.3179 174.361 35.8628 174.231C29.4077 174.101 24.4665 175.248 22.3026 174.231C21.4446 173.833 20.6883 173.251 20.0844 172.281C19.1507 170.796 18.5929 168.386 18.6307 164.287C18.6993 156.998 20.3207 152.004 22.8604 148.838C25.7287 145.243 29.767 143.996 34.0499 144.401C36.5057 144.632 38.7382 145.542 40.6196 146.888V146.896C44.9179 149.97 47.3891 155.37 46.4637 160.334C45.1247 167.478 37.346 168.747 37.346 168.747C39.7628 168.624 42.1879 168.365 46.4637 169.565C48.5815 170.162 49.4691 171.285 49.4844 172.334Z" fill="#37C6AB"/>
<g opacity="0.59">
<path d="M29.5338 157.518C28.7006 159.377 27.3616 160.991 26.6502 162.904C26.1845 164.165 26.0002 165.519 25.5109 166.766C24.5394 169.236 22.4748 171.041 20.0804 172.28C19.1468 170.796 18.589 168.386 18.6268 164.288C18.6965 157 20.318 152.004 22.8565 148.838C22.9263 148.862 22.9948 148.891 23.0634 148.915C24.2109 149.351 25.3584 149.794 26.4977 150.23C27.4692 150.605 28.4784 151.002 29.1899 151.759C30.5738 153.259 30.3599 155.661 29.5338 157.518Z" fill="#01384D"/>
</g>
<g opacity="0.14">
<path d="M49.4844 172.334C49.4998 173.396 48.6359 174.376 47.2898 174.66C44.6118 175.21 42.3179 174.361 35.8628 174.231C29.4077 174.101 24.4665 175.248 22.3026 174.231C21.4446 173.833 20.6883 173.251 20.0844 172.281C19.1507 170.796 18.5929 168.386 18.6307 164.287C18.6993 156.998 20.3207 152.004 22.8604 148.838C25.7287 145.243 29.767 143.996 34.0499 144.401C36.5057 144.632 38.7382 145.542 40.6196 146.888V146.896C32.1294 143.216 24.8494 146.093 23.8236 159.584C22.799 173.083 24.9794 172.602 30.8909 172.281C35.7635 172.013 44.6508 173.267 49.4844 172.334Z" fill="#C53434"/>
</g>
<path d="M43.2406 86.5628C42.3153 86.7247 41.436 86.9611 40.617 87.2601C34.4526 89.4394 31.2475 94.9147 29.8483 98.0737C29.2361 99.4813 28.9761 100.429 28.9761 100.429C26.9493 89.0564 31.3858 75.4726 36.158 74.9916C40.9455 74.5094 43.2406 86.5628 43.2406 86.5628Z" fill="#37C6AB"/>
<g opacity="0.59">
<path d="M40.6166 87.2607C34.4522 89.4399 31.2471 94.9165 29.8478 98.0743C29.251 88.4685 32.5471 77.2176 35.8515 76.6207C38.598 76.1244 40.0505 83.428 40.6166 87.2607Z" fill="#01384D"/>
</g>
<path d="M67.3119 95.0534L66.0804 93.601C64.1304 91.2763 60.2907 87.9176 53.6134 86.1732C52.8713 85.9747 52.0924 85.8069 51.2734 85.6544C51.2734 85.6544 52.0723 73.8481 57.4071 73.8457C62.1781 73.8433 67.1772 85.6544 67.3119 95.0534Z" fill="#37C6AB"/>
<g opacity="0.59">
<path d="M66.0803 93.6005C64.1303 91.2758 60.2906 87.9171 53.6133 86.1739C53.9123 82.7549 54.9286 75.7503 58.2555 76.041C62.0798 76.3766 65.7671 87.1985 66.0803 93.6005Z" fill="#01384D"/>
</g>
<path d="M68.8615 107.666C68.3486 108.73 67.7057 109.755 66.9257 110.719C66.9186 110.726 66.9186 110.734 66.9115 110.734C65.465 112.546 63.5303 114.152 61.1135 115.429C53.5652 119.453 43.3543 118.007 40.5629 117.051C38.061 116.202 31.0398 113.594 29.2576 105.9C29.0815 105.12 28.9515 104.279 28.8912 103.391C28.3937 96.1244 33.0749 87.6496 43.7136 85.6547H43.7219C45.1672 85.3793 46.7272 85.234 48.3948 85.2186C52.8609 85.1879 56.5552 86.0293 59.5452 87.314C59.576 87.3222 59.5913 87.3293 59.5913 87.3293C65.9247 90.0605 69.1061 94.7937 69.8093 97.5556C70.6886 100.959 70.3754 104.492 68.8615 107.666Z" fill="#FEF3C6"/>
<path d="M29.2586 105.9C29.0825 105.12 28.9525 104.279 28.8911 103.391C28.3947 96.1252 33.0747 87.6504 43.7134 85.6543H43.7217C46.5522 86.4201 51.1175 88.4848 53.0841 94.0133C55.8602 101.853 44.3788 112.944 29.2586 105.9Z" fill="#37C6AB"/>
<path d="M68.8651 107.666C65.7984 107.307 62.3407 105.617 60.3683 101.991C56.9117 95.6357 58.4787 89.9612 59.5951 87.3301C65.9285 90.0605 69.1097 94.794 69.8137 97.5552C70.6929 100.96 70.3792 104.491 68.8651 107.666Z" fill="#37C6AB"/>
<g opacity="0.14">
<path d="M66.9115 110.733C65.4661 112.545 63.5315 114.152 61.1135 115.43C53.5652 119.452 43.3543 118.006 40.5629 117.051C38.0621 116.201 31.0398 113.593 29.2588 105.899C29.0827 105.119 28.9527 104.278 28.8912 103.39C28.3937 96.1246 33.0749 87.6497 43.7136 85.6536H43.7219C45.1672 85.3783 46.7272 85.2329 48.3948 85.2176C52.8609 85.188 56.5552 86.0295 59.5464 87.3141C58.6742 87.0234 45.7487 82.8917 37.3507 90.4034C28.662 98.1821 34.8417 113.831 45.1141 115.642C53.3584 117.097 60.525 115.911 66.9115 110.733Z" fill="#C53434"/>
</g>
<path d="M42.7594 103.367C42.7594 103.367 31.2744 98.3883 17.7105 99.7259" stroke="#014D5D" stroke-width="0.579091" stroke-miterlimit="10" stroke-linecap="round" stroke-linejoin="round"/>
<path d="M42.7591 104.963C42.7591 104.963 28.4796 104.559 18.6264 107.355" stroke="#014D5D" stroke-width="0.579091" stroke-miterlimit="10" stroke-linecap="round" stroke-linejoin="round"/>
<path d="M68.457 100.361C68.457 100.361 74.4192 96.6659 83.8834 96.8927" stroke="#014D5D" stroke-width="0.579091" stroke-miterlimit="10" stroke-linecap="round" stroke-linejoin="round"/>
<path d="M68.457 101.958C68.457 101.958 76.1714 99.1011 84.4451 102.112" stroke="#014D5D" stroke-width="0.579091" stroke-miterlimit="10" stroke-linecap="round" stroke-linejoin="round"/>
<path d="M57.3918 100.71C56.919 100.71 56.6189 100.495 56.438 100.233C56.4049 100.29 56.3648 100.347 56.3163 100.4C56.1308 100.606 55.8684 100.71 55.5387 100.71C54.6322 100.71 54.3616 99.9218 54.3439 99.5046C54.3403 99.3947 54.4254 99.3037 54.5353 99.2978H54.5448C54.6511 99.2978 54.7386 99.3817 54.7445 99.488C54.748 99.5731 54.8036 100.309 55.5387 100.309C55.7538 100.309 55.9121 100.251 56.0209 100.132C56.2277 99.904 56.1958 99.5199 56.1958 99.5164C56.1899 99.4597 56.2088 99.4053 56.2466 99.3628C56.3565 99.2422 56.5893 99.3261 56.5964 99.488C56.6011 99.5731 56.6567 100.309 57.3918 100.309C57.6069 100.309 57.764 100.251 57.8739 100.132C58.0796 99.904 58.0489 99.5199 58.0477 99.5164C58.037 99.4065 58.1174 99.3084 58.2285 99.2989C58.3349 99.2824 58.4341 99.3675 58.4459 99.4774C58.4483 99.501 58.4968 100.04 58.1694 100.4C57.9827 100.606 57.7215 100.71 57.3918 100.71Z" fill="#01384D"/>
<path d="M56.3989 99.6983C56.289 99.6983 56.1992 99.6085 56.1992 99.4974V97.2956C56.1992 97.1845 56.289 97.0947 56.3989 97.0947C56.51 97.0947 56.5987 97.1845 56.5987 97.2956V99.4974C56.5987 99.6085 56.51 99.6983 56.3989 99.6983Z" fill="#01384D"/>
<path d="M56.3643 102.559C55.699 102.559 55.3161 102.126 55.3101 102.119C55.2381 102.035 55.2475 101.909 55.3314 101.838C55.4153 101.766 55.5406 101.774 55.6127 101.858C55.6399 101.889 56.2402 102.54 57.2991 101.824C57.3901 101.761 57.5154 101.786 57.5769 101.877C57.6395 101.968 57.6147 102.092 57.5237 102.154C57.0781 102.456 56.687 102.559 56.3643 102.559Z" fill="#01384D"/>
<path d="M54.9414 96.2196C54.9414 94.987 57.8463 94.8274 57.8463 96.2196C57.8463 97.613 54.9414 97.6921 54.9414 96.2196Z" fill="#01384D"/>
<path d="M46.5543 91.799C53.7965 91.8487 53.8521 102.665 46.5543 102.665C39.2566 102.665 38.8146 91.7458 46.5543 91.799Z" fill="#FDE047"/>
<path d="M63.0144 91.7736C68.5453 91.8126 68.5878 100.428 63.0144 100.428C57.4409 100.428 57.1041 91.731 63.0144 91.7736Z" fill="#FDE047"/>
<path d="M48.8958 94.2267C53.3016 94.255 53.3347 100.61 48.8958 100.61C44.4569 100.61 44.1875 94.1959 48.8958 94.2267Z" fill="#01384D"/>
<path d="M64.2193 93.5968C67.4611 93.6192 67.4847 98.3394 64.2193 98.3394C60.954 98.3394 60.7554 93.5731 64.2193 93.5968Z" fill="#01384D"/>
</g>
<rect x="88.5" y="62.5" width="75" height="20" rx="10" fill="#8B929C" fill-opacity="0.1"/>
<rect x="88.5" y="62.5" width="75" height="20" rx="10" stroke="#C0C5CB"/>
<rect x="88.5" y="87.5" width="75" height="20" rx="10" fill="#7A69EE" fill-opacity="0.1"/>
<rect x="88.5" y="87.5" width="75" height="20" rx="10" stroke="#7A69EE"/>
<rect x="88.5" y="112.5" width="42" height="20" rx="10" fill="#8B929C" fill-opacity="0.1"/>
<rect x="88.5" y="112.5" width="42" height="20" rx="10" stroke="#C0C5CB"/>
</svg>
