<svg width="200" height="200" viewBox="0 0 200 200" fill="none" xmlns="http://www.w3.org/2000/svg">
<g>
<g opacity="0.44">
<path d="M179.04 108.84C179.04 152.002 144.05 186.991 100.888 186.991C57.726 186.991 22.738 152.002 22.738 108.84C22.738 65.6777 57.726 30.6871 100.888 30.6871C144.05 30.6871 179.04 65.6777 179.04 108.84Z" fill="#8B929C" fill-opacity="0.3"/>
</g>
<path d="M63.2509 130.137C63.2509 130.951 63.2213 131.786 63.0856 132.561C62.9468 133.357 62.4258 134.059 62.1553 134.802C61.8792 135.558 61.4399 136.206 61.0415 136.894C60.6404 137.588 60.1837 138.196 59.6706 138.806C59.1564 139.418 58.7943 140.162 58.1818 140.676C57.5717 141.189 56.8275 141.505 56.1338 141.906C55.446 142.304 54.7988 142.783 54.0424 143.059C53.2994 143.329 52.4913 143.351 51.6946 143.491C50.9196 143.626 50.1526 143.733 49.3397 143.733C48.5261 143.733 47.7267 143.811 46.9517 143.675C46.1551 143.536 45.4314 143.186 44.6891 142.914C43.9319 142.64 43.2532 142.268 42.5654 141.87C41.8713 141.468 41.004 141.31 40.3939 140.797C39.7818 140.284 39.5255 139.416 39.0104 138.803C38.4981 138.193 37.6845 137.791 37.283 137.097C36.8851 136.41 36.8578 135.537 36.5826 134.78C36.3116 134.037 35.6952 133.364 35.5556 132.568C35.4207 131.793 35.5875 130.951 35.5875 130.137C35.5875 129.324 35.6076 128.515 35.7429 127.74C35.8821 126.942 35.9886 126.119 36.2592 125.376C36.5348 124.62 37.1883 124.04 37.5863 123.352C37.9878 122.658 38.1506 121.789 38.6637 121.179C39.1776 120.567 39.7404 119.941 40.3525 119.426C40.9626 118.913 41.8125 118.703 42.5062 118.301C43.1944 117.903 43.9276 117.621 44.684 117.345C45.4274 117.075 46.1389 116.647 46.936 116.508C47.7109 116.372 48.5261 116.632 49.3397 116.632C50.1526 116.632 50.9812 116.297 51.7561 116.433C52.5524 116.572 53.228 117.141 53.971 117.411C54.7278 117.687 55.4906 117.893 56.1788 118.291C56.8725 118.693 57.4759 119.201 58.086 119.713C58.6981 120.227 59.2483 120.779 59.7625 121.391C60.2748 122.001 60.6744 122.668 61.0754 123.362C61.4738 124.049 61.7412 124.766 62.0168 125.523C62.2874 126.266 62.8585 126.932 62.9973 127.729C63.1333 128.504 63.2509 129.324 63.2509 130.137Z" fill="#9C8EF4"/>
<path d="M43.4515 142.359C41.5865 130.645 42.6036 121.937 43.3501 117.877C43.1194 117.981 42.893 118.092 42.6702 118.214C42.3488 120.065 42.0006 122.71 41.8531 126.038C40.5496 124.176 39.7372 122.203 39.2324 120.528C39.0671 120.71 38.9058 120.893 38.7492 121.079C39.3365 122.907 40.2846 125.038 41.8172 127.024C41.7832 128.14 41.773 129.327 41.7931 130.579C39.766 129.006 37.8654 126.977 36.3502 125.165C36.3175 125.235 36.2847 125.304 36.2587 125.376C36.2043 125.526 36.1601 125.681 36.1167 125.836C36.6764 126.495 37.2809 127.177 37.9238 127.854C37.139 128.393 36.3423 129.06 35.5902 129.75C35.589 129.879 35.5875 130.008 35.5875 130.137C35.5875 130.292 35.58 130.45 35.5713 130.607C36.4555 129.763 37.421 128.928 38.3529 128.298C38.8865 128.843 39.4426 129.377 40.0136 129.888C39.2525 132.963 38.9208 136.095 38.7839 138.563C38.8632 138.64 38.9401 138.719 39.0099 138.803C39.1393 138.957 39.2529 139.127 39.359 139.304C39.4647 136.855 39.7616 133.58 40.533 130.342C40.9511 130.697 41.3774 131.037 41.8073 131.356C41.8897 134.522 42.1784 138.093 42.7771 141.99C43.0007 142.118 43.2251 142.241 43.4515 142.359Z" fill="#7A69EE"/>
<path d="M52.2633 130.101C53.3865 129.418 54.727 128.633 56.1882 127.839C56.7084 128.509 58.4757 130.884 60.3376 134.43C57.8865 133.487 55.0145 132.099 52.2633 130.101ZM48.8586 131.539C48.5734 131.033 48.3064 130.543 48.0576 130.069C49.6687 127.118 51.3263 124.692 52.9022 122.715C53.2303 122.682 54.2214 122.601 55.8711 122.603C55.6097 123.58 54.8394 126.267 53.7324 128.519C51.3531 129.898 49.5338 131.089 48.8586 131.539ZM61.1894 134.747C59.2727 130.978 57.3765 128.383 56.7345 127.546C57.1971 127.299 57.6688 127.052 58.1495 126.809C58.7261 127.206 60.9181 128.74 63.2454 130.677C63.2489 130.497 63.2513 130.316 63.2513 130.137C63.2513 130.053 63.2454 129.968 63.243 129.884C61.3251 128.313 59.559 127.047 58.773 126.497C59.7834 125.998 60.8203 125.519 61.8548 125.084C61.7838 124.893 61.71 124.705 61.6335 124.519C59.1962 125.542 56.7546 126.805 54.6521 127.992C55.6432 125.753 56.3077 123.352 56.5026 122.608C57.6534 122.624 59.0724 122.682 60.7521 122.813C60.6195 122.592 60.4815 122.378 60.3391 122.166C56.8102 121.909 54.5243 121.982 53.4374 122.055C53.8326 121.579 54.2206 121.131 54.6008 120.71C55.0354 120.651 56.5925 120.45 58.6965 120.272C58.4974 120.083 58.3002 119.892 58.0868 119.713C58.0868 119.713 58.0856 119.712 58.0852 119.711C56.8855 119.82 55.8976 119.931 55.2472 120.01C55.7394 119.492 56.2115 119.025 56.6639 118.598C56.5065 118.491 56.346 118.387 56.1796 118.291C56.1539 118.277 56.1283 118.266 56.1034 118.253C53.6744 120.574 50.6455 124.142 47.7196 129.416C47.5354 129.052 47.3591 128.699 47.197 128.363C47.2665 127.6 47.8848 122.232 51.895 116.466C51.8484 116.455 51.8035 116.441 51.7565 116.433C51.5723 116.401 51.3858 116.396 51.1973 116.406C48.06 121.037 47.0349 125.381 46.7167 127.336C46.0032 125.773 45.5966 124.684 45.485 124.373C45.6392 121 46.0581 118.304 46.3759 116.652C46.1484 116.728 45.9255 116.819 45.7043 116.915C45.2338 119.482 44.6197 124.074 44.8773 129.633L44.8635 129.637C44.865 129.642 44.8717 129.667 44.8816 129.704C45.0847 133.975 45.8056 138.811 47.5015 143.737C47.7192 143.752 47.9377 143.756 48.1586 143.754C46.7467 139.719 45.9957 135.74 45.6585 132.084C46.6607 134.791 48.6996 139.313 52.246 143.408C52.4897 143.376 52.7326 143.347 52.9736 143.31C47.7448 137.436 45.7394 130.53 45.487 129.6C45.427 128.318 45.4132 127.09 45.4357 125.925C46.6997 128.986 50.1226 136.295 55.9737 142.003C56.0273 141.971 56.0806 141.937 56.1342 141.906C56.2643 141.831 56.3973 141.76 56.5298 141.688C53.3877 138.656 50.9437 135.145 49.163 132.072C49.3796 131.927 49.7373 131.691 50.205 131.39C53.0485 135.329 56.6225 137.784 59.3528 139.222C59.4549 139.08 59.559 138.939 59.671 138.806C59.6916 138.782 59.7109 138.757 59.731 138.733C57.0638 137.342 53.534 134.944 50.7217 131.059C51.0186 130.871 51.3432 130.667 51.6989 130.448C55.209 133.04 58.9414 134.644 61.7897 135.6C61.8847 135.42 61.9723 135.234 62.052 135.044C61.7719 134.951 61.4864 134.854 61.1894 134.747Z" fill="#7A69EE"/>
<path d="M41.5 140.5C41.5 140.5 23.5 142.5 24 146C24.5 149.5 49 148 49 148C49 148 76.5 146.5 77 148C77.5 149.5 65.5 150.5 65.5 150.5C65.5 150.5 51.5 150.5 52 153C52.5 155.5 65.9999 156 70.5 156C75 156 110.6 155.5 113 145.5C114.5 142.833 114.4 136.5 102 132.5" stroke="#7A69EE" stroke-width="1.5" stroke-linecap="round"/>
<g opacity="0.14">
<path d="M108.411 104.279C113.793 110.406 111.963 112.804 115.576 118.822C119.185 124.834 127.836 131.743 139.011 128.853C146.176 127.002 151.162 124.009 153.811 122.091C153.391 119.986 152.633 117.607 151.416 115.433C151.408 115.422 151.405 115.416 151.397 115.405C146.245 106.253 129.065 98.1795 129.065 98.1795C129.065 98.1795 125.545 97.0472 121.259 95.2262C118.333 93.9791 115.047 92.4118 112.282 90.673C100.318 89.0491 103.476 98.6497 108.411 104.279Z" fill="#C53434"/>
</g>
<path d="M84.1245 125.007C86.4269 127.444 89.1523 129.372 92.3725 130.53C94.4134 131.264 96.6474 131.97 99.0158 132.62C102.929 133.702 107.225 134.654 111.635 135.386C119.802 136.739 128.38 137.313 135.751 136.516C149.508 135.026 152.905 132.83 152.905 132.83C152.905 132.83 160.707 135.551 163.881 135.195C166.972 134.85 175.322 134.45 174.404 130.96C174.383 130.866 174.355 130.769 174.316 130.673C172.856 126.915 166.687 130.032 162.342 128.035C160.102 127.005 158.015 126.202 156.517 125.665C155.503 125.308 154.762 125.071 154.419 124.961C154.28 124.92 154.21 124.896 154.21 124.896C154.141 124.065 154.02 123.107 153.809 122.091C153.39 119.986 152.632 117.608 151.414 115.433C151.406 115.421 151.403 115.416 151.396 115.406C146.243 106.254 129.064 98.1793 129.064 98.1793C129.064 98.1793 126.46 97.3388 123.002 95.9454C122.439 95.7211 121.859 95.4808 121.257 95.2257C118.332 93.979 115.044 92.4113 112.28 90.6725C110.247 89.3907 108.497 88.0141 107.359 86.5979C105.247 83.951 103.415 81.4861 101.134 79.6364C98.0894 77.1654 94.2286 75.812 87.7939 76.6343C85.562 76.9198 83.5791 77.5716 81.8519 78.5364C74.8384 82.402 71.9434 91.205 73.5361 100.471C74.982 108.831 78.0994 118.642 84.1245 125.007Z" fill="#37C6AB"/>
<g opacity="0.14">
<path d="M111.636 135.385C119.803 136.739 128.38 137.311 135.752 136.515C149.508 135.025 152.907 132.829 152.907 132.829C152.907 132.829 160.707 135.55 163.881 135.194C166.973 134.849 175.323 134.449 174.404 130.959C166.979 134.633 155.409 133.204 156.029 129.931C156.311 128.424 156.456 126.921 156.518 125.664C155.505 125.308 154.763 125.07 154.421 124.961C154.281 124.921 154.211 124.897 154.211 124.897C154.142 124.064 154.02 123.106 153.809 122.089C153.39 119.985 152.632 117.607 151.415 115.432C151.407 115.421 151.405 115.416 151.396 115.405C146.244 106.252 129.065 98.1782 129.065 98.1782C129.065 98.1782 126.462 97.338 123.003 95.9443C120.026 106.225 115.245 122.774 111.636 135.385Z" fill="#C53434"/>
</g>
<path d="M84.1247 125.007C86.4272 127.444 89.1526 129.373 92.3727 130.53C104.017 134.705 121.988 138.009 135.752 136.517C140.685 135.983 144.285 135.358 146.875 134.775C151.401 133.759 154.64 129.67 154.423 125.036C154.422 125.01 154.421 124.986 154.42 124.962C154.152 119.75 151.667 115.816 151.414 115.433C151.406 115.422 151.404 115.416 151.396 115.406C151.396 115.406 137.915 113.723 140.401 123.657C142.887 133.584 134.491 136.104 116.223 133.001C97.9499 129.899 95.8492 128.096 89.8591 122.498C83.8742 116.899 78.8785 116.93 84.1247 125.007Z" fill="#FEF3C6"/>
<g opacity="0.59">
<path d="M87.1358 87.9016C87.6755 89.7464 87.4494 91.7564 88.0185 93.5872C88.5443 95.2727 89.7011 96.6913 90.9741 97.9159C91.7925 98.692 92.6799 99.4262 93.7313 99.8315C95.9143 100.684 98.516 100.06 100.592 101.139C101.733 101.727 102.568 102.76 103.583 103.544C107.056 106.244 112.713 105.413 115.265 101.829C116.23 100.469 116.771 98.835 117.799 97.5195C118.683 96.392 119.95 95.7733 121.259 95.2264C116.19 93.0643 110.041 89.9494 107.362 86.5975C102.418 80.4165 99.0482 75.1938 87.796 76.635C85.5631 76.919 83.5811 77.5724 81.853 78.5356C81.8749 78.6366 81.8978 78.7431 81.9265 78.8472C82.8377 82.2332 86.1585 84.5364 87.1358 87.9016Z" fill="#01384D"/>
</g>
<g opacity="0.14">
<path d="M84.1248 125.007C86.4273 127.444 89.1527 129.373 92.3728 130.53C94.4137 131.265 96.6477 131.97 99.0161 132.62C100.018 126.79 100.448 119.487 98.266 113.336C93.8273 100.835 78.7224 101.871 82.777 89.1772C86.8258 76.4908 101.134 79.6366 101.134 79.6366C98.0898 77.1657 94.2289 75.8122 87.7943 76.6345C85.5623 76.92 83.5795 77.5719 81.8523 78.5366C74.8388 82.4023 71.9437 91.2052 73.5365 100.471C74.9824 108.831 78.0998 118.642 84.1248 125.007Z" fill="#C53434"/>
</g>
<path d="M108.822 126.995C110.026 132.111 113.261 139.07 116.272 140.864C119.289 142.659 130.099 143.919 136.05 144.269C140.841 144.555 148.806 144.765 151.517 142.679C152.171 142.179 152.524 141.543 152.456 140.744C152.18 137.546 146.21 139.317 143.74 139.197C141.271 139.076 135.213 135.792 133.152 134.633C132.419 134.216 131.685 132.107 130.677 129.419C128.761 124.262 125.845 116.96 120.02 115.352C111.158 112.912 107.613 121.88 108.822 126.995Z" fill="#37C6AB"/>
<g opacity="0.14">
<path d="M108.823 126.995C110.027 132.111 113.261 139.07 116.272 140.864C119.289 142.659 130.099 143.919 136.05 144.269C140.841 144.555 148.806 144.765 151.517 142.679C134.64 144.741 116.697 136.501 114.289 131.638C111.706 126.408 118.001 124.567 122.108 127.586C125.505 130.088 129.43 129.649 130.677 129.419C128.761 124.262 125.845 116.96 120.02 115.352C111.158 112.912 107.613 121.88 108.823 126.995Z" fill="#C53434"/>
</g>
<path d="M85.3372 131.227C90.0462 134.287 98.6132 136.844 103.53 137.741C105.686 138.138 107.168 137.669 107.821 136.857C108.656 135.832 108.142 134.228 105.962 133.146C102.082 131.213 96.8773 132.005 97.6958 127.27C98.5161 122.533 97.8588 116.592 92.7916 110.501C92.4061 110.044 91.9307 109.533 91.3784 109.027C91.3707 109.022 91.3699 109.015 91.3633 109.011C90.8907 108.572 90.3528 108.127 89.7682 107.712C89.7616 107.712 89.7538 107.708 89.7531 107.701C86.6677 105.498 82.2025 103.996 77.5913 107.214C71.0759 111.76 80.6279 128.169 85.3372 131.227Z" fill="#37C6AB"/>
<g opacity="0.14">
<path d="M85.3383 131.227C90.0473 134.287 98.6143 136.844 103.531 137.741C105.687 138.138 107.169 137.669 107.822 136.857C100.057 135.823 87.6983 132.571 82.0517 120.814C76.9875 110.283 84.6889 104.863 89.7541 107.701C86.6688 105.499 82.2036 103.996 77.5924 107.214C71.077 111.76 80.629 128.169 85.3383 131.227Z" fill="#C53434"/>
</g>
<path d="M134.72 88.4713C136.745 92.2238 138.469 96.1545 138.469 96.1545C138.469 96.1545 139.389 96.0973 140.903 96.2382C143.659 96.4841 148.387 97.3856 153.091 100.47C153.671 100.845 154.245 101.254 154.82 101.703C154.82 101.703 151.023 90.0759 141.401 85.2585C133.366 81.2394 133.119 85.5139 134.72 88.4713Z" fill="#37C6AB"/>
<g opacity="0.59">
<path d="M140.903 96.2378C143.659 96.4847 148.388 97.3857 153.091 100.47C151.712 97.3971 149.304 92.9158 145.862 89.6259C140.394 84.4168 135.696 83.7162 135.701 85.8176C135.712 87.5401 139.076 91.0773 140.903 96.2378Z" fill="#01384D"/>
</g>
<path d="M115.312 92.0002C106.979 96.167 92.3124 109.8 100.312 131" stroke="#7A69EE" stroke-width="1.5" stroke-linecap="round"/>
<path d="M115.311 101C106.978 105.167 95.9999 115.5 99.9999 130.5" stroke="#7A69EE" stroke-width="1.5" stroke-linecap="round"/>
<path d="M111.677 104.915C116.607 111.845 118.521 117.647 118.521 117.647C118.501 116.498 118.546 115.416 118.643 114.404C119.288 107.581 122.285 103.748 124.688 101.733C126.427 100.281 127.856 99.7745 127.856 99.7745C121.349 93.8487 110.078 91.2774 107.765 93.4394C105.461 95.5985 106.746 97.9865 111.677 104.915Z" fill="#37C6AB"/>
<g opacity="0.59">
<path d="M110.03 99.8296C112.373 103.082 116.712 108.893 118.64 114.403C119.286 107.581 122.283 103.747 124.687 101.734C122.44 99.9851 117.338 96.2556 113.215 95.0435C107.764 93.4383 107.187 95.8925 110.03 99.8296Z" fill="#01384D"/>
</g>
<path d="M117.976 116.84C118.216 117.686 118.516 118.477 118.853 119.192C122.178 126.274 129.52 127.342 132.126 127.642C135.028 127.989 145.221 127.264 151.695 121.796C152.35 121.245 152.962 120.664 153.511 120.064C153.517 120.063 153.517 120.063 153.523 120.055C155.634 117.784 156.97 115.248 157.588 112.66C158.391 109.271 157.959 105.78 156.399 102.67C155.144 100.139 151.077 96.2173 144.37 94.8907C141.199 94.2624 137.428 94.2074 133.082 95.1727C131.474 95.538 129.991 95.9997 128.647 96.5692L128.641 96.5703C118.746 100.722 115.976 109.902 117.976 116.84Z" fill="#FEF3C6"/>
<path d="M118.85 119.195C118.517 118.476 118.215 117.687 117.971 116.841C115.978 109.905 118.747 100.72 128.639 96.5711L128.647 96.5694C131.548 96.7215 136.401 97.7726 139.457 102.72C143.779 109.737 134.966 122.871 118.85 119.195Z" fill="#37C6AB"/>
<path d="M157.586 112.662C154.541 112.951 150.839 112.035 148.172 108.933C143.501 103.496 143.839 97.6696 144.371 94.8899C151.077 96.2153 155.143 100.139 156.4 102.669C157.961 105.782 158.394 109.271 157.586 112.662Z" fill="#37C6AB"/>
<g opacity="0.14">
<path d="M117.975 116.84C118.215 117.686 118.515 118.476 118.852 119.192C122.177 126.274 129.52 127.342 132.125 127.642C135.027 127.988 145.221 127.264 151.694 121.795C152.35 121.244 152.962 120.664 153.511 120.064C134.984 131.699 117.527 119.211 122.383 106.885C127.243 94.5572 144.369 94.8905 144.369 94.8905C141.199 94.2622 137.427 94.2072 133.082 95.1725C131.474 95.5378 129.991 95.9995 128.646 96.569L128.641 96.5701C118.745 100.722 115.976 109.902 117.975 116.84Z" fill="#C53434"/>
</g>
<path d="M131.401 113.928C131.401 113.928 119.238 111.498 106.376 115.615" stroke="#014D5D" stroke-width="0.472056" stroke-miterlimit="10" stroke-linecap="round" stroke-linejoin="round"/>
<path d="M131.734 115.478C131.734 115.478 117.816 118.059 108.852 122.821" stroke="#014D5D" stroke-width="0.472056" stroke-miterlimit="10" stroke-linecap="round" stroke-linejoin="round"/>
<path d="M155.672 105.669C155.672 105.669 160.677 100.847 169.894 99.0979" stroke="#014D5D" stroke-width="0.472056" stroke-miterlimit="10" stroke-linecap="round" stroke-linejoin="round"/>
<path d="M156.003 107.215C156.003 107.215 162.881 102.842 171.524 104.037" stroke="#014D5D" stroke-width="0.472056" stroke-miterlimit="10" stroke-linecap="round" stroke-linejoin="round"/>
<path d="M141.718 104.471C141.462 103.276 144.241 102.517 144.532 103.866C144.821 105.215 142.024 105.897 141.718 104.471Z" fill="#01384D"/>
<path d="M143.231 108.696C143.549 108.628 143.782 108.472 143.919 108.235C143.955 108.173 143.982 108.11 144.003 108.047C144.231 108.264 144.567 108.409 145.025 108.31C145.345 108.242 145.577 108.086 145.715 107.849C145.956 107.43 145.797 106.918 145.79 106.897C145.757 106.793 145.644 106.737 145.542 106.769C145.438 106.802 145.38 106.914 145.413 107.017C145.415 107.021 145.526 107.387 145.37 107.652C145.29 107.79 145.15 107.879 144.942 107.924C144.23 108.077 144.022 107.374 144.002 107.293C143.96 107.137 143.72 107.104 143.638 107.244C143.61 107.292 143.602 107.35 143.617 107.403C143.619 107.406 143.73 107.773 143.576 108.038C143.496 108.176 143.355 108.265 143.146 108.31C142.436 108.461 142.227 107.759 142.206 107.678C142.178 107.576 142.075 107.512 141.973 107.535C141.97 107.535 141.967 107.536 141.964 107.536C141.858 107.565 141.796 107.673 141.823 107.778C141.925 108.178 142.352 108.885 143.231 108.696Z" fill="#01384D"/>
<path d="M143.852 107.536C143.959 107.513 144.025 107.407 144.003 107.3L143.545 105.167C143.523 105.061 143.418 104.991 143.31 105.014C143.204 105.037 143.135 105.143 143.158 105.25L143.616 107.384C143.639 107.49 143.744 107.558 143.852 107.536Z" fill="#01384D"/>
<path d="M144.412 110.316C144.725 110.248 145.083 110.069 145.453 109.683C145.528 109.604 145.524 109.478 145.446 109.402C145.366 109.326 145.241 109.331 145.165 109.409C144.287 110.326 143.568 109.814 143.539 109.792C143.452 109.728 143.328 109.746 143.262 109.833C143.198 109.92 143.213 110.043 143.3 110.109C143.308 110.114 143.767 110.454 144.412 110.316Z" fill="#01384D"/>
<path d="M132.668 101.933C139.696 100.474 142 110.941 134.93 112.46C127.86 113.979 125.159 103.494 132.668 101.933Z" fill="#FDE047"/>
<path d="M148.608 98.4827C153.974 97.3703 155.808 105.708 150.409 106.868C145.009 108.028 142.873 99.6726 148.608 98.4827Z" fill="#FDE047"/>
<path d="M134.747 104.392C139.021 103.503 140.377 109.654 136.075 110.576C131.775 111.501 130.179 105.342 134.747 104.392Z" fill="#01384D"/>
<path d="M150.429 100.384C153.573 99.7304 154.579 104.298 151.416 104.977C148.251 105.658 147.068 101.082 150.429 100.384Z" fill="#01384D"/>
<path d="M52.2984 60.8113C57.66 62.2415 61.9252 64.8312 65.5908 72.2888C69.2561 79.7527 70.8323 83.0134 79.0237 86.8519L81.2 80.9712C81.2 80.9712 78.8731 80.1998 76.2613 77.7033C74.4534 75.974 72.5045 73.4082 71.1007 69.6909C67.6875 60.629 59.8302 57.0125 53.8492 56.0028C53.4703 55.9385 53.1132 55.8982 52.7815 55.8787C47.7691 55.5401 47.278 59.4751 52.2984 60.8113Z" fill="#37C6AB"/>
<g opacity="0.14">
<path d="M52.2982 60.8126C57.6599 62.2428 61.9251 64.8325 65.5907 72.2901C69.256 79.754 70.8322 83.0147 79.0236 86.8532L81.1999 80.9725C81.1999 80.9725 78.873 80.2011 76.2612 77.7046C73.0113 80.0323 70.8256 76.7999 68.4948 72.1602C65.7978 66.8039 61.1711 61.1143 54.8487 58.2872C52.8838 57.4083 52.4528 56.5881 52.7814 55.88C47.769 55.5414 47.2779 59.4764 52.2982 60.8126Z" fill="#C53434"/>
</g>
</g>
<defs>
<clipPath id="clip0_10147_39371">
<rect width="200" height="200" fill="white"/>
</clipPath>
</defs>
</svg>
