<svg xmlns="http://www.w3.org/2000/svg" width="200" height="200" viewBox="0 0 174 155" fill="none">
    <g>
        <g opacity="0.44">
            <path d="M163.646 75.5937C163.646 117.288 129.847 151.087 88.153 151.087C46.459 151.087 12.661 117.288 12.661 75.5937C12.661 33.8997 46.459 0.0993195 88.153 0.0993195C129.847 0.0993195 163.646 33.8997 163.646 75.5937Z" fill="#8B929C" fill-opacity="0.3"/>
        </g>
        <g opacity="0.59">
            <path d="M119.825 91.3123C118.217 93.9127 115.867 96.0499 113.094 97.3207C110.725 98.3995 108.086 98.8903 105.881 100.268C104.118 101.366 102.712 102.984 100.853 103.909C98.1384 105.256 94.806 104.89 92.1 103.533C90.6264 102.801 89.25 101.742 88.4592 100.287C87.8916 99.2287 87.6696 98.0347 87.324 96.8779C86.37 93.7483 84.4056 90.9367 81.7968 88.9627C81.0252 88.3843 79.9752 87.7783 79.0032 87.0751C79.2528 86.9791 79.5036 86.8915 79.7532 86.8051C99.15 80.0743 112.66 84.0223 119.825 91.3123Z" fill="#01384D"/>
        </g>
        <path d="M144.363 63.6055C138.748 66.4951 134.627 70.4143 132.354 79.6015C130.081 88.7983 129.118 92.8135 120.933 99.0739L117.081 93.0547C117.081 93.0547 119.074 91.8703 121.164 89.0863C122.964 86.6887 124.842 83.1067 125.584 78.0511C127.192 67.1299 135.06 61.1983 141.474 58.6267C147.897 56.0551 149.987 60.7159 144.363 63.6055Z" fill="#37C6AB"/>
        <g opacity="0.14">
            <path d="M144.363 63.6055C138.748 66.4951 134.627 70.4143 132.354 79.6015C130.081 88.7983 129.118 92.8135 120.933 99.0739L117.081 93.0547C117.081 93.0547 119.074 91.8703 121.164 89.0863C125.988 93.5743 127.636 91.8991 129.783 82.6639C132.113 72.6295 132.97 69.9427 138.017 64.9735C143.063 60.0043 145.721 57.9619 141.474 58.6267C147.897 56.0551 149.987 60.7159 144.363 63.6055Z" fill="#C53434"/>
        </g>
        <path d="M126.71 134.06C125.265 138.721 126.064 140.965 123.985 142.41C121.895 143.854 115.953 145.298 113.709 144.171C113.236 143.931 112.9 143.642 112.68 143.314C111.86 142.092 112.698 140.378 114.355 139.357C116.435 138.076 116.435 137.594 115.154 135.351C114.134 133.56 108.759 128.234 105.63 125.403C105.611 125.384 105.601 125.374 105.582 125.364C104.791 124.641 104.146 124.083 103.761 123.794C101.835 122.35 99.5829 122.186 90.4341 124.43C89.0949 124.758 87.5733 125.095 85.9353 125.403C84.6453 125.653 83.2689 125.875 81.8529 126.067C77.8185 126.607 73.3977 126.866 69.2769 126.423C64.1721 125.894 59.5305 124.305 56.5929 120.906C52.1433 115.735 50.7861 108.859 50.4009 104.361C50.1609 101.587 50.2845 99.7196 50.2845 99.7196C50.2845 99.7196 51.6045 98.2268 58.8657 94.9232C63.1713 92.9684 69.5649 90.368 79.0029 87.0752C79.2525 86.9792 79.5033 86.8916 79.7529 86.8052C99.1485 80.0744 112.659 84.0224 119.825 91.3124C122.289 93.8156 124.004 96.7244 124.947 99.7196C128.635 111.429 123.503 121.224 122.858 122.148C122.213 123.073 125.583 125.392 126.71 126.202C127.836 127.002 128.155 129.409 126.71 134.06Z" fill="#37C6AB"/>
        <path d="M105.63 125.403C104.821 124.662 104.156 124.094 103.762 123.795C101.837 122.35 99.5832 122.186 90.4344 124.43C81.2856 126.684 63.798 129.246 56.5944 120.906C49.4004 112.556 50.286 99.7195 50.286 99.7195C50.286 99.7195 51.6048 98.2267 58.866 94.9243C59.868 101.019 64.5096 119.876 83.1252 118.45C105.294 116.755 105.63 125.403 105.63 125.403Z" fill="#FEF3C6"/>
        <path d="M88.1509 115.281C88.1125 115.561 88.0753 115.858 88.0261 116.167C87.6505 118.69 86.8897 121.983 85.9357 125.403C83.7301 133.27 80.4949 141.822 78.5497 143.257C77.2693 144.201 74.8321 144.682 72.5029 144.75C69.6037 144.836 66.8593 144.297 66.6853 143.257C66.3589 141.379 69.7285 138.876 70.1905 134.06C70.3933 131.98 69.8641 129.351 69.2761 126.423C68.5057 122.581 67.6489 118.228 68.2069 113.962C68.4961 111.795 68.9293 105.979 75.3529 103.706C81.7669 101.443 89.1145 107.298 88.1509 115.281Z" fill="#37C6AB"/>
        <g opacity="0.14">
            <path d="M105.581 125.364C104.791 124.641 104.147 124.083 103.761 123.794C101.836 122.349 99.5821 122.186 90.4333 124.43C89.0953 124.758 87.5725 125.094 85.9357 125.402C83.7301 133.27 80.4949 141.822 78.5497 143.257C77.2681 144.2 74.8321 144.682 72.5029 144.75C74.6881 143.188 77.5009 140.454 79.0033 136.149C80.3893 132.172 81.2461 128.956 81.8533 126.067C82.4209 123.37 82.7677 120.943 83.1241 118.449C83.3461 116.918 85.3189 116.215 88.0261 116.167C94.4101 116.032 104.859 119.528 105.629 124.102C105.697 124.488 105.677 124.911 105.581 125.364Z" fill="#C53434"/>
        </g>
        <g opacity="0.14">
            <path d="M126.71 134.06C125.265 138.721 126.064 140.965 123.985 142.41C121.895 143.854 115.953 145.298 113.709 144.171C113.236 143.931 112.9 143.642 112.68 143.314C114.691 143.402 117.013 143.142 118.525 141.841C121.674 139.125 122.858 137.113 121.239 132.308C119.632 127.492 117.561 127.964 115.819 123.987C114.075 120.01 119.006 116.649 113.556 104.756C108.095 92.8628 89.8749 92.3336 85.4649 92.9396C81.0633 93.536 78.8001 101.722 69.4389 104.756C62.5833 106.981 54.3213 105.382 50.4009 104.361C50.1609 101.587 50.2845 99.7196 50.2845 99.7196C50.2845 99.7196 51.6045 98.2268 58.8657 94.9232C63.1713 92.9684 69.5649 90.368 79.0029 87.0752C79.2525 86.9792 79.5033 86.8916 79.7529 86.8052C99.1485 80.0744 112.659 84.0224 119.825 91.3124C122.289 93.8156 124.004 96.7244 124.947 99.7196C128.635 111.429 123.503 121.224 122.858 122.148C122.213 123.073 125.583 125.392 126.71 126.202C127.836 127.002 128.155 129.409 126.71 134.06Z" fill="#C53434"/>
        </g>
        <path d="M70.1901 124.593C68.8809 128.127 64.1145 142.41 62.5065 143.536C61.2153 144.432 58.1625 145.336 55.2069 145.028C54.4941 144.961 53.7801 144.807 53.1069 144.576C49.6497 143.372 52.2405 140.647 53.1069 139.357C53.9829 138.075 54.8013 137.431 54.2229 131.017C53.9349 127.887 53.6649 122.995 53.4633 118.815C53.2413 114.415 53.1069 110.793 53.1069 110.793C57.3537 123.148 70.1901 124.593 70.1901 124.593Z" fill="#37C6AB"/>
        <g opacity="0.14">
            <path d="M70.1901 124.593C68.8809 128.127 64.1145 142.41 62.5065 143.536C61.2153 144.432 58.1625 145.336 55.2069 145.028C58.9713 143.979 60.9561 141.243 61.8609 138.914C63.2277 135.427 63.3921 129.168 58.7205 125.402C56.4969 123.601 54.7053 121.021 53.4633 118.815C53.2413 114.415 53.1069 110.793 53.1069 110.793C57.3537 123.148 70.1901 124.593 70.1901 124.593Z" fill="#C53434"/>
        </g>
        <path d="M106.805 123.631C106.65 128.282 100.873 138.393 99.1009 140.801C98.0125 142.294 96.2401 142.919 94.1701 143.141C92.8993 143.285 91.5229 143.266 90.1165 143.209C86.4277 143.055 88.8349 139.52 90.1165 138.239C91.3969 136.949 92.8405 134.224 92.5237 131.171C92.3881 129.794 92.1001 127.954 91.8397 126.356C91.5313 124.42 91.2421 122.831 91.2421 122.831C95.2489 118.498 106.969 118.979 106.805 123.631Z" fill="#37C6AB"/>
        <g opacity="0.14">
            <path d="M106.805 123.631C106.65 128.282 100.873 138.393 99.1007 140.802C98.0123 142.294 96.2399 142.92 94.1699 143.142C100.266 135.418 102.674 128.002 100.247 125.653C98.2535 123.717 93.8615 125.412 91.8395 126.356C91.5311 124.42 91.2419 122.832 91.2419 122.832C95.2487 118.498 106.969 118.98 106.805 123.631Z" fill="#C53434"/>
        </g>
        <g opacity="0.14">
            <path d="M106.805 123.631C106.65 128.282 100.873 138.393 99.1007 140.802C98.0123 142.294 96.2399 142.92 94.1699 143.142C100.266 135.418 102.674 128.002 100.247 125.653C98.2535 123.717 93.8615 125.412 91.8395 126.356C91.5311 124.42 91.2419 122.832 91.2419 122.832C95.2487 118.498 106.969 118.98 106.805 123.631Z" fill="#C53434"/>
        </g>
        <path d="M81.6614 79.2741C81.6614 79.2741 81.0542 78.1185 79.7534 76.5297C77.3558 73.6017 72.5702 69.2205 64.7798 67.9113C62.9306 67.5933 60.9182 67.4577 58.7222 67.5549C58.7222 67.5549 67.1582 53.0133 73.5818 53.6493C80.0138 54.2937 81.6614 79.2741 81.6614 79.2741Z" fill="#37C6AB"/>
        <g opacity="0.59">
            <path d="M79.7531 76.5296C77.3555 73.6028 72.5699 69.2204 64.7783 67.9112C66.1943 64.6844 70.4123 55.796 74.2271 56.0564C78.1271 56.3348 79.4351 71.6084 79.7531 76.5296Z" fill="#01384D"/>
        </g>
        <path d="M67.8577 69.8323C67.8577 69.8323 70.9441 59.4763 74.2273 60.2503C77.5081 61.0231 75.9757 73.9123 75.9757 73.9123L67.8577 69.8323Z" fill="#01384D"/>
        <path d="M49.9009 68.2867C49.9009 68.2867 48.0793 68.7103 45.6733 70.0591C45.6637 70.0675 45.6733 70.0675 45.6733 70.0675C42.8029 71.6659 39.0853 74.6035 36.6397 79.7167C36.0721 80.8927 35.5717 82.1923 35.1673 83.6083C35.1673 83.6083 34.6657 65.9851 37.5169 59.4079C40.3765 52.8199 49.9009 68.2867 49.9009 68.2867Z" fill="#37C6AB"/>
        <g opacity="0.59">
            <path d="M45.6721 70.0592C45.6631 70.0688 45.6733 70.0685 45.6733 70.0685C42.802 71.6666 39.0859 74.6039 36.6398 79.7179C36.3416 72.4664 37.296 61.2471 38.9122 60.0722C40.54 58.8885 44.0842 66.4286 45.6721 70.0592Z" fill="#01384D"/>
        </g>
        <path d="M37.9905 77.5784C37.9905 77.5784 37.8837 65.1572 39.9033 63.8912C41.9205 62.6252 44.5689 72.7196 44.5689 72.7196L37.9905 77.5784Z" fill="#01384D"/>
        <path d="M82.1041 87.8539C80.9965 95.4235 75.9493 99.5539 71.3953 101.769C68.2177 103.321 56.0821 104.745 49.2361 102.666C46.7893 101.924 44.0353 100.922 41.6089 99.1987C38.6725 97.1179 36.2269 93.9979 35.4073 89.0191C35.2045 87.8347 35.0989 86.5351 35.1085 85.1191C35.1373 76.8763 39.7705 71.0875 46.9537 68.2855C48.6865 67.6219 50.5549 67.1203 52.5493 66.8035C53.7913 66.6007 55.0813 66.4759 56.4205 66.4171C57.0841 66.3787 57.7681 66.3691 58.4617 66.3787C71.8381 66.5239 81.3625 71.6179 82.2481 82.6051C82.4017 84.5119 82.3441 86.2651 82.1041 87.8539Z" fill="#FEF3C6"/>
        <path d="M48.1296 85.2745C46.6546 91.8899 39.9333 92.3723 35.4065 89.0211C35.2045 87.8354 35.0998 86.5357 35.1081 85.1209C35.1381 76.8766 39.7703 71.0893 46.9546 68.2878C48.1088 72.1777 49.5449 78.9283 48.1296 85.2745Z" fill="#37C6AB"/>
        <path d="M82.104 87.8539C73.8024 94.2391 56.1312 94.0171 54.648 84.1363C53.3676 75.6811 55.2648 69.3067 56.4204 66.4171C57.084 66.3787 57.768 66.3691 58.4616 66.3787C71.838 66.5239 81.3624 71.6179 82.248 82.6051C82.4016 84.5119 82.344 86.2651 82.104 87.8539Z" fill="#37C6AB"/>
        <g opacity="0.14">
            <path d="M82.1041 87.8539C80.9965 95.4235 75.9493 99.5539 71.3953 101.769C68.2177 103.321 56.0821 104.745 49.2361 102.666C46.7893 101.924 44.0353 100.922 41.6089 99.1987C41.8981 99.2851 42.2065 99.3907 42.5149 99.4975C66.8977 108.116 81.7957 88.9615 75.1885 77.0491C68.5825 65.1271 52.5493 66.8035 52.5493 66.8035C53.7913 66.6007 55.0813 66.4759 56.4205 66.4171C57.0841 66.3787 57.7681 66.3691 58.4617 66.3787C71.8381 66.5239 81.3625 71.6179 82.2481 82.6051C82.4017 84.5119 82.3441 86.2651 82.1041 87.8539Z" fill="#C53434"/>
        </g>
        <path d="M42.4333 88.0579C38.2477 88.0579 36.2137 84.3115 36.5833 80.9515C36.8797 78.1867 38.7925 75.6931 42.4333 75.7219C43.2277 75.7315 43.9297 75.8659 44.5585 76.1167C49.9273 78.2071 49.2613 88.0579 42.4333 88.0579Z" fill="#FDE047"/>
        <path d="M41.1048 78.9139C45.708 78.9487 45.7428 86.4199 41.1048 86.4199C36.4668 86.4199 36.186 78.8779 41.1048 78.9139Z" fill="#01384D"/>
        <path d="M61.973 87.9307C57.3926 87.9307 55.1666 84.1843 55.5722 80.8231C55.8962 78.0595 57.989 75.5659 61.973 75.5947C62.8442 75.6043 63.611 75.7387 64.2986 75.9895C70.175 78.0787 69.4478 87.9307 61.973 87.9307Z" fill="#FDE047"/>
        <path d="M60.5181 78.7868C65.5557 78.8204 65.5929 86.2928 60.5181 86.2928C55.4433 86.2928 55.1361 78.7496 60.5181 78.7868Z" fill="#01384D"/>
        <path d="M39.903 90.6938C39.903 90.6938 31.0523 85.5336 16.2867 86.9884" stroke="#014D5D" stroke-width="0.48" stroke-miterlimit="10" stroke-linecap="round" stroke-linejoin="round"/>
        <path d="M35.9315 92.4587C35.9315 92.4587 27.0134 91.9931 16.288 95.0374" stroke="#014D5D" stroke-width="0.48" stroke-miterlimit="10" stroke-linecap="round" stroke-linejoin="round"/>
        <path d="M65.4717 90.6941C65.4717 90.6941 80.0996 85.5348 94.8658 86.9885" stroke="#014D5D" stroke-width="0.48" stroke-miterlimit="10" stroke-linecap="round" stroke-linejoin="round"/>
        <path d="M69.4438 92.4583C69.4438 92.4583 84.1399 91.9926 94.8662 95.0371" stroke="#014D5D" stroke-width="0.48" stroke-miterlimit="10" stroke-linecap="round" stroke-linejoin="round"/>
        <path d="M29.9246 109.052L163.916 99.984C163.916 99.984 159.721 60.5809 149.217 33.6167C149.217 33.6167 100.722 25.2634 38.6635 37.9464C38.6635 37.9464 33.3801 46.4802 29.9246 109.052Z" fill="#9C8EF4"/>
        <path d="M38.6632 37.9467C38.6632 37.9467 33.4269 41.0579 20.103 49.6968C20.103 49.6968 13.8417 88.805 13.1994 107.756C13.1994 107.756 21.9331 108.091 29.9245 109.053C29.9245 109.053 34.9173 49.659 38.6632 37.9467Z" fill="#CEC4FD"/>
        <path d="M29.9233 109.052L23.7929 94.4781L3.89022 94.4777L13.198 107.757L29.9233 109.052Z" fill="#9C8EF4"/>
        <path d="M29.925 109.053L36.6332 91.9421C36.6332 91.9421 137.749 84.3402 172.417 84.0175L163.916 99.985C163.916 99.985 44.0828 108.089 29.925 109.053Z" fill="#CEC4FD"/>
    </g>
    <defs>
        <clipPath id="clip0_10147_35044">
            <rect width="172.8" height="154.8" fill="white" transform="translate(0.600098 0.0999756)"/>
        </clipPath>
    </defs>
</svg>