<svg width="200" height="200" viewBox="0 0 200 200" fill="none" xmlns="http://www.w3.org/2000/svg">
<g opacity="0.44">
<path d="M186.255 89.0944C186.255 130.788 152.456 164.588 110.762 164.588C69.0677 164.588 35.2673 130.788 35.2673 89.0944C35.2673 47.4004 69.0677 13.6 110.762 13.6C152.456 13.6 186.255 47.4004 186.255 89.0944Z" fill="#8B929C" fill-opacity="0.3"/>
</g>
<path d="M180.379 133.991L111.029 140.225L109.11 140.398L43.3755 132.275C43.3755 132.275 49.3659 79.3648 57.1035 55.6864C57.1035 55.6864 92.0523 49.066 113.964 49.066C113.964 49.066 151.969 52.2136 172.175 56.9548C172.175 56.9548 179.121 113.157 180.379 133.991Z" fill="#B3A6F9"/>
<path d="M112.953 63.8968C112.953 63.8968 111.16 115.59 111.034 140.225L109.114 140.402L43.3804 132.27C43.3804 132.27 49.3648 79.3648 57.1048 55.69L112.953 63.8968Z" fill="#7A69EE"/>
<path d="M43.3799 132.271L26.3345 144.717L95.6296 154.609L111.034 140.226C111.034 140.226 49.6927 132.459 43.3799 132.271Z" fill="#5B4CCC"/>
<path d="M111.034 140.226L124.508 154.609L195.846 147.418L180.38 133.988L111.034 140.226Z" fill="#CEC4FD"/>
<path d="M172.176 56.9546L112.95 63.9002L57.1042 55.6849C57.1042 55.6849 92.0527 49.0661 113.965 49.0662C113.965 49.0662 151.97 52.2138 172.176 56.9546Z" fill="#9C8EF4"/>
<path d="M23.1857 145.991C17.8217 146.087 13.9349 144.358 11.7605 141.227C10.8749 139.966 10.2749 138.489 9.95335 136.802C8.85775 130.924 7.22215 126.455 4.92775 123.516C2.63215 120.578 4.79695 116.109 9.26575 119.177C13.7429 122.238 15.3869 129.75 15.9089 129.132C16.6301 128.298 15.9869 125.847 21.2117 117.473C21.5081 116.996 21.8297 116.5 22.1681 115.978C27.1157 108.396 41.0705 109.215 42.4697 120.326C43.8785 131.438 30.7145 145.862 23.1857 145.991Z" fill="#37C6AB"/>
<g opacity="0.14">
<path d="M23.1855 145.991C17.8215 146.087 13.9347 144.358 11.7603 141.227C11.7699 141.227 11.7699 141.236 11.7783 141.236C15.3687 143.783 19.5423 144.131 19.0563 131.176C18.8379 125.438 19.9251 120.83 21.2115 117.473C21.5079 116.996 21.8295 116.5 22.1679 115.978C27.1155 108.396 41.0703 109.215 42.4695 120.326C43.8783 131.438 30.7143 145.862 23.1855 145.991Z" fill="#C53434"/>
</g>
<path d="M78.3605 126.707C77.5961 137.436 72.1013 144.592 60.1541 146.505C49.6781 148.182 31.5065 149.765 24.7421 141.948C23.7941 140.854 23.0633 139.576 22.6205 138.081C18.9857 125.943 26.6369 118.796 29.1929 115.214C31.7501 111.64 32.2541 107.684 34.7141 98.998C36.0713 94.1992 36.6185 89.0692 36.8441 85.4272C37.0181 82.4704 36.9845 80.4964 36.9845 80.4964C59.1977 92.2696 74.0837 78.958 74.0837 78.958C74.7965 80.8876 72.9965 87.5044 73.5005 95.5552C74.0129 103.598 79.1261 115.986 78.3605 126.707Z" fill="#37C6AB"/>
<path d="M40.2494 83.368C40.2494 83.368 41.5623 102.887 36.5954 112.247C31.6274 121.608 30.387 136.622 46.289 129.383C62.192 122.143 59.3282 84.611 59.3282 84.611L40.2494 83.368Z" fill="#FEF3C6"/>
<g opacity="0.14">
<path d="M78.3601 126.707C77.5957 137.436 72.1009 144.592 60.1537 146.505C49.6777 148.182 31.5061 149.765 24.7417 141.948C39.0433 145.287 38.8177 135.237 37.8793 131.663C36.9397 128.099 35.6101 124.118 40.4953 122.951C45.3913 121.786 47.5117 131.177 47.5117 131.177C50.0341 124.899 55.6681 117.77 59.5285 115.232C63.3877 112.701 69.7009 106.077 68.0053 98.3032C66.3013 90.538 60.5629 92.242 47.9821 90.7828C41.9389 90.0784 38.6437 87.7048 36.8437 85.4272C37.0177 82.4704 36.9841 80.4964 36.9841 80.4964C59.1973 92.2696 74.0833 78.958 74.0833 78.958C74.7961 80.8876 72.9961 87.5044 73.5001 95.5552C74.0125 103.598 79.1257 115.986 78.3601 126.707Z" fill="#C53434"/>
</g>
<path d="M77.7074 131.176C75.4034 143.183 64.5614 146.756 52.3106 147.878C41.8514 148.835 39.6602 146.601 39.7214 142.67C39.7214 141.993 39.7994 141.279 39.9122 140.505C40.6694 135.262 39.7394 131.585 38.1302 127.09C36.713 123.134 41.6522 120.959 43.8782 125.438C45.5822 128.862 47.321 136.966 47.5118 136.157C50.0078 126.072 55.3622 120.195 61.6838 116.621C62.0138 116.439 62.345 116.265 62.6834 116.126C70.5518 112.656 79.925 119.664 77.7074 131.176Z" fill="#37C6AB"/>
<g opacity="0.14">
<path d="M77.7074 131.176C75.4035 143.183 64.5614 146.756 52.3106 147.878C41.8514 148.835 39.6602 146.601 39.7214 142.67C41.2262 150.843 65.753 143.374 71.4303 132.524C76.3167 123.186 69.2738 115.292 62.6834 116.126C70.5518 112.656 79.925 119.664 77.7074 131.176Z" fill="#C53434"/>
</g>
<path d="M70.4224 110.127C64.4056 115.892 59.458 112.665 56.3116 112.022C53.164 111.388 53.4508 114.831 50.338 115.856C50.0692 115.943 49.816 115.986 49.582 115.978C47.1124 115.917 46.678 110.936 49.2604 107.553C52.0948 103.85 56.0944 104.702 56.3116 104.276C58.858 99.25 61.18 94.9204 64.084 92.7724C64.2664 92.6248 64.4488 92.5024 64.6312 92.3992C64.7188 92.338 64.8052 92.2948 64.8928 92.2516C66.64 91.2424 68.6056 91.0156 70.9528 91.852C76.6996 93.8944 76.4392 104.362 70.4224 110.127Z" fill="#37C6AB"/>
<g opacity="0.14">
<path d="M70.4224 110.127C64.4056 115.892 59.458 112.665 56.3116 112.022C53.164 111.388 53.4508 114.831 50.338 115.856C50.0692 115.943 49.816 115.986 49.582 115.978C50.572 114.309 50.5816 111.466 54.1204 109.988C59.5372 107.718 60.946 113.301 66.6484 107.327C72.0484 101.667 69.736 89.8336 64.8928 92.2516C66.64 91.2424 68.6056 91.0156 70.9528 91.852C76.6996 93.8944 76.4392 104.362 70.4224 110.127Z" fill="#C53434"/>
</g>
<path d="M44.1305 117.005C43.7225 117.179 43.3397 117.266 42.9821 117.275C39.7565 117.344 38.4797 111.388 35.8625 111.388C32.9573 111.388 28.4285 113.301 25.8113 109.596C23.1941 105.893 25.8725 101.685 28.5497 99.13C31.2365 96.5728 36.3749 90.5044 36.3749 90.5044C35.8793 96.0508 33.9053 101.937 33.9053 101.937C42.9653 102.189 48.2429 115.266 44.1305 117.005Z" fill="#37C6AB"/>
<g opacity="0.14">
<path d="M44.1301 117.005C43.7221 117.179 43.3393 117.266 42.9817 117.275C42.8257 115.239 42.0433 112.683 40.4953 109.484C36.8701 101.963 29.1841 106.571 30.4189 103.659C31.6537 100.746 30.3061 97.3468 28.5493 99.13C31.2361 96.5728 36.3745 90.5044 36.3745 90.5044C35.8789 96.0508 33.9049 101.937 33.9049 101.937C42.9649 102.189 48.2425 115.266 44.1301 117.005Z" fill="#C53434"/>
</g>
<path d="M80.9078 153.147C69.9266 158.633 55.3718 156.086 47.5118 157.869C39.6614 159.66 37.235 164.128 34.2974 163.616C33.9662 163.554 33.6542 163.45 33.3758 163.294C31.2098 162.112 31.0802 158.224 37.8794 154.043C45.5474 149.314 60.3542 151.226 67.5014 150.722C74.657 150.209 82.6994 148.035 82.6994 142.548C82.6994 138.975 79.4906 136.871 77.2382 135.827C76.0382 135.272 75.1082 135.028 75.1082 135.028L77.7074 131.176C90.7238 133.984 91.8974 147.653 80.9078 153.147Z" fill="#37C6AB"/>
<g opacity="0.14">
<path d="M80.908 153.147C69.9268 158.633 55.372 156.086 47.512 157.869C39.6616 159.66 37.2352 164.128 34.2976 163.616C33.9664 163.554 33.6544 163.45 33.376 163.294C35.5576 161.764 36.454 159.669 42.574 156.485C52.9552 151.096 72.7348 155.834 81.316 149.808C89.8984 143.792 83.4904 133.584 79.7956 134.246C78.448 134.48 77.674 135.116 77.2384 135.827C76.0384 135.272 75.1084 135.028 75.1084 135.028L77.7076 131.176C90.724 133.984 91.8976 147.653 80.908 153.147Z" fill="#C53434"/>
</g>
<g opacity="0.14">
<path d="M80.908 153.147C69.9268 158.633 55.372 156.086 47.512 157.869C39.6616 159.66 37.2352 164.128 34.2976 163.616C33.9664 163.554 33.6544 163.45 33.376 163.294C35.5576 161.764 36.454 159.669 42.574 156.485C52.9552 151.096 72.7348 155.834 81.316 149.808C89.8984 143.792 83.4904 133.584 79.7956 134.246C78.448 134.48 77.674 135.116 77.2384 135.827C76.0384 135.272 75.1084 135.028 75.1084 135.028L77.7076 131.176C90.724 133.984 91.8976 147.653 80.908 153.147Z" fill="#C53434"/>
</g>
<path d="M52.9084 56.7952C52.9084 56.7952 52.2724 56.734 51.1696 56.8108C48.418 56.9872 42.7408 57.9976 36.7108 62.848C36.0436 63.3772 35.3776 63.9592 34.7104 64.588C34.7104 64.588 38.596 54.082 46.5184 49.0024C54.4408 43.9216 58.2724 46.5808 52.9084 56.7952Z" fill="#37C6AB"/>
<g opacity="0.59">
<path d="M51.1683 56.8108C48.4179 56.9872 42.7395 57.9988 36.7095 62.848C37.7739 60.9028 43.4595 50.8948 49.2603 48.9028C55.1607 46.888 53.1759 51.646 51.1683 56.8108Z" fill="#01384D"/>
</g>
<path d="M74.4625 69.0089C74.4625 69.0089 73.9105 67.5844 72.6697 65.722C70.9765 63.178 67.9873 59.8216 63.3289 58.1668C62.6089 57.9136 61.8505 57.7 61.0537 57.5308C61.0537 57.5308 68.6161 49.2856 75.4201 49.3852C82.2241 49.4848 80.4625 57.8068 74.4625 69.0089Z" fill="#37C6AB"/>
<g opacity="0.59">
<path d="M72.6699 65.722C70.9767 63.178 67.9887 59.8216 63.3291 58.1668C65.3139 55.9456 69.4131 51.922 73.4127 51.4936C78.3783 50.9572 74.8383 59.6992 72.6699 65.722Z" fill="#01384D"/>
</g>
<path d="M75.7431 75.94C75.6303 76.8616 75.4995 77.7484 75.2211 78.5308C73.0911 84.478 69.3531 88.0684 62.7447 89.5204C59.7183 90.19 48.3291 91.1632 40.6263 86.5648C38.5479 85.33 37.0359 83.9128 35.8623 82.3396C34.9047 81.052 34.1751 79.6696 33.5571 78.1912C32.1411 74.8096 32.0007 71.1148 33.1143 67.6192C34.0011 64.7848 37.5999 60.0292 44.3991 57.5332C45.6519 57.0724 47.0079 56.6896 48.4863 56.4124C50.7987 55.9684 53.3895 55.7776 56.2683 55.9516C58.0155 56.0644 59.6415 56.2984 61.1451 56.6644H61.1535C72.2127 59.3248 76.6647 68.41 75.7431 75.94Z" fill="#FEF3C6"/>
<path d="M75.22 78.5356C75.4468 77.7328 75.6292 76.864 75.742 75.9436C76.66 68.4076 72.2104 59.3284 61.1524 56.6644H61.1452C58.1332 57.3052 55.3516 58.2808 52.9864 63.9292C49.6444 71.9368 58.9648 85.036 75.22 78.5356Z" fill="#37C6AB"/>
<path d="M33.5564 78.1946C36.7954 77.9901 40.5163 76.4203 42.7849 72.755C46.7605 66.3293 45.4251 60.3356 44.3961 57.534C37.6004 60.0287 34.003 64.7828 33.114 67.6188C32.005 71.1119 32.1406 74.808 33.5564 78.1946Z" fill="#37C6AB"/>
<path d="M63.3115 75.6437C63.3115 75.6437 76.1883 70.2945 91.2724 72.0161" stroke="#014D5D" stroke-width="0.576" stroke-miterlimit="10" stroke-linecap="round" stroke-linejoin="round"/>
<path d="M63.2842 77.4214C63.2842 77.4214 79.196 77.2151 90.1228 80.4982" stroke="#014D5D" stroke-width="0.576" stroke-miterlimit="10" stroke-linecap="round" stroke-linejoin="round"/>
<path d="M34.7409 71.8568C34.7409 71.8568 28.1634 67.6392 17.6184 67.7313" stroke="#014D5D" stroke-width="0.576" stroke-miterlimit="10" stroke-linecap="round" stroke-linejoin="round"/>
<path d="M34.7139 73.6349C34.7139 73.6349 26.1707 70.3219 16.9061 73.5329" stroke="#014D5D" stroke-width="0.576" stroke-miterlimit="10" stroke-linecap="round" stroke-linejoin="round"/>
<g opacity="0.14">
<path d="M75.7431 75.94C75.6303 76.8616 75.4995 77.7484 75.2211 78.5308C73.0911 84.478 69.3531 88.0684 62.7447 89.5204C59.7183 90.19 48.3291 91.1632 40.6263 86.5648C38.5479 85.33 37.0359 83.9128 35.8623 82.3396C46.5039 93.694 76.7031 88.9864 71.4303 69.34C67.3755 54.2308 49.5819 56.29 48.4863 56.4124C50.7987 55.9684 53.3895 55.7776 56.2683 55.9516C58.0155 56.0644 59.6415 56.2984 61.1451 56.6644H61.1535C72.2127 59.3248 76.6647 68.41 75.7431 75.94Z" fill="#C53434"/>
</g>
<path d="M61.8963 62.134C53.6583 61.7584 52.9503 74.0548 61.2483 74.4892C69.5463 74.9248 70.7007 62.5348 61.8963 62.134Z" fill="#FDE047"/>
<path d="M60.2776 65.3812C55.2676 65.152 54.85 72.3748 59.8972 72.6388C64.9444 72.904 65.632 65.626 60.2776 65.3812Z" fill="#01384D"/>
<path d="M40.0721 61.8304C33.8681 61.5472 33.3353 70.8064 39.5837 71.134C45.8333 71.4628 46.7021 62.1316 40.0721 61.8304Z" fill="#FDE047"/>
<path d="M38.8525 64.2748C35.0785 64.102 34.7653 69.5416 38.5657 69.7408C42.3661 69.94 42.8845 64.4596 38.8525 64.2748Z" fill="#01384D"/>
<path d="M49.348 73.2424C49.3144 73.2424 49.2796 73.2412 49.2448 73.24C48.8116 73.2172 48.4744 73.0624 48.2452 72.7792C48.1852 72.706 48.136 72.628 48.0964 72.5488C47.8408 72.8836 47.4376 73.1368 46.8112 73.1116C46.3768 73.0888 46.0408 72.934 45.8092 72.6508C45.4036 72.154 45.5056 71.4484 45.5104 71.4184C45.532 71.2756 45.6688 71.1736 45.808 71.1988C45.952 71.2192 46.0504 71.3536 46.03 71.4964C46.03 71.5012 45.9604 72.0064 46.2196 72.3208C46.354 72.484 46.5568 72.5704 46.8376 72.586C47.8168 72.646 47.9272 71.6716 47.938 71.5624C47.9596 71.3512 48.2644 71.2552 48.4012 71.4148C48.4504 71.4724 48.4756 71.5492 48.4648 71.6248C48.4648 71.6296 48.3964 72.1348 48.6532 72.4492C48.7888 72.6124 48.9904 72.6988 49.2724 72.7144C50.2624 72.7756 50.3692 71.7328 50.3728 71.6896C50.3872 71.5456 50.5 71.4388 50.6596 71.452C50.8036 71.4652 50.9104 71.5924 50.8972 71.7376C50.848 72.268 50.4604 73.2424 49.348 73.2424Z" fill="#01384D"/>
<path d="M48.1997 71.8492H48.1865C48.0413 71.842 47.9297 71.7172 47.9369 71.5732L48.0893 68.6788C48.0965 68.5336 48.2189 68.434 48.3653 68.4292C48.5105 68.4376 48.6221 68.5612 48.6149 68.7052L48.4625 71.5996C48.4553 71.7412 48.3389 71.8492 48.1997 71.8492Z" fill="#01384D"/>
<path d="M48.1407 75.6136C47.6943 75.6136 47.1531 75.4636 46.5411 75.0004C46.4247 74.9128 46.4031 74.7472 46.4907 74.632C46.5783 74.5168 46.7439 74.494 46.8591 74.5816C48.2175 75.6088 49.0371 74.7784 49.0707 74.7436C49.1715 74.638 49.3371 74.6332 49.4415 74.734C49.5471 74.8336 49.5519 75.0004 49.4511 75.106C49.4439 75.1132 48.9531 75.6136 48.1407 75.6136Z" fill="#01384D"/>
<path d="M50.3378 67.3816C50.423 65.7616 46.6178 65.3524 46.5218 67.1812C46.4258 69.0112 50.237 69.316 50.3378 67.3816Z" fill="#01384D"/>
</svg>
