<svg width="32" height="28" viewBox="0 0 32 28" fill="none" xmlns="http://www.w3.org/2000/svg">
<path d="M17.7535 11.6827C17.7535 7.80295 18.7378 4.99706 20.7064 3.26503C22.7268 1.53301 25.9647 0.666992 30.4199 0.666992H32V10.4876C32 18.5415 29.7033 23.703 25.1099 25.9719C23.5039 26.7687 21.5785 27.167 19.3336 27.167H17.7535V11.6827ZM12.6405 27.167C8.30612 27.167 5.07692 25.6515 2.9529 22.6205C0.984302 19.8146 0 15.7703 0 10.4876V0.666992H1.58006C6.03532 0.666992 9.27316 1.53301 11.2936 3.26503C13.2622 4.99706 14.2465 7.80295 14.2465 11.6827V27.167H12.6405Z" fill="#43D9B8"/>
<g style="mix-blend-mode:luminosity" opacity="0.6">
<path d="M18.3944 6.95703C17.9667 8.29881 17.7529 9.87388 17.7529 11.6823V27.1666H19.3329C21.5778 27.1666 23.5033 26.7682 25.1092 25.9715C28.7913 24.1527 30.9975 20.4754 31.7281 14.9395C29.0408 10.6787 24.1488 7.62722 18.3944 6.95703Z" fill="white"/>
<path d="M13.6043 6.95703C14.032 8.29881 14.2458 9.87388 14.2458 11.6823V27.1666H12.6398C8.30546 27.1666 5.07626 25.6511 2.95224 22.62C1.57912 20.6629 0.684889 18.1033 0.269531 14.9411C2.95665 10.6795 7.84915 7.62731 13.6043 6.95703Z" fill="white"/>
</g>
<path d="M12.0154 15.8365C12.8872 18.9673 12.5705 22.8186 9.89874 22.9527C6.75803 23.1103 3.66135 21.8552 2.69194 18.9796C1.72254 16.104 3.02381 13.0693 5.5984 12.2014C8.17299 11.3334 11.201 12.9119 12.0154 15.8365Z" fill="#03455A"/>
<path d="M12.3907 16.8495C13.2079 19.7614 12.9647 23.3285 10.5648 23.4241C7.74364 23.5364 4.94685 22.3395 4.04461 19.6631C3.14238 16.9868 4.2793 14.1873 6.58399 13.4104C8.88869 12.6334 11.6272 14.1294 12.3907 16.8495Z" fill="white"/>
<path d="M12.611 21.5023C12.9649 20.1964 12.8334 18.4269 12.3907 16.8495C12.3711 16.7798 12.3502 16.7109 12.3281 16.6428C11.7101 16.0806 10.8889 15.7379 9.98766 15.7379C8.06619 15.7379 6.50853 17.2956 6.50853 19.217C6.50853 21.1385 8.06619 22.6962 9.98766 22.6962C11.0344 22.6962 11.9732 22.2339 12.611 21.5023Z" fill="#03455A"/>
<path d="M6.89128 17.8014C6.89128 17.0425 7.50646 16.4273 8.26533 16.4273C9.0242 16.4273 9.63938 17.0425 9.63938 17.8014C9.63938 18.5603 9.0242 19.1755 8.26533 19.1755C7.50646 19.1755 6.89128 18.5603 6.89128 17.8014Z" fill="white"/>
<path d="M20.1511 15.8366C19.2793 18.9673 19.596 22.8187 22.2678 22.9527C25.4085 23.1103 28.5052 21.8552 29.4746 18.9796C30.444 16.104 29.1427 13.0693 26.5681 12.2014C23.9935 11.3335 20.9655 12.9119 20.1511 15.8366Z" fill="#03455A"/>
<path d="M19.7757 16.8496C18.9585 19.7615 19.2017 23.3286 21.6016 23.4241C24.4228 23.5364 27.2195 22.3395 28.1218 19.6632C29.024 16.9868 27.8871 14.1874 25.5824 13.4104C23.2777 12.6335 20.5392 14.1294 19.7757 16.8496Z" fill="white"/>
<path d="M19.5554 21.5024C19.2015 20.1965 19.333 18.4269 19.7757 16.8496C19.7953 16.7799 19.8162 16.7109 19.8383 16.6428C20.4563 16.0806 21.2775 15.7379 22.1787 15.7379C24.1002 15.7379 25.6579 17.2956 25.6579 19.2171C25.6579 21.1385 24.1002 22.6962 22.1787 22.6962C21.132 22.6962 20.1932 22.2339 19.5554 21.5024Z" fill="#03455A"/>
<path d="M25.2799 17.7881C25.2799 17.0218 24.6588 16.4007 23.8925 16.4007C23.1263 16.4007 22.5051 17.0218 22.5051 17.7881C22.5051 18.5543 23.1263 19.1755 23.8925 19.1755C24.6588 19.1755 25.2799 18.5543 25.2799 17.7881Z" fill="white"/>
</svg>
