<svg width="147" height="32" viewBox="0 0 147 32" fill="none" xmlns="http://www.w3.org/2000/svg">
<path d="M17.7535 13.6824C17.7535 9.80262 18.7378 6.99673 20.7064 5.26471C22.7268 3.53268 25.9647 2.66666 30.4199 2.66666H32V12.4873C32 20.5412 29.7033 25.7026 25.1099 27.9716C23.5039 28.7683 21.5785 29.1667 19.3336 29.1667H17.7535V13.6824ZM12.6405 29.1667C8.30612 29.1667 5.07692 27.6512 2.9529 24.6201C0.984302 21.8142 0 17.7699 0 12.4873V2.66666H1.58006C6.03532 2.66666 9.27316 3.53268 11.2936 5.26471C13.2622 6.99673 14.2465 9.80262 14.2465 13.6824V29.1667H12.6405Z" fill="#43D9B8"/>
<g style="mix-blend-mode:luminosity" opacity="0.6">
<path d="M18.3951 8.95708C17.9674 10.2989 17.7536 11.8739 17.7536 13.6823V29.1666H19.3337C21.5786 29.1666 23.504 28.7683 25.11 27.9715C28.792 26.1528 30.9983 22.4754 31.7288 16.9396C29.0415 12.6788 24.1495 9.62727 18.3951 8.95708Z" fill="white"/>
<path d="M13.605 8.95708C14.0327 10.2989 14.2465 11.8739 14.2465 13.6823V29.1666H12.6406C8.30619 29.1666 5.07699 27.6511 2.95297 24.6201C1.57986 22.6629 0.685621 20.1033 0.270264 16.9412C2.95739 12.6796 7.84988 9.62736 13.605 8.95708Z" fill="white"/>
</g>
<path d="M12.0161 17.8364C12.8879 20.9672 12.5712 24.8185 9.89947 24.9526C6.75876 25.1102 3.66208 23.8551 2.69268 20.9795C1.72328 18.1039 3.02454 15.0692 5.59913 14.2013C8.17372 13.3333 11.2017 14.9118 12.0161 17.8364Z" fill="#03455A"/>
<path d="M12.3914 18.8495C13.2086 21.7613 12.9655 25.3284 10.5655 25.424C7.74437 25.5363 4.94758 24.3394 4.04534 21.663C3.14311 18.9867 4.28003 16.1872 6.58472 15.4103C8.88942 14.6333 11.6279 16.1293 12.3914 18.8495Z" fill="white"/>
<path d="M12.6118 23.5023C12.9656 22.1963 12.8341 20.4268 12.3914 18.8495C12.3718 18.7797 12.351 18.7108 12.3289 18.6427C11.7109 18.0805 10.8897 17.7378 9.9884 17.7378C8.06692 17.7378 6.50926 19.2955 6.50926 21.2169C6.50926 23.1384 8.06692 24.6961 9.9884 24.6961C11.0352 24.6961 11.974 24.2338 12.6118 23.5023Z" fill="#03455A"/>
<path d="M6.89201 19.8013C6.89201 19.0424 7.50719 18.4273 8.26606 18.4273C9.02493 18.4273 9.64012 19.0424 9.64012 19.8013C9.64012 20.5602 9.02493 21.1754 8.26606 21.1754C7.50719 21.1754 6.89201 20.5602 6.89201 19.8013Z" fill="white"/>
<path d="M20.1519 17.8365C19.2801 20.9673 19.5967 24.8186 22.2685 24.9527C25.4092 25.1103 28.5059 23.8551 29.4753 20.9795C30.4447 18.104 29.1434 15.0692 26.5688 14.2013C23.9943 13.3334 20.9663 14.9119 20.1519 17.8365Z" fill="#03455A"/>
<path d="M19.7765 18.8495C18.9592 21.7614 19.2024 25.3285 21.6023 25.424C24.4235 25.5363 27.2203 24.3394 28.1225 21.6631C29.0247 18.9867 27.8878 16.1873 25.5831 15.4103C23.2784 14.6334 20.5399 16.1294 19.7765 18.8495Z" fill="white"/>
<path d="M19.5561 23.5023C19.2022 22.1964 19.3338 20.4268 19.7765 18.8495C19.796 18.7798 19.8169 18.7108 19.839 18.6427C20.457 18.0805 21.2782 17.7378 22.1795 17.7378C24.1009 17.7378 25.6586 19.2955 25.6586 21.217C25.6586 23.1385 24.1009 24.6961 22.1795 24.6961C21.1327 24.6961 20.1939 24.2338 19.5561 23.5023Z" fill="#03455A"/>
<path d="M25.2807 19.788C25.2807 19.0217 24.6595 18.4006 23.8932 18.4006C23.127 18.4006 22.5058 19.0217 22.5058 19.788C22.5058 20.5542 23.127 21.1754 23.8932 21.1754C24.6595 21.1754 25.2807 20.5542 25.2807 19.788Z" fill="white"/>
<path d="M38.4533 24.7733C38.4355 24.9333 38.3733 25.0667 38.2666 25.1733C38.1599 25.28 38.0355 25.3333 37.8933 25.3333C37.7155 25.3333 37.5733 25.28 37.4666 25.1733C37.3777 25.0667 37.3333 24.9333 37.3333 24.7733V7.22666C37.3333 7.06666 37.3866 6.93333 37.4933 6.82667C37.5999 6.72 37.7333 6.66666 37.8933 6.66666C38.0533 6.66666 38.1866 6.72 38.2933 6.82667C38.3999 6.93333 38.4533 7.06666 38.4533 7.22666V24.7733Z" fill="#0A0F1A"/>
<path d="M42.4316 11.5467C42.5205 11.5467 42.6094 11.5822 42.6983 11.6533C42.8049 11.7067 42.876 11.7867 42.9116 11.8933L47.8449 23.7067L47.5783 23.8933L52.5916 11.8933C52.6805 11.6622 52.8671 11.5467 53.1516 11.5467C53.2405 11.5467 53.3471 11.5822 53.4716 11.6533C53.596 11.7244 53.6583 11.8311 53.6583 11.9733C53.6583 12.0622 53.6494 12.1333 53.6316 12.1867C53.6138 12.2222 53.596 12.2578 53.5783 12.2933L48.2716 24.9867C48.1827 25.2178 48.0138 25.3333 47.7649 25.3333C47.6583 25.3333 47.5516 25.3067 47.4449 25.2533C47.356 25.1822 47.2938 25.0933 47.2583 24.9867L41.9249 12.32C41.9071 12.2844 41.8894 12.2489 41.8716 12.2133C41.8716 12.16 41.8716 12.1156 41.8716 12.08C41.8716 11.9378 41.916 11.8133 42.0049 11.7067C42.0938 11.6 42.236 11.5467 42.4316 11.5467Z" fill="#0A0F1A"/>
<path d="M66.6337 11.6C66.7937 11.6 66.9181 11.6533 67.007 11.76C67.1137 11.8667 67.167 11.9911 67.167 12.1333V24.0267C67.167 25.3956 66.8914 26.5778 66.3403 27.5733C65.7892 28.5689 65.0426 29.3333 64.1003 29.8667C63.1581 30.4 62.0826 30.6667 60.8737 30.6667C60.0559 30.6667 59.3181 30.5689 58.6603 30.3733C58.0203 30.1778 57.4959 29.9378 57.087 29.6533C56.9626 29.5644 56.8648 29.4578 56.7937 29.3333C56.7226 29.2089 56.7226 29.0756 56.7937 28.9333C56.8648 28.7911 56.9626 28.6933 57.087 28.64C57.2292 28.5867 57.3626 28.6044 57.487 28.6933C57.7892 28.8711 58.2426 29.0844 58.847 29.3333C59.4692 29.5822 60.1626 29.7067 60.927 29.7067C61.9581 29.7067 62.8559 29.4667 63.6203 28.9867C64.4026 28.5067 65.007 27.84 65.4337 26.9867C65.8781 26.1333 66.1003 25.1467 66.1003 24.0267V22.0533L66.1537 22.72C65.9048 23.2533 65.5226 23.7422 65.007 24.1867C64.5092 24.6133 63.9403 24.96 63.3003 25.2267C62.6781 25.4756 62.0292 25.6 61.3537 25.6C60.2514 25.6 59.3448 25.3867 58.6337 24.96C57.9403 24.5156 57.4248 23.9111 57.087 23.1467C56.767 22.3822 56.607 21.4844 56.607 20.4533V12.1333C56.607 11.9911 56.6514 11.8667 56.7403 11.76C56.847 11.6533 56.9803 11.6 57.1403 11.6C57.3003 11.6 57.4248 11.6533 57.5137 11.76C57.6203 11.8667 57.6737 11.9911 57.6737 12.1333V20.4533C57.6737 21.7156 57.9492 22.72 58.5003 23.4667C59.0692 24.2133 60.0203 24.5867 61.3537 24.5867C62.1537 24.5867 62.9092 24.3911 63.6203 24C64.3492 23.5911 64.9448 23.0667 65.407 22.4267C65.8692 21.7867 66.1003 21.1289 66.1003 20.4533V12.1333C66.1003 11.9911 66.1448 11.8667 66.2337 11.76C66.3403 11.6533 66.4737 11.6 66.6337 11.6Z" fill="#0A0F1A"/>
<path d="M72.6743 25.3333C72.2476 25.3333 71.901 25.2089 71.6343 24.96C71.3854 24.6933 71.261 24.3644 71.261 23.9733V8.02666C71.261 7.63555 71.3943 7.31555 71.661 7.06666C71.9276 6.8 72.2476 6.66666 72.621 6.66666H81.6343C82.0254 6.66666 82.3454 6.79111 82.5943 7.04C82.861 7.28889 82.9943 7.6 82.9943 7.97333C82.9943 8.31111 82.861 8.60444 82.5943 8.85333C82.3454 9.10222 82.0254 9.22666 81.6343 9.22666H73.8476L74.0343 8.96V14.9067L73.8743 14.5867H80.4343C80.8254 14.5867 81.1454 14.7111 81.3943 14.96C81.661 15.2089 81.7943 15.52 81.7943 15.8933C81.7943 16.2311 81.661 16.5244 81.3943 16.7733C81.1454 17.0222 80.8254 17.1467 80.4343 17.1467H73.821L74.0343 16.9333V23.9733C74.0343 24.3644 73.901 24.6933 73.6343 24.96C73.3676 25.2089 73.0476 25.3333 72.6743 25.3333Z" fill="#0A0F1A"/>
<path d="M98.7764 18.32C98.7764 19.7422 98.4653 21.0044 97.843 22.1067C97.2208 23.1911 96.3764 24.0444 95.3097 24.6667C94.243 25.2889 93.043 25.6 91.7097 25.6C90.3764 25.6 89.1764 25.2889 88.1097 24.6667C87.043 24.0444 86.1897 23.1911 85.5497 22.1067C84.9275 21.0044 84.6164 19.7422 84.6164 18.32C84.6164 16.88 84.9275 15.6178 85.5497 14.5333C86.1897 13.4311 87.043 12.5689 88.1097 11.9467C89.1764 11.3067 90.3764 10.9867 91.7097 10.9867C93.043 10.9867 94.243 11.3067 95.3097 11.9467C96.3764 12.5689 97.2208 13.4311 97.843 14.5333C98.4653 15.6178 98.7764 16.88 98.7764 18.32ZM96.1097 18.32C96.1097 17.3422 95.9142 16.4978 95.523 15.7867C95.1319 15.0578 94.5986 14.4889 93.923 14.08C93.2653 13.6533 92.5275 13.44 91.7097 13.44C90.8919 13.44 90.1453 13.6533 89.4697 14.08C88.7942 14.4889 88.2608 15.0578 87.8697 15.7867C87.4786 16.4978 87.283 17.3422 87.283 18.32C87.283 19.2622 87.4786 20.0978 87.8697 20.8267C88.2608 21.5556 88.7942 22.1244 89.4697 22.5333C90.1453 22.9422 90.8919 23.1467 91.7097 23.1467C92.5275 23.1467 93.2653 22.9422 93.923 22.5333C94.5986 22.1244 95.1319 21.5556 95.523 20.8267C95.9142 20.0978 96.1097 19.2622 96.1097 18.32Z" fill="#0A0F1A"/>
<path d="M102.861 25.3333C102.47 25.3333 102.15 25.2089 101.901 24.96C101.652 24.6933 101.528 24.3644 101.528 23.9733V12.6667C101.528 12.2756 101.652 11.9556 101.901 11.7067C102.15 11.44 102.47 11.3067 102.861 11.3067C103.235 11.3067 103.546 11.44 103.795 11.7067C104.061 11.9556 104.195 12.2756 104.195 12.6667V15.6533L103.928 14.5067C104.07 14.0089 104.284 13.5467 104.568 13.12C104.87 12.6933 105.226 12.32 105.635 12C106.044 11.68 106.497 11.4311 106.995 11.2533C107.51 11.0756 108.044 10.9867 108.595 10.9867C109.057 10.9867 109.457 11.1111 109.795 11.36C110.132 11.6089 110.301 11.92 110.301 12.2933C110.301 12.7733 110.177 13.1289 109.928 13.36C109.679 13.5733 109.404 13.68 109.101 13.68C108.835 13.68 108.577 13.6267 108.328 13.52C108.079 13.3956 107.786 13.3333 107.448 13.3333C107.075 13.3333 106.692 13.4311 106.301 13.6267C105.91 13.8222 105.555 14.1156 105.235 14.5067C104.915 14.88 104.657 15.3244 104.461 15.84C104.284 16.3556 104.195 16.9333 104.195 17.5733V23.9733C104.195 24.3644 104.061 24.6933 103.795 24.96C103.546 25.2089 103.235 25.3333 102.861 25.3333Z" fill="#0A0F1A"/>
<path d="M119.447 11.0667C120.763 11.0667 121.776 11.3956 122.487 12.0533C123.198 12.6933 123.669 13.5644 123.901 14.6667L123.474 14.5333L123.661 14.1067C123.892 13.6444 124.238 13.1822 124.701 12.72C125.181 12.24 125.749 11.8489 126.407 11.5467C127.065 11.2267 127.767 11.0667 128.514 11.0667C129.741 11.0667 130.692 11.3333 131.367 11.8667C132.043 12.3822 132.514 13.0844 132.781 13.9733C133.047 14.8444 133.181 15.8222 133.181 16.9067V23.9733C133.181 24.3644 133.056 24.6933 132.807 24.96C132.558 25.2089 132.238 25.3333 131.847 25.3333C131.474 25.3333 131.154 25.2089 130.887 24.96C130.638 24.6933 130.514 24.3644 130.514 23.9733V16.9333C130.514 16.3111 130.425 15.7422 130.247 15.2267C130.087 14.7111 129.794 14.3022 129.367 14C128.958 13.68 128.389 13.52 127.661 13.52C126.967 13.52 126.345 13.68 125.794 14C125.261 14.3022 124.843 14.7111 124.541 15.2267C124.238 15.7422 124.087 16.3111 124.087 16.9333V23.9733C124.087 24.3644 123.963 24.6933 123.714 24.96C123.465 25.2089 123.145 25.3333 122.754 25.3333C122.363 25.3333 122.043 25.2089 121.794 24.96C121.545 24.6933 121.421 24.3644 121.421 23.9733V16.9067C121.421 16.2844 121.332 15.7156 121.154 15.2C120.994 14.6844 120.709 14.2756 120.301 13.9733C119.892 13.6711 119.323 13.52 118.594 13.52C117.901 13.52 117.287 13.6711 116.754 13.9733C116.221 14.2756 115.803 14.6844 115.501 15.2C115.216 15.7156 115.074 16.2844 115.074 16.9067V23.9733C115.074 24.3644 114.941 24.6933 114.674 24.96C114.425 25.2089 114.114 25.3333 113.741 25.3333C113.349 25.3333 113.029 25.2089 112.781 24.96C112.532 24.6933 112.407 24.3644 112.407 23.9733V12.6667C112.407 12.2756 112.532 11.9556 112.781 11.7067C113.029 11.44 113.349 11.3067 113.741 11.3067C114.114 11.3067 114.425 11.44 114.674 11.7067C114.941 11.9556 115.074 12.2756 115.074 12.6667V14.24L114.567 14.5333C114.692 14.1422 114.896 13.7422 115.181 13.3333C115.465 12.9244 115.821 12.5511 116.247 12.2133C116.692 11.8756 117.181 11.6 117.714 11.3867C118.247 11.1733 118.825 11.0667 119.447 11.0667Z" fill="#0A0F1A"/>
<path d="M135.819 23.1467C135.659 22.8978 135.588 22.6133 135.606 22.2933C135.624 21.9556 135.81 21.6711 136.166 21.44C136.415 21.28 136.672 21.2178 136.939 21.2533C137.224 21.2711 137.49 21.4044 137.739 21.6533C138.237 22.2044 138.788 22.64 139.392 22.96C140.015 23.28 140.761 23.44 141.632 23.44C141.988 23.4222 142.352 23.3689 142.726 23.28C143.099 23.1733 143.419 22.9956 143.686 22.7467C143.952 22.48 144.086 22.0978 144.086 21.6C144.086 21.1556 143.944 20.8 143.659 20.5333C143.375 20.2667 143.001 20.0533 142.539 19.8933C142.077 19.7156 141.579 19.5556 141.046 19.4133C140.477 19.2533 139.899 19.0756 139.312 18.88C138.744 18.6844 138.228 18.4356 137.766 18.1333C137.304 17.8133 136.921 17.4044 136.619 16.9067C136.335 16.4089 136.192 15.7956 136.192 15.0667C136.192 14.2311 136.424 13.5111 136.886 12.9067C137.366 12.3022 137.979 11.8311 138.726 11.4933C139.49 11.1556 140.317 10.9867 141.206 10.9867C141.721 10.9867 142.264 11.0578 142.832 11.2C143.401 11.3244 143.952 11.5289 144.486 11.8133C145.019 12.0978 145.481 12.4711 145.872 12.9333C146.05 13.1644 146.148 13.44 146.166 13.76C146.201 14.08 146.059 14.3644 145.739 14.6133C145.526 14.7911 145.268 14.8711 144.966 14.8533C144.664 14.8356 144.415 14.7378 144.219 14.56C143.881 14.1333 143.446 13.8044 142.912 13.5733C142.379 13.3244 141.775 13.2 141.099 13.2C140.761 13.2 140.406 13.2533 140.032 13.36C139.677 13.4489 139.375 13.6178 139.126 13.8667C138.877 14.1156 138.752 14.48 138.752 14.96C138.752 15.4044 138.895 15.76 139.179 16.0267C139.481 16.2933 139.872 16.5156 140.352 16.6933C140.832 16.8711 141.357 17.0311 141.926 17.1733C142.477 17.3156 143.019 17.4844 143.552 17.68C144.104 17.8756 144.592 18.1333 145.019 18.4533C145.464 18.7556 145.819 19.1556 146.086 19.6533C146.37 20.1333 146.512 20.7467 146.512 21.4933C146.512 22.3644 146.255 23.1111 145.739 23.7333C145.241 24.3378 144.601 24.8 143.819 25.12C143.055 25.44 142.246 25.6 141.392 25.6C140.379 25.6 139.366 25.4222 138.352 25.0667C137.357 24.6933 136.512 24.0533 135.819 23.1467Z" fill="#0A0F1A"/>
</svg>
