<svg width="20" height="20" viewBox="0 0 20 20" fill="none" xmlns="http://www.w3.org/2000/svg">
<path d="M11.0625 8.67617C11.0625 6.32482 11.659 4.62428 12.8521 3.57457C14.0766 2.52486 16.0389 2 18.7391 2H19.6967V7.95187C19.6967 12.833 18.3047 15.9612 15.5209 17.3363C14.5475 17.8192 13.3806 18.0606 12.0201 18.0606H11.0625V8.67617ZM7.96365 18.0606C5.33675 18.0606 3.37966 17.1421 2.09237 15.3051C0.899281 13.6046 0.302734 11.1535 0.302734 7.95187V2H1.26035C3.96051 2 5.92283 2.52486 7.14732 3.57457C8.34041 4.62428 8.93696 6.32482 8.93696 8.67617V18.0606H7.96365Z" fill="#43D9B8"/>
<g style="mix-blend-mode:luminosity" opacity="0.6">
<path fill-rule="evenodd" clip-rule="evenodd" d="M11.4516 5.81252C11.1924 6.62572 11.0628 7.58031 11.0628 8.67629V18.0607H12.0204C13.3809 18.0607 14.5479 17.8193 15.5212 17.3364C17.7527 16.2341 19.0898 14.0055 19.5326 10.6505C17.9039 8.06818 14.9391 6.21873 11.4516 5.81252ZM8.54847 5.8125C8.80768 6.6257 8.93728 7.58029 8.93728 8.67629V18.0607H7.96397C5.33707 18.0607 3.37998 17.1422 2.0927 15.3052C1.26049 14.1191 0.71852 12.5677 0.466797 10.6512C2.09539 8.06846 5.06054 6.2187 8.54847 5.8125Z" fill="white"/>
</g>
<path d="M7.58544 11.1936C8.11381 13.091 7.92189 15.4251 6.30264 15.5064C4.39918 15.6019 2.5224 14.8412 1.93489 13.0984C1.34737 11.3557 2.13601 9.51645 3.69637 8.99043C5.25673 8.46441 7.09187 9.42107 7.58544 11.1936Z" fill="#13695E"/>
<path d="M7.81294 11.8079C8.30825 13.5727 8.16087 15.7346 6.70637 15.7925C4.99657 15.8606 3.30154 15.1351 2.75473 13.5131C2.20793 11.8911 2.89697 10.1945 4.29375 9.72357C5.69054 9.2527 7.35025 10.1593 7.81294 11.8079Z" fill="white"/>
<rect x="5.16992" y="12.0557" width="2.37392" height="2.37392" rx="1.18696" fill="#13695E"/>
<path fill-rule="evenodd" clip-rule="evenodd" d="M7.94654 14.6274C8.16092 13.836 8.08119 12.7636 7.81291 11.8078C7.80101 11.7653 7.78831 11.7234 7.77485 11.682C7.40034 11.3414 6.90272 11.1338 6.35662 11.1338C5.19208 11.1338 4.24805 12.0778 4.24805 13.2424C4.24805 14.4069 5.19208 15.3509 6.35662 15.3509C6.99102 15.3509 7.55999 15.0708 7.94654 14.6274Z" fill="#13695E"/>
<rect x="4.48047" y="11.5518" width="1.66552" height="1.66552" rx="0.83276" fill="white"/>
<path d="M12.2134 11.1936C11.685 13.091 11.8769 15.4251 13.4962 15.5064C15.3996 15.6019 17.2764 14.8412 17.8639 13.0984C18.4515 11.3557 17.6628 9.51645 16.1025 8.99043C14.5421 8.46441 12.707 9.42107 12.2134 11.1936Z" fill="#13695E"/>
<path d="M11.9859 11.8079C11.4906 13.5727 11.638 15.7346 13.0925 15.7925C14.8023 15.8606 16.4973 15.1351 17.0441 13.5131C17.5909 11.8911 16.9019 10.1945 15.5051 9.72357C14.1083 9.2527 12.4486 10.1593 11.9859 11.8079Z" fill="white"/>
<rect width="2.37392" height="2.37392" rx="1.18696" transform="matrix(-1 0 0 1 14.6289 12.0557)" fill="#13695E"/>
<path fill-rule="evenodd" clip-rule="evenodd" d="M11.8522 14.6273C11.6379 13.8359 11.7176 12.7636 11.9859 11.8078C11.9978 11.7654 12.0104 11.7235 12.0239 11.6821C12.3984 11.3414 12.8961 11.1338 13.4422 11.1338C14.6067 11.1338 15.5508 12.0778 15.5508 13.2424C15.5508 14.4069 14.6067 15.3509 13.4422 15.3509C12.8078 15.3509 12.2388 15.0707 11.8522 14.6273Z" fill="#13695E"/>
<rect width="1.68172" height="1.68172" rx="0.840861" transform="matrix(-1 0 0 1 15.3213 11.5356)" fill="white"/>
</svg>
