<svg width="83" height="72" viewBox="0 0 83 72" fill="none" xmlns="http://www.w3.org/2000/svg">
<path d="M44.2023 17.9581C44.2023 12.8659 45.4942 9.18322 48.078 6.90993C50.7298 4.63664 54.9795 3.5 60.827 3.5H62.9008V16.3895C62.9008 26.9603 59.8864 33.7347 53.8576 36.7127C51.7497 37.7584 49.2226 38.2813 46.2762 38.2813H44.2023V17.9581ZM37.4915 38.2813C31.8026 38.2813 27.5643 36.2922 24.7765 32.3139C22.1927 28.6312 20.9008 23.3231 20.9008 16.3895V3.5H22.9747C28.8222 3.5 33.0718 4.63664 35.7236 6.90993C38.3074 9.18322 39.5993 12.8659 39.5993 17.9581V38.2813H37.4915Z" fill="#43D9B8"/>
<g style="mix-blend-mode:luminosity" opacity="0.6">
<path d="M45.0443 11.7562C44.483 13.5172 44.2023 15.5845 44.2023 17.958V38.2812H46.2761C49.2226 38.2812 51.7497 37.7584 53.8575 36.7127C58.6902 34.3255 61.586 29.499 62.5448 22.2332C59.0177 16.6409 52.5969 12.6358 45.0443 11.7562Z" fill="white"/>
<path d="M38.7573 11.7562C39.3186 13.5172 39.5993 15.5845 39.5993 17.958V38.2812H37.4915C31.8026 38.2812 27.5643 36.2921 24.7765 32.3138C22.9743 29.7451 21.8006 26.3856 21.2554 22.2353C24.7823 16.6419 31.2037 12.6359 38.7573 11.7562Z" fill="white"/>
</g>
<path d="M36.672 23.4103C37.8162 27.5195 37.4006 32.5743 33.8939 32.7503C29.7717 32.9571 25.7073 31.3098 24.435 27.5356C23.1626 23.7614 24.8705 19.7783 28.2497 18.6392C31.6288 17.5 35.6031 19.5718 36.672 23.4103Z" fill="#03455A"/>
<path d="M37.1645 24.7399C38.2372 28.5617 37.918 33.2436 34.7681 33.369C31.0653 33.5164 27.3945 31.9454 26.2103 28.4327C25.0262 24.92 26.5184 21.2457 29.5433 20.226C32.5682 19.2062 36.1625 21.1697 37.1645 24.7399Z" fill="white"/>
<path d="M37.4538 30.8467C37.9182 29.1327 37.7456 26.8101 37.1645 24.7399C37.1388 24.6484 37.1115 24.5579 37.0825 24.4685C36.2714 23.7306 35.1935 23.2809 34.0106 23.2809C31.4887 23.2809 29.4442 25.3253 29.4442 27.8472C29.4442 30.3692 31.4887 32.4136 34.0106 32.4136C35.3845 32.4136 36.6167 31.8069 37.4538 30.8467Z" fill="#03455A"/>
<path d="M29.9466 25.9892C29.9466 24.9932 30.754 24.1858 31.75 24.1858C32.7461 24.1858 33.5535 24.9932 33.5535 25.9892C33.5535 26.9852 32.7461 27.7927 31.75 27.7927C30.754 27.7927 29.9466 26.9852 29.9466 25.9892Z" fill="white"/>
<path d="M47.3502 23.4104C46.2059 27.5195 46.6216 32.5744 50.1282 32.7504C54.2504 32.9572 58.3148 31.3099 59.5872 27.5356C60.8595 23.7614 59.1516 19.7784 55.7724 18.6392C52.3933 17.5 48.4191 19.5718 47.3502 23.4104Z" fill="#03455A"/>
<path d="M46.8575 24.7399C45.7848 28.5618 46.104 33.2436 49.2539 33.369C52.9567 33.5164 56.6274 31.9455 57.8116 28.4328C58.9958 24.9201 57.5036 21.2458 54.4787 20.226C51.4538 19.2063 47.8595 21.1698 46.8575 24.7399Z" fill="white"/>
<path d="M46.5682 30.8468C46.1037 29.1327 46.2764 26.8102 46.8575 24.7399C46.8831 24.6484 46.9105 24.5579 46.9395 24.4686C47.7506 23.7307 48.8285 23.2809 50.0114 23.2809C52.5333 23.2809 54.5777 25.3254 54.5777 27.8473C54.5777 30.3692 52.5333 32.4137 50.0114 32.4137C48.6375 32.4137 47.4053 31.8069 46.5682 30.8468Z" fill="#03455A"/>
<path d="M54.0817 25.9717C54.0817 24.966 53.2664 24.1507 52.2607 24.1507C51.255 24.1507 50.4397 24.966 50.4397 25.9717C50.4397 26.9774 51.255 27.7927 52.2607 27.7927C53.2664 27.7927 54.0817 26.9774 54.0817 25.9717Z" fill="white"/>
<path d="M1.79862 67.58C1.78528 67.7 1.73862 67.8 1.65862 67.88C1.57862 67.96 1.48528 68 1.37862 68C1.24528 68 1.13862 67.96 1.05862 67.88C0.991952 67.8 0.958618 67.7 0.958618 67.58V54.42C0.958618 54.3 0.998618 54.2 1.07862 54.12C1.15862 54.04 1.25862 54 1.37862 54C1.49862 54 1.59862 54.04 1.67862 54.12C1.75862 54.2 1.79862 54.3 1.79862 54.42V67.58Z" fill="#0A0F1A"/>
<path d="M4.78237 57.66C4.84904 57.66 4.9157 57.6867 4.98237 57.74C5.06237 57.78 5.1157 57.84 5.14237 57.92L8.84237 66.78L8.64237 66.92L12.4024 57.92C12.469 57.7467 12.609 57.66 12.8224 57.66C12.889 57.66 12.969 57.6867 13.0624 57.74C13.1557 57.7933 13.2024 57.8733 13.2024 57.98C13.2024 58.0467 13.1957 58.1 13.1824 58.14C13.169 58.1667 13.1557 58.1933 13.1424 58.22L9.16237 67.74C9.0957 67.9133 8.96904 68 8.78237 68C8.70237 68 8.62237 67.98 8.54237 67.94C8.4757 67.8867 8.42904 67.82 8.40237 67.74L4.40237 58.24C4.38903 58.2133 4.3757 58.1867 4.36237 58.16C4.36237 58.12 4.36237 58.0867 4.36237 58.06C4.36237 57.9533 4.3957 57.86 4.46237 57.78C4.52903 57.7 4.6357 57.66 4.78237 57.66Z" fill="#0A0F1A"/>
<path d="M22.9339 57.7C23.0539 57.7 23.1473 57.74 23.2139 57.82C23.2939 57.9 23.3339 57.9933 23.3339 58.1V67.02C23.3339 68.0467 23.1273 68.9333 22.7139 69.68C22.3006 70.4267 21.7406 71 21.0339 71.4C20.3273 71.8 19.5206 72 18.6139 72C18.0006 72 17.4473 71.9267 16.9539 71.78C16.4739 71.6333 16.0806 71.4533 15.7739 71.24C15.6806 71.1733 15.6073 71.0933 15.5539 71C15.5006 70.9067 15.5006 70.8067 15.5539 70.7C15.6073 70.5933 15.6806 70.52 15.7739 70.48C15.8806 70.44 15.9806 70.4533 16.0739 70.52C16.3006 70.6533 16.6406 70.8133 17.0939 71C17.5606 71.1867 18.0806 71.28 18.6539 71.28C19.4273 71.28 20.1006 71.1 20.6739 70.74C21.2606 70.38 21.7139 69.88 22.0339 69.24C22.3673 68.6 22.5339 67.86 22.5339 67.02V65.54L22.5739 66.04C22.3873 66.44 22.1006 66.8067 21.7139 67.14C21.3406 67.46 20.9139 67.72 20.4339 67.92C19.9673 68.1067 19.4806 68.2 18.9739 68.2C18.1473 68.2 17.4673 68.04 16.9339 67.72C16.4139 67.3867 16.0273 66.9333 15.7739 66.36C15.5339 65.7867 15.4139 65.1133 15.4139 64.34V58.1C15.4139 57.9933 15.4473 57.9 15.5139 57.82C15.5939 57.74 15.6939 57.7 15.8139 57.7C15.9339 57.7 16.0273 57.74 16.0939 57.82C16.1739 57.9 16.2139 57.9933 16.2139 58.1V64.34C16.2139 65.2867 16.4206 66.04 16.8339 66.6C17.2606 67.16 17.9739 67.44 18.9739 67.44C19.5739 67.44 20.1406 67.2933 20.6739 67C21.2206 66.6933 21.6673 66.3 22.0139 65.82C22.3606 65.34 22.5339 64.8467 22.5339 64.34V58.1C22.5339 57.9933 22.5673 57.9 22.6339 57.82C22.7139 57.74 22.8139 57.7 22.9339 57.7Z" fill="#0A0F1A"/>
<path d="M27.4644 68C27.1444 68 26.8844 67.9067 26.6844 67.72C26.4977 67.52 26.4044 67.2733 26.4044 66.98V55.02C26.4044 54.7267 26.5044 54.4867 26.7044 54.3C26.9044 54.1 27.1444 54 27.4244 54H34.1844C34.4777 54 34.7177 54.0933 34.9044 54.28C35.1044 54.4667 35.2044 54.7 35.2044 54.98C35.2044 55.2333 35.1044 55.4533 34.9044 55.64C34.7177 55.8267 34.4777 55.92 34.1844 55.92H28.3444L28.4844 55.72V60.18L28.3644 59.94H33.2844C33.5777 59.94 33.8177 60.0333 34.0044 60.22C34.2044 60.4067 34.3044 60.64 34.3044 60.92C34.3044 61.1733 34.2044 61.3933 34.0044 61.58C33.8177 61.7667 33.5777 61.86 33.2844 61.86H28.3244L28.4844 61.7V66.98C28.4844 67.2733 28.3844 67.52 28.1844 67.72C27.9844 67.9067 27.7444 68 27.4644 68Z" fill="#0A0F1A"/>
<path d="M47.041 62.74C47.041 63.8067 46.8076 64.7533 46.341 65.58C45.8743 66.3933 45.241 67.0333 44.441 67.5C43.641 67.9667 42.741 68.2 41.741 68.2C40.741 68.2 39.841 67.9667 39.041 67.5C38.241 67.0333 37.601 66.3933 37.121 65.58C36.6543 64.7533 36.421 63.8067 36.421 62.74C36.421 61.66 36.6543 60.7133 37.121 59.9C37.601 59.0733 38.241 58.4267 39.041 57.96C39.841 57.48 40.741 57.24 41.741 57.24C42.741 57.24 43.641 57.48 44.441 57.96C45.241 58.4267 45.8743 59.0733 46.341 59.9C46.8076 60.7133 47.041 61.66 47.041 62.74ZM45.041 62.74C45.041 62.0067 44.8943 61.3733 44.601 60.84C44.3076 60.2933 43.9076 59.8667 43.401 59.56C42.9076 59.24 42.3543 59.08 41.741 59.08C41.1276 59.08 40.5676 59.24 40.061 59.56C39.5543 59.8667 39.1543 60.2933 38.861 60.84C38.5676 61.3733 38.421 62.0067 38.421 62.74C38.421 63.4467 38.5676 64.0733 38.861 64.62C39.1543 65.1667 39.5543 65.5933 40.061 65.9C40.5676 66.2067 41.1276 66.36 41.741 66.36C42.3543 66.36 42.9076 66.2067 43.401 65.9C43.9076 65.5933 44.3076 65.1667 44.601 64.62C44.8943 64.0733 45.041 63.4467 45.041 62.74Z" fill="#0A0F1A"/>
<path d="M50.1047 68C49.8114 68 49.5714 67.9067 49.3847 67.72C49.198 67.52 49.1047 67.2733 49.1047 66.98V58.5C49.1047 58.2067 49.198 57.9667 49.3847 57.78C49.5714 57.58 49.8114 57.48 50.1047 57.48C50.3847 57.48 50.618 57.58 50.8047 57.78C51.0047 57.9667 51.1047 58.2067 51.1047 58.5V60.74L50.9047 59.88C51.0114 59.5067 51.1714 59.16 51.3847 58.84C51.6114 58.52 51.878 58.24 52.1847 58C52.4914 57.76 52.8314 57.5733 53.2047 57.44C53.5914 57.3067 53.9914 57.24 54.4047 57.24C54.7514 57.24 55.0514 57.3333 55.3047 57.52C55.558 57.7067 55.6847 57.94 55.6847 58.22C55.6847 58.58 55.5914 58.8467 55.4047 59.02C55.218 59.18 55.0114 59.26 54.7847 59.26C54.5847 59.26 54.3914 59.22 54.2047 59.14C54.018 59.0467 53.798 59 53.5447 59C53.2647 59 52.978 59.0733 52.6847 59.22C52.3914 59.3667 52.1247 59.5867 51.8847 59.88C51.6447 60.16 51.4514 60.4933 51.3047 60.88C51.1714 61.2667 51.1047 61.7 51.1047 62.18V66.98C51.1047 67.2733 51.0047 67.52 50.8047 67.72C50.618 67.9067 50.3847 68 50.1047 68Z" fill="#0A0F1A"/>
<path d="M62.5441 57.3C63.5308 57.3 64.2908 57.5467 64.8241 58.04C65.3574 58.52 65.7108 59.1733 65.8841 60L65.5641 59.9L65.7041 59.58C65.8774 59.2333 66.1374 58.8867 66.4841 58.54C66.8441 58.18 67.2708 57.8867 67.7641 57.66C68.2574 57.42 68.7841 57.3 69.3441 57.3C70.2641 57.3 70.9774 57.5 71.4841 57.9C71.9908 58.2867 72.3441 58.8133 72.5441 59.48C72.7441 60.1333 72.8441 60.8667 72.8441 61.68V66.98C72.8441 67.2733 72.7508 67.52 72.5641 67.72C72.3774 67.9067 72.1374 68 71.8441 68C71.5641 68 71.3241 67.9067 71.1241 67.72C70.9374 67.52 70.8441 67.2733 70.8441 66.98V61.7C70.8441 61.2333 70.7774 60.8067 70.6441 60.42C70.5241 60.0333 70.3041 59.7267 69.9841 59.5C69.6774 59.26 69.2508 59.14 68.7041 59.14C68.1841 59.14 67.7174 59.26 67.3041 59.5C66.9041 59.7267 66.5908 60.0333 66.3641 60.42C66.1374 60.8067 66.0241 61.2333 66.0241 61.7V66.98C66.0241 67.2733 65.9308 67.52 65.7441 67.72C65.5574 67.9067 65.3174 68 65.0241 68C64.7308 68 64.4908 67.9067 64.3041 67.72C64.1174 67.52 64.0241 67.2733 64.0241 66.98V61.68C64.0241 61.2133 63.9574 60.7867 63.8241 60.4C63.7041 60.0133 63.4908 59.7067 63.1841 59.48C62.8774 59.2533 62.4508 59.14 61.9041 59.14C61.3841 59.14 60.9241 59.2533 60.5241 59.48C60.1241 59.7067 59.8108 60.0133 59.5841 60.4C59.3708 60.7867 59.2641 61.2133 59.2641 61.68V66.98C59.2641 67.2733 59.1641 67.52 58.9641 67.72C58.7774 67.9067 58.5441 68 58.2641 68C57.9708 68 57.7308 67.9067 57.5441 67.72C57.3574 67.52 57.2641 67.2733 57.2641 66.98V58.5C57.2641 58.2067 57.3574 57.9667 57.5441 57.78C57.7308 57.58 57.9708 57.48 58.2641 57.48C58.5441 57.48 58.7774 57.58 58.9641 57.78C59.1641 57.9667 59.2641 58.2067 59.2641 58.5V59.68L58.8841 59.9C58.9774 59.6067 59.1308 59.3067 59.3441 59C59.5574 58.6933 59.8241 58.4133 60.1441 58.16C60.4774 57.9067 60.8441 57.7 61.2441 57.54C61.6441 57.38 62.0774 57.3 62.5441 57.3Z" fill="#0A0F1A"/>
<path d="M74.823 66.36C74.703 66.1733 74.6497 65.96 74.663 65.72C74.6763 65.4667 74.8163 65.2533 75.083 65.08C75.2697 64.96 75.463 64.9133 75.663 64.94C75.8763 64.9533 76.0763 65.0533 76.263 65.24C76.6363 65.6533 77.0497 65.98 77.503 66.22C77.9697 66.46 78.5297 66.58 79.183 66.58C79.4497 66.5667 79.723 66.5267 80.003 66.46C80.283 66.38 80.523 66.2467 80.723 66.06C80.923 65.86 81.023 65.5733 81.023 65.2C81.023 64.8667 80.9163 64.6 80.703 64.4C80.4897 64.2 80.2097 64.04 79.863 63.92C79.5163 63.7867 79.143 63.6667 78.743 63.56C78.3163 63.44 77.883 63.3067 77.443 63.16C77.0163 63.0133 76.6297 62.8267 76.283 62.6C75.9363 62.36 75.6497 62.0533 75.423 61.68C75.2097 61.3067 75.103 60.8467 75.103 60.3C75.103 59.6733 75.2763 59.1333 75.623 58.68C75.983 58.2267 76.443 57.8733 77.003 57.62C77.5763 57.3667 78.1963 57.24 78.863 57.24C79.2497 57.24 79.6563 57.2933 80.083 57.4C80.5097 57.4933 80.923 57.6467 81.323 57.86C81.723 58.0733 82.0697 58.3533 82.363 58.7C82.4963 58.8733 82.5697 59.08 82.583 59.32C82.6097 59.56 82.503 59.7733 82.263 59.96C82.103 60.0933 81.9097 60.1533 81.683 60.14C81.4563 60.1267 81.2697 60.0533 81.123 59.92C80.8697 59.6 80.543 59.3533 80.143 59.18C79.743 58.9933 79.2897 58.9 78.783 58.9C78.5297 58.9 78.263 58.94 77.983 59.02C77.7163 59.0867 77.4897 59.2133 77.303 59.4C77.1163 59.5867 77.023 59.86 77.023 60.22C77.023 60.5533 77.1297 60.82 77.343 61.02C77.5697 61.22 77.863 61.3867 78.223 61.52C78.583 61.6533 78.9763 61.7733 79.403 61.88C79.8163 61.9867 80.223 62.1133 80.623 62.26C81.0363 62.4067 81.403 62.6 81.723 62.84C82.0563 63.0667 82.323 63.3667 82.523 63.74C82.7363 64.1 82.843 64.56 82.843 65.12C82.843 65.7733 82.6497 66.3333 82.263 66.8C81.8897 67.2533 81.4097 67.6 80.823 67.84C80.2497 68.08 79.643 68.2 79.003 68.2C78.243 68.2 77.483 68.0667 76.723 67.8C75.9763 67.52 75.343 67.04 74.823 66.36Z" fill="#0A0F1A"/>
</svg>
