<svg width="20" height="20" viewBox="0 0 20 20" fill="none" xmlns="http://www.w3.org/2000/svg">
    <path fill-rule="evenodd" clip-rule="evenodd" d="M9.95364 1.04102H10.0477C11.5791 1.041 12.7922 1.04099 13.7415 1.16863C14.7185 1.29999 15.5093 1.57675 16.1329 2.20039C16.7566 2.82402 17.0333 3.61481 17.1647 4.59183C17.2923 5.54118 17.2923 6.75421 17.2923 8.28567V11.713C17.2923 13.2445 17.2923 14.4575 17.1647 15.4069C17.0333 16.3839 16.7566 17.1747 16.1329 17.7983C15.5093 18.4219 14.7185 18.6987 13.7415 18.8301C12.7922 18.9577 11.5791 18.9577 10.0477 18.9577H9.95364C8.42217 18.9577 7.20915 18.9577 6.2598 18.8301C5.28278 18.6987 4.49199 18.4219 3.86835 17.7983C3.24472 17.1747 2.96795 16.3839 2.8366 15.4069C2.70896 14.4575 2.70897 13.2445 2.70898 11.713V8.28567C2.70897 6.7542 2.70896 5.54117 2.8366 4.59183C2.96795 3.61481 3.24472 2.82402 3.86835 2.20039C4.49199 1.57675 5.28278 1.29999 6.2598 1.16863C7.20914 1.04099 8.42217 1.041 9.95364 1.04102ZM6.42636 2.40748C5.58795 2.5202 5.10491 2.73159 4.75224 3.08427C4.39956 3.43694 4.18817 3.91998 4.07545 4.75839C3.96031 5.61478 3.95898 6.74367 3.95898 8.33268V11.666C3.95898 13.255 3.96031 14.3839 4.07545 15.2403C4.18817 16.0787 4.39956 16.5618 4.75224 16.9144C5.10491 17.2671 5.58795 17.4785 6.42636 17.5912C7.28275 17.7064 8.41163 17.7077 10.0007 17.7077C11.5897 17.7077 12.7186 17.7064 13.5749 17.5912C14.4134 17.4785 14.8964 17.2671 15.2491 16.9144C15.6017 16.5618 15.8131 16.0787 15.9259 15.2403C16.041 14.3839 16.0423 13.255 16.0423 11.666V8.33268C16.0423 6.74367 16.041 5.61478 15.9259 4.75839C15.8131 3.91998 15.6017 3.43694 15.2491 3.08427C14.8964 2.73159 14.4134 2.5202 13.5749 2.40748C12.7186 2.29234 11.5897 2.29102 10.0007 2.29102C8.41163 2.29102 7.28275 2.29234 6.42636 2.40748ZM6.87565 4.16602C6.87565 3.82084 7.15547 3.54102 7.50065 3.54102H12.5007C12.8458 3.54102 13.1257 3.82084 13.1257 4.16602C13.1257 4.51119 12.8458 4.79102 12.5007 4.79102H7.50065C7.15547 4.79102 6.87565 4.51119 6.87565 4.16602ZM10.0007 13.1243C9.42535 13.1243 8.95898 13.5907 8.95898 14.166C8.95898 14.7413 9.42535 15.2077 10.0007 15.2077C10.5759 15.2077 11.0423 14.7413 11.0423 14.166C11.0423 13.5907 10.5759 13.1243 10.0007 13.1243ZM7.70898 14.166C7.70898 12.9004 8.735 11.8743 10.0007 11.8743C11.2663 11.8743 12.2923 12.9004 12.2923 14.166C12.2923 15.4317 11.2663 16.4577 10.0007 16.4577C8.735 16.4577 7.70898 15.4317 7.70898 14.166Z" fill="#394452"/>
</svg>
