<svg width="24" height="24" viewBox="0 0 24 24" fill="none" xmlns="http://www.w3.org/2000/svg">
<path d="M9.77778 16.8333C5.8811 16.8333 2.72222 13.6745 2.72222 9.77778H1.27778C1.27778 14.4722 5.08336 18.2778 9.77778 18.2778V16.8333ZM2.72222 9.77778C2.72222 5.8811 5.8811 2.72222 9.77778 2.72222V1.27778C5.08336 1.27778 1.27778 5.08336 1.27778 9.77778H2.72222ZM9.77778 2.72222C13.6745 2.72222 16.8333 5.8811 16.8333 9.77778H18.2778C18.2778 5.08336 14.4722 1.27778 9.77778 1.27778V2.72222ZM16.8333 9.77778C16.8333 13.6745 13.6745 16.8333 9.77778 16.8333V18.2778C14.4722 18.2778 18.2778 14.4722 18.2778 9.77778H16.8333Z" fill="#394452"/>
<path opacity="0.5" d="M21.4894 22.5107C21.7715 22.7927 22.2287 22.7927 22.5108 22.5107C22.7928 22.2286 22.7928 21.7713 22.5108 21.4893L21.4894 22.5107ZM16.0202 14.9987C15.7382 14.7167 15.2809 14.7167 14.9988 14.9987C14.7168 15.2808 14.7168 15.738 14.9988 16.0201L16.0202 14.9987ZM14.9988 16.0201L21.4894 22.5107L22.5108 21.4893L16.0202 14.9987L14.9988 16.0201Z" fill="#394452"/>
</svg>
