<svg width="24" height="24" viewBox="0 0 24 24" fill="none" xmlns="http://www.w3.org/2000/svg">
<path fill-rule="evenodd" clip-rule="evenodd" d="M7.09878 1.24992C7.14683 1.24994 7.19559 1.24996 7.24508 1.24996H16.7551C16.8045 1.24996 16.8533 1.24994 16.9014 1.24992C17.9181 1.24947 18.6178 1.24917 19.2072 1.45422C20.3201 1.84149 21.1842 2.73714 21.5547 3.86546L20.8421 4.09942L21.5547 3.86546C21.7507 4.46258 21.7505 5.17242 21.7501 6.22642C21.7501 6.27359 21.7501 6.32145 21.7501 6.37002V20.3742C21.7501 21.8394 20.0231 22.7117 18.8857 21.6709C18.8062 21.5981 18.694 21.5981 18.6145 21.6709L18.1314 22.1129C17.2032 22.9623 15.7969 22.9623 14.8688 22.1129C14.5138 21.7881 13.9864 21.7881 13.6314 22.1129C12.7032 22.9623 11.2969 22.9623 10.3688 22.1129C10.0138 21.7881 9.48637 21.7881 9.13138 22.1129C8.20319 22.9623 6.79694 22.9623 5.86875 22.1129L5.38566 21.6709C5.30618 21.5981 5.19395 21.5981 5.11448 21.6709C3.97705 22.7117 2.25007 21.8394 2.25007 20.3742V6.37002C2.25007 6.32145 2.25005 6.2736 2.25003 6.22643C2.24965 5.17242 2.24939 4.46259 2.44545 3.86546C2.81591 2.73714 3.68002 1.84149 4.79298 1.45422C5.3823 1.24917 6.08203 1.24947 7.09878 1.24992ZM7.24508 2.74996C6.024 2.74996 5.6034 2.76045 5.28593 2.87091C4.62655 3.10035 4.09919 3.63716 3.8706 4.33338C3.75951 4.67171 3.75007 5.11784 3.75007 6.37002V20.3742C3.75007 20.4932 3.80999 20.566 3.88517 20.6007C3.92434 20.6189 3.96264 20.6235 3.99456 20.6193C4.0227 20.6155 4.05911 20.6034 4.10185 20.5643C4.75453 19.967 5.74561 19.967 6.39828 20.5643L6.88138 21.0063C7.23637 21.3312 7.76377 21.3312 8.11875 21.0063C9.04694 20.157 10.4532 20.157 11.3814 21.0063C11.7364 21.3312 12.2638 21.3312 12.6188 21.0063C13.5469 20.157 14.9532 20.157 15.8814 21.0063C16.2364 21.3312 16.7638 21.3312 17.1188 21.0063L17.6019 20.5643C18.2545 19.967 19.2456 19.967 19.8983 20.5643C19.941 20.6034 19.9774 20.6155 20.0056 20.6193C20.0375 20.6235 20.0758 20.6189 20.115 20.6007C20.1901 20.566 20.2501 20.4932 20.2501 20.3742V6.37002C20.2501 5.11784 20.2406 4.67171 20.1295 4.33338C19.9009 3.63716 19.3736 3.10035 18.7142 2.87091C18.3967 2.76045 17.9761 2.74996 16.7551 2.74996H7.24508ZM14.9996 7.44051C15.3086 7.71638 15.3354 8.1905 15.0595 8.49947L11.4881 12.4995C11.3458 12.6588 11.1423 12.75 10.9286 12.75C10.715 12.75 10.5115 12.6588 10.3692 12.4995L8.94061 10.8995C8.66474 10.5905 8.69158 10.1164 9.00056 9.84051C9.30953 9.56463 9.78365 9.59147 10.0595 9.90045L10.9286 10.8739L13.9406 7.50045C14.2165 7.19147 14.6906 7.16463 14.9996 7.44051ZM6.75007 15.5C6.75007 15.0857 7.08585 14.75 7.50007 14.75H16.5001C16.9143 14.75 17.2501 15.0857 17.2501 15.5C17.2501 15.9142 16.9143 16.25 16.5001 16.25H7.50007C7.08585 16.25 6.75007 15.9142 6.75007 15.5Z" fill="#394452"/>
</svg>
