<svg width="24" height="24" viewBox="0 0 24 24" fill="none" xmlns="http://www.w3.org/2000/svg">
<path fill-rule="evenodd" clip-rule="evenodd" d="M6.84833 6.84833C7.14123 6.55544 7.6161 6.55544 7.90899 6.84833L12 10.9393L16.091 6.84835C16.3839 6.55546 16.8587 6.55546 17.1516 6.84835C17.4445 7.14125 17.4445 7.61612 17.1516 7.90901L13.0607 12L17.1516 16.091C17.4445 16.3838 17.4445 16.8587 17.1516 17.1516C16.8587 17.4445 16.3838 17.4445 16.091 17.1516L12 13.0607L7.90901 17.1516C7.61612 17.4445 7.14125 17.4445 6.84835 17.1516C6.55546 16.8587 6.55546 16.3839 6.84835 16.091L10.9393 12L6.84833 7.90899C6.55544 7.6161 6.55544 7.14123 6.84833 6.84833Z" fill="#394452"/>
</svg>
