<svg width="24" height="24" viewBox="0 0 24 24" fill="none" xmlns="http://www.w3.org/2000/svg">
<path d="M12 2.25C9.41414 2.25 6.93419 3.27723 5.10571 5.10571C3.27723 6.93419 2.25 9.41414 2.25 12C2.25 14.5859 3.27723 17.0658 5.10571 18.8943C6.93419 20.7228 9.41414 21.75 12 21.75C12.155 21.7496 12.3062 21.7012 12.4326 21.6114C12.559 21.5217 12.6544 21.3949 12.7058 21.2486C12.7572 21.1024 12.762 20.9437 12.7196 20.7946C12.6771 20.6455 12.5895 20.5132 12.4688 20.4159C12.3638 20.3306 10.5113 18.7922 9.55688 15.75H11.9944C12.1933 15.75 12.3841 15.671 12.5247 15.5303C12.6654 15.3897 12.7444 15.1989 12.7444 15C12.7444 14.8011 12.6654 14.6103 12.5247 14.4697C12.3841 14.329 12.1933 14.25 11.9944 14.25H9.195C8.93626 12.7612 8.93626 11.2388 9.195 9.75H14.8088C14.938 10.493 15.0019 11.2459 15 12C15 12.1989 15.079 12.3897 15.2197 12.5303C15.3603 12.671 15.5511 12.75 15.75 12.75C15.9489 12.75 16.1397 12.671 16.2803 12.5303C16.421 12.3897 16.5 12.1989 16.5 12C16.501 11.2467 16.4433 10.4944 16.3275 9.75H19.9378C20.1456 10.4819 20.2507 11.2392 20.25 12C20.25 12.1989 20.329 12.3897 20.4697 12.5303C20.6103 12.671 20.8011 12.75 21 12.75C21.1989 12.75 21.3897 12.671 21.5303 12.5303C21.671 12.3897 21.75 12.1989 21.75 12C21.7473 9.41498 20.7192 6.93661 18.8913 5.10872C17.0634 3.28084 14.585 2.25273 12 2.25ZM10.0866 3.975C9.12619 5.25532 8.41683 6.70585 7.99594 8.25H4.65281C5.19682 7.18784 5.96406 6.25588 6.90196 5.51799C7.83985 4.7801 8.92621 4.25375 10.0866 3.975ZM10.0866 20.025C8.92553 19.7467 7.83843 19.2206 6.89986 18.4827C5.96129 17.7448 5.19346 16.8126 4.64906 15.75H7.99594C8.41683 17.2941 9.12619 18.7447 10.0866 20.025ZM7.6725 14.25H4.06219C3.64593 12.7789 3.64593 11.2211 4.06219 9.75H7.6725C7.4425 11.2412 7.4425 12.7588 7.6725 14.25ZM9.5625 8.25C10.0428 6.67632 10.8765 5.2333 12 4.03125C13.1231 5.23361 13.9567 6.67653 14.4375 8.25H9.5625ZM16.0078 8.25C15.5869 6.70585 14.8776 5.25532 13.9172 3.975C15.0782 4.25326 16.1653 4.77939 17.1039 5.5173C18.0425 6.25521 18.8103 7.18743 19.3547 8.25H16.0078Z" fill="#394452"/>
<path fill-rule="evenodd" clip-rule="evenodd" d="M14.4375 17.0493C14.4375 15.2021 15.9112 13.6875 17.75 13.6875C19.5888 13.6875 21.0625 15.2021 21.0625 17.0493C21.0625 17.9167 20.8163 18.8393 20.3843 19.6348C19.9534 20.4283 19.3132 21.1384 18.4911 21.5227C18.0209 21.7424 17.4791 21.7424 17.0089 21.5227C16.1868 21.1384 15.5466 20.4283 15.1157 19.6348C14.6837 18.8393 14.4375 17.9167 14.4375 17.0493ZM17.75 14.8125C16.5512 14.8125 15.5625 15.8045 15.5625 17.0493C15.5625 17.7157 15.7552 18.4549 16.1043 19.0979C16.4546 19.7429 16.938 20.2477 17.4853 20.5035C17.6536 20.5822 17.8464 20.5822 18.0147 20.5035C18.562 20.2477 19.0454 19.7429 19.3957 19.0979C19.7448 18.4549 19.9375 17.7157 19.9375 17.0493C19.9375 15.8045 18.9488 14.8125 17.75 14.8125Z" fill="#394452"/>
<circle cx="17.8" cy="16.8125" r="1" fill="#394452"/>
</svg>
