<svg width="24" height="24" viewBox="0 0 24 24" fill="none" xmlns="http://www.w3.org/2000/svg">
<path fill-rule="evenodd" clip-rule="evenodd" d="M12.0001 4.71448C12.4144 4.71448 12.7501 5.05026 12.7501 5.46448L12.7501 11.25L18.5356 11.25C18.9499 11.25 19.2856 11.5858 19.2856 12C19.2856 12.4142 18.9499 12.75 18.5356 12.75L12.7501 12.75V18.5355C12.7501 18.9497 12.4144 19.2855 12.0001 19.2855C11.5859 19.2855 11.2501 18.9497 11.2501 18.5355V12.75H5.4646C5.05039 12.75 4.7146 12.4142 4.7146 12C4.7146 11.5858 5.05039 11.25 5.4646 11.25H11.2501L11.2501 5.46448C11.2501 5.05026 11.5859 4.71448 12.0001 4.71448Z" fill="#394452"/>
</svg>
