<svg width="24" height="24" viewBox="0 0 24 24" fill="none" xmlns="http://www.w3.org/2000/svg">
<path fill-rule="evenodd" clip-rule="evenodd" d="M18.2588 9.73505C18.2588 11.8395 17.494 13.7653 16.2273 15.2497L22.5773 21.6004C22.8598 21.883 22.8598 22.341 22.5773 22.6235C22.2948 22.906 21.8367 22.906 21.5542 22.6235L15.1983 16.2669C13.7243 17.4958 11.8279 18.235 9.75879 18.235C5.06437 18.235 1.25879 14.4295 1.25879 9.73505C1.25879 5.04063 5.06437 1.23505 9.75879 1.23505C14.4532 1.23505 18.2588 5.04063 18.2588 9.73505ZM9.77563 16.9268C13.7182 16.9268 16.9143 13.7307 16.9143 9.78815C16.9143 5.84557 13.7182 2.64948 9.77563 2.64948C5.83306 2.64948 2.63696 5.84557 2.63696 9.78815C2.63696 13.7307 5.83306 16.9268 9.77563 16.9268Z" fill="#394452"/>
</svg>
