<svg width="20" height="24" viewBox="0 0 20 24" fill="none" xmlns="http://www.w3.org/2000/svg">
<path fill-rule="evenodd" clip-rule="evenodd" d="M11.4405 18.4161C11.681 18.5094 11.954 18.4455 12.128 18.2552L15.4613 14.6094C15.6943 14.3546 15.6766 13.9593 15.4218 13.7264C15.1671 13.4935 14.7717 13.5112 14.5388 13.7659L12.2917 16.2236V7.00014C12.2917 6.65496 12.0119 6.37514 11.6667 6.37514C11.3216 6.37514 11.0417 6.65496 11.0417 7.00014V17.8335C11.0417 18.0914 11.2001 18.3228 11.4405 18.4161Z" fill="#394452"/>
<path fill-rule="evenodd" clip-rule="evenodd" d="M8.55954 6.41739C8.79994 6.51073 8.95834 6.74214 8.95834 7.00002V17.8334C8.95834 18.1785 8.67852 18.4584 8.33334 18.4584C7.98816 18.4584 7.70834 18.1785 7.70834 17.8334V8.60986L5.46127 11.0676C5.22836 11.3223 4.83302 11.34 4.57827 11.1071C4.32352 10.8742 4.30582 10.4789 4.53874 10.2241L7.87207 6.57829C8.04608 6.38797 8.31913 6.32406 8.55954 6.41739Z" fill="#394452"/>
</svg>
