<svg width="24" height="24" viewBox="0 0 24 24" fill="none" xmlns="http://www.w3.org/2000/svg">
<path fill-rule="evenodd" clip-rule="evenodd" d="M17.488 4.43045C17.8025 4.70002 17.8389 5.17349 17.5693 5.48799L11.9877 11.9999L17.5693 18.5118C17.8389 18.8263 17.8025 19.2998 17.488 19.5693C17.1735 19.8389 16.7 19.8025 16.4305 19.488L10.4305 12.488C10.1897 12.2071 10.1897 11.7927 10.4305 11.5118L16.4305 4.5118C16.7 4.1973 17.1735 4.16088 17.488 4.43045ZM13.4881 4.43055C13.8026 4.70012 13.839 5.17359 13.5694 5.48809L7.98781 12L13.5694 18.5119C13.839 18.8264 13.8026 19.2999 13.4881 19.5694C13.1736 19.839 12.7001 19.8026 12.4306 19.4881L6.43056 12.4881C6.18981 12.2072 6.18981 11.7928 6.43056 11.5119L12.4306 4.5119C12.7001 4.19741 13.1736 4.16098 13.4881 4.43055Z" fill="#394452"/>
</svg>
