<svg width="24" height="24" viewBox="0 0 24 24" fill="none" xmlns="http://www.w3.org/2000/svg">
<path fill-rule="evenodd" clip-rule="evenodd" d="M12 18.75C12.2106 18.75 12.4114 18.6615 12.5535 18.5061L16.5535 14.1311C16.833 13.8254 16.8118 13.351 16.5061 13.0715C16.2004 12.792 15.726 12.8132 15.4465 13.1189L12.75 16.0682V5C12.75 4.58579 12.4142 4.25 12 4.25C11.5858 4.25 11.25 4.58579 11.25 5V16.0682L8.55353 13.1189C8.27403 12.8132 7.79963 12.792 7.49393 13.0715C7.18823 13.351 7.16698 13.8254 7.44648 14.1311L11.4465 18.5061C11.5886 18.6615 11.7894 18.75 12 18.75Z" fill="#394452"/>
</svg>
