<svg width="24" height="24" viewBox="0 0 24 24" fill="none" xmlns="http://www.w3.org/2000/svg">
<path fill-rule="evenodd" clip-rule="evenodd" d="M12 4.25C12.2106 4.25 12.4114 4.33852 12.5535 4.49392L16.5535 8.86892C16.833 9.17462 16.8118 9.64902 16.5061 9.92852C16.2004 10.208 15.726 10.1868 15.4465 9.88108L12.75 6.9318V18C12.75 18.4142 12.4142 18.75 12 18.75C11.5858 18.75 11.25 18.4142 11.25 18V6.9318L8.55353 9.88108C8.27403 10.1868 7.79963 10.208 7.49393 9.92852C7.18823 9.64902 7.16698 9.17462 7.44648 8.86892L11.4465 4.49392C11.5886 4.33852 11.7894 4.25 12 4.25Z" fill="#394452"/>
</svg>
