<svg width="24" height="24" viewBox="0 0 24 24" fill="none" xmlns="http://www.w3.org/2000/svg">
<g clip-path="url(#clip0_10165_9337)">
<path fill-rule="evenodd" clip-rule="evenodd" d="M11.5119 2.43056C11.7928 2.18981 12.2072 2.18981 12.4881 2.43056L19.4881 8.43056C19.8026 8.70012 19.839 9.1736 19.5695 9.48809C19.2999 9.80259 18.8264 9.83901 18.5119 9.56944L12 3.98781L5.48811 9.56944C5.17361 9.83901 4.70014 9.80259 4.43057 9.48809C4.161 9.1736 4.19743 8.70012 4.51192 8.43056L11.5119 2.43056Z" fill="#394452"/>
<path fill-rule="evenodd" clip-rule="evenodd" d="M4.43057 14.5119C4.70014 14.1974 5.17361 14.161 5.48811 14.4306L12 20.0122L18.5119 14.4306C18.8264 14.161 19.2999 14.1974 19.5695 14.5119C19.839 14.8264 19.8026 15.2999 19.4881 15.5695L12.4881 21.5695C12.2072 21.8102 11.7928 21.8102 11.5119 21.5695L4.51192 15.5695C4.19743 15.2999 4.161 14.8264 4.43057 14.5119Z" fill="#394452"/>
</g>
<defs>
<clipPath id="clip0_10165_9337">
<rect width="24" height="24" fill="white"/>
</clipPath>
</defs>
</svg>
