<svg width="24" height="24" viewBox="0 0 24 24" fill="none" xmlns="http://www.w3.org/2000/svg">
    <path fill-rule="evenodd" clip-rule="evenodd" d="M19.25 11.5C19.25 11.2894 19.1615 11.0886 19.0061 10.9465L14.6311 6.94648C14.3254 6.66698 13.851 6.68823 13.5715 6.99393C13.292 7.29963 13.3132 7.77403 13.6189 8.05353L16.5682 10.75H5.5C5.08579 10.75 4.75 11.0858 4.75 11.5C4.75 11.9142 5.08579 12.25 5.5 12.25H16.5682L13.6189 14.9465C13.3132 15.226 13.292 15.7004 13.5715 16.0061C13.851 16.3118 14.3254 16.333 14.6311 16.0535L19.0061 12.0535C19.1615 11.9114 19.25 11.7106 19.25 11.5Z" fill="#394452"/>
</svg>
