<svg viewBox="0 0 24 24" fill="none" xmlns="http://www.w3.org/2000/svg">
<path opacity="0.5" d="M19.682 19.682C18.364 21 16.2426 21 12 21C7.75736 21 5.63604 21 4.31802 19.682C3 18.364 3 16.2426 3 12C3 7.75736 3 5.63604 4.31802 4.31802C5.63604 3 7.75736 3 12 3C16.2426 3 18.364 3 19.682 4.31802C21 5.63604 21 7.75736 21 12C21 16.2426 21 18.364 19.682 19.682Z" fill="#174275"/>
<path d="M16.2361 18H17.6479L12.7066 6H11.2948L6.35352 18H7.76531L8.90181 15.1765H15.0714L16.2361 18ZM9.48064 13.7647L11.9089 7.85647H12.0925L14.4996 13.7647H9.48064Z" fill="#174275"/>
</svg>
