<svg xmlns="http://www.w3.org/2000/svg" viewBox="0 0 24 24" fill="none">
        <path opacity="1" d="M-0.353516 25.6465L25.6465 -0.353516M-2.35352 23.6465L23.6465 -2.35352M-4.35352 21.6465L21.6465 -4.35352M-6.35352 19.6465L19.6465 -6.35352M-8.35352 17.6465L17.6465 -8.35352M-10.3535 15.6465L15.6465 -10.3535M-12.3535 13.6465L13.6465 -12.3535M-14.3535 11.6465L11.6465 -14.3535M1.64648 27.6465L27.6465 1.64648M3.64648 29.6465L29.6465 3.64648M5.64648 31.6465L31.6465 5.64648M7.64648 33.6465L33.6465 7.64648M9.64648 35.6465L35.6465 9.64648M11.6465 37.6465L37.6465 11.6465M13.6465 39.6465L39.6465 13.6465" stroke="#394452"/>
        <path d="M16.5 18.75H18L12.75 6H11.25L6 18.75H7.5L8.7075 15.75H15.2625L16.5 18.75ZM9.3225 14.25L11.9025 7.9725H12.0975L14.655 14.25H9.3225Z" fill="#394452"/>
    <defs>
        <clipPath id="clip0_794_96910">
            <rect width="24" height="24" fill="white"/>
        </clipPath>
    </defs>
</svg>