<svg viewBox="0 0 24 24" xmlns="http://www.w3.org/2000/svg">
<g clip-path="url(#clip0_794_96929)">
<path d="M16.0564 7.27417C16.3119 6.99027 16.7492 6.96726 17.0331 7.22277L18.6353 8.6647C19.3142 9.27575 19.8775 9.78262 20.2642 10.2424C20.6709 10.7258 20.96 11.2451 20.96 11.8863C20.96 12.5274 20.6709 13.0468 20.2642 13.5302C19.8775 13.99 19.3142 14.4968 18.6353 15.1079L17.0331 16.5498C16.7492 16.8053 16.3119 16.7823 16.0564 16.4984C15.8009 16.2145 15.8239 15.7772 16.1078 15.5217L17.6721 14.1138C18.3986 13.46 18.8885 13.017 19.2058 12.6398C19.5103 12.2778 19.5768 12.0665 19.5768 11.8863C19.5768 11.7061 19.5103 11.4948 19.2058 11.1328C18.8885 10.7556 18.3986 10.3126 17.6721 9.65875L16.1078 8.25086C15.8239 7.99535 15.8009 7.55807 16.0564 7.27417Z" fill="#174275"/>
<path d="M7.8121 8.25086C8.096 7.99535 8.11902 7.55807 7.86351 7.27417C7.608 6.99027 7.17072 6.96726 6.88682 7.22277L5.28467 8.6647C4.60569 9.27575 4.04246 9.78262 3.65572 10.2424C3.24905 10.7258 2.95996 11.2451 2.95996 11.8863C2.95996 12.5274 3.24905 13.0468 3.65572 13.5302C4.04246 13.99 4.60568 14.4968 5.28465 15.1079L6.88682 16.5498C7.17072 16.8053 7.608 16.7823 7.86351 16.4984C8.11902 16.2145 8.096 15.7772 7.8121 15.5217L6.24778 14.1138C5.52128 13.46 5.03145 13.017 4.71416 12.6398C4.40963 12.2778 4.34312 12.0665 4.34312 11.8863C4.34312 11.7061 4.40963 11.4948 4.71416 11.1328C5.03145 10.7556 5.52128 10.3126 6.24778 9.65875L7.8121 8.25086Z" fill="#174275"/>
<path opacity="0.5" d="M13.9723 4.45971C14.3413 4.55857 14.5602 4.93778 14.4613 5.30672L10.7973 18.9813C10.6984 19.3502 10.3192 19.5692 9.95026 19.4703C9.58132 19.3714 9.36238 18.9922 9.46124 18.6233L13.1253 4.94873C13.2242 4.5798 13.6034 4.36086 13.9723 4.45971Z" fill="#174275"/>
</g>
<defs>
<clipPath id="clip0_794_96929">
<rect fill="white"/>
</clipPath>
</defs>
</svg>
