<svg viewBox="0 0 24 24" fill="none" xmlns="http://www.w3.org/2000/svg">
    <path fill-rule="evenodd" clip-rule="evenodd" d="M8.65116 3.83728C5.53011 3.83728 3 6.36738 3 9.48841C3 10.9354 3.54464 12.2566 4.43911 13.256C4.67038 13.5144 5.06734 13.5364 5.32575 13.3051C5.58415 13.0738 5.60614 12.6769 5.37486 12.4185C4.6785 11.6404 4.25581 10.6145 4.25581 9.48841C4.25581 7.06094 6.22368 5.09309 8.65116 5.09309H12C14.4275 5.09309 16.3954 7.06094 16.3954 9.48841C16.3954 11.9159 14.4275 13.8837 12 13.8837H10.3256C9.9788 13.8837 9.69768 14.1649 9.69768 14.5116C9.69768 14.8584 9.9788 15.1395 10.3256 15.1395H12C15.1211 15.1395 17.6512 12.6094 17.6512 9.48841C17.6512 6.36738 15.1211 3.83728 12 3.83728H8.65116Z" fill="#174275"/>
    <path opacity="0.5" d="M7.60445 14.5117C7.60445 12.0843 9.57231 10.1164 11.9998 10.1164H13.6742C14.021 10.1164 14.3021 9.83528 14.3021 9.4885C14.3021 9.14172 14.021 8.8606 13.6742 8.8606H11.9998C8.87875 8.8606 6.34863 11.3907 6.34863 14.5117C6.34863 17.6328 8.87875 20.1629 11.9998 20.1629H15.3486C18.4697 20.1629 20.9998 17.6328 20.9998 14.5117C20.9998 13.0648 20.4552 11.7435 19.5607 10.7442C19.3294 10.4858 18.9325 10.4638 18.6741 10.695C18.4157 10.9263 18.3937 11.3233 18.6249 11.5817C19.3213 12.3597 19.744 13.3856 19.744 14.5117C19.744 16.9392 17.7761 18.9071 15.3486 18.9071H11.9998C9.57231 18.9071 7.60445 16.9392 7.60445 14.5117Z" fill="#174275"/>
</svg>
