<svg viewBox="0 0 24 24" fill="none" xmlns="http://www.w3.org/2000/svg">
<path d="M9 7.5H18.1388L15.4485 4.8105L16.5 3.75L21 8.25L16.5 12.75L15.4485 11.6888L18.1365 9H9C7.80653 9 6.66193 9.47411 5.81802 10.318C4.97411 11.1619 4.5 12.3065 4.5 13.5C4.5 14.6935 4.97411 15.8381 5.81802 16.682C6.66193 17.5259 7.80653 18 9 18H15V19.5H9C7.4087 19.5 5.88258 18.8679 4.75736 17.7426C3.63214 16.6174 3 15.0913 3 13.5C3 11.9087 3.63214 10.3826 4.75736 9.25736C5.88258 8.13214 7.4087 7.5 9 7.5Z" fill="#174275"/>
</svg>
