<svg viewBox="0 0 24 24" fill="none" xmlns="http://www.w3.org/2000/svg">
<path d="M22.0785 12.429L16.0897 6.4395C15.8083 6.15825 15.4267 6.00026 15.0289 6.00026C14.631 6.00026 14.2494 6.15825 13.968 6.4395L9.9495 10.458L6.75 1.5H5.25L1.5 12H3L3.74925 9.75H8.24925L8.8515 11.556L3.4395 16.968C3.30015 17.1073 3.1896 17.2727 3.11418 17.4547C3.03876 17.6367 2.99995 17.8318 2.99995 18.0289C2.99995 18.2259 3.03876 18.421 3.11418 18.603C3.1896 18.7851 3.30015 18.9505 3.4395 19.0897L6.849 22.5H14.0415L22.0785 14.4623C22.2121 14.3287 22.3181 14.1702 22.3904 13.9957C22.4627 13.8212 22.5 13.6341 22.5 13.4452C22.5 13.2564 22.4627 13.0693 22.3904 12.8948C22.3181 12.7203 22.2121 12.5618 22.0785 12.4282V12.429ZM4.24875 8.25L5.997 3L7.749 8.25H4.24875ZM13.4213 21H7.47L4.5 18.0285L9.234 13.2952L15.18 19.2405L13.4213 21ZM16.2413 18.18L10.2952 12.2347L15.0292 7.5L20.9745 13.4452L16.2413 18.18Z" fill="#174275"/>
</svg>
