<svg viewBox="0 0 24 24" fill="none" xmlns="http://www.w3.org/2000/svg">
<path opacity="0.5" d="M16.1551 15.6791C16.1551 15.3004 16.0957 14.9663 15.9769 14.6768C15.8656 14.3798 15.6651 14.1125 15.3756 13.8749C15.0934 13.6374 14.6999 13.4109 14.1951 13.1956C13.6977 12.9803 13.0666 12.7613 12.3019 12.5386C11.5001 12.301 10.7762 12.0374 10.1303 11.7479C9.48437 11.4509 8.93126 11.1131 8.47095 10.7345C8.01064 10.3558 7.65799 9.9215 7.41298 9.43149C7.16798 8.94149 7.04548 8.38095 7.04548 7.74989C7.04548 7.11882 7.17541 6.53601 7.43526 6.00146C7.69511 5.46691 8.06632 5.00289 8.5489 4.6094C9.03891 4.20849 9.62172 3.89667 10.2973 3.67394C10.9729 3.45121 11.7265 3.33984 12.558 3.33984C13.7756 3.33984 14.8076 3.57371 15.654 4.04144C16.5078 4.50175 17.1574 5.10683 17.6029 5.85669C18.0483 6.59912 18.271 7.39352 18.271 8.23989H16.1328C16.1328 7.6311 16.0029 7.09283 15.7431 6.6251C15.4832 6.14995 15.0897 5.77873 14.5626 5.51146C14.0355 5.23676 13.3673 5.09941 12.558 5.09941C11.7933 5.09941 11.1623 5.21448 10.6648 5.44464C10.1674 5.67479 9.79619 5.98661 9.55119 6.3801C9.31361 6.77359 9.19482 7.22276 9.19482 7.72761C9.19482 8.06913 9.26535 8.38095 9.40641 8.66308C9.5549 8.93778 9.78134 9.19391 10.0857 9.43149C10.3976 9.66907 10.791 9.88809 11.2662 10.0885C11.7488 10.289 12.3242 10.482 12.9924 10.6676C13.913 10.9275 14.7074 11.217 15.3756 11.5363C16.0437 11.8555 16.5931 12.2156 17.0238 12.6165C17.4618 13.01 17.7847 13.4592 17.9926 13.964C18.2079 14.4615 18.3156 15.0257 18.3156 15.6568C18.3156 16.3175 18.1819 16.9152 17.9147 17.4497C17.6474 17.9843 17.265 18.4409 16.7676 18.8195C16.2702 19.1982 15.6725 19.4914 14.9746 19.6993C14.2842 19.8998 13.5121 20 12.6583 20C11.9084 20 11.1697 19.8961 10.4421 19.6882C9.72195 19.4803 9.06489 19.1685 8.47095 18.7527C7.88443 18.337 7.41298 17.8247 7.05662 17.2159C6.70767 16.5997 6.5332 15.8869 6.5332 15.0777H8.67141C8.67141 15.6345 8.77906 16.1134 8.99436 16.5143C9.20967 16.9078 9.50293 17.2344 9.87414 17.4943C10.2528 17.7541 10.6797 17.9472 11.1548 18.0734C11.6374 18.1922 12.1386 18.2516 12.6583 18.2516C13.4081 18.2516 14.0429 18.1476 14.5626 17.9398C15.0823 17.7319 15.4758 17.4349 15.7431 17.0488C16.0178 16.6628 16.1551 16.2062 16.1551 15.6791Z" fill="#174275"/>
<path d="M21 11.5H3V13H21V11.5Z" fill="#174275"/>
</svg>
