<svg viewBox="0 0 24 24" fill="none" xmlns="http://www.w3.org/2000/svg">
<g clip-path="url(#clip0_794_96913)">
<path d="M6.85709 11.9552L12.5025 17.6006C12.5777 17.6646 12.6737 17.6998 12.7664 17.6998C12.848 17.6998 12.9248 17.6742 12.9808 17.6182L12.9952 17.6038L20.6866 8.6054C20.7666 8.51262 20.8098 8.39904 20.8098 8.29026C20.8098 8.20068 20.7778 8.11109 20.709 8.0423L16.6122 3.94543C16.545 3.87824 16.4602 3.84785 16.3722 3.84785C16.2586 3.84785 16.1418 3.89264 16.0411 3.97423L6.8235 11.4465L6.8059 11.4641C6.75471 11.5153 6.73231 11.5873 6.73231 11.6641C6.73231 11.7568 6.76591 11.8512 6.8267 11.9264L6.85709 11.9552ZM17.5432 9.05012C17.708 8.88535 17.9767 8.88535 18.1431 9.05012C18.3079 9.2149 18.3079 9.48365 18.1431 9.65002L14.0606 13.7309C13.8958 13.8957 13.6271 13.8957 13.4607 13.7309C13.2959 13.5661 13.2959 13.2974 13.4607 13.131L17.5432 9.05012ZM15.0892 6.59776C15.254 6.43299 15.5228 6.43299 15.6891 6.59776C15.8539 6.76253 15.8539 7.03128 15.6891 7.19765L11.6082 11.2785C11.4435 11.4433 11.1747 11.4433 11.0084 11.2785C10.8436 11.1138 10.8436 10.845 11.0084 10.6786L15.0892 6.59776ZM6.90188 19.925L5.95005 20.8768C5.84927 20.9776 5.7101 21.0176 5.57892 20.9952L2.37789 20.6417C2.14593 20.6161 1.97796 20.4065 2.00355 20.1745C2.01475 20.0754 2.05954 19.9874 2.12513 19.9218L4.51191 17.535L4.34074 17.3638C4.17597 17.1991 4.17597 16.9303 4.34074 16.764L5.09101 16.0137L5.0926 16.0153L5.1038 16.0041C5.1342 15.9753 5.16299 15.9417 5.19019 15.9049C5.21578 15.8697 5.23818 15.8281 5.25898 15.7849C5.40615 15.4666 5.34536 14.7803 5.29737 14.2444H5.29897C5.28457 14.0908 5.27337 13.9485 5.26697 13.8509C5.17739 13.1438 5.62851 12.7343 6.08123 12.3295C5.95805 12.1296 5.89246 11.8992 5.89086 11.6721C5.88766 11.3777 5.99005 11.085 6.20921 10.8658C6.23 10.845 6.2572 10.821 6.29239 10.7922L15.5084 3.31834C15.7611 3.11198 16.0683 3 16.3722 3C16.6761 3 16.9753 3.10878 17.212 3.34554L21.3089 7.44241C21.5457 7.67917 21.6577 7.98151 21.6577 8.28866C21.6577 8.59421 21.5441 8.90455 21.3297 9.15411L13.6383 18.1541C13.6143 18.1829 13.5935 18.2053 13.5807 18.2181C13.3567 18.4421 13.0592 18.5476 12.76 18.5444C12.5345 18.5428 12.3057 18.4788 12.109 18.3573C11.7042 18.8116 11.2947 19.2611 10.5876 19.1715C10.4421 19.1635 10.3221 19.1523 10.1941 19.1411V19.1395C9.65819 19.0915 8.97351 19.0308 8.65357 19.1795C8.60878 19.2003 8.56879 19.2227 8.53359 19.2483C8.5048 19.2691 8.476 19.2931 8.44881 19.3203C8.44081 19.3299 8.43281 19.3395 8.42321 19.3475L7.67295 20.0978C7.50817 20.2625 7.23942 20.2625 7.07305 20.0978L6.90188 19.925ZM5.23818 17.0615L5.40935 17.2327L7.20103 19.0244L7.3722 19.1955L7.83452 18.7332C7.89851 18.6676 7.96729 18.6084 8.04088 18.5556C8.12247 18.498 8.20885 18.4485 8.29683 18.4069C8.81834 18.1653 9.6294 18.2373 10.2645 18.2949V18.2933C10.4213 18.3077 10.5668 18.3205 10.6484 18.3253L10.6836 18.3285C10.9604 18.3653 11.2227 18.0725 11.4835 17.7798L6.65233 12.9502C6.35958 13.211 6.06523 13.4749 6.10522 13.7517L6.10842 13.7853C6.11642 13.9229 6.12762 14.0428 6.13882 14.1692H6.14042C6.19641 14.8027 6.2684 15.6138 6.02684 16.1369C5.98525 16.2248 5.93725 16.3112 5.87807 16.3928C5.82367 16.468 5.76129 16.5416 5.6877 16.6104L5.6893 16.612L5.23818 17.0615Z" fill="#174275"/>
</g>
<defs>
<clipPath id="clip0_794_96913">
<rect width="19.6573" height="18" fill="white" transform="translate(2 3)"/>
</clipPath>
</defs>
</svg>
