<svg viewBox="0 0 24 24" fill="none" xmlns="http://www.w3.org/2000/svg">
<path d="M7.04035 7L8.8461 10.1854L10.6678 7H12.4097L9.85818 11.0909L12.431 15.1818H10.6891L8.8461 12.1243L7.00839 15.1818H5.26123L7.8074 11.0909L5.29319 7H7.04035Z" fill="#174275"/>
<path d="M13.72 17.0568V16.2259L16.2129 14.0099C16.4615 13.7898 16.6693 13.5927 16.8362 13.4187C17.0031 13.2447 17.1291 13.076 17.2144 12.9126C17.2996 12.7493 17.3422 12.5753 17.3422 12.3906C17.3422 12.071 17.2197 11.8171 16.9747 11.6289C16.7296 11.4407 16.426 11.3466 16.0638 11.3466C15.6803 11.3466 15.3713 11.4496 15.1369 11.6555C14.9026 11.858 14.7854 12.1243 14.7854 12.4545H13.6774C13.6774 11.8473 13.9029 11.359 14.3539 10.9897C14.8049 10.6168 15.382 10.4304 16.0851 10.4304C16.5538 10.4304 16.9658 10.5156 17.3209 10.6861C17.676 10.853 17.953 11.0838 18.1519 11.3786C18.3507 11.6697 18.4502 12 18.4502 12.3693C18.4502 12.6605 18.3916 12.9304 18.2744 13.179C18.1572 13.4276 17.9743 13.685 17.7257 13.9513C17.4771 14.2177 17.1575 14.5213 16.7669 14.8622L15.382 16.0767V16.1193H18.6419V17.0568H13.72Z" fill="#174275"/>
</svg>
