<svg viewBox="0 0 24 24" fill="none" xmlns="http://www.w3.org/2000/svg">
<path d="M7.03986 8.89915L8.84561 12.0845L10.6673 8.89915H12.4092L9.85769 12.9901L12.4305 17.081H10.6887L8.84561 14.0234L7.0079 17.081H5.26074L7.80691 12.9901L5.2927 8.89915H7.03986Z" fill="#174275"/>
<path d="M13.7195 11.6264V10.7955L16.2124 8.57955C16.461 8.35938 16.6688 8.16229 16.8357 7.98828C17.0026 7.81428 17.1286 7.6456 17.2139 7.48224C17.2991 7.31889 17.3417 7.14489 17.3417 6.96023C17.3417 6.64062 17.2192 6.38672 16.9742 6.19851C16.7291 6.0103 16.4255 5.91619 16.0633 5.91619C15.6798 5.91619 15.3708 6.01918 15.1365 6.22514C14.9021 6.42756 14.7849 6.69389 14.7849 7.02415H13.6769C13.6769 6.4169 13.9024 5.92862 14.3534 5.5593C14.8044 5.18643 15.3815 5 16.0846 5C16.5534 5 16.9653 5.08523 17.3204 5.25568C17.6755 5.42259 17.9525 5.65341 18.1514 5.94815C18.3502 6.23935 18.4497 6.5696 18.4497 6.93892C18.4497 7.23011 18.3911 7.5 18.2739 7.74858C18.1567 7.99716 17.9738 8.25462 17.7252 8.52095C17.4767 8.78729 17.157 9.09091 16.7664 9.43182L15.3815 10.6463V10.6889H18.6414V11.6264H13.7195Z" fill="#174275"/>
</svg>
