<svg width="24" height="24" viewBox="0 0 24 24" fill="none" xmlns="http://www.w3.org/2000/svg">
<mask id="path-1-inside-1_14093_251639" fill="white">
<path fill-rule="evenodd" clip-rule="evenodd" d="M21.3551 12.3441C21.6285 12.029 21.6268 11.5603 21.3511 11.2473L13.4588 2.28429C12.9511 1.70776 12 2.06682 12 2.83501V5.16667C12 5.6269 11.6269 6 11.1667 6H3.83333C3.3731 6 3 6.3731 3 6.83333V17.1667C3 17.6269 3.3731 18 3.83333 18H11.1667C11.6269 18 12 18.3731 12 18.8333V20.8954C12 21.6666 12.9574 22.024 13.4628 21.4415L21.3551 12.3441Z"/>
</mask>
<path d="M21.3511 11.2473L20.6006 11.9081L21.3511 11.2473ZM21.3551 12.3441L20.5998 11.6888L21.3551 12.3441ZM13.4588 2.28429L14.2093 1.62343L13.4588 2.28429ZM13.4588 2.28429L12.7082 2.94515L20.6006 11.9081L21.3511 11.2473L22.1016 10.5864L14.2093 1.62343L13.4588 2.28429ZM12 5.16667H13V2.83501H12H11V5.16667H12ZM3.83333 6V7H11.1667V6V5H3.83333V6ZM3 17.1667H4V6.83333H3H2V17.1667H3ZM11.1667 18V17H3.83333V18V19H11.1667V18ZM12 20.8954H13V18.8333H12H11V20.8954H12ZM21.3551 12.3441L20.5998 11.6888L12.7074 20.7862L13.4628 21.4415L14.2182 22.0968L22.1105 12.9994L21.3551 12.3441ZM12 20.8954H11C11 22.5921 13.1063 23.3784 14.2182 22.0968L13.4628 21.4415L12.7074 20.7862C12.722 20.7694 12.7554 20.7452 12.8005 20.735C12.8393 20.7262 12.8703 20.7313 12.8916 20.7393C12.913 20.7472 12.9397 20.7637 12.9632 20.7957C12.9906 20.833 13 20.8732 13 20.8954H12ZM11.1667 18V19C11.0746 19 11 18.9254 11 18.8333H12H13C13 17.8208 12.1792 17 11.1667 17V18ZM3 17.1667H2C2 18.1792 2.82081 19 3.83333 19V18V17C3.92538 17 4 17.0746 4 17.1667H3ZM3.83333 6V5C2.82081 5 2 5.82081 2 6.83333H3H4C4 6.92538 3.92538 7 3.83333 7V6ZM12 5.16667H11C11 5.07462 11.0746 5 11.1667 5V6V7C12.1792 7 13 6.17919 13 5.16667H12ZM21.3511 11.2473L20.6006 11.9081C20.5454 11.8455 20.5451 11.7518 20.5998 11.6888L21.3551 12.3441L22.1105 12.9994C22.7119 12.3062 22.7081 11.2751 22.1016 10.5864L21.3511 11.2473ZM13.4588 2.28429L14.2093 1.62343C13.0924 0.355069 11 1.145 11 2.83501H12H13C13 2.85731 12.9907 2.8973 12.9635 2.93437C12.9401 2.96632 12.9136 2.98287 12.8922 2.99093C12.8708 2.999 12.84 3.00415 12.8013 2.99562C12.7564 2.98573 12.723 2.96189 12.7082 2.94515L13.4588 2.28429Z" fill="#E4628D" mask="url(#path-1-inside-1_14093_251639)"/>
</svg>
