<svg width="24" height="24" viewBox="0 0 24 24" fill="none" xmlns="http://www.w3.org/2000/svg">
    <path fill-rule="evenodd" clip-rule="evenodd" d="M4.75 11.5C4.75 11.2894 4.83852 11.0886 4.99392 10.9465L9.36892 6.94648C9.67462 6.66698 10.149 6.68823 10.4285 6.99393C10.708 7.29963 10.6868 7.77403 10.3811 8.05353L7.4318 10.75H18.5C18.9142 10.75 19.25 11.0858 19.25 11.5C19.25 11.9142 18.9142 12.25 18.5 12.25H7.4318L10.3811 14.9465C10.6868 15.226 10.708 15.7004 10.4285 16.0061C10.149 16.3118 9.67462 16.333 9.36892 16.0535L4.99392 12.0535C4.83852 11.9114 4.75 11.7106 4.75 11.5Z" fill="#394452"/>
</svg>
