<svg width="151" height="150" viewBox="0 0 151 150" fill="none" xmlns="http://www.w3.org/2000/svg">
    <g clip-path="url(#clip0_16635_2721)">
        <path d="M91.8242 147.263C91.6592 147.87 91.2174 148.441 90.0273 148.918C89.2968 149.219 88.2834 149.478 86.8754 149.678C86.3393 149.761 85.809 149.784 85.2847 149.778C82.1563 149.737 79.299 148.394 77.8968 147.693C76.259 146.874 75.9114 144.123 75.8584 143.327C75.7052 140.806 75.4165 138.414 75.1927 137.512C75.0336 136.894 74.6624 134.549 74.0262 134.531C73.2779 134.514 72.6358 134.461 72.0879 134.396C72.0879 134.396 70.8624 145.313 70.2026 146.255C69.6606 147.027 63.4923 148.459 58.8557 148.305C57.7952 148.27 56.8231 148.152 56.0101 147.928C55.6036 147.816 55.2383 147.681 54.9143 147.534C51.7801 146.114 52.5931 143.327 55.0027 141.695C56.8231 140.464 59.1974 140.546 60.682 140.77L57.8247 123.314H90.316L87.2996 141.819C87.6354 141.872 87.9653 141.937 88.3011 142.019C92.1895 142.962 92.1541 146.167 91.836 147.269L91.8242 147.263Z" fill="url(#paint0_linear_16635_2721)" stroke="#01465A" stroke-width="0.441858" stroke-miterlimit="10"/>
        <path d="M63.2389 95.8123C63.2389 95.8123 61.2417 100.201 58.8733 108.402C57.0647 114.677 56.9881 121.746 57.047 124.598C57.0647 125.334 57.6185 125.941 58.3549 126.012C63.4392 126.483 82.4745 128.086 90.2217 126.554C90.8521 126.43 91.2527 125.811 91.0936 125.193C89.774 119.961 82.4862 99.3235 81.5083 98.4929C80.3948 97.5502 77.5846 97.727 77.5846 97.727L63.2389 95.8181V95.8123Z" fill="#B3A6F9" stroke="#01465A" stroke-width="0.441858" stroke-miterlimit="10"/>
        <path d="M93.0319 126.86C93.0319 127.962 93.0319 129.623 92.484 130.625C91.6592 132.104 90.7107 132.858 89.6502 132.858C89.5501 132.858 89.4558 132.846 89.3556 132.834C89.067 133.035 88.7488 133.147 88.4012 133.147H88.3777C87.1405 133.129 86.6986 131.809 86.6102 130.896C86.3805 130.99 86.133 131.037 85.8385 131.037C85.4143 131.037 85.0667 130.896 84.8016 130.619C84.1535 129.942 84.1947 128.61 84.2242 127.726C84.2242 127.503 84.236 127.314 84.2242 127.173C84.1889 126.513 84.9135 125.405 85.6028 124.415C85.7206 124.239 85.8561 124.056 85.8679 124.009C85.9033 123.85 85.8856 122.336 85.8561 121.322V121.275L86.8636 119.231L89.7622 118.877L92.5076 120.562V120.686C92.3721 122.23 92.2719 123.95 92.3308 124.162C92.3485 124.197 92.3721 124.268 92.4133 124.339C92.6077 124.798 93.0201 125.747 93.0201 126.654V126.866L93.0319 126.86Z" fill="url(#paint1_linear_16635_2721)"/>
        <path d="M72.082 134.39C72.082 134.39 70.8566 145.306 70.1967 146.249C69.6547 147.021 63.4864 148.453 58.8498 148.299C57.7894 148.264 56.8173 148.146 56.0043 147.922C55.5977 147.81 55.2325 147.675 54.9085 147.528C51.7742 146.108 52.5872 143.321 54.9968 141.689C56.8173 140.458 59.1915 140.54 60.6762 140.764C61.5245 140.888 62.0783 141.065 62.0783 141.065" stroke="#01465A" stroke-width="0.441858" stroke-linecap="round" stroke-linejoin="round"/>
        <path d="M81.2373 142.343C83.3877 141.583 85.3436 141.477 87.2878 141.807C87.6236 141.86 87.9535 141.925 88.2893 142.007C92.1777 142.95 92.1423 146.155 91.8242 147.256C91.6592 147.863 91.2174 148.435 90.0273 148.912C89.2968 149.212 88.2834 149.471 86.8754 149.672C86.3393 149.754 85.809 149.778 85.2847 149.772C82.1563 149.731 79.299 148.387 77.8968 147.686C76.259 146.867 75.9114 144.116 75.8584 143.321C75.7052 140.799 75.4165 138.407 75.1927 137.506C75.0336 136.887 74.6624 134.543 74.0261 134.525C73.2779 134.507 72.6358 134.454 72.0879 134.389C70.509 134.201 69.7607 133.9 69.7607 133.9" stroke="#01465A" stroke-width="0.441858" stroke-linecap="round" stroke-linejoin="round"/>
        <path d="M56.7231 143.327C56.7231 143.327 54.343 143.557 55.0264 147.475" stroke="#01465A" stroke-width="0.589144" stroke-linecap="round" stroke-linejoin="round"/>
        <path d="M60.2579 143.963C60.2579 143.963 57.7186 144.871 58.9441 148.123" stroke="#01465A" stroke-width="0.589144" stroke-linecap="round" stroke-linejoin="round"/>
        <path d="M88.4896 144.47C88.4896 144.47 90.7578 145.66 89.9271 148.859" stroke="#01465A" stroke-width="0.589144" stroke-linecap="round" stroke-linejoin="round"/>
        <path d="M84.6071 144.83C84.6071 144.83 85.9091 146.191 85.6558 147.982C85.4673 149.284 85.2728 149.69 85.2728 149.69" stroke="#01465A" stroke-width="0.589144" stroke-linecap="round" stroke-linejoin="round"/>
        <path d="M86.7341 130.772C86.7341 130.772 86.7576 133.205 88.3719 133.229C89.9861 133.252 90.6401 130.796 90.6637 129.134" stroke="#01465A" stroke-width="0.294572" stroke-miterlimit="10"/>
        <path d="M89.3734 132.905C90.8404 133.111 91.836 131.786 92.4193 130.737C93.0026 129.688 92.9554 127.791 92.9554 126.737C92.9554 125.682 92.3722 124.539 92.2543 124.233C92.1365 123.926 92.4193 120.562 92.4193 120.562L89.7623 118.925L86.9579 119.266L85.9917 121.228C85.9917 121.228 86.0624 123.873 85.9917 124.08C85.921 124.286 84.2596 126.371 84.3068 127.261C84.3539 128.151 83.8885 131.026 85.7561 131.049C87.6296 131.073 87.4882 128.805 87.4882 128.805" stroke="#01465A" stroke-width="0.294572" stroke-miterlimit="10"/>
        <path d="M84.6956 111.047C85.9151 115.713 85.7443 121.11 85.7443 121.11C87.8534 122.83 92.5842 121.681 92.5842 121.681C92.5842 121.681 93.0261 112.426 90.1982 104.738C87.3703 97.0493 80.3124 96.2363 80.3124 96.2363L70.7859 97.5501" fill="#B3A6F9"/>
        <path d="M84.6956 111.047C85.9151 115.713 85.7443 121.11 85.7443 121.11C87.8534 122.83 92.5842 121.681 92.5842 121.681C92.5842 121.681 93.0261 112.426 90.1982 104.738C87.3703 97.0493 80.3124 96.2363 80.3124 96.2363L70.7859 97.5501" stroke="#01465A" stroke-width="0.441858" stroke-miterlimit="10"/>
        <path d="M67.7872 95.8123C67.7872 95.8123 68.3528 98.5636 73.5844 98.5636C78.816 98.5636 80.0768 96.1009 80.0768 96.1009" fill="url(#paint2_linear_16635_2721)"/>
        <path d="M67.7872 95.8123C67.7872 95.8123 68.3528 98.5636 73.5844 98.5636C78.816 98.5636 80.0768 96.1009 80.0768 96.1009" stroke="#01465A" stroke-width="0.441858" stroke-miterlimit="10"/>
        <path d="M59.9635 136.953C58.5554 137.642 57.0885 138.178 55.6038 138.573C54.343 138.909 53.0469 139.127 51.8038 139.48C50.7257 139.775 49.6888 140.17 48.7462 140.812C48.7049 140.841 48.6578 140.871 48.6225 140.9C47.6975 141.554 47.3322 141.913 47.7152 142.52C47.8978 142.791 48.2159 143.115 48.7108 143.534C49.0172 143.793 49.8066 144.264 50.3663 144.482C50.5195 144.535 50.6491 144.57 50.7434 144.576H50.7493C50.7493 144.576 50.7964 144.582 50.8141 144.582C50.7787 144.464 50.7493 144.341 50.7316 144.223C50.6197 143.592 50.7021 143.045 50.9319 142.567C51.1499 142.102 51.5034 141.719 51.9334 141.442C52.8761 140.818 54.1722 140.676 55.1855 141.201C55.2916 141.254 55.3917 141.312 55.4919 141.383C55.592 141.454 55.6863 141.53 55.7806 141.619C55.8689 141.701 55.9514 141.79 56.0339 141.89C56.1164 141.99 56.193 142.096 56.2578 142.208C56.3226 142.314 56.3756 142.42 56.4286 142.544C56.4404 142.573 56.4581 142.597 56.464 142.626C56.517 142.738 56.5582 142.868 56.5995 142.992C56.9176 144.093 56.9706 145.042 56.8116 145.849C56.5759 147.08 55.8689 147.987 54.8792 148.583C53.6302 149.331 51.9334 149.578 50.1719 149.354C47.8801 149.066 45.4823 147.976 43.8445 146.12C42.6603 144.783 41.8709 143.045 41.8237 140.935V140.847C41.8237 140.358 41.9298 139.362 42.2008 138.761C42.46 138.261 42.7074 137.907 42.9608 137.63H42.9667C43.3143 137.253 43.6913 136.988 44.2039 136.635C44.3571 136.529 44.5102 136.417 44.6634 136.311C44.8814 136.157 45.117 136.01 45.3704 135.863H45.3822C47.5208 134.632 50.82 133.677 52.8525 133.188C55.2091 132.629 57.2181 131.939 58.9619 130.908L59.9458 136.953H59.9635Z" fill="url(#paint3_linear_16635_2721)" stroke="#01465A" stroke-width="0.294572" stroke-miterlimit="10"/>
        <path d="M56.8114 145.843C56.7643 145.813 56.7171 145.784 56.6641 145.749C55.5035 144.965 54.3665 144.635 53.4062 144.529C51.8862 144.358 50.8198 144.735 50.8198 144.735L50.7491 144.57H50.7432L50.6254 144.305C50.6607 144.27 50.6961 144.246 50.7373 144.217C50.6254 143.586 50.7079 143.038 50.9376 142.561C51.1556 142.096 51.5091 141.713 51.9392 141.436C52.8818 140.812 54.1779 140.67 55.1913 141.194C55.2973 141.247 55.3975 141.306 55.4976 141.377C55.5978 141.448 55.692 141.524 55.7863 141.613C55.8747 141.695 55.9572 141.784 56.0396 141.884C56.1221 141.984 56.1987 142.09 56.2635 142.202C56.3283 142.308 56.3813 142.414 56.4344 142.538C56.4461 142.567 56.4638 142.591 56.4697 142.62C56.5227 142.732 56.564 142.862 56.6052 142.985C56.9233 144.087 56.9764 145.036 56.8173 145.843H56.8114Z" fill="#01465A"/>
        <path d="M50.7314 144.205C51.3029 143.769 52.222 142.897 50.9317 142.561C50.7079 143.032 50.6195 143.58 50.7314 144.205Z" fill="#01465A"/>
        <path d="M43.8444 146.114C45.4763 147.97 47.8741 149.06 50.1718 149.348C48.8933 146.267 50.2366 144.617 50.3603 144.476C49.8006 144.264 49.0112 143.787 48.7048 143.527C48.2099 143.109 47.8918 142.785 47.7091 142.514C44.6751 142.909 43.9386 144.706 43.8444 146.114Z" fill="#01465A"/>
        <path d="M51.8036 139.474C50.7255 139.768 49.6886 140.163 48.746 140.805C48.4396 140.31 47.6973 139.686 45.9711 139.438C43.7029 139.12 42.3538 140.31 41.8235 140.923V140.835C41.8117 140.416 41.8353 139.974 41.8883 139.527C41.9826 138.749 42.4068 138.142 42.9606 137.612H42.9665C43.3376 137.247 43.7736 136.923 44.2037 136.616C44.3569 136.51 44.51 136.398 44.6632 136.292C44.8812 136.139 45.1168 135.992 45.3702 135.845H45.382C50.0126 135.303 51.4148 138.231 51.7919 139.462L51.8036 139.474Z" fill="#01465A"/>
        <path d="M40.9222 41.1104C40.9222 41.1104 34.4769 30.2466 44.5808 32.6385C54.6846 35.0304 65.0476 40.1324 65.0476 40.1324L59.3271 50.4306L40.9163 41.1104H40.9222Z" fill="url(#paint4_linear_16635_2721)" stroke="#01465A" stroke-width="0.441858" stroke-miterlimit="10"/>
        <path d="M55.038 64.9711C55.038 64.9711 38.8071 41.9002 39.6731 35.7613C40.5392 29.6224 54.2544 41.4878 54.873 42.0121C55.4916 42.5364 59.486 46.8431 59.486 46.8431L55.038 64.9769V64.9711Z" fill="url(#paint5_linear_16635_2721)" stroke="#01465A" stroke-width="0.441858" stroke-miterlimit="10"/>
        <path d="M110.317 42.4716C110.317 42.4716 114.807 37.623 112.197 34.8481C109.593 32.0732 90.6577 36.5154 84.3421 39.4081C78.0264 42.3008 91.3764 48.0037 91.3764 48.0037L110.317 42.4716Z" fill="url(#paint6_linear_16635_2721)" stroke="#01465A" stroke-width="0.441858" stroke-miterlimit="10"/>
        <path d="M88.0655 44.7336C88.0655 44.7336 107.242 35.3603 110.194 35.808C112.085 36.0967 112.668 37.7758 111.79 40.4623C111.295 41.9705 110.347 43.7968 108.904 45.8706C104.891 51.6442 94.929 66.4907 90.2394 68.7707C85.5499 71.0448 88.0655 44.7336 88.0655 44.7336Z" fill="url(#paint7_linear_16635_2721)" stroke="#01465A" stroke-width="0.441858" stroke-miterlimit="10"/>
        <path d="M105.975 71.1511C105.975 71.7108 105.952 72.2587 105.928 72.8007C104.939 88.1302 90.2335 96.3665 75.8819 96.3665C61.5304 96.3665 43.6793 86.6279 43.6793 70.7564C43.6793 70.1437 43.7029 69.5251 43.7441 68.9182C44.7751 53.6771 58.4432 38.9072 72.7241 38.9072C94.1218 38.9072 105.981 55.2854 105.981 71.1511H105.975Z" fill="url(#paint8_linear_16635_2721)" stroke="#01465A" stroke-width="0.441858" stroke-miterlimit="10"/>
        <path d="M105.975 71.1511C105.975 71.7108 105.952 72.2587 105.928 72.8007C101.439 71.6755 99.7659 68.8652 97.8041 66.0315C95.4239 62.5968 91.7477 49.6415 81.6438 49.6415C71.54 49.6415 70.3087 69.4956 70.1909 71.1334C70.073 72.7713 69.5782 73.5607 67.6281 74.1852C65.6839 74.8097 64.6176 72.082 64.6176 72.082C64.6176 72.082 65.8312 65.8017 65.2833 57.9189C64.7354 50.0303 60.5642 47.9212 54.8201 50.4191C49.0818 52.9112 45.2583 68.1406 44.3981 69.313C44.1684 69.6194 43.9386 69.4073 43.7383 68.9124C44.7693 53.6712 58.4374 38.9014 72.7183 38.9014C94.116 38.9014 105.975 55.2796 105.975 71.1452V71.1511Z" fill="url(#paint9_linear_16635_2721)" stroke="#01465A" stroke-width="0.441858" stroke-miterlimit="10"/>
        <path d="M70.0935 74.8107C70.3451 73.3451 68.932 71.8795 66.9374 71.5372C64.9427 71.1948 63.1218 72.1053 62.8702 73.5708C62.6187 75.0363 64.0317 76.5019 66.0264 76.8443C68.0211 77.1867 69.842 76.2762 70.0935 74.8107Z" fill="#EFA3B2" stroke="#01465A" stroke-width="0.441858" stroke-miterlimit="10"/>
        <path d="M56.7113 73.0126C60.1115 73.0126 62.8678 69.0297 62.8678 64.1165C62.8678 59.2034 60.1115 55.2205 56.7113 55.2205C53.3111 55.2205 50.5547 59.2034 50.5547 64.1165C50.5547 69.0297 53.3111 73.0126 56.7113 73.0126Z" fill="#01465A"/>
        <path d="M90.1394 65.7485C90.1394 70.7974 87.0582 74.8861 82.8222 74.8861C78.5863 74.8861 75.1516 71.3041 75.1516 66.2551C75.1516 61.2062 78.5863 56.6108 82.8222 56.6108C87.0582 56.6108 90.1394 60.6995 90.1394 65.7485Z" fill="#01465A"/>
        <path d="M57.2591 73.8669C60.6593 73.8669 63.4157 69.884 63.4157 64.9708C63.4157 60.0576 60.6593 56.0747 57.2591 56.0747C53.859 56.0747 51.1026 60.0576 51.1026 64.9708C51.1026 69.884 53.859 73.8669 57.2591 73.8669Z" fill="white" stroke="#01465A" stroke-width="0.589144" stroke-miterlimit="10"/>
        <path d="M89.285 66.6025C89.285 71.6514 86.2037 75.7401 81.9678 75.7401C77.7318 75.7401 74.2971 72.1581 74.2971 67.1091C74.2971 62.0602 77.7318 57.4648 81.9678 57.4648C86.2037 57.4648 89.285 61.5535 89.285 66.6025Z" fill="white" stroke="#01465A" stroke-width="0.589144" stroke-miterlimit="10"/>
        <path d="M61.9841 66.5268C62.1378 63.8371 60.8772 61.5775 59.1685 61.4799C57.4598 61.3823 55.9501 63.4836 55.7964 66.1733C55.6427 68.863 56.9033 71.1226 58.612 71.2202C60.3207 71.3178 61.8304 69.2165 61.9841 66.5268Z" fill="#01465A"/>
        <path d="M82.753 67.5827C82.9112 64.815 81.4936 62.483 79.5867 62.3741C77.6799 62.2651 76.0059 64.4204 75.8478 67.1881C75.6896 69.9558 77.1072 72.2878 79.0141 72.3967C80.9209 72.5057 82.5949 70.3503 82.753 67.5827Z" fill="#01465A"/>
        <path d="M57.047 98.3633C57.047 98.3633 50.584 102.434 51.1437 107.489C51.7034 112.544 56.5521 111.413 57.8305 110.429C59.109 109.445 61.8367 104.626 61.8367 104.626L57.047 98.3633Z" fill="#B3A6F9" stroke="#01465A" stroke-width="0.441858" stroke-miterlimit="10"/>
        <path d="M67.2746 90.6224C66.6324 90.9405 65.9785 91.182 65.3658 91.3529C66.2907 91.7358 67.7459 92.5548 67.7341 93.9157C67.7224 95.3885 67.6576 95.907 67.634 96.0661C67.6576 96.2546 67.6693 96.4431 67.6458 96.6434C67.5044 97.8747 67.145 98.6229 66.5794 98.8822C66.438 98.9529 66.2849 98.9823 66.1199 98.9823C65.8253 98.9823 65.5013 98.8704 65.1655 98.6465C65.1301 98.617 65.0535 98.5463 64.9711 98.4521C64.865 99.707 64.0225 100.862 63.2743 101.651C63.1977 101.734 63.1211 101.81 63.0505 101.875C63.0681 101.922 63.0681 101.975 63.0505 102.028L62.1903 104.355C62.0784 104.668 61.825 104.903 61.5128 104.997C61.2182 105.086 60.741 105.192 60.2108 105.192C59.439 105.192 58.5376 104.974 57.8601 104.137C56.5168 102.488 55.8158 99.866 57.2945 97.7333C57.4654 97.4918 57.6598 97.2561 57.8778 97.0381C57.8778 97.0323 57.8837 97.0322 57.8837 97.0322C57.7717 95.471 57.8954 93.2146 59.0914 91.1055C60.9001 87.9064 62.9974 86.5631 65.4954 86.9873C66.9447 87.2407 68.1819 88.1597 68.3233 89.0847C68.3763 89.4441 68.3115 90.1098 67.2687 90.6341L67.2746 90.6224Z" fill="url(#paint10_linear_16635_2721)"/>
        <path d="M58.4257 98.9349C58.4257 98.9349 57.2592 94.8109 59.2977 91.2053C61.56 87.2051 63.8635 86.9282 65.4601 87.1992C67.4868 87.5468 69.2542 89.3554 67.1686 90.4041C65.0772 91.4469 62.7088 91.6236 62.7088 91.6236" stroke="#01465A" stroke-width="0.441858" stroke-linecap="round" stroke-linejoin="round"/>
        <path d="M64.5646 91.3174C64.5646 91.3174 67.5162 92.1186 67.4985 93.9155C67.4809 95.7065 67.3925 96.0718 67.3925 96.0718" stroke="#01465A" stroke-width="0.441858" stroke-linecap="round" stroke-linejoin="round"/>
        <path d="M63.7221 93.9329C63.7221 93.9329 67.7106 94.1273 67.4102 96.6135C67.1156 99.1056 66.0316 98.9406 65.301 98.4457C65.1361 98.3338 64.2406 97.2026 64.2406 97.2026" stroke="#01465A" stroke-width="0.441858" stroke-linecap="round" stroke-linejoin="round"/>
        <path d="M62.2727 102.363C62.2727 102.363 62.8324 102.098 63.3273 101.238C63.9341 100.184 64.9121 99.2469 64.7295 97.8506" stroke="#01465A" stroke-width="0.441858" stroke-linecap="round" stroke-linejoin="round"/>
        <path d="M62.8325 101.939L61.8427 104.62C61.8427 104.62 59.439 105.681 58.0487 103.978C56.7938 102.44 56.0632 99.9246 57.4949 97.8508C57.6539 97.621 57.8366 97.403 58.0487 97.1851" stroke="#01465A" stroke-width="0.441858" stroke-linecap="round" stroke-linejoin="round"/>
        <path d="M60.4524 64.8883C60.7224 64.8883 60.9414 64.5428 60.9414 64.1165C60.9414 63.6903 60.7224 63.3447 60.4524 63.3447C60.1823 63.3447 59.9634 63.6903 59.9634 64.1165C59.9634 64.5428 60.1823 64.8883 60.4524 64.8883Z" fill="white"/>
        <path d="M80.8839 65.8605C81.1539 65.8605 81.3728 65.5149 81.3728 65.0887C81.3728 64.6624 81.1539 64.3169 80.8839 64.3169C80.6138 64.3169 80.3949 64.6624 80.3949 65.0887C80.3949 65.5149 80.6138 65.8605 80.8839 65.8605Z" fill="white"/>
        <path d="M65.9961 76.4355C65.9961 76.4355 65.4482 80.4948 67.0094 82.9161" stroke="#01465A" stroke-width="0.441858" stroke-linecap="round" stroke-linejoin="round"/>
        <path d="M65.6074 84.4009C65.6074 84.4009 67.4219 82.2917 69.3543 82.5274C71.2867 82.7631 72.9834 84.4009 72.9834 84.4009" stroke="#01465A" stroke-width="0.441858" stroke-linecap="round" stroke-linejoin="round"/>
        <path d="M92.0716 78.3973C97.916 77.6314 103.766 76.8597 109.61 76.0938C109.887 76.0584 109.893 75.6166 109.61 75.6519C103.766 76.4178 97.916 77.1896 92.0716 77.9555C91.7947 77.9908 91.7889 78.4327 92.0716 78.3973Z" fill="#01465A"/>
        <path d="M93.0026 80.7836C98.2813 81.2961 103.542 81.9913 108.768 82.8809C109.045 82.928 109.169 82.5039 108.886 82.4567C103.619 81.5671 98.3166 80.8602 93.0026 80.3476C92.7198 80.3181 92.7198 80.76 93.0026 80.7895V80.7836Z" fill="#01465A"/>
        <path d="M50.4132 77.0129C46.4188 75.9642 42.3655 75.1453 38.2768 74.5738C37.9999 74.5326 37.8762 74.9627 38.159 74.998C42.2476 75.5754 46.301 76.3884 50.2954 77.4371C50.5723 77.5078 50.6901 77.0836 50.4132 77.0129Z" fill="#01465A"/>
        <path d="M49.9538 79.829C46.6134 80.3357 43.326 81.1663 40.1446 82.3211C39.8795 82.4153 39.9914 82.8454 40.2624 82.7453C43.4438 81.5964 46.7312 80.7598 50.0717 80.2532C50.3545 80.2119 50.2307 79.7878 49.9538 79.829Z" fill="#01465A"/>
        <path d="M78.0972 39.2075C78.0972 39.2075 73.9614 36.2618 73.5313 35.926C72.9481 35.4724 71.6991 35.926 72.4355 37.8407C73.8959 42.534 71.5872 38.8599 71.5872 38.8599C71.5872 38.8599 70.6996 37.8407 69.9906 38.8482C69.2816 39.8556 72.0408 42.059 72.0408 42.059" fill="url(#paint11_linear_16635_2721)"/>
        <path d="M78.0972 39.2075C78.0972 39.2075 73.9614 36.2618 73.5313 35.926C72.9481 35.4724 71.6991 35.926 72.4355 37.8407C73.8959 42.534 71.5872 38.8599 71.5872 38.8599C71.5872 38.8599 70.6996 37.8407 69.9906 38.8482C69.2816 39.8556 72.0408 42.059 72.0408 42.059" stroke="#01465A" stroke-width="0.441858" stroke-miterlimit="10"/>
        <path d="M63.0976 27.1965L61.6514 24.3995L62.8227 23.8453C63.3358 23.6025 63.7504 23.3245 64.0663 23.0112C64.3934 22.6926 64.597 22.3437 64.677 21.9646C64.7681 21.5801 64.7134 21.176 64.5129 20.7521C64.3176 20.3393 64.0119 20.0539 63.5958 19.8958C63.1856 19.7213 62.7295 19.7528 62.2275 19.9903C61.7925 20.1961 61.493 20.5153 61.329 20.9479C61.1709 21.3639 61.1604 21.8467 61.2975 22.3962L58.9306 22.7174C58.7724 22.1233 58.7577 21.5296 58.8866 20.9362C59.0101 20.3316 59.2733 19.7771 59.6762 19.2724C60.085 18.7514 60.6296 18.3299 61.3101 18.0079C62.0798 17.6438 62.8177 17.4721 63.5238 17.493C64.2358 17.4974 64.872 17.6879 65.4324 18.0644C66.004 18.4356 66.4613 18.9838 66.8043 19.7089C67.1316 20.4005 67.2548 21.0794 67.1741 21.7456C67.0881 22.4006 66.821 23.0048 66.3729 23.5581C65.9359 24.1062 65.3493 24.5544 64.6131 24.9027L65.139 26.2307L63.0976 27.1965ZM66.1187 30.6819C65.6725 30.893 65.2329 30.9304 64.7997 30.794C64.3777 30.6524 64.0718 30.3807 63.8818 29.9792C63.6865 29.5664 63.6705 29.1576 63.8339 28.7526C64.0031 28.3313 64.3109 28.015 64.7571 27.8039C65.2144 27.5875 65.6541 27.5502 66.0761 27.6918C66.4928 27.8223 66.7988 28.0939 66.994 28.5067C67.184 28.9083 67.2 29.3171 67.0419 29.7332C66.8838 30.1493 66.5761 30.4655 66.1187 30.6819Z" fill="#B3A6F9"/>
        <path d="M85.9586 25.4569L86.3303 22.3301L87.6108 22.5283C88.1718 22.6152 88.6709 22.6175 89.1082 22.5353C89.5577 22.4551 89.9219 22.2804 90.2008 22.0114C90.492 21.7443 90.6734 21.379 90.7451 20.9156C90.815 20.4644 90.722 20.0566 90.4662 19.6923C90.2245 19.3178 89.8292 19.088 89.2804 19.003C88.8048 18.9294 88.3778 19.0256 87.9995 19.2917C87.6352 19.5475 87.3557 19.9413 87.161 20.4731L85.0214 19.4114C85.2237 18.8308 85.5445 18.331 85.984 17.912C86.4254 17.4809 86.9544 17.1694 87.571 16.9776C88.2017 16.7756 88.889 16.7321 89.6329 16.8473C90.4744 16.9776 91.1816 17.2494 91.7544 17.6627C92.3414 18.0658 92.7612 18.5803 93.014 19.2064C93.2789 19.8343 93.35 20.5446 93.2273 21.3373C93.1103 22.0934 92.8315 22.7246 92.391 23.2309C91.9523 23.7249 91.3923 24.0753 90.711 24.282C90.0418 24.4906 89.3048 24.5326 88.4999 24.408L88.1904 25.8024L85.9586 25.4569ZM86.5046 30.0369C86.0168 29.9614 85.6319 29.7457 85.3498 29.3899C85.0799 29.0359 84.9789 28.6394 85.0469 28.2004C85.1168 27.7491 85.3329 27.4017 85.6953 27.1581C86.0717 26.9042 86.5039 26.815 86.9917 26.8905C87.4917 26.9679 87.8767 27.1836 88.1465 27.5376C88.4183 27.8794 88.5193 28.2759 88.4494 28.7271C88.3814 29.1661 88.1653 29.5136 87.801 29.7694C87.4368 30.0252 87.0046 30.1143 86.5046 30.0369Z" fill="#B3A6F9"/>
        <path d="M74.387 20.3031L73.4471 15.4547L75.4547 15.1385C76.3342 15 77.0809 14.7649 77.6948 14.433C78.3279 14.0982 78.7884 13.6632 79.0764 13.128C79.3835 12.5898 79.4799 11.9574 79.3655 11.2309C79.254 10.5234 78.9202 9.9588 78.3639 9.53696C77.8237 9.093 77.1235 8.93877 76.2631 9.07427C75.5174 9.19171 74.9256 9.53963 74.4877 10.118C74.0658 10.6743 73.8366 11.3962 73.8 12.2837L70.0963 11.7208C70.1208 10.7568 70.3612 9.8568 70.8173 9.0208C71.2705 8.16568 71.9117 7.44748 72.7411 6.8662C73.5866 6.26279 74.5925 5.86925 75.7588 5.68557C77.078 5.4778 78.2644 5.54568 79.3178 5.88923C80.3873 6.21064 81.2604 6.7785 81.9373 7.59281C82.6333 8.40412 83.0792 9.43116 83.2749 10.6739C83.4616 11.8594 83.347 12.9355 82.931 13.9023C82.512 14.85 81.8431 15.6412 80.9241 16.2757C80.0243 16.9073 78.9434 17.3224 77.6815 17.5212L77.8859 19.7521L74.387 20.3031ZM77.3926 26.8836C76.6278 27.0041 75.9496 26.8659 75.3581 26.4692C74.7857 26.0695 74.4453 25.5255 74.3369 24.8372C74.2255 24.1298 74.3822 23.5075 74.8071 22.9703C75.248 22.411 75.8509 22.0712 76.6157 21.9507C77.3996 21.8273 78.0778 21.9654 78.6502 22.3651C79.2195 22.7457 79.5599 23.2897 79.6713 23.9971C79.7797 24.6854 79.623 25.3077 79.2012 25.864C78.7794 26.4203 78.1765 26.7601 77.3926 26.8836Z" fill="#B3A6F9"/>
    </g>
    <defs>
        <linearGradient id="paint0_linear_16635_2721" x1="72.4119" y1="149.778" x2="72.4119" y2="123.308" gradientUnits="userSpaceOnUse">
            <stop stop-color="#06A192"/>
            <stop offset="1" stop-color="#006169"/>
        </linearGradient>
        <linearGradient id="paint1_linear_16635_2721" x1="84.2124" y1="126.006" x2="93.0319" y2="126.006" gradientUnits="userSpaceOnUse">
            <stop stop-color="#06A192"/>
            <stop offset="0.89" stop-color="#006169"/>
        </linearGradient>
        <linearGradient id="paint2_linear_16635_2721" x1="67.7872" y1="97.185" x2="80.0768" y2="97.185" gradientUnits="userSpaceOnUse">
            <stop stop-color="#06A192"/>
            <stop offset="1" stop-color="#006169"/>
        </linearGradient>
        <linearGradient id="paint3_linear_16635_2721" x1="41.8296" y1="140.164" x2="59.9635" y2="140.164" gradientUnits="userSpaceOnUse">
            <stop stop-color="#06A192"/>
            <stop offset="0.89" stop-color="#006169"/>
        </linearGradient>
        <linearGradient id="paint4_linear_16635_2721" x1="43.5745" y1="45.4343" x2="61.031" y2="34.1412" gradientUnits="userSpaceOnUse">
            <stop stop-color="#06A192"/>
            <stop offset="0.89" stop-color="#006169"/>
        </linearGradient>
        <linearGradient id="paint5_linear_16635_2721" x1="45.6316" y1="50.9031" x2="57.1521" y2="43.4501" gradientUnits="userSpaceOnUse">
            <stop stop-color="#ED6E8C"/>
            <stop offset="0.34" stop-color="#EFA3B2"/>
        </linearGradient>
        <linearGradient id="paint6_linear_16635_2721" x1="88.9218" y1="32.4166" x2="107.547" y2="46.2894" gradientUnits="userSpaceOnUse">
            <stop stop-color="#06A192"/>
            <stop offset="0.89" stop-color="#006169"/>
        </linearGradient>
        <linearGradient id="paint7_linear_16635_2721" x1="88.6972" y1="43.8924" x2="102.928" y2="54.4923" gradientUnits="userSpaceOnUse">
            <stop stop-color="#ED6E8C"/>
            <stop offset="0.34" stop-color="#EFA3B2"/>
        </linearGradient>
        <linearGradient id="paint8_linear_16635_2721" x1="43.6793" y1="67.6398" x2="105.975" y2="67.6398" gradientUnits="userSpaceOnUse">
            <stop offset="0.47" stop-color="#FBF5D6"/>
            <stop offset="0.87" stop-color="#F2E7B8"/>
        </linearGradient>
        <linearGradient id="paint9_linear_16635_2721" x1="43.7442" y1="56.5934" x2="105.975" y2="56.5934" gradientUnits="userSpaceOnUse">
            <stop stop-color="#06A192"/>
            <stop offset="0.89" stop-color="#006169"/>
        </linearGradient>
        <linearGradient id="paint10_linear_16635_2721" x1="56.4697" y1="96.0366" x2="68.341" y2="96.0366" gradientUnits="userSpaceOnUse">
            <stop stop-color="#06A192"/>
            <stop offset="0.89" stop-color="#006169"/>
        </linearGradient>
        <linearGradient id="paint11_linear_16635_2721" x1="69.7726" y1="38.9071" x2="78.0972" y2="38.9071" gradientUnits="userSpaceOnUse">
            <stop stop-color="#06A192"/>
            <stop offset="0.89" stop-color="#006169"/>
        </linearGradient>
        <clipPath id="clip0_16635_2721">
            <rect width="75.2337" height="149.996" fill="white" transform="translate(38)"/>
        </clipPath>
    </defs>
</svg>
