<svg width="24" height="24" viewBox="0 0 24 24" fill="none" xmlns="http://www.w3.org/2000/svg">
<g clip-path="url(#clip0_15280_10978)">
<path opacity="0.502" d="M14.7497 20.2502H17.4998V23H14.7497V20.2502Z" fill="#0074BF"/>
<path opacity="0.702" d="M12 20.2502H14.7498V23H12V20.2502ZM9.25031 20.2502H12V23H9.25031V20.2502Z" fill="#0074BF"/>
<path opacity="0.502" d="M6.50018 20.2502H9.25027V23H6.50018V20.2502Z" fill="#0074BF"/>
<path opacity="0.702" d="M17.5002 17.5002H20.2503V20.2503H17.5002V17.5002Z" fill="#0082BF"/>
<path opacity="0.8" d="M14.7497 17.5002H17.4998V20.2503H14.7497V17.5002Z" fill="#0082BF"/>
<path d="M12 17.5002H14.7498V20.2503H12V17.5002ZM9.25031 17.5002H12V20.2503H9.25031V17.5002Z" fill="#0082BF"/>
<path opacity="0.8" d="M6.50018 17.5002H9.25027V20.2503H6.50018V17.5002Z" fill="#0082BF"/>
<path opacity="0.702" d="M3.74969 17.5002H6.49979V20.2503H3.74969V17.5002Z" fill="#0082BF"/>
<path opacity="0.502" d="M20.2503 14.7498H23V17.4998H20.2503V14.7498Z" fill="#008FBF"/>
<path opacity="0.8" d="M17.5002 14.7498H20.2503V17.4998H17.5002V14.7498Z" fill="#008FBF"/>
<path d="M14.7498 14.7498H17.4998V17.4998H14.7498V14.7498ZM12 14.7498H14.7498V17.4998H12V14.7498ZM9.25031 14.7498H12V17.4998H9.25031V14.7498Z" fill="#008FBF"/>
<path d="M6.50018 14.7498H9.25027V17.4998H6.50018V14.7498Z" fill="#008FBF"/>
<path opacity="0.8" d="M3.74969 14.7498H6.49979V17.4998H3.74969V14.7498Z" fill="#008FBF"/>
<path opacity="0.502" d="M1 14.7498H3.74972V17.4998H1V14.7498Z" fill="#008FBF"/>
<path opacity="0.702" d="M20.2503 12H23V14.7497H20.2503V12Z" fill="#009DBF"/>
<path d="M17.5002 12H20.2503V14.7497H17.5002V12ZM14.7498 12H17.4998V14.7497H14.7498V12ZM12 12H14.7498V14.7497H12V12ZM9.25031 12H12V14.7497H9.25031V12Z" fill="#009DBF"/>
<path d="M6.50015 12H9.25025V14.7497H6.50015V12ZM3.74969 12H6.49979V14.7497H3.74969V12Z" fill="#009DBF"/>
<path opacity="0.702" d="M1 12H3.74972V14.7497H1V12Z" fill="#009DBF"/>
<path opacity="0.702" d="M20.2503 9.25024H23V12H20.2503V9.25024Z" fill="#00ABBF"/>
<path d="M17.5002 9.25024H20.2503V12H17.5002V9.25024ZM14.7498 9.25024H17.4998V12H14.7498V9.25024ZM12 9.25024H14.7498V12H12V9.25024ZM9.25031 9.25024H12V12H9.25031V9.25024Z" fill="#00ABBF"/>
<path d="M6.50015 9.25024H9.25025V12H6.50015V9.25024ZM3.74969 9.25024H6.49979V12H3.74969V9.25024Z" fill="#00ABBF"/>
<path opacity="0.702" d="M1 9.25024H3.74972V12H1V9.25024Z" fill="#00ABBF"/>
<path opacity="0.502" d="M20.2503 6.50024H23V9.25034H20.2503V6.50024Z" fill="#00B9BF"/>
<path opacity="0.8" d="M17.5002 6.50024H20.2503V9.25034H17.5002V6.50024Z" fill="#00B9BF"/>
<path d="M14.7498 6.50024H17.4998V9.25034H14.7498V6.50024ZM12 6.50024H14.7498V9.25034H12V6.50024ZM9.25031 6.50024H12V9.25034H9.25031V6.50024Z" fill="#00B9BF"/>
<path d="M6.50018 6.50024H9.25027V9.25034H6.50018V6.50024Z" fill="#00B9BF"/>
<path opacity="0.8" d="M3.74969 6.50024H6.49979V9.25034H3.74969V6.50024Z" fill="#00B9BF"/>
<path opacity="0.502" d="M1 6.50024H3.74972V9.25034H1V6.50024Z" fill="#00B9BF"/>
<path opacity="0.702" d="M17.5002 3.74976H20.2503V6.49985H17.5002V3.74976Z" fill="#00C6BF"/>
<path opacity="0.8" d="M14.7497 3.74976H17.4998V6.49985H14.7497V3.74976Z" fill="#00C6BF"/>
<path d="M12 3.74976H14.7498V6.49985H12V3.74976ZM9.25031 3.74976H12V6.49985H9.25031V3.74976Z" fill="#00C6BF"/>
<path opacity="0.8" d="M6.50018 3.74976H9.25027V6.49985H6.50018V3.74976Z" fill="#00C6BF"/>
<path opacity="0.702" d="M3.74969 3.74976H6.49979V6.49985H3.74969V3.74976Z" fill="#00C6BF"/>
<path opacity="0.502" d="M14.7497 1H17.4998V3.74972H14.7497V1Z" fill="#00D4BF"/>
<path opacity="0.702" d="M12 1H14.7498V3.74972H12V1ZM9.25031 1H12V3.74972H9.25031V1Z" fill="#00D4BF"/>
<path opacity="0.502" d="M6.50018 1H9.25027V3.74972H6.50018V1Z" fill="#00D4BF"/>
<path d="M8.24058 11.1324L9.00686 9.41739C9.28627 8.97789 9.24919 8.43925 8.9437 8.13377C8.93342 8.12349 8.92314 8.11357 8.91213 8.10403C8.90148 8.09448 8.89046 8.08493 8.87945 8.07612C8.85691 8.05805 8.83337 8.04126 8.80895 8.02582C8.7568 7.99374 8.70126 7.96751 8.64336 7.94761C8.58535 7.92742 8.5255 7.91383 8.46455 7.90649C8.4036 7.89951 8.34191 7.89915 8.28096 7.90539C8.22001 7.91163 8.1598 7.92411 8.10179 7.94357C8.03606 7.96377 7.97218 7.9902 7.91123 8.02178C7.85036 8.05366 7.79237 8.09076 7.73792 8.13266C7.68353 8.17495 7.63291 8.22188 7.58665 8.27292C7.54067 8.32403 7.49927 8.37907 7.46291 8.43741C7.42693 8.49579 6.41391 10.885 6.02361 11.985C5.63331 13.085 5.78899 15.1026 7.29438 16.611C8.89083 18.2074 11.2022 18.572 12.6763 17.4657C12.6918 17.458 12.7072 17.4496 12.7219 17.4411C12.7369 17.4327 12.7516 17.4235 12.7659 17.414C12.7806 17.4048 12.7946 17.3949 12.8085 17.3846C12.8225 17.3747 12.8361 17.364 12.8493 17.353L17.3923 13.5594C17.6129 13.3769 17.9393 13.0013 17.6463 12.5725C17.3603 12.1543 16.8184 12.4388 16.5973 12.5802L13.9827 14.4814C13.9706 14.4913 13.9563 14.499 13.9412 14.5034C13.9258 14.5078 13.91 14.5093 13.8942 14.5074C13.8784 14.5056 13.863 14.5005 13.8494 14.4928C13.8355 14.485 13.8234 14.4744 13.8138 14.4615C13.7474 14.38 13.7356 14.1638 13.8399 14.0782L17.8479 10.6768C18.1941 10.365 18.2422 9.9116 17.9617 9.60097C17.6882 9.29659 17.2535 9.30577 16.9043 9.62043L13.2958 12.4414C13.2789 12.4553 13.2594 12.4656 13.2385 12.4715C13.2175 12.4774 13.1955 12.4792 13.1739 12.4763C13.1522 12.4733 13.1316 12.4664 13.1129 12.455C13.0942 12.444 13.0777 12.4293 13.0652 12.4116C12.9939 12.3316 12.9664 12.1954 13.0468 12.1153L17.1334 8.14955C17.2101 8.07796 17.2722 7.99204 17.3155 7.89694C17.3588 7.80148 17.3834 7.69831 17.3871 7.59366C17.3908 7.48902 17.3739 7.38438 17.3372 7.28634C17.3005 7.18794 17.245 7.09798 17.1738 7.02125C17.1382 6.98343 17.0985 6.94965 17.0563 6.92028C17.0138 6.89073 16.9684 6.86551 16.9208 6.84501C16.8731 6.82481 16.8235 6.80939 16.7728 6.79874C16.7222 6.78846 16.6704 6.78332 16.6186 6.78369C16.5658 6.78295 16.5129 6.78736 16.4611 6.79727C16.357 6.81634 16.2577 6.85577 16.1688 6.9133C16.1244 6.94194 16.0829 6.97498 16.0447 7.0117L11.8689 10.9342C11.7691 11.034 11.5737 10.9342 11.5499 10.8174C11.5477 10.8071 11.5469 10.7965 11.5473 10.7858C11.5477 10.7752 11.5495 10.7645 11.5528 10.7546C11.5557 10.7443 11.5601 10.7344 11.5657 10.7256C11.5712 10.7164 11.5778 10.708 11.5855 10.7006L14.7817 7.06127C14.8591 6.98931 14.9212 6.90246 14.9642 6.80593C15.0072 6.7094 15.0303 6.60517 15.0321 6.4995C15.0361 6.28617 14.9532 6.08019 14.8026 5.92929C14.6517 5.77801 14.4461 5.6943 14.2328 5.6976C14.0194 5.70091 13.8164 5.7905 13.6703 5.94618L8.82327 11.305C8.6496 11.4787 8.39369 11.4875 8.27179 11.3865C8.25306 11.3718 8.23764 11.3535 8.22626 11.3329C8.21451 11.3123 8.20716 11.2896 8.20423 11.2661C8.20129 11.2422 8.20312 11.2183 8.20937 11.1956C8.21561 11.1728 8.22626 11.1512 8.24058 11.1324Z" fill="white"/>
</g>
<defs>
<clipPath id="clip0_15280_10978">
<rect width="22" height="22" fill="white" transform="translate(1 1)"/>
</clipPath>
</defs>
</svg>
