<svg width="24" height="24" viewBox="0 0 24 24" fill="none" xmlns="http://www.w3.org/2000/svg">
<g clip-path="url(#clip0_15372_78393)">
<g clip-path="url(#clip1_15372_78393)">
<path d="M20.6667 14.6667C18.6667 22 17.3207 24 12 24C6.66666 24 5.33333 22 3.33333 14.6667C1.97666 9.69337 4.66666 5.33337 12 5.33337C19.3333 5.33337 22.0227 9.69337 20.6667 14.6667Z" fill="#F4900C"/>
<path d="M19.3333 7.33337C20.6667 10 17.3333 12.6667 12 12.6667C6.66666 12.6667 3.33332 10 4.66666 7.33337C5.65466 5.35737 7.58199 3.33337 12 3.33337C16.418 3.33337 18.346 5.35737 19.3333 7.33337Z" fill="#BE1931"/>
<path d="M12 11.3334C16.4183 11.3334 20 9.54251 20 7.33337C20 5.12423 16.4183 3.33337 12 3.33337C7.58172 3.33337 4 5.12423 4 7.33337C4 9.54251 7.58172 11.3334 12 11.3334Z" fill="#FFAC33"/>
<path d="M18 6.66666C18.6667 7.33332 19.3333 7.99999 19.3333 8.66666C19.3333 9.33332 18.6667 10.6667 18 9.99999C18 9.99999 19.9653 10.7693 19.3333 12.6667C18.6667 14.6667 16.6667 14 16.6667 12.6667C16.6667 11.3333 15.6313 10.4387 15.3333 11.3333C14.6667 13.3333 13.3333 13.3333 12.6667 12.6667C12 12 12 11.3333 12 11.3333C12 11.3333 10 11.3333 10.6667 9.99999C11.3333 8.66666 10.6667 8.66666 10.6667 8.66666C10.6667 8.66666 10.6667 7.99999 11.3333 7.99999C12 7.99999 16 7.33332 16.6667 6.66666C17.3333 5.99999 18 6.66666 18 6.66666Z" fill="#FFE8B6"/>
<path d="M18.6667 6.18537C18.6667 7.92404 15.682 9.33337 12 9.33337C8.31801 9.33337 5.33334 7.92404 5.33334 6.18537C5.33334 4.44671 8.31801 3.33337 12 3.33337C15.682 3.33337 18.6667 4.44671 18.6667 6.18537Z" fill="#662113"/>
<path d="M12 9.33335C15.032 9.33335 17.586 8.37669 18.3953 7.06935C18.2651 6.93364 18.1333 6.79941 18 6.66669C18 6.66669 16.6667 5.33335 16 6.00002C15.3333 6.66669 12 6.66669 11.3333 6.66669C10.6667 6.66669 10 7.33335 10 7.33335C10 7.33335 11.058 8.67402 10.9313 9.28935C11.28 9.31602 11.6353 9.33335 12 9.33335Z" fill="#F4900C"/>
<path d="M17.3333 5.66667C17.3333 6.95533 14.9453 8 12 8C9.05466 8 6.66666 6.95533 6.66666 5.66667C6.66666 4.378 9.05466 2 12 2C14.9453 2 17.3333 4.378 17.3333 5.66667Z" fill="#FFCC4D"/>
<path d="M12 2.66663C12.7364 2.66663 13.3333 2.21891 13.3333 1.66663C13.3333 1.11434 12.7364 0.666626 12 0.666626C11.2636 0.666626 10.6667 1.11434 10.6667 1.66663C10.6667 2.21891 11.2636 2.66663 12 2.66663Z" fill="#F4900C"/>
<path d="M3.79001 16.2733C4.27334 17.9113 4.74001 19.23 5.25934 20.282C7.33334 22 10.6667 22 12 22C13.3333 22 16.6667 22 18.7373 20.2826C19.2573 19.232 19.726 17.912 20.2093 16.2733C18.406 17.3153 15.408 18 12 18C8.59201 18 5.59334 17.3153 3.79001 16.2733Z" fill="#FFCC4D"/>
</g>
</g>
<defs>
<clipPath id="clip0_15372_78393">
<rect width="24" height="24" fill="white"/>
</clipPath>
<clipPath id="clip1_15372_78393">
<rect width="24" height="24" fill="white"/>
</clipPath>
</defs>
</svg>
