<svg width="24" height="24" viewBox="0 0 24 24" fill="none" xmlns="http://www.w3.org/2000/svg">
<g clip-path="url(#clip0_9480_145077)">
<path d="M23.0001 11.9845L22.9888 11.5136V2.61117L20.5275 5.07242C18.5135 2.6067 15.449 1.03198 12.0173 1.03198C8.4423 1.03198 5.27224 2.73698 3.26611 5.37698L7.30036 9.45386C7.69539 8.72411 8.25489 8.09635 8.93455 7.6203C9.63924 7.07029 10.6368 6.62136 12.0173 6.62136C12.184 6.62136 12.3129 6.64095 12.4075 6.67739C14.118 6.81248 15.6002 7.75676 16.4733 9.12626L13.6178 11.9818L23.0001 11.9839" fill="#1C3AA9"/>
<path d="M11.9526 1.03235L11.4816 1.04369H2.57919L5.04044 3.50494C2.57437 5.51932 1 8.58316 1 12.0158C1 15.5908 2.705 18.7609 5.345 20.767L9.42188 16.7328C8.69213 16.3378 8.06437 15.7783 7.58831 15.0986C7.03831 14.3939 6.58938 13.3963 6.58938 12.0158C6.58938 11.8491 6.60897 11.7202 6.64541 11.6257C6.7805 9.91519 7.72478 8.43294 9.09428 7.55982L11.9498 10.4153L11.9519 1.03269" fill="#4285F4"/>
<path d="M1.00024 12.0155L1.01159 12.4864V21.3889L3.47284 18.9276C5.48721 21.3933 8.5514 22.9681 11.9841 22.9681C15.5591 22.9681 18.7292 21.2631 20.7353 18.6231L16.701 14.5462C16.306 15.2759 15.7465 15.9037 15.0668 16.3798C14.3622 16.9298 13.3646 17.3787 11.9841 17.3787C11.8174 17.3787 11.6885 17.3591 11.5939 17.3227C9.88343 17.1876 8.40118 16.2433 7.52806 14.8738L10.3836 12.0183C6.76665 12.032 2.68359 12.0409 1.00093 12.0165" fill="#ABABAB"/>
</g>
<defs>
<clipPath id="clip0_9480_145077">
<rect width="22" height="22" fill="white" transform="translate(1 1)"/>
</clipPath>
</defs>
</svg>
