<svg width="22" height="22" viewBox="0 0 22 22" fill="none" xmlns="http://www.w3.org/2000/svg">
<g clip-path="url(#clip0_9480_145087)">
<path d="M22.0001 10.9845L21.9888 10.5136V1.61117L19.5275 4.07242C17.5135 1.6067 14.449 0.0319824 11.0173 0.0319824C7.4423 0.0319824 4.27224 1.73698 2.26611 4.37698L6.30036 8.45386C6.69539 7.72411 7.25489 7.09635 7.93455 6.6203C8.63924 6.07029 9.6368 5.62136 11.0173 5.62136C11.184 5.62136 11.3129 5.64095 11.4075 5.67739C13.118 5.81248 14.6002 6.75676 15.4733 8.12626L12.6178 10.9818L22.0001 10.9839" fill="#394452"/>
<path d="M10.9526 0.0323486L10.4816 0.0436924H1.57919L4.04044 2.50494C1.57437 4.51932 0 7.58316 0 11.0158C0 14.5908 1.705 17.7609 4.345 19.767L8.42188 15.7328C7.69213 15.3378 7.06437 14.7783 6.58831 14.0986C6.03831 13.3939 5.58938 12.3963 5.58938 11.0158C5.58938 10.8491 5.60897 10.7202 5.64541 10.6257C5.7805 8.91519 6.72478 7.43294 8.09428 6.55982L10.9498 9.41535L10.9519 0.0326924" fill="#535D69"/>
<path d="M0.000244141 11.0155L0.0115879 11.4864V20.3889L2.47284 17.9276C4.48721 20.3933 7.5514 21.9681 10.9841 21.9681C14.5591 21.9681 17.7292 20.2631 19.7353 17.6231L15.701 13.5462C15.306 14.2759 14.7465 14.9037 14.0668 15.3798C13.3622 15.9298 12.3646 16.3787 10.9841 16.3787C10.8174 16.3787 10.6885 16.3591 10.5939 16.3227C8.88343 16.1876 7.40118 15.2433 6.52806 13.8738L9.38359 11.0183C5.76665 11.032 1.68359 11.0409 0.000931641 11.0165" fill="#8B929C"/>
</g>
<defs>
<clipPath id="clip0_9480_145087">
<rect width="22" height="22" fill="white"/>
</clipPath>
</defs>
</svg>
