<svg width="24" height="24" viewBox="0 0 24 24" fill="none" xmlns="http://www.w3.org/2000/svg">
<path d="M18.39 11.2604L17.9336 11.0779C15.7885 15.9045 7.25504 12.9701 6.74156 14.406C6.65597 15.3759 11.4017 14.5904 14.7944 14.7548C15.829 14.8049 16.3478 15.5859 15.9085 16.8589L16.7738 16.8616C17.772 13.7498 20.9575 15.3379 21.0906 14.3109C20.8719 13.6357 17.4296 14.3109 18.39 11.2604Z" fill="white"/>
<path d="M16.1535 16.3269C16.2904 15.8705 16.2448 15.414 16.0166 15.1402C15.7884 14.8663 15.4689 14.6837 15.0581 14.6381L7.11617 14.5468C7.07054 14.5468 7.02491 14.5011 6.97927 14.5011C6.93364 14.4555 6.93364 14.4099 6.97927 14.3642C7.02491 14.273 7.07054 14.2272 7.1618 14.2272L15.1494 14.136C16.1079 14.0903 17.1121 13.3144 17.4771 12.4016L17.9336 11.2149C17.9336 11.1692 17.9793 11.1235 17.9336 11.0779C17.4315 8.7501 15.332 7.01562 12.8672 7.01562C10.585 7.01562 8.6224 8.47622 7.93773 10.5302C7.48132 10.2107 6.93364 10.0281 6.29461 10.0738C5.19916 10.1651 4.33197 11.0779 4.19498 12.1733C4.14935 12.4472 4.19498 12.7211 4.2407 12.9949C2.46059 13.0405 1 14.5011 1 16.3269C1 16.5094 1 16.6464 1.04563 16.8289C1.04563 16.9203 1.1369 16.9659 1.18262 16.9659H15.834C15.9253 16.9659 16.0166 16.9203 16.0166 16.8289L16.1535 16.3269Z" fill="#F4811F"/>
<path d="M18.6639 11.2147H18.4357C18.39 11.2147 18.3444 11.2604 18.2988 11.306L17.9792 12.4014C17.8423 12.8578 17.888 13.3143 18.1162 13.5881C18.3444 13.862 18.6639 14.0446 19.0747 14.0903L20.7635 14.1815C20.8092 14.1815 20.8548 14.2272 20.9004 14.2272C20.9461 14.2728 20.9461 14.3184 20.9004 14.3641C20.8548 14.4554 20.8092 14.5011 20.7178 14.5011L18.9834 14.5923C18.0249 14.638 17.0208 15.4139 16.6556 16.3267L16.5643 16.7376C16.5187 16.7832 16.5643 16.8745 16.6556 16.8745H22.6805C22.7718 16.8745 22.8174 16.8288 22.8174 16.7376C22.9087 16.3724 23 15.9617 23 15.5508C23 13.1774 21.0373 11.2147 18.6639 11.2147Z" fill="#FAAD3F"/>
</svg>
