<svg width="24" height="24" viewBox="0 0 24 24" fill="none" xmlns="http://www.w3.org/2000/svg">
<g opacity="0.5">
<path d="M19.9895 3.99115C18.4368 2.46996 16.3082 2.41193 15.2248 3.4733L11.5247 7.09827C11.2289 7.38815 10.754 7.38328 10.4641 7.0874C10.1743 6.79152 10.1791 6.31667 10.475 6.02679L14.1751 2.40182C16.011 0.603153 19.0888 1.00883 21.0392 2.91967C22.9924 4.8332 23.4176 7.87522 21.5678 9.68753L18.6606 12.5357C18.3647 12.8256 17.8899 12.8208 17.6 12.5249C17.3101 12.229 17.315 11.7542 17.6109 11.4643L20.518 8.61605C21.5875 7.56832 21.5394 5.50967 19.9895 3.99115Z" fill="#394452"/>
<path d="M6.72744 12.506C7.00689 12.2003 6.98557 11.7259 6.67983 11.4464C6.37409 11.167 5.89969 11.1883 5.62024 11.494L4.35938 12.8735C2.63254 14.7628 3.00972 17.9268 4.86372 19.9552C6.72889 21.9958 9.73417 22.4595 11.5187 20.507L15.5535 16.0926C15.8329 15.7869 15.8116 15.3125 15.5059 15.033C15.2001 14.7536 14.7257 14.7749 14.4463 15.0806L10.4115 19.495C9.41067 20.59 7.44827 20.5596 5.97092 18.9432C4.48241 17.3147 4.40798 15.0437 5.46658 13.8855L6.72744 12.506Z" fill="#394452"/>
</g>
<path d="M6.62424 3.58393C6.39448 3.23929 5.92882 3.14616 5.58418 3.37592C5.23953 3.60568 5.1464 4.07134 5.37617 4.41598L7.37617 7.41598C7.60593 7.76063 8.07158 7.85376 8.41623 7.624C8.76088 7.39423 8.85401 6.92858 8.62424 6.58393L6.62424 3.58393Z" fill="#394452"/>
<path d="M2.23737 7.28845C1.84442 7.15746 1.41968 7.36983 1.28869 7.76279C1.15771 8.15574 1.37008 8.58048 1.76303 8.71147L7.76303 10.7115C8.15599 10.8425 8.58073 10.6301 8.71172 10.2371C8.8427 9.84417 8.63033 9.41943 8.23737 9.28845L2.23737 7.28845Z" fill="#394452"/>
</svg>
