<svg width="40" height="40" viewBox="0 0 40 40" fill="none" xmlns="http://www.w3.org/2000/svg">
    <rect width="40" height="40" rx="20" fill="#F69D0B" fill-opacity="0.1"/>
    <path fill-rule="evenodd" clip-rule="evenodd" d="M16.7317 13.7713L13.6695 17.9144C12.3848 19.6526 11.7424 20.5217 12.0964 21.205C12.1023 21.2164 12.1083 21.2276 12.1145 21.2387C12.4894 21.9117 13.5989 21.9117 15.8178 21.9117C17.0508 21.9117 17.6673 21.9117 18.054 22.2754L18.074 22.2946L21.946 17.7247L21.926 17.7054C21.5474 17.3339 21.5474 16.7415 21.5474 15.5568V15.2471C21.5474 11.9625 21.5474 10.3202 20.6241 10.0372C19.7007 9.75425 18.711 11.0933 16.7317 13.7713Z" fill="#F69D0B"/>
    <path opacity="0.5" d="M18.4527 24.4432L18.4527 24.7528C18.4527 28.0374 18.4527 29.6798 19.376 29.9627C20.2994 30.2457 21.2891 28.9067 23.2685 26.2286L26.3306 22.0856C27.6154 20.3474 28.2577 19.4783 27.9038 18.7949C27.8979 18.7836 27.8919 18.7724 27.8857 18.7613C27.5107 18.0883 26.4013 18.0883 24.1824 18.0883C22.9494 18.0883 22.3329 18.0883 21.9462 17.7246L18.0742 22.2946C18.4528 22.6661 18.4527 23.2585 18.4527 24.4432Z" fill="#F69D0B"/>
</svg>
