<svg xmlns="http://www.w3.org/2000/svg" width="30" height="30" viewBox="0 0 30 30" fill="none">
    <path fill-rule="evenodd" clip-rule="evenodd" d="M21.6 3.89996C22.0971 3.89996 22.5 4.30291 22.5 4.79996V7.49996H25.2C25.6971 7.49996 26.1 7.90291 26.1 8.39996C26.1 8.89702 25.6971 9.29996 25.2 9.29996H22.5V12C22.5 12.497 22.0971 12.9 21.6 12.9C21.103 12.9 20.7 12.497 20.7 12V9.29996H18C17.5029 9.29996 17.1 8.89702 17.1 8.39996C17.1 7.90291 17.5029 7.49996 18 7.49996H20.7V4.79996C20.7 4.30291 21.103 3.89996 21.6 3.89996Z" fill="#535D69"/>
    <path d="M3 8.4C3 5.85442 3 4.58162 3.79081 3.79081C4.58162 3 5.85442 3 8.4 3C10.9456 3 12.2184 3 13.0092 3.79081C13.8 4.58162 13.8 5.85442 13.8 8.4C13.8 10.9456 13.8 12.2184 13.0092 13.0092C12.2184 13.8 10.9456 13.8 8.4 13.8C5.85442 13.8 4.58162 13.8 3.79081 13.0092C3 12.2184 3 10.9456 3 8.4Z" fill="#535D69"/>
    <path d="M16.2 21.6C16.2 19.0544 16.2 17.7816 16.9908 16.9908C17.7816 16.2 19.0544 16.2 21.6 16.2C24.1456 16.2 25.4184 16.2 26.2092 16.9908C27 17.7816 27 19.0544 27 21.6C27 24.1455 27 25.4183 26.2092 26.2091C25.4184 27 24.1456 27 21.6 27C19.0544 27 17.7816 27 16.9908 26.2091C16.2 25.4183 16.2 24.1455 16.2 21.6Z" fill="#535D69"/>
    <path opacity="0.5" d="M3 21.6C3 19.0544 3 17.7816 3.79081 16.9908C4.58162 16.2 5.85442 16.2 8.4 16.2C10.9456 16.2 12.2184 16.2 13.0092 16.9908C13.8 17.7816 13.8 19.0544 13.8 21.6C13.8 24.1455 13.8 25.4183 13.0092 26.2091C12.2184 27 10.9456 27 8.4 27C5.85442 27 4.58162 27 3.79081 26.2091C3 25.4183 3 24.1455 3 21.6Z" fill="#394452"/>
</svg>
