<svg width="24" height="24" viewBox="0 0 30 30" fill="none" xmlns="http://www.w3.org/2000/svg">
<path d="M15 0.599976C7.05749 0.599976 0.599998 7.05747 0.599998 15C0.599998 22.9425 7.05749 29.4 15 29.4C22.9425 29.4 29.4 22.9425 29.4 15C29.4 7.05747 22.9425 0.599976 15 0.599976Z" fill="#FDDD4C"/>
<path d="M8.69371 18.7545C8.37884 18.2777 9.17082 17.5563 8.84867 16.9505C8.66298 16.6012 8.35947 16.3834 7.99498 16.3377C7.64515 16.2938 7.28478 16.4219 7.05508 16.6721C6.69243 17.0668 6.63603 17.604 6.70618 17.7941C6.73185 17.8637 6.7722 17.8828 6.80109 17.8869C6.99861 17.9129 7.10976 17.4059 7.17795 17.3003C7.36651 17.0093 7.79465 16.9213 8.09034 17.1125C8.65099 17.4751 8.16485 18.0612 8.20679 18.5562C8.24761 19.0382 8.54791 19.2319 8.8175 19.2523C9.07979 19.2622 9.26319 19.1165 9.30947 19.0102C9.42046 18.7562 8.95276 19.1467 8.69371 18.7545Z" fill="black"/>
<path d="M20.408 14.3785C20.2609 14.3582 20.1002 14.3586 19.933 14.3785C19.8061 14.2183 19.6923 13.9589 19.6281 13.6562C19.514 13.1176 19.5259 12.7275 19.8445 12.6768C20.1632 12.6262 20.3172 12.952 20.4313 13.4906C20.508 13.8526 20.4933 14.1853 20.408 14.3785Z" fill="black"/>
<path d="M16.9179 14.6989C16.9306 14.8208 16.935 14.9442 16.9314 15.0579C17.2398 15.076 17.4581 15.2223 17.5162 15.3153C17.5461 15.3633 17.5341 15.3945 17.5246 15.4089C17.4926 15.4586 17.4242 15.451 17.2809 15.4348C17.1557 15.4209 17.021 15.4085 16.8809 15.4149C16.8047 15.6487 16.5787 15.6706 16.4199 15.4977C16.309 15.5314 16.0912 15.6706 16.0262 15.5194C16.0256 15.4444 16.1041 15.3353 16.2462 15.239C16.1492 15.054 16.0842 14.856 16.0458 14.6509C15.8444 14.6872 15.6632 14.7435 15.5211 14.7878C15.4545 14.8085 15.1906 14.9278 15.1597 14.7934C15.139 14.7007 15.2834 14.5477 15.4362 14.4372C15.6067 14.3162 15.796 14.2301 15.9922 14.1804C15.988 13.8883 16.0625 13.6844 16.2748 13.6507C16.5379 13.6088 16.701 13.8115 16.8138 14.1866C17.1319 14.2749 17.4495 14.494 17.5897 14.7205C17.6442 14.8083 17.6548 14.8762 17.6194 14.912C17.5313 15.0034 17.043 14.7385 16.9179 14.6989Z" fill="black"/>
<path d="M19.009 16.0118C19.2108 16.1095 19.4327 16.0711 19.5051 15.9258C19.5775 15.7805 19.4726 15.5836 19.2708 15.4859C19.0691 15.3882 18.8473 15.4267 18.7747 15.5719C18.7023 15.7171 18.8073 15.914 19.009 16.0118Z" fill="black"/>
<path d="M20.0021 15.2905C20.0057 15.0683 20.1419 14.8908 20.3057 14.8935C20.4693 14.8967 20.599 15.0787 20.5954 15.3004C20.5917 15.5222 20.4555 15.6996 20.2919 15.6968C20.1281 15.6942 19.9984 15.5122 20.0021 15.2905Z" fill="black"/>
<path fill-rule="evenodd" clip-rule="evenodd" d="M24.4407 18.0117C24.4394 18.0071 24.4439 18.0231 24.4407 18.0117C24.7695 18.0117 25.2857 18.3847 25.2857 19.2857C25.2857 20.1823 24.9088 21.1978 24.8199 21.4233C23.4624 24.6347 20.2223 26.4223 16.3627 26.3092C12.7645 26.2038 9.69586 24.3296 8.35298 21.2743C7.54101 21.2753 6.70381 20.9227 6.06743 20.366C5.39667 19.7795 4.98313 19.0205 4.90243 18.2289C4.83962 17.6126 4.91619 17.0392 5.11195 16.5391L4.35775 15.9082C0.906279 13.0317 11.7013 1.18793 15.1537 4.16041C15.1711 4.17535 16.3283 5.29591 16.3311 5.29862C17.9957 4.60094 22.456 3.27259 22.461 6.36488C22.4628 7.39176 21.7999 8.58926 20.7376 9.67586C21.9653 10.7997 21.6415 12.3961 21.837 13.8608L22.2634 13.9776C23.0762 14.2025 23.6544 14.5025 23.9374 14.7958C24.2202 15.0886 24.3605 15.3724 24.4114 15.705C24.4591 15.9734 24.4527 16.4473 24.0941 16.9772C24.2232 17.3191 24.3411 17.6599 24.4407 18.0117ZM8.29201 20.4412C8.41259 20.4439 8.53225 20.4362 8.64962 20.4163C9.91094 20.204 10.241 18.8517 10.0333 17.5239C9.79862 16.0245 8.77112 15.4959 8.07377 15.4584C7.87983 15.4484 7.69964 15.4656 7.5511 15.495C6.30631 15.7426 5.60346 16.788 5.74191 18.1457C5.86708 19.3745 7.12608 20.4103 8.29201 20.4412ZM5.47279 15.8634C5.89047 15.2647 6.57314 14.8316 7.34799 14.6826C8.33418 12.0696 9.98109 9.66187 12.1607 8.00499C13.7783 6.67308 15.5227 5.7177 15.5227 5.7177C15.5227 5.7177 14.5833 4.6424 14.2995 4.5632C12.5541 4.09796 8.78442 6.66403 6.37737 10.0547C5.40355 11.4264 4.0093 13.8558 4.67594 15.1054C4.75801 15.2602 5.22337 15.6579 5.47279 15.8634ZM19.6239 19.841C19.6266 19.8691 19.6092 19.8981 19.584 19.9085C19.584 19.9085 18.1815 20.5525 15.9537 19.8723C16.0338 20.54 16.8436 20.7931 17.4094 20.8847C20.1699 21.3535 22.7508 19.7954 23.3316 19.403C23.4314 19.3356 23.3304 19.5088 23.3124 19.5342C22.6012 20.4398 20.6894 21.4884 18.2022 21.488C17.1173 21.4875 16.0331 21.1105 15.635 20.5308C15.0175 19.6315 15.6044 18.3186 16.6337 18.4552C18.3735 18.6492 20.1572 18.5035 21.7678 17.7656C23.1721 17.122 23.7025 16.4142 23.6228 15.8408C23.4991 14.9521 22.1816 14.8132 21.5156 14.5972C21.2258 14.5025 21.0828 14.4269 21.0503 13.8889C21.0361 13.654 20.9947 12.8344 20.9796 12.4954C20.9531 11.9021 20.8806 11.0907 20.3708 10.7558C20.2378 10.6683 20.0902 10.6263 19.9348 10.6181C19.8108 10.6122 19.7373 10.6292 19.6978 10.6384C19.689 10.6405 19.6818 10.6421 19.6762 10.643C19.4008 10.6892 19.2322 10.8285 19.0332 10.9927C19.0218 11.0022 19.0102 11.0118 18.9986 11.0213C18.3626 11.5446 17.8257 11.63 17.2283 11.6047C17.0422 11.5969 16.8505 11.5784 16.6482 11.5588C16.4621 11.5408 16.2672 11.5218 16.0596 11.5097L15.8061 11.4952C14.8057 11.4445 13.7328 12.2972 13.5544 13.5082C13.3552 14.8601 14.1108 15.6881 14.6022 16.2265C14.7236 16.3596 14.829 16.4749 14.8997 16.5762C14.9451 16.6373 14.9978 16.7233 14.9978 16.8052C14.9978 16.903 14.9336 16.9804 14.8708 17.0464C13.8502 18.0824 13.5238 19.7284 13.9085 21.1001C13.9566 21.2712 14.0175 21.435 14.0895 21.5916C14.9919 23.673 17.7913 24.6424 20.5257 23.7607C22.4421 23.1428 24.1354 21.6497 24.4801 19.5899C24.5622 19.0531 24.4417 18.8459 24.2775 18.7458C24.1038 18.6404 23.8956 18.677 23.8956 18.677C23.8956 18.677 23.8007 18.0358 23.532 17.4529C22.7348 18.0737 21.7087 18.5101 20.9274 18.7313C19.6757 19.0859 18.3235 19.2238 17.0301 19.0566C16.5054 18.9889 16.1529 18.9433 16.0018 19.4278C17.7272 20.0515 19.5533 19.7845 19.5533 19.7845C19.5886 19.7809 19.6202 19.8062 19.6239 19.841ZM14.6462 7.73888C13.7026 8.21543 12.649 9.06396 11.7934 10.0402C11.7632 10.0751 11.8081 10.123 11.8453 10.0963C12.5843 9.5655 13.5975 9.07219 14.9249 8.75264C16.4117 8.39465 17.8432 8.54491 18.7175 8.74268C18.7615 8.75264 18.789 8.67796 18.7501 8.65624C18.1723 8.33627 17.2856 8.11904 16.6566 8.11451C16.6259 8.11406 16.6085 8.07876 16.6268 8.05432C16.7354 7.90995 16.8844 7.76739 17.0206 7.6642C17.0509 7.64067 17.0326 7.59225 16.994 7.59451C16.2116 7.64194 14.4242 8.45689 14.4307 8.42724C14.4765 8.21 14.6209 7.92307 14.6956 7.78911C14.7135 7.75743 14.6787 7.72258 14.6462 7.73888Z" fill="black"/>
</svg>
