<svg width="24" height="24" viewBox="0 0 34 34" fill="none" xmlns="http://www.w3.org/2000/svg">
    <path opacity="0.5" d="M5.58078 5.58078C4.00433 7.15723 4.00433 9.71316 5.58078 11.2896L7.80361 13.5124C7.8203 13.4931 8.58011 14.2166 8.59844 14.1983L14.1984 8.59828C14.2167 8.58 13.4932 7.82024 13.5124 7.8036L11.2896 5.58078C9.71316 4.00433 7.15723 4.00433 5.58078 5.58078Z" fill="#535D69"/>
    <path opacity="0.5" d="M7.38726 21.6293C7.61258 21.0559 8.42112 21.0559 8.64644 21.6293L8.86613 22.1884C8.93492 22.3634 9.07299 22.502 9.24741 22.5711L9.80443 22.7916C10.3757 23.0177 10.3757 23.8292 9.80443 24.0554L9.24741 24.2759C9.07299 24.3449 8.93492 24.4835 8.86613 24.6586L8.64644 25.2177C8.42112 25.7911 7.61258 25.7911 7.38726 25.2177L7.16757 24.6586C7.09878 24.4835 6.96071 24.3449 6.78629 24.2759L6.22926 24.0554C5.65795 23.8292 5.65795 23.0177 6.22926 22.7916L6.78629 22.5711C6.96071 22.502 7.09878 22.3634 7.16757 22.1884L7.38726 21.6293Z" fill="#535D69"/>
    <path opacity="0.2" d="M28.1529 12.9808C28.3782 12.4074 29.1867 12.4074 29.4121 12.9808L29.6318 13.5399C29.7005 13.715 29.8386 13.8536 30.013 13.9226L30.5701 14.1431C31.1414 14.3693 31.1414 15.1808 30.5701 15.407L30.013 15.6275C29.8386 15.6965 29.7005 15.8351 29.6318 16.0102L29.4121 16.5692C29.1867 17.1427 28.3782 17.1427 28.1529 16.5692L27.9332 16.0102C27.8644 15.8351 27.7263 15.6965 27.5519 15.6275L26.9949 15.407C26.4236 15.1808 26.4236 14.3693 26.9949 14.1431L27.5519 13.9226C27.7263 13.8536 27.8644 13.715 27.9332 13.5399L28.1529 12.9808Z" fill="#535D69"/>
    <path opacity="0.7" d="M22.7408 3.43006C22.9661 2.85665 23.7747 2.85664 24 3.43006L24.6025 4.96346C24.6713 5.13853 24.8094 5.27711 24.9838 5.34616L26.5116 5.95092C27.0829 6.17707 27.0829 6.98861 26.5116 7.21476L24.9838 7.81952C24.8094 7.88857 24.6713 8.02715 24.6025 8.20222L24 9.73562C23.7747 10.309 22.9661 10.309 22.7408 9.73562L22.1383 8.20222C22.0695 8.02715 21.9314 7.88857 21.757 7.81952L20.2293 7.21476C19.658 6.98861 19.658 6.17707 20.2293 5.95092L21.757 5.34616C21.9314 5.27711 22.0695 5.13853 22.1383 4.96346L22.7408 3.43006Z" fill="#394452"/>
    <path d="M14.993 9.28432C14.9764 9.30356 14.2163 8.57972 14.198 8.598L8.598 14.198C8.57967 14.2163 9.30345 14.9765 9.28416 14.9931L22.7068 28.4158C24.2833 29.9923 26.8392 29.9923 28.4157 28.4158C29.9921 26.8394 29.9921 24.2834 28.4157 22.707L14.993 9.28432Z" fill="#394452"/>
</svg>
