<svg width="56" height="56" viewBox="0 0 56 56" fill="none" xmlns="http://www.w3.org/2000/svg">
    <rect width="56" height="56" rx="28" fill="#7A69EE" fill-opacity="0.1"/>
    <path opacity="0.4" d="M42 28C42 35.732 35.732 42 28 42C20.268 42 14 35.732 14 28C14 20.268 20.268 14 28 14C35.732 14 42 20.268 42 28Z" fill="#7A69EE"/>
    <path d="M29.05 23.8C29.05 23.2201 28.5799 22.75 28 22.75C27.4201 22.75 26.95 23.2201 26.95 23.8L26.95 26.95H23.8C23.2201 26.95 22.75 27.4201 22.75 28C22.75 28.5799 23.2201 29.05 23.8 29.05H26.95V32.2C26.95 32.7799 27.4201 33.25 28 33.25C28.5799 33.25 29.05 32.7799 29.05 32.2L29.05 29.05H32.2C32.7799 29.05 33.25 28.5799 33.25 28C33.25 27.4201 32.7799 26.95 32.2 26.95H29.05V23.8Z" fill="#7A69EE"/>
</svg>
