<svg xmlns="http://www.w3.org/2000/svg" width="24" height="24" viewBox="0 0 24 24" fill="none">
    <path fill-rule="evenodd" clip-rule="evenodd" d="M10.473 3.64182C11.306 4.47507 12.6568 4.47507 13.4898 3.64182C14.3229 2.80876 14.3229 1.458 13.4898 0.624933C12.6568 -0.208311 11.306 -0.208311 10.473 0.624933C9.63971 1.458 9.63971 2.80876 10.473 3.64182ZM5.01163 7.16629C6.18977 7.16629 7.14497 6.21091 7.14497 5.03296C7.14497 3.85465 6.18977 2.89962 5.01163 2.89962C3.83332 2.89962 2.8783 3.85465 2.8783 5.03296C2.8783 6.21091 3.83332 7.16629 5.01163 7.16629ZM18.9601 7.14496C17.7814 7.14496 16.8267 6.18976 16.8267 5.01162C16.8267 3.83331 17.7814 2.87829 18.9601 2.87829C20.138 2.87829 21.0934 3.83331 21.0934 5.01162C21.0934 6.18976 20.138 7.14496 18.9601 7.14496ZM20.3506 10.473C19.5176 11.306 19.5176 12.6568 20.3506 13.4898C21.1839 14.3229 22.5346 14.3229 23.3675 13.4898C24.2008 12.6568 24.2008 11.306 23.3675 10.473C22.5346 9.63971 21.1839 9.63971 20.3506 10.473ZM10.5028 20.3506C11.3359 19.5176 12.6866 19.5176 13.5197 20.3506C14.353 21.1839 14.353 22.5346 13.5197 23.3675C12.6866 24.2008 11.3359 24.2008 10.5028 23.3675C9.66975 22.5346 9.66975 21.1839 10.5028 20.3506ZM7.16595 18.981C7.16595 17.8029 6.21092 16.8477 5.03261 16.8477C3.85466 16.8477 2.89928 17.8029 2.89928 18.981C2.89928 20.1592 3.85466 21.1144 5.03261 21.1144C6.21092 21.1144 7.16595 20.1592 7.16595 18.981ZM3.64182 10.5028C4.47507 11.3359 4.47507 12.6866 3.64182 13.5197C2.80876 14.353 1.458 14.353 0.624933 13.5197C-0.208311 12.6866 -0.208311 11.3359 0.624933 10.5028C1.458 9.66975 2.80876 9.66975 3.64182 10.5028Z" fill="#8B929C" fill-opacity="0.4"/>
    <path fill-rule="evenodd" clip-rule="evenodd" d="M18.981 16.8268C17.8029 16.8268 16.8477 17.7814 16.8477 18.9601C16.8477 20.1381 17.8029 21.0934 18.981 21.0934C20.1591 21.0934 21.1143 20.1381 21.1143 18.9601C21.1143 17.7814 20.1591 16.8268 18.981 16.8268Z" fill="#394452"/>
</svg>