<svg xmlns="http://www.w3.org/2000/svg" width="24" height="24" viewBox="0 0 24 24" fill="none">
    <path fill-rule="evenodd" clip-rule="evenodd" d="M1.98444 5.31941C1.64978 5.81964 1.78263 6.49739 2.28117 6.83319C2.77971 7.16899 3.45515 7.03569 3.78982 6.53545C5.59675 3.83456 8.61812 2.18182 11.9205 2.18182C17.3245 2.18182 21.7054 6.57757 21.7054 12C21.7054 17.4224 17.3245 21.8182 11.9205 21.8182C11.32 21.8182 10.8333 22.3066 10.8333 22.9091C10.8333 23.5116 11.32 24 11.9205 24C18.5254 24 23.8798 18.6274 23.8798 12C23.8798 5.37258 18.5254 0 11.9205 0C7.88582 0 4.19106 2.0211 1.98444 5.31941Z" fill="#394452"/>
</svg>