<svg width="24" height="24" viewBox="0 0 24 24" fill="none" xmlns="http://www.w3.org/2000/svg">
<path fill-rule="evenodd" clip-rule="evenodd" d="M12 0C5.37258 0 0 5.37258 0 12C0 18.6274 5.37258 24 12 24C18.6274 24 24 18.6274 24 12C24 5.37258 18.6274 0 12 0ZM12 1.26316C17.9298 1.26316 22.7368 6.07021 22.7368 12C22.7368 17.9298 17.9298 22.7368 12 22.7368C6.07021 22.7368 1.26316 17.9298 1.26316 12C1.26316 6.07021 6.07021 1.26316 12 1.26316Z" fill="#8B929C" fill-opacity="0.4"/>
<path fill-rule="evenodd" clip-rule="evenodd" d="M12 0C18.5555 0 23.8843 5.25836 24 12H22.7368C22.7368 6.13907 18.039 1.37383 12 1.26316V0Z" fill="#394452"/>
</svg>
