<svg width="40" height="40" viewBox="0 0 40 40" fill="none" xmlns="http://www.w3.org/2000/svg">
<g>
<path d="M21.0453 19.3739C23.3042 23.2863 22.3377 28.1915 19.0001 31.0313C20.7428 31.025 22.5266 30.5603 24.1311 29.6339C29.1083 26.7603 30.8207 20.4247 27.9595 15.469C25.0983 10.5132 18.7553 8.82834 13.778 11.702C12.239 12.5905 11.0241 13.8136 10.1424 15.2356C14.2428 13.8681 18.8053 15.4941 21.0453 19.3739Z" fill="#DBDEE3"/>
</g>
<path d="M21.0453 19.3729C23.3042 23.2853 22.3377 28.1905 19.0001 31.0304C20.7428 31.024 22.5266 30.5593 24.1311 29.633C29.1083 26.7593 30.8207 20.4237 27.9595 15.468C25.0983 10.5122 18.7553 8.82736 13.778 11.701C12.239 12.5895 11.0241 13.8126 10.1424 15.2346C14.2428 13.8671 18.8053 15.4931 21.0453 19.3729Z" fill="white"/>

</svg>
