<svg width="40" height="40" viewBox="0 0 40 40" fill="none" xmlns="http://www.w3.org/2000/svg">
<g>
<path d="M13.9554 20.3159C13.9554 16.9765 16.6626 14.2694 20.002 14.2694C23.3413 14.2694 26.0485 16.9765 26.0485 20.3159C26.0485 23.6553 23.3413 26.3624 20.002 26.3624C16.6626 26.3624 13.9554 23.6553 13.9554 20.3159Z" fill="#394452"/>
<path fill-rule="evenodd" clip-rule="evenodd" d="M20.002 33.3159C19.501 33.3159 19.095 32.9099 19.095 32.4089V29.9903C19.095 29.4894 19.501 29.0834 20.002 29.0834C20.5029 29.0834 20.9089 29.4894 20.9089 29.9903V32.4089C20.9089 32.9099 20.5029 33.3159 20.002 33.3159ZM33.002 20.3159C33.002 20.8168 32.5959 21.2229 32.095 21.2229H29.6764C29.1755 21.2229 28.7694 20.8168 28.7694 20.3159C28.7694 19.815 29.1755 19.4089 29.6764 19.4089H32.095C32.5959 19.4089 33.002 19.815 33.002 20.3159ZM11.2345 20.3159C11.2345 20.8168 10.8284 21.2229 10.3275 21.2229H7.90893C7.40802 21.2229 7.00195 20.8168 7.00195 20.3159C7.00195 19.815 7.40802 19.4089 7.90893 19.4089H10.3275C10.8284 19.4089 11.2345 19.815 11.2345 20.3159ZM20.002 11.5485C19.501 11.5485 19.095 11.1424 19.095 10.6415V8.22289C19.095 7.72199 19.501 7.31592 20.002 7.31592C20.5029 7.31592 20.9089 7.72199 20.9089 8.22289V10.6415C20.9089 11.1424 20.5029 11.5485 20.002 11.5485Z" fill="#394452"/>
<g opacity="0.6">
<path d="M30.0768 30.3342C29.7388 30.7039 29.1651 30.7295 28.7954 30.3915L26.1083 27.9347C25.7386 27.5967 25.713 27.023 26.051 26.6534C26.389 26.2837 26.9626 26.258 27.3323 26.596L30.0194 29.0528C30.3891 29.3908 30.4148 29.9645 30.0768 30.3342Z" fill="#394452"/>
<path d="M9.92654 30.3342C9.58854 29.9645 9.61422 29.3908 9.98391 29.0528L12.671 26.596C13.0407 26.258 13.6144 26.2837 13.9524 26.6534C14.2904 27.023 14.2647 27.5967 13.895 27.9347L11.2079 30.3915C10.8382 30.7295 10.2645 30.7039 9.92654 30.3342Z" fill="#394452"/>
<path d="M13.9243 14.2395C13.5701 14.5936 12.9958 14.5936 12.6416 14.2394L9.95454 11.552C9.60036 11.1977 9.6004 10.6235 9.95462 10.2693C10.3088 9.91512 10.8831 9.91516 11.2373 10.2694L13.9244 12.9568C14.2785 13.311 14.2785 13.8853 13.9243 14.2395Z" fill="#394452"/>
<path d="M26.0788 14.2393C25.7246 13.8851 25.7246 13.3108 26.0788 12.9566L28.7661 10.2693C29.1203 9.91508 29.6946 9.91508 30.0488 10.2693C30.403 10.6235 30.403 11.1977 30.0488 11.5519L27.3615 14.2393C27.0073 14.5935 26.433 14.5935 26.0788 14.2393Z" fill="#394452"/>
</g>
</g>
</svg>
