<svg viewBox="0 0 24 24" fill="none" xmlns="http://www.w3.org/2000/svg">
<g clip-path="url(#clip0_37_5369)">
<path d="M12 24C18.6274 24 24 18.6274 24 12C24 5.37258 18.6274 0 12 0C5.37258 0 0 5.37258 0 12C0 18.6274 5.37258 24 12 24Z" fill="#F0F0F0"/>
<path d="M20.3972 3.42862C18.2329 1.308 15.2695 0 12.0001 0C10.9566 0 7.90352 1.308 5.73926 3.42862H20.3972Z" fill="#6DA544"/>
<path d="M11.9993 10.2858H23.8768C23.7037 9.07521 23.3501 7.92302 22.8438 6.85718H11.4775L11.9993 10.2858Z" fill="#6DA544"/>
<path d="M1.15515 17.1429H22.8441C23.3505 16.0771 23.704 14.9248 23.8772 13.7143H0.12207C0.295273 14.9249 0.648758 16.0772 1.15515 17.1429Z" fill="#6DA544"/>
<path d="M3.60254 20.5714C5.7669 22.692 8.73024 24 11.9996 24C15.269 24 18.2324 22.692 20.3967 20.5714H3.60254Z" fill="#6DA544"/>
<path d="M11.9996 0C5.95435 0 0.954008 4.47052 0.12207 10.2857H11.9996V0Z" fill="#D80027"/>
<path d="M5.99926 9.20001L5.47754 8.15658V6.06961L6.78188 5.02612L8.08623 6.06961V7.63481L8.60794 7.11309V8.15658L7.56446 9.20001H5.99926Z" fill="#F0F0F0"/>
<path d="M3.19354 6.00006L3.33168 6.42522H3.77868L3.41704 6.68805L3.55523 7.11315L3.19354 6.85037L2.83185 7.11315L2.97004 6.68805L2.6084 6.42522H3.0554L3.19354 6.00006Z" fill="#F0F0F0"/>
<path d="M4.23748 4.95654L4.37563 5.3817H4.82267L4.46098 5.64453L4.59912 6.06964L4.23748 5.8069L3.87584 6.06964L4.01403 5.64453L3.65234 5.3817H4.0993L4.23748 4.95654Z" fill="#F0F0F0"/>
<path d="M5.28045 3.91309L5.41859 4.33824H5.86555L5.50395 4.60107L5.64205 5.02618L5.28045 4.76345L4.91877 5.02618L5.05691 4.60107L4.69531 4.33824H5.14227L5.28045 3.91309Z" fill="#F0F0F0"/>
<path d="M10.371 6.00006L10.2328 6.42522H9.78589L10.1475 6.68805L10.0093 7.11315L10.371 6.85037L10.7327 7.11315L10.5945 6.68805L10.9561 6.42522H10.5092L10.371 6.00006Z" fill="#F0F0F0"/>
<path d="M9.32728 4.95654L9.18914 5.3817H8.74219L9.10378 5.64453L8.96564 6.06964L9.32728 5.8069L9.68897 6.06964L9.55078 5.64453L9.91242 5.3817H9.46547L9.32728 4.95654Z" fill="#F0F0F0"/>
<path d="M8.28412 3.91309L8.14593 4.33824H7.69897L8.06057 4.60107L7.92243 5.02618L8.28412 4.76345L8.64576 5.02618L8.50762 4.60107L8.86921 4.33824H8.42226L8.28412 3.91309Z" fill="#F0F0F0"/>
<path d="M6.78241 3.39136L6.64422 3.81651H6.19727L6.55886 4.0793L6.42072 4.5044L6.78241 4.24167L7.14405 4.5044L7.00591 4.0793L7.3675 3.81651H6.92055L6.78241 3.39136Z" fill="#F0F0F0"/>
</g>
</svg>
