<svg viewBox="0 0 24 24" fill="none" xmlns="http://www.w3.org/2000/svg">
<g clip-path="url(#clip0_37_7358)">
<path d="M12 23.999C18.6274 23.999 24 18.6264 24 11.999C24 5.37161 18.6274 -0.000976562 12 -0.000976562C5.37258 -0.000976562 0 5.37161 0 11.999C0 18.6264 5.37258 23.999 12 23.999Z" fill="#F0F0F0"/>
<path d="M6.78223 16.1729L7.82571 23.2527C9.12565 23.7351 10.5318 23.999 11.9996 23.999C17.1591 23.999 21.5577 20.7425 23.2532 16.1729H6.78223Z" fill="black"/>
<path d="M6.78223 7.82513L7.82571 0.74532C9.12565 0.26293 10.5318 -0.000976562 11.9996 -0.000976562C17.1591 -0.000976562 21.5577 3.25552 23.2532 7.82513H6.78223Z" fill="#6DA544"/>
<path d="M0 11.999C0 17.1585 3.25655 21.5571 7.82611 23.2526V0.745361C3.25655 2.44088 0 6.83939 0 11.999Z" fill="#A2001D"/>
</g>
</svg>
