<svg viewBox="0 0 24 24" fill="none" xmlns="http://www.w3.org/2000/svg">
<g clip-path="url(#clip0_37_5412)">
<path d="M12 24C18.6274 24 24 18.6274 24 12C24 5.37258 18.6274 0 12 0C5.37258 0 0 5.37258 0 12C0 18.6274 5.37258 24 12 24Z" fill="#F0F0F0"/>
<path d="M17.8217 1.50525C16.0974 0.54675 14.1127 0 12 0C5.37309 0 0.00084375 5.37178 0 11.9986L8.34783 7.82611L17.8217 1.50525Z" fill="#0052B4"/>
<path d="M0 12.0014C0.00084375 18.6282 5.37309 24 12 24C14.1127 24 16.0974 23.4533 17.8217 22.4947L8.34783 16.1739L0 12.0014Z" fill="#0052B4"/>
<path d="M18.8217 2.12728C18.4994 1.9042 18.1654 1.69673 17.8213 1.50543L0 11.9986V12C0 12 0 12.001 0 12.0014L17.8213 22.4945C18.1655 22.3032 18.4994 22.0957 18.8218 21.8727L2.05416 12L18.8217 2.12728Z" fill="#D80027"/>
<path d="M20.8692 11.5526H19.4398C19.8115 11.1063 19.7885 10.4424 19.3698 10.0238C19.8133 9.58029 19.8133 8.86118 19.3698 8.4176L19.3431 8.44441C19.7866 8.00093 19.8133 7.25501 19.3698 6.81152L12.9453 13.236C13.3888 13.6796 14.0953 13.6743 14.5388 13.2308L14.6625 13.1178L17.7388 12.8381V14.1612H18.7823V12.7432L20.3475 12.601L20.8692 11.5526Z" fill="#A2001D"/>
<path d="M13.0439 14.6087L12 14.087L13.0439 13.5652H19.8264V14.6087H13.0439Z" fill="#FFDA44"/>
</g>
</svg>
