<svg viewBox="0 0 24 24" fill="none" xmlns="http://www.w3.org/2000/svg">
<g clip-path="url(#clip0_37_5476)">
<path d="M24 12C24 18.6274 18.6274 24 12 24C5.37262 24 0 18.6274 0 12C0 12.0028 12 0.00135937 12 0C18.6274 0 24 5.37262 24 12Z" fill="#0052B4"/>
<path d="M12.0001 0C11.9994 0 11.9987 4.6875e-05 11.998 4.6875e-05L12.0001 0Z" fill="#F0F0F0"/>
<path d="M11.9678 12H11.9999C11.9999 11.9891 11.9999 11.9787 11.9999 11.9679C11.9892 11.9786 11.9785 11.9893 11.9678 12Z" fill="#F0F0F0"/>
<path d="M12 6.26092C12 4.14944 12 2.76583 12 6.10352e-05H11.998C5.3715 0.00113916 0 5.37325 0 12H6.26086V8.47445L9.78642 12H11.9679C11.9787 11.9893 11.9894 11.9786 12 11.9679C12 11.1595 12 10.4381 12 9.78653L8.47444 6.26092H12Z" fill="#F0F0F0"/>
<path d="M6.071 1.56519C4.19417 2.63389 2.63389 4.19417 1.56519 6.071V12H4.69564V4.69569V4.69564H12C12 3.70831 12 2.76772 12 1.56519H6.071Z" fill="#D80027"/>
<path d="M11.9996 10.5244L7.73617 6.26101H6.2605C6.2605 6.26096 6.2605 6.26101 6.2605 6.26101L11.9995 12.0001H11.9996C11.9996 12.0001 11.9996 10.9826 11.9996 10.5244Z" fill="#D80027"/>
<path d="M7.23729 14.0869L7.89588 15.464L9.38309 15.1203L8.71709 16.4938L9.91305 17.4422L8.42398 17.7779L8.42815 19.3043L7.23729 18.3493L6.04648 19.3043L6.05065 17.7779L4.56152 17.4422L5.75754 16.4938L5.09145 15.1203L6.57874 15.464L7.23729 14.0869Z" fill="#F0F0F0"/>
<path d="M17.9668 16.6956L18.2961 17.3842L19.0397 17.2123L18.7066 17.899L19.3047 18.3733L18.5601 18.5411L18.5622 19.3043L17.9668 18.8268L17.3714 19.3043L17.3734 18.5411L16.6289 18.3733L17.2269 17.899L16.8939 17.2123L17.6375 17.3842L17.9668 16.6956Z" fill="#F0F0F0"/>
<path d="M14.9031 9.3913L15.2323 10.0799L15.976 9.90795L15.643 10.5947L16.241 11.069L15.4964 11.2368L15.4985 12L14.9031 11.5225L14.3077 12L14.3097 11.2368L13.5652 11.069L14.1632 10.5947L13.8302 9.90795L14.5738 10.0799L14.9031 9.3913Z" fill="#F0F0F0"/>
<path d="M17.9668 5.21735L18.2961 5.90594L19.0397 5.73405L18.7067 6.42081L19.3046 6.895L18.5601 7.06286L18.5622 7.82608L17.9668 7.34857L17.3714 7.82608L17.3734 7.06286L16.6289 6.895L17.2268 6.42081L16.8939 5.73405L17.6375 5.90594L17.9668 5.21735Z" fill="#F0F0F0"/>
<path d="M20.6426 8.34772L20.9718 9.03631L21.7155 8.86437L21.3825 9.55114L21.9805 10.0254L21.2359 10.1932L21.238 10.9564L20.6426 10.4789L20.0472 10.9564L20.0492 10.1932L19.3047 10.0254L19.9027 9.55114L19.5697 8.86437L20.3133 9.03631L20.6426 8.34772Z" fill="#F0F0F0"/>
<path d="M18.729 12L18.988 12.7972H19.8262L19.1481 13.2899L19.4072 14.087L18.729 13.5943L18.0509 14.087L18.3099 13.2899L17.6318 12.7972H18.47L18.729 12Z" fill="#F0F0F0"/>
</g>
</svg>
