<svg viewBox="0 0 24 24" fill="none" xmlns="http://www.w3.org/2000/svg">
<g clip-path="url(#clip0_37_5492)">
<path d="M23.2536 16.1739C23.736 14.874 24 13.4679 24 12C24 10.5322 23.736 9.12617 23.2536 7.82614L12 6.78265L0.746391 7.82614C0.264047 9.12617 0 10.5322 0 12C0 13.4679 0.264047 14.874 0.746391 16.1739L12 17.2174L23.2536 16.1739Z" fill="#F0F0F0"/>
<path d="M11.9997 24C17.1593 24 21.5578 20.7435 23.2533 16.1739H0.746094C2.44166 20.7435 6.84012 24 11.9997 24Z" fill="#D80027"/>
<path d="M11.9998 0C6.84013 0 2.44166 3.2565 0.746094 7.82611H23.2534C21.5578 3.2565 17.1593 0 11.9998 0Z" fill="#D80027"/>
</g>
</svg>
