<svg viewBox="0 0 24 24" fill="none" xmlns="http://www.w3.org/2000/svg">
<g clip-path="url(#clip0_37_5497)">
<path d="M24 12C24 10.5321 23.736 9.12602 23.2536 7.82609L12 7.30432L0.746391 7.82604C0.264047 9.12602 0 10.5321 0 12C0 13.4678 0.264047 14.8739 0.746391 16.1739L12 16.6956L23.2536 16.1739C23.736 14.8739 24 13.4678 24 12Z" fill="#D80027"/>
<path d="M11.9997 23.9999C17.1593 23.9999 21.5578 20.7434 23.2533 16.1738H0.746094C2.44161 20.7434 6.84012 23.9999 11.9997 23.9999Z" fill="#6DA544"/>
<path d="M0.746094 7.82611H23.2534C21.5578 3.2565 17.1593 0 11.9997 0C6.84013 0 2.44161 3.2565 0.746094 7.82611Z" fill="#338AF3"/>
<path d="M12.2605 15.3914C10.3875 15.3914 8.86915 13.873 8.86915 12.0001C8.86915 10.1272 10.3875 8.6088 12.2605 8.6088C12.8444 8.6088 13.3939 8.75645 13.8737 9.01642C13.121 8.28044 12.0919 7.82617 10.9561 7.82617C8.6509 7.82617 6.78223 9.69489 6.78223 12.0001C6.78223 14.3052 8.65095 16.174 10.9561 16.174C12.0919 16.174 13.1211 15.7197 13.8737 14.9837C13.3939 15.2438 12.8444 15.3914 12.2605 15.3914Z" fill="#F0F0F0"/>
<path d="M14.8691 9.65228L15.3183 10.9156L16.5292 10.3399L15.9536 11.5509L17.2169 12.0001L15.9536 12.4494L16.5292 13.6603L15.3183 13.0846L14.8691 14.3479L14.4199 13.0846L13.2089 13.6603L13.7846 12.4494L12.5212 12.0001L13.7846 11.5509L13.2089 10.3399L14.4199 10.9156L14.8691 9.65228Z" fill="#F0F0F0"/>
</g>
</svg>
