<svg viewBox="0 0 24 24" fill="none" xmlns="http://www.w3.org/2000/svg">
<g clip-path="url(#clip0_37_5738)">
<path d="M12 24C18.6274 24 24 18.6274 24 12C24 5.37258 18.6274 0 12 0C5.37258 0 0 5.37258 0 12C0 18.6274 5.37258 24 12 24Z" fill="#F0F0F0"/>
<path d="M19.3067 2.4798C15.0105 -0.826104 8.98955 -0.826104 4.69336 2.47975L12 9.78644L19.3067 2.4798Z" fill="#D80027"/>
<path d="M12 14.2137L4.69336 21.5202C8.98955 24.8262 15.0105 24.8262 19.3067 21.5202L12 14.2136L12 14.2137Z" fill="#D80027"/>
<path d="M9.78607 12L2.47943 4.69336C-0.826477 8.98955 -0.826477 15.0105 2.47943 19.3067L9.78607 12Z" fill="#6DA544"/>
<path d="M14.2129 12L21.5195 19.3067C24.8254 15.0105 24.8254 8.98955 21.5195 4.69336L14.2129 12Z" fill="#6DA544"/>
<path d="M11.9996 17.2175C14.8811 17.2175 17.217 14.8816 17.217 12.0001C17.217 9.11861 14.8811 6.78271 11.9996 6.78271C9.11812 6.78271 6.78223 9.11861 6.78223 12.0001C6.78223 14.8816 9.11812 17.2175 11.9996 17.2175Z" fill="#F0F0F0"/>
<path d="M12 8.34784L12.4518 9.13046H13.3555L12.9037 9.91304L13.3555 10.6957H12.4518L12 11.4783L11.5482 10.6957H10.6445L11.0964 9.91304L10.6445 9.13046H11.5482L12 8.34784Z" fill="#D80027"/>
<path d="M9.70343 12L10.1553 12.7826H11.0589L10.6071 13.5652L11.0589 14.3478H10.1553L9.70343 15.1305L9.25156 14.3478H8.3479L8.79973 13.5652L8.3479 12.7826H9.25156L9.70343 12Z" fill="#D80027"/>
<path d="M14.2972 11.9999L14.749 12.7826H15.6527L15.2008 13.5651L15.6527 14.3478H14.749L14.2972 15.1304L13.8453 14.3478H12.9417L13.3935 13.5651L12.9417 12.7826H13.8453L14.2972 11.9999Z" fill="#D80027"/>
</g>
</svg>
