<svg viewBox="0 0 24 24" fill="none" xmlns="http://www.w3.org/2000/svg">
<g clip-path="url(#clip0_37_5518)">
<path d="M12 24C18.6274 24 24 18.6274 24 12C24 5.37258 18.6274 0 12 0C5.37258 0 0 5.37258 0 12C0 18.6274 5.37258 24 12 24Z" fill="#FFDA44"/>
<path d="M7.30388 7.82611H23.2531C21.5576 3.2565 17.1591 0 11.9995 0C8.68576 0 5.68609 1.34339 3.51465 3.51511L7.30388 7.82611Z" fill="#338AF3"/>
<path d="M7.30388 16.1739H23.2531C21.5576 20.7435 17.1591 24 11.9995 24C8.68576 24 5.68609 22.6566 3.51465 20.4849L7.30388 16.1739Z" fill="#338AF3"/>
<path d="M3.51471 3.51471C-1.17157 8.20099 -1.17157 15.799 3.51471 20.4853C5.45126 18.5488 7.31374 16.6863 12 12L3.51471 3.51471Z" fill="black"/>
</g>
</svg>
