<svg viewBox="0 0 24 24" fill="none" xmlns="http://www.w3.org/2000/svg">
<g clip-path="url(#clip0_37_7128)">
<path d="M12 24.001C18.6274 24.001 24 18.6284 24 12.001C24 5.37356 18.6274 0.000976562 12 0.000976562C5.37258 0.000976562 0 5.37356 0 12.001C0 18.6284 5.37258 24.001 12 24.001Z" fill="#F0F0F0"/>
<path d="M21.4263 9.65321H17.4784C17.4784 8.93286 16.8945 8.34888 16.1741 8.34888L15.1306 10.4358C15.1306 10.4358 16.2437 13.5663 16.2089 13.5663H17.5132C18.2336 13.5663 18.8175 12.9823 18.8175 12.2619C19.5379 12.2619 20.1219 11.678 20.1219 10.9576H20.0784C20.7988 10.9575 21.4263 10.3736 21.4263 9.65321Z" fill="#ACABB1"/>
<path d="M2.57422 9.65321H6.52204C6.52204 8.93286 7.10601 8.34888 7.82637 8.34888L8.86987 10.4358C8.86987 10.4358 7.7568 13.5663 7.79161 13.5663H6.48727C5.76687 13.5663 5.18294 12.9823 5.18294 12.2619C4.46253 12.2619 3.8786 11.678 3.8786 10.9576H3.92204C3.20164 10.9575 2.57422 10.3736 2.57422 9.65321Z" fill="#ACABB1"/>
<path d="M16.1738 16.6965V17.2183H7.82596V16.6965H5.73901V18.7835H7.82596V19.3052H16.1738V18.7835H18.2607V16.6965H16.1738Z" fill="#FFDA44"/>
<path d="M7.82617 8.34875V13.5661C7.82617 16.761 12.0001 17.74 12.0001 17.74C12.0001 17.74 16.174 16.761 16.174 13.5661V8.34875L12.0001 7.82703L7.82617 8.34875Z" fill="#0052B4"/>
<path d="M7.82617 10.4359H16.174V13.5664H7.82617V10.4359Z" fill="#D80027"/>
<path d="M14.087 5.74003V6.52264L13.5653 6.78353L13.0436 6.26175V4.69653H10.9566V6.26175L10.4349 6.78353L9.91312 6.52264V5.74003H7.82617V8.3487H16.174V5.74003H14.087Z" fill="#FFDA44"/>
</g>
</svg>
