<svg viewBox="0 0 24 24" fill="none" xmlns="http://www.w3.org/2000/svg">
<g clip-path="url(#clip0_37_5608)">
<path d="M24 12.001C24 10.5331 23.736 9.127 23.2536 7.82706L12 7.3053L0.746391 7.82702C0.264 9.127 0 10.5331 0 12.001C0 13.4688 0.264 14.8749 0.746391 16.1748L12 16.6966L23.2536 16.1749C23.736 14.8749 24 13.4688 24 12.001Z" fill="#FFDA44"/>
<path d="M11.9997 24.0009C17.1593 24.0009 21.5578 20.7444 23.2533 16.1748H0.746094C2.44161 20.7444 6.84012 24.0009 11.9997 24.0009Z" fill="#6DA544"/>
<path d="M0.746094 7.82709H23.2534C21.5578 3.25748 17.1593 0.000976562 11.9997 0.000976562C6.84013 0.000976562 2.44161 3.25748 0.746094 7.82709Z" fill="#D80027"/>
</g>
</svg>
