<svg viewBox="0 0 24 24" fill="none" xmlns="http://www.w3.org/2000/svg">
<g clip-path="url(#clip0_37_5717)">
<path d="M12.0002 23.9983C18.6266 23.9983 23.9984 18.6265 23.9984 12.0001C23.9984 5.37363 18.6266 0.00183105 12.0002 0.00183105C5.37375 0.00183105 0.00195312 5.37363 0.00195312 12.0001C0.00195312 18.6265 5.37375 23.9983 12.0002 23.9983Z" fill="#F0F0F0"/>
<path d="M1.60916 6.00085C1.0676 6.93875 0.668121 7.9193 0.4021 8.91809L20.4677 20.5031C21.1997 19.7733 21.8492 18.9369 22.3906 17.9991L1.60916 6.00085Z" fill="black"/>
<path d="M17.9992 1.6092C13.1984 -1.16253 7.27889 -0.238742 3.53223 3.4969L23.5979 15.0818C24.9598 9.9694 22.8 4.38098 17.9992 1.6092Z" fill="#FFDA44"/>
<path d="M6.00128 22.3908C10.802 25.1625 16.7217 24.2387 20.4682 20.5031L0.40255 8.91809C-0.959245 14.0306 1.20043 19.619 6.00128 22.3908Z" fill="#FFDA44"/>
<path d="M15.3903 10.6959C15.3903 12.5685 13.8722 14.0867 11.9995 14.0867C10.1268 14.0867 8.60867 12.5686 8.60867 10.6959C8.60867 10.112 8.75629 9.56257 9.01626 9.08289C8.28045 9.83539 7.82617 10.8644 7.82617 12C7.82617 14.3049 9.6946 16.1734 11.9995 16.1734C14.3044 16.1734 16.1728 14.3049 16.1728 12C16.1728 10.8644 15.7186 9.83539 14.9827 9.08289C15.2427 9.56266 15.3903 10.112 15.3903 10.6959Z" fill="#D80027"/>
<path d="M11.2168 6.78345H12.7818V14.6084H11.2168V6.78345Z" fill="#D80027"/>
<path d="M14.6082 8.34839H9.3916C9.3916 8.70854 9.70534 9.00048 10.0654 9.00048H10.0437C10.0437 9.36063 10.3357 9.65257 10.6958 9.65257C10.6958 10.0127 10.9878 10.3047 11.3479 10.3047H12.652C13.0122 10.3047 13.3041 10.0127 13.3041 9.65257C13.6643 9.65257 13.9562 9.36063 13.9562 9.00048H13.9345C14.2945 9.00043 14.6082 8.70858 14.6082 8.34839Z" fill="#D80027"/>
<path d="M8.34766 15.1301H15.6509V16.6951H8.34766V15.1301Z" fill="#D80027"/>
<path d="M13.5647 15.6517H16.6947V17.2167H13.5647V15.6517Z" fill="#D80027"/>
<path d="M7.30469 15.6517H10.4346V17.2167H7.30469V15.6517Z" fill="#D80027"/>
</g>
</svg>
