<svg viewBox="0 0 24 24" fill="none" xmlns="http://www.w3.org/2000/svg">
<g clip-path="url(#clip0_37_5603)">
<path d="M20.4853 20.4853C15.799 25.1716 8.20104 25.1716 3.51471 20.4853C-1.17157 15.799 -1.17157 8.20099 3.51471 3.51466C3.5164 3.51466 14.2987 0.328711 18.985 5.01499C23.6713 9.70127 20.4885 20.482 20.4853 20.4853Z" fill="#FFDA44"/>
<path d="M20.4852 20.4853C25.1715 15.799 25.1715 8.201 20.4852 3.51467C15.7989 -1.17166 8.20098 -1.17161 3.51465 3.51467L20.4852 20.4853Z" fill="#D80027"/>
<path d="M15.1362 15.1378C14.6433 15.3314 14.0705 15.3108 13.5736 15.032C12.6956 14.5392 12.3822 13.4239 12.8751 12.5458L12.7255 12.4619C14.2288 12.0994 15.341 10.7348 15.3215 9.12458C15.3094 8.12348 14.8621 7.22783 14.1624 6.61499L13.0668 7.73746C13.481 8.06755 13.7495 8.5739 13.7564 9.14357C13.7686 10.1504 12.9595 10.9795 11.9526 10.9917L11.9547 11.1631C10.8891 10.0425 9.15138 9.76157 7.76665 10.5836C6.90574 11.0947 6.35384 11.9298 6.17285 12.8422L7.69273 13.2299C7.77152 12.7061 8.0757 12.2204 8.56559 11.9295C9.43141 11.4156 10.554 11.7019 11.068 12.5676L11.2155 12.4801C10.7778 13.9632 11.4034 15.6086 12.8077 16.3969C13.6808 16.8869 14.68 16.9473 15.5606 16.6478L15.1362 15.1378ZM11.9652 12.0349L11.9651 12.035L11.9652 12.0349Z" fill="#FF9811"/>
<path d="M16.4427 8.12717L15.5946 11.1539L13.0497 10.684L11.4116 7.30737L6.98629 8.87773L6.6373 7.89429L5.47949 7.75165L6.35188 10.2102L9.3973 9.43133L10.2628 11.8702L8.15751 14.9771L11.7302 18.0243L11.053 18.8182L11.5084 19.8923L13.2014 17.9075L11.0042 15.6595L12.6836 13.6906L16.4269 13.9603L17.2795 9.34264L18.3057 9.53215L19.0083 8.60075L16.4427 8.12717ZM11.9987 12.0816V12.0817V12.0816Z" fill="#FFEACF"/>
</g>
</svg>
