<svg viewBox="0 0 24 24" fill="none" xmlns="http://www.w3.org/2000/svg">
<g clip-path="url(#clip0_37_5624)">
<path d="M0.566625 8.34777C0.199031 9.49944 -4.68667e-05 10.7263 8.276e-09 11.9999C-4.68667e-05 13.2735 0.199031 14.5004 0.566672 15.6521L12 16.1739L23.4333 15.6521C23.8008 14.5004 24 13.2734 24 12C24 10.7264 23.8009 9.49944 23.4333 8.34777L12 7.82605L0.566625 8.34777Z" fill="#F0F0F0"/>
<path d="M24 12C24 11.2881 23.9377 10.5908 23.8187 9.91296H0.181313C0.0623437 10.5908 0 11.288 0 11.9999C0 12.7119 0.0623906 13.4091 0.181313 14.0869H23.8187C23.9376 13.409 24 12.7118 24 12Z" fill="black"/>
<path d="M11.9997 23.9999C17.3536 23.9999 21.8878 20.4935 23.433 15.652H0.566406C2.11164 20.4935 6.64591 23.9998 11.9997 23.9999Z" fill="#338AF3"/>
<path d="M11.9998 1.87984e-09C6.64595 1.87984e-09 2.11173 3.50639 0.566406 8.34773L23.433 8.34778C21.8878 3.50639 17.3536 -9.37481e-05 11.9998 1.87984e-09Z" fill="#338AF3"/>
</g>
</svg>
