<svg viewBox="0 0 24 24" fill="none" xmlns="http://www.w3.org/2000/svg">
<g clip-path="url(#clip0_37_5808)">
<path d="M12 24.9893C18.6274 24.9893 24 19.6167 24 12.9893C24 6.36184 18.6274 0.989258 12 0.989258C5.37258 0.989258 0 6.36184 0 12.9893C0 19.6167 5.37258 24.9893 12 24.9893Z" fill="#F0F0F0"/>
<path d="M22.5408 7.2501C20.9902 4.40812 18.3238 2.2627 15.1304 1.40198L14.6086 7.2501H22.5408Z" fill="#0052B4"/>
<path d="M1.45898 7.2501H9.39117L8.86945 1.40198C5.676 2.2627 3.00966 4.40817 1.45898 7.2501Z" fill="#0052B4"/>
<path d="M14.6084 12.9893V18.7284H22.5406C23.4708 17.0235 23.9997 15.0682 23.9997 12.9893H14.6084Z" fill="#6DA544"/>
<path d="M9.39131 12.9893H0C0 15.0682 0.528891 17.0235 1.45908 18.7284H9.39127V12.9893H9.39131Z" fill="#6DA544"/>
<path d="M1.45898 18.7284C3.00966 21.5704 5.676 23.7158 8.86945 24.5765L9.39117 19.462L1.45898 18.7284Z" fill="#FFDA44"/>
<path d="M15.1304 24.5765C18.3238 23.7158 20.9902 21.5704 22.5408 18.7284L14.6086 19.4619L15.1304 24.5765Z" fill="#FFDA44"/>
<path d="M14.6086 19.4619L22.5409 18.7284H14.6086V19.4619Z" fill="#FFDA44"/>
<path d="M9.39122 18.7284H1.45898L9.39122 19.4619V18.7284Z" fill="#FFDA44"/>
<path d="M11.9996 0.989258C10.9165 0.989258 9.8673 1.13363 8.86914 1.40265V24.5759C9.8673 24.8449 10.9165 24.9893 11.9996 24.9893C13.0827 24.9893 14.1319 24.8449 15.13 24.5759V1.40265C14.1319 1.13363 13.0827 0.989258 11.9996 0.989258V0.989258Z" fill="#D80027"/>
<path d="M6.45463 3.59796L6.77835 4.59438H7.82614L6.97855 5.21023L7.30231 6.20665L6.45463 5.59085L5.60699 6.20665L5.93085 5.21023L5.08325 4.59438H6.13095L6.45463 3.59796Z" fill="#FFDA44"/>
</g>
</svg>
