<svg viewBox="0 0 24 24" fill="none" xmlns="http://www.w3.org/2000/svg">
<g clip-path="url(#clip0_37_5762)">
<path d="M12 24C18.6274 24 24 18.6274 24 12C24 5.37258 18.6274 0 12 0C5.37258 0 0 5.37258 0 12C0 18.6274 5.37258 24 12 24Z" fill="#F0F0F0"/>
<path d="M24.0004 12C24.0004 7.24248 21.2317 3.13173 17.2178 1.19073V22.8092C21.2317 20.8683 24.0004 16.7575 24.0004 12Z" fill="#D80027"/>
<path d="M0 12C0 16.7575 2.76867 20.8683 6.78263 22.8093V1.19073C2.76867 3.13173 0 7.24248 0 12Z" fill="#D80027"/>
<path d="M14.087 13.5652L16.174 12.5217L15.1305 12V10.9565L13.0435 12L14.087 9.91304H13.0435L12.0001 8.34784L10.9566 9.91304H9.91309L10.9566 12L8.86961 10.9565V12L7.82617 12.5217L9.91309 13.5652L9.39138 14.6087H11.4783V16.1739H12.5218V14.6087H14.6088L14.087 13.5652Z" fill="#D80027"/>
</g>
</svg>
