<svg xmlns="http://www.w3.org/2000/svg" fill="none" viewBox="0 0 24 24">
  <g clip-path="url(#a)">
    <g clip-path="url(#b)">
      <path fill="green" d="M48 0H0v24h48V0Z"/>
      <path fill="#FFE000" d="M24 17a5 5 0 1 0 0-10 5 5 0 0 0 0 10Z"/>
      <path fill="green" d="M25.56 16.114a4.114 4.114 0 1 0 0-8.228 4.114 4.114 0 0 0 0 8.228Z"/>
      <path fill="#FFE000" d="M8.238 12.238a5.238 5.238 0 1 0 0-10.476 5.238 5.238 0 0 0 0 10.476Z"/>
      <path fill="#802000" stroke="#7B3100" stroke-width=".111" d="M7.877 10.95h1.308s.059-.12-.014-.18c-.072-.06-.353-.073-.277-.285.156-.436.178-.302.276-1.337.098-1.036.145-2.66.145-2.66h-.188s.036.505-.073 1.163c-.11.657-.142.715-.262 1.22-.12.505-.138.549-.247.843-.109.295-.12.31-.29.582-.171.272-.11.17-.204.334-.047.082-.105.06-.137.12-.032.059-.037.2-.037.2Z"/>
      <path fill="green" d="M8.875 3.184c.01.203-.01.472-.094.69-.085.245-.178.488-.174.74-.135.046-.275-.293-.406-.093.098.276.325.495.48.743.027.078.25.28.12.326-.326-.112-.405-.525-.607-.776-.235-.423-.674-.722-1.162-.742-.184.004-.78-.046-.625.268.229.156.51.257.736.431.168.016.473.297.455.403-.296-.12-.434-.264-.753-.39-.431-.166-1.028-.066-1.267.362-.045.112-.11.437.03.468.163-.255.397-.541.744-.464.273.02-.304.507-.083.41.07-.032.231-.138.343-.149.112-.01.175.073.26.085.17.023.216.094.2.136-.018.049-.072.007-.245.062-.086.027-.131.103-.232.138a.783.783 0 0 1-.389.006c-.274-.119-.723-.098-.808.245 0 .151-.135-.017-.197.049-.046.164-.059.334-.303.319-.148.155-.3.316-.489.427.111.254.549-.255.529-.04-.192.26.098.316.225.115.215-.227.48-.503.801-.275.153.144.241-.075.352-.064.07.179.157.01.236-.041.13-.016.093.161.246.052.306-.203.683-.033.982-.23.319-.145.045.117-.043.22-.14.27-.019.627-.322.795-.122.324.144.75-.127.989-.04.15.349.133.458.194.19.008-.009-.437.18-.496.255.157.243-.281.19-.417.025-.307.042-.643.195-.921.163-.342.313.139.131.274-.103.313-.253.706-.019.998.068.015.124.18.211.23.088.05.207-.013.23-.162.112-.45.055-.933.216-1.37.113-.136.27-.022.34.103.224.26.382.587.655.802.248.116.467.292.581.547-.001.197.56.227.392.008-.161-.213-.055-.426.108-.568.087.022.061-.134-.007-.073-.11-.026-.116-.226.036-.13.256.082-.02-.186-.113-.194-.217-.135-.466-.29-.572-.523.282.003.575.155.863.06.231-.118.466.01.546.214.18-.028.103-.207 0-.267.131-.054.221-.166.063-.264-.084-.11.112-.296-.129-.288.008-.184-.064-.352-.265-.416-.2-.17-.79.25-.773-.133-.06-.208.24-.028.323-.132.086-.22-.411-.198-.247-.369.107-.069.61-.168.216-.242a.622.622 0 0 1-.52-.083c-.142.236-.545-.128-.473.292-.056.158-.416.569-.514.254.083-.247.51-.328.378-.66-.02-.208-.193.036-.274.02-.041-.13.124-.282.24-.312.229.176.235-.222.453-.19.159-.035-.051-.103-.096-.133.044-.116.288-.176.049-.277-.211-.156-.368.156-.542.173-.167-.189.152-.28.24-.379.005-.074-.186-.022-.129-.087.05-.089.387-.095.23-.229a1.1 1.1 0 0 0-.774.045c-.143.046-.186.371-.31.358-.058-.145.02-.43-.18-.472ZM10 6.36c.181-.03.004.275-.084.27.008-.11-.262-.099-.094-.194A.546.546 0 0 1 10 6.36Z"/>
    </g>
  </g>
  <defs>
    <clipPath id="a">
      <rect fill="#fff" rx="12"/>
    </clipPath>
    <clipPath id="b">
      <path fill="#fff" d="M0 0h48v24H0z"/>
    </clipPath>
  </defs>
</svg>
