<svg viewBox="0 0 24 24" fill="none" xmlns="http://www.w3.org/2000/svg">
<g clip-path="url(#clip0_37_6340)">
<path d="M12.0003 24C13.4682 24 14.8743 23.736 16.1742 23.2536L16.696 12L16.1743 0.746391C14.8743 0.264047 13.4682 0 12.0003 0C10.5325 0 9.12639 0.264047 7.82645 0.746391L7.30469 12L7.82641 23.2536C9.12639 23.736 10.5325 24 12.0003 24Z" fill="#F0F0F0"/>
<path d="M0 11.9999C0 17.1595 3.2565 21.558 7.82611 23.2536V0.746338C3.2565 2.44185 0 6.84037 0 11.9999Z" fill="#FF9811"/>
<path d="M16.1738 0.746338V23.2536C20.7434 21.558 23.9999 17.1595 23.9999 11.9999C23.9999 6.84037 20.7434 2.44185 16.1738 0.746338Z" fill="#6DA544"/>
</g>
</svg>
