<svg viewBox="0 0 24 24" fill="none" xmlns="http://www.w3.org/2000/svg">
<g clip-path="url(#clip0_37_5969)">
<path d="M22.668 6.49763C22.1135 5.4233 21.3867 4.41493 20.4861 3.51436C19.5855 2.61375 18.5771 1.88696 17.5028 1.33252L9.04896 9.04843L1.33301 17.5023C1.88749 18.5766 2.61429 19.585 3.51485 20.4856C4.41541 21.3862 5.42384 22.113 6.49812 22.6674L14.952 14.9515L22.668 6.49763Z" fill="#FFDA44"/>
<path d="M3.51431 20.4857C4.0177 20.9891 4.55484 21.438 5.11823 21.8333L21.8331 5.11835C21.4379 4.55496 20.9889 4.01782 20.4855 3.51443C19.9821 3.01104 19.445 2.56212 18.8816 2.16687L2.16675 18.8817C2.56195 19.445 3.01087 19.9823 3.51431 20.4857Z" fill="#D80027"/>
<path d="M3.51441 3.51443C-0.271541 7.30038 -0.998338 12.9862 1.33257 17.5024L17.5024 1.33263C12.9862 -0.998225 7.30032 -0.271335 3.51441 3.51443Z" fill="#338AF3"/>
<path d="M20.4857 20.4857C24.2716 16.6998 24.9984 11.014 22.6676 6.4978L6.4978 22.6676C11.014 24.9984 16.6999 24.2717 20.4857 20.4857Z" fill="#338AF3"/>
<path d="M6.39449 3.65186L7.04202 5.64484H9.13752L7.44224 6.87653L8.08977 8.86946L6.39449 7.63773L4.69912 8.86946L5.34674 6.87653L3.65137 5.64484H5.74687L6.39449 3.65186Z" fill="#FFDA44"/>
</g>
</svg>
