<svg viewBox="0 0 24 24" fill="none" xmlns="http://www.w3.org/2000/svg">
<g clip-path="url(#clip0_37_5891)">
<path d="M24 12C24 18.6274 18.6274 24 12 24C5.37262 24 0 18.6274 0 12C0 12.0029 12 0.0013125 12 0C18.6274 0 24 5.37262 24 12Z" fill="#0052B4"/>
<path d="M11.9678 12H11.9999C11.9999 11.9892 11.9999 11.9787 11.9999 11.9679C11.9892 11.9786 11.9785 11.9893 11.9678 12Z" fill="#F0F0F0"/>
<path d="M12 6.26086C12 4.14937 12 2.76586 12 0H11.998C5.37145 0.001125 0 5.37323 0 12H6.26086V8.47448L9.78638 12H11.9679C11.9786 11.9893 11.9893 11.9786 12 11.9679C12 11.1594 12 10.4381 12 9.78647L8.47444 6.26086H12Z" fill="#F0F0F0"/>
<path d="M6.071 1.56519C4.19417 2.63389 2.63384 4.19417 1.56519 6.071V12H4.69564V4.69573V4.69564H12C12 3.70831 12 2.76772 12 1.56519H6.071Z" fill="#D80027"/>
<path d="M11.9996 10.5244L7.73612 6.26099H6.2605V6.26108L11.9995 12.0001H11.9996C11.9996 12.0001 11.9996 10.9826 11.9996 10.5244Z" fill="#D80027"/>
<path d="M16.174 12L16.3961 12.6832H17.1145L16.5333 13.1055L16.7553 13.7888L16.174 13.3665L15.5928 13.7888L15.8148 13.1055L15.2336 12.6832H15.952L16.174 12Z" fill="#F0F0F0"/>
<path d="M13.2229 13.2226L13.863 13.5488L14.371 13.0408L14.2586 13.7504L14.8987 14.0765L14.1891 14.1888L14.0768 14.8985L13.7506 14.2583L13.041 14.3708L13.5491 13.8628L13.2229 13.2226Z" fill="#F0F0F0"/>
<path d="M12 16.1738L12.6832 15.9518L12.6833 15.2335L13.1055 15.8146L13.7888 15.5926L13.3665 16.1738L13.7888 16.7551L13.1055 16.5331L12.6833 17.1143V16.3959L12 16.1738Z" fill="#F0F0F0"/>
<path d="M13.2229 19.1253L13.549 18.4852L13.041 17.9772L13.7506 18.0896L14.0768 17.4495L14.1891 18.1591L14.8987 18.2714L14.2586 18.5976L14.371 19.3072L13.863 18.7991L13.2229 19.1253Z" fill="#F0F0F0"/>
<path d="M16.1738 20.3479L15.9518 19.6646H15.2334L15.8146 19.2423L15.5926 18.5591L16.1738 18.9813L16.7551 18.5591L16.5331 19.2423L17.1143 19.6646H16.3959L16.1738 20.3479Z" fill="#F0F0F0"/>
<path d="M19.1253 19.1253L18.4852 18.7992L17.9772 19.3072L18.0896 18.5976L17.4495 18.2715L18.1591 18.1591L18.2715 17.4495L18.5976 18.0896L19.3072 17.9772L18.7991 18.4852L19.1253 19.1253Z" fill="#F0F0F0"/>
<path d="M20.3474 16.174L19.6641 16.396V17.1144L19.2418 16.5332L18.5586 16.7553L18.9809 16.174L18.5586 15.5927L19.2418 15.8148L19.6641 15.2336V15.952L20.3474 16.174Z" fill="#F0F0F0"/>
<path d="M19.1253 13.2226L18.7992 13.8627L19.3072 14.3707L18.5976 14.2583L18.2715 14.8985L18.1591 14.1888L17.4495 14.0764L18.0896 13.7503L17.9772 13.0408L18.4852 13.5487L19.1253 13.2226Z" fill="#F0F0F0"/>
</g>
</svg>
