<svg viewBox="0 0 24 24" fill="none" xmlns="http://www.w3.org/2000/svg">
<g clip-path="url(#clip0_37_5772)">
<path d="M12 24C18.6274 24 24 18.6274 24 12C24 5.37258 18.6274 0 12 0C5.37258 0 0 5.37258 0 12C0 18.6274 5.37258 24 12 24Z" fill="#F0F0F0"/>
<path d="M11.9999 24C15.637 24 18.8959 22.3817 21.0965 19.8261H2.90332C5.10396 22.3817 8.36285 24 11.9999 24Z" fill="#0052B4"/>
<path d="M24 12C24 5.37262 18.6274 0 12 0C5.37262 0 0 5.37262 0 12C0 13.0831 0.144375 14.1323 0.413391 15.1305H23.5867C23.8556 14.1323 24 13.0831 24 12Z" fill="#0052B4"/>
<path d="M0.954102 16.6956C1.18543 17.2391 1.45585 17.7619 1.76162 18.2608H22.2391C22.5447 17.7618 22.8151 17.2391 23.0466 16.6956H0.954102Z" fill="#D80027"/>
<path d="M8.57773 12.7827L8.77198 13.3806H9.40062L8.89207 13.7501L9.08632 14.3479L8.57773 13.9784L8.06913 14.3479L8.26343 13.7501L7.75488 13.3806H8.38352L8.57773 12.7827Z" fill="#FFDA44"/>
<path d="M8.57773 20.6089L8.77198 21.2068H9.40062L8.89207 21.5762L9.08632 22.1741L8.57773 21.8046L8.06913 22.1741L8.26343 21.5762L7.75488 21.2068H8.38352L8.57773 20.6089Z" fill="#FFDA44"/>
<path d="M4.93515 17.9621L5.1294 18.5599H5.75804L5.24949 18.9294L5.44374 19.5273L4.93515 19.1578L4.42655 19.5273L4.6209 18.9294L4.1123 18.5599H4.7409L4.93515 17.9621Z" fill="#FFDA44"/>
<path d="M6.32655 13.5653L6.5208 14.1632H7.1494L6.6409 14.5327L6.83515 15.1306L6.32655 14.761L5.81796 15.1306L6.0123 14.5327L5.50366 14.1632H6.1323L6.32655 13.5653Z" fill="#FFDA44"/>
<path d="M4.1123 16.0274L4.7408 16.0274L4.9351 15.4294L5.1294 16.0274L5.75804 16.0273L5.24945 16.3968L5.44374 16.9947L4.9351 16.6252L4.42655 16.9946L4.6208 16.3968L4.1123 16.0274Z" fill="#FFDA44"/>
<path d="M5.81805 21.2771L6.0123 20.6794L5.50366 20.3099H6.1323L6.3266 19.712L6.5209 20.3099H7.14949L6.6409 20.6793L6.83515 21.2773L6.32655 20.9077L5.81805 21.2771Z" fill="#FFDA44"/>
<path d="M12.2193 17.9622L12.0251 18.56H11.3965L11.905 18.9294L11.7107 19.5274L12.2193 19.1578L12.7279 19.5274L12.5336 18.9294L13.0422 18.56H12.4136L12.2193 17.9622Z" fill="#FFDA44"/>
<path d="M10.8277 13.5652L10.6335 14.1631H10.0049L10.5134 14.5325L10.3191 15.1304L10.8277 14.7609L11.3363 15.1304L11.142 14.5325L11.6506 14.1631H11.022L10.8277 13.5652Z" fill="#FFDA44"/>
<path d="M13.0422 16.0274L12.4137 16.0274L12.2194 15.4294L12.0251 16.0274L11.3965 16.0273L11.905 16.3968L11.7107 16.9947L12.2194 16.6252L12.7279 16.9946L12.5337 16.3968L13.0422 16.0274Z" fill="#FFDA44"/>
<path d="M11.3363 21.2773L11.1421 20.6795L11.6507 20.31H11.0221L10.8278 19.7122L10.6335 20.31H10.0049L10.5135 20.6795L10.3192 21.2774L10.8278 20.9078L11.3363 21.2773Z" fill="#FFDA44"/>
</g>
</svg>
