<svg viewBox="0 0 24 24" fill="none" xmlns="http://www.w3.org/2000/svg">
<g clip-path="url(#clip0_37_6162)">
<path d="M0.746094 16.1748C2.44161 20.7443 6.84012 24.0009 11.9997 24.0009C17.1593 24.0009 21.5578 20.7443 23.2533 16.1748L11.9997 15.1313L0.746094 16.1748Z" fill="#FFDA44"/>
<path d="M11.9997 0.000976562C6.84012 0.000976562 2.44161 3.25748 0.746094 7.82709L11.9997 8.87052L23.2533 7.82704C21.5578 3.25748 17.1593 0.000976562 11.9997 0.000976562Z" fill="black"/>
<path d="M0.746391 7.82703C0.264047 9.12701 0 10.5331 0 12.0009C0 13.4688 0.264047 14.8748 0.746391 16.1748H23.2537C23.736 14.8748 24 13.4688 24 12.0009C24 10.5331 23.736 9.12701 23.2536 7.82703H0.746391Z" fill="#D80027"/>
</g>
</svg>
