<svg viewBox="0 0 24 24" fill="none" xmlns="http://www.w3.org/2000/svg">
<g clip-path="url(#clip0_37_5988)">
<path d="M12 24.9893C18.6274 24.9893 24 19.6167 24 12.9893C24 6.36184 18.6274 0.989258 12 0.989258C5.37258 0.989258 0 6.36184 0 12.9893C0 19.6167 5.37258 24.9893 12 24.9893Z" fill="#F0F0F0"/>
<path d="M14.3474 24.7589C19.0913 23.8178 22.8282 20.0809 23.7693 15.337H14.3474V24.7589Z" fill="#496E2D"/>
<path d="M0.230225 15.3372C1.17124 20.081 4.90821 23.818 9.6521 24.759V15.3372H0.230225Z" fill="#496E2D"/>
<path d="M23.7693 10.6415C22.8282 5.89764 19.0913 2.16067 14.3474 1.2196V10.6415H23.7693Z" fill="#496E2D"/>
<path d="M9.6521 1.2196C4.90821 2.16067 1.17124 5.89764 0.230225 10.6415H9.6521V1.2196Z" fill="#496E2D"/>
<path d="M11.2173 15.3372H9.6521V24.759C10.1629 24.8603 10.6854 24.929 11.2173 24.9632V15.3372Z" fill="#FFDA44"/>
<path d="M11.2173 10.6414V1.01538C10.6854 1.0496 10.1628 1.11827 9.6521 1.21957V10.6414H11.2173Z" fill="#FFDA44"/>
<path d="M12.783 1.01537C12.5242 0.998633 12.2634 0.989258 12.0004 0.989258C11.7374 0.989258 11.4766 0.998633 11.2178 1.01537V10.6415H12.783V1.01537H12.783Z" fill="black"/>
<path d="M11.2178 24.9632C11.4766 24.98 11.7374 24.9893 12.0004 24.9893C12.2634 24.9893 12.5242 24.98 12.783 24.9632V15.3372H11.2178V24.9632H11.2178Z" fill="black"/>
<path d="M9.65243 12.2066V10.6414H0.230555C0.129211 11.1522 0.0605859 11.6747 0.0263672 12.2066H9.65243Z" fill="#FFDA44"/>
<path d="M14.3477 12.2066H23.9738C23.9395 11.6747 23.8709 11.1522 23.7696 10.6414H14.3477V12.2066H14.3477Z" fill="#FFDA44"/>
<path d="M14.3479 13.7719H23.974C23.9907 13.5131 24.0001 13.2523 24.0001 12.9893C24.0001 12.7263 23.9907 12.4655 23.974 12.2067H14.3479V13.7719Z" fill="black"/>
<path d="M0.0261094 12.2067C0.00942187 12.4655 0 12.7263 0 12.9893C0 13.2523 0.00942187 13.5131 0.0261094 13.7719H9.65222V12.2067H0.0261094V12.2067Z" fill="black"/>
<path d="M11.9999 18.7284C15.1695 18.7284 17.739 16.1589 17.739 12.9893C17.739 9.81962 15.1695 7.25012 11.9999 7.25012C8.83024 7.25012 6.26074 9.81962 6.26074 12.9893C6.26074 16.1589 8.83024 18.7284 11.9999 18.7284Z" fill="#D80027"/>
<path d="M13.3075 13.6296C12.8806 12.7758 12.3258 11.9105 12.3258 11.9105C12.3258 11.9105 12.3395 11.5165 12.3395 11.2818C12.3395 10.9282 12.0529 10.6415 11.6992 10.6415C11.3642 10.6415 11.0897 10.8989 11.0617 11.2266C10.7983 11.2438 10.5898 11.4623 10.5898 11.7301C10.5898 11.9247 10.7001 12.0934 10.8616 12.1778C10.9418 11.9901 11.099 11.8435 11.2933 11.7767C11.325 11.8027 11.359 11.8258 11.3953 11.8455L11.4774 11.8847C11.4774 11.8847 11.1732 12.7421 11.1732 13.2027C11.1732 14.4976 12.027 14.8969 12.027 14.8969V14.9103L11.6001 15.3371H12.4538V14.4834L12.8807 14.9102C12.8845 14.9022 13.6893 14.3932 13.3075 13.6296Z" fill="#496E2D"/>
<path d="M11.9996 8.29358L12.1939 8.89142H12.8224L12.3139 9.26094L12.5082 9.85878L11.9996 9.48931L11.491 9.85878L11.6853 9.26094L11.1768 8.89142H11.8054L11.9996 8.29358Z" fill="#496E2D"/>
<path d="M9.24012 9.19035L9.74863 9.55987L10.2572 9.19031L10.063 9.78824L10.5716 10.1577L9.94292 10.1577L9.74867 10.7556L9.55438 10.1577L8.92578 10.1577L9.43433 9.78815L9.24012 9.19035Z" fill="#496E2D"/>
<path d="M7.53418 11.5383H8.16273L8.35702 10.9404L8.55127 11.5383L9.17991 11.5382L8.67137 11.9078L8.86566 12.5056L8.35702 12.1361L7.84848 12.5056L8.04268 11.9077L7.53418 11.5383Z" fill="#496E2D"/>
<path d="M7.53418 14.4402L8.04268 14.0708L7.84843 13.4729L8.35702 13.8424L8.86562 13.4729L8.67137 14.0707L9.17996 14.4403L8.55127 14.4403L8.35702 15.0381L8.16273 14.4402H7.53418Z" fill="#496E2D"/>
<path d="M9.23993 16.7881L9.43413 16.1903L8.92554 15.8208H9.55418L9.74847 15.2229L9.94273 15.8207H10.5714L10.0628 16.1903L10.257 16.7881L9.74843 16.4186L9.23993 16.7881Z" fill="#496E2D"/>
<path d="M11.9996 17.685L11.8054 17.0872H11.1768L11.6853 16.7176L11.491 16.1198L11.9996 16.4892L12.5081 16.1198L12.3139 16.7176L12.8224 17.0872L12.1939 17.0872L11.9996 17.685Z" fill="#496E2D"/>
<path d="M14.7599 16.7881L14.2514 16.4186L13.7429 16.7882L13.9371 16.1903L13.4285 15.8208L14.0571 15.8207L14.2513 15.2229L14.4457 15.8208H15.0742L14.5657 16.1903L14.7599 16.7881Z" fill="#496E2D"/>
<path d="M16.4661 14.4403H15.8375L15.6432 15.0382L15.449 14.4404H14.8203L15.3289 14.0708L15.1346 13.473L15.6432 13.8425L16.1517 13.473L15.9576 14.0709L16.4661 14.4403Z" fill="#496E2D"/>
<path d="M16.4661 11.5381L15.9576 11.9076L16.1518 12.5054L15.6432 12.1359L15.1347 12.5055L15.3289 11.9076L14.8203 11.5382L15.449 11.5381L15.6432 10.9403L15.8375 11.5381H16.4661Z" fill="#496E2D"/>
<path d="M14.7599 9.19043L14.5657 9.78823L15.0742 10.1577H14.4457L14.2514 10.7556L14.0571 10.1578L13.4285 10.1578L13.9371 9.78823L13.7428 9.19048L14.2514 9.5599L14.7599 9.19043Z" fill="#496E2D"/>
</g>
</svg>
