<svg viewBox="0 0 24 24" fill="none" xmlns="http://www.w3.org/2000/svg">
<g clip-path="url(#clip0_37_5976)">
<path d="M12 24C18.6274 24 24 18.6274 24 12C24 5.37258 18.6274 0 12 0C5.37258 0 0 5.37258 0 12C0 18.6274 5.37258 24 12 24Z" fill="#F0F0F0"/>
<path d="M9.39165 10.4348H23.8987C23.1317 4.54697 18.0972 0 12.0003 0C11.1043 0 10.2316 0.0990469 9.3916 0.285234V10.4348H9.39165Z" fill="#D80027"/>
<path d="M6.26084 10.4348V1.45911C2.96586 3.25695 0.607016 6.55465 0.101562 10.4348H6.26084V10.4348Z" fill="#D80027"/>
<path d="M6.2608 13.5652H0.101562C0.607016 17.4454 2.96586 20.7431 6.26084 22.5409L6.2608 13.5652Z" fill="#D80027"/>
<path d="M9.3916 13.5652V23.7147C10.2316 23.9009 11.1043 24 12.0003 24C18.0972 24 23.1317 19.453 23.8987 13.5652H9.3916V13.5652Z" fill="#D80027"/>
</g>
</svg>
