<svg viewBox="0 0 24 24" fill="none" xmlns="http://www.w3.org/2000/svg">
<g clip-path="url(#clip0_37_6032)">
<path d="M0 12C0 5.37262 5.37262 0 12 0C18.6274 0 24 5.37262 24 12L12 13.0435L0 12Z" fill="#FFDA44"/>
<path d="M1.60547 17.9999C3.68039 21.5866 7.55808 23.9999 11.9997 23.9999C16.4414 23.9999 20.319 21.5866 22.394 17.9999L11.9997 17.2173L1.60547 17.9999Z" fill="#D80027"/>
<path d="M22.3942 18C23.4153 16.235 24 14.1858 24 12H0C0 14.1858 0.584719 16.235 1.60575 18H22.3942Z" fill="#0052B4"/>
<path d="M12.0001 16.1738C14.3052 16.1738 16.174 14.3051 16.174 11.9999C16.174 9.69476 14.3052 7.82605 12.0001 7.82605C9.69489 7.82605 7.82617 9.69476 7.82617 11.9999C7.82617 14.3051 9.69489 16.1738 12.0001 16.1738Z" fill="#FFDA44"/>
<path d="M12.0003 14.6088C10.5618 14.6088 9.3916 13.4385 9.3916 12.0001V10.4349C9.3916 8.99641 10.5619 7.82617 12.0003 7.82617C13.4387 7.82617 14.609 8.99645 14.609 10.4349V12.0001C14.609 13.4385 13.4387 14.6088 12.0003 14.6088Z" fill="#338AF3"/>
<path d="M16.1738 5.73916H13.0434C13.0434 5.16288 12.5761 4.69568 11.9999 4.69568C11.4236 4.69568 10.9564 5.16288 10.9564 5.73916H7.82593C7.82593 6.31549 8.32791 6.78265 8.90415 6.78265H8.86941C8.86941 7.35898 9.33657 7.82613 9.9129 7.82613C9.9129 8.40246 10.3801 8.86962 10.9564 8.86962H13.0434C13.6197 8.86962 14.0868 8.40246 14.0868 7.82613C14.6632 7.82613 15.1303 7.35898 15.1303 6.78265H15.0956C15.6719 6.78265 16.1738 6.31544 16.1738 5.73916Z" fill="black"/>
</g>
</svg>
