<svg viewBox="0 0 24 24" fill="none" xmlns="http://www.w3.org/2000/svg">
<g clip-path="url(#clip0_37_6039)">
<path d="M12 24C18.6274 24 24 18.6274 24 12C24 5.37258 18.6274 0 12 0C5.37258 0 0 5.37258 0 12C0 18.6274 5.37258 24 12 24Z" fill="#F0F0F0"/>
<path d="M11.9997 0C6.84013 0 2.44161 3.2565 0.746094 7.82611H23.2534C21.5578 3.2565 17.1593 0 11.9997 0Z" fill="#D80027"/>
<path d="M11.9997 23.9999C17.1593 23.9999 21.5578 20.7434 23.2533 16.1738H0.746094C2.44161 20.7434 6.84012 23.9999 11.9997 23.9999Z" fill="black"/>
<path d="M16.1738 10.6957H13.0434C13.0434 10.1194 12.5761 9.65222 11.9999 9.65222C11.4236 9.65222 10.9564 10.1194 10.9564 10.6957H7.82593C7.82593 11.272 8.32791 11.7392 8.90419 11.7392H8.86941C8.86941 12.3155 9.33657 12.7827 9.9129 12.7827C9.9129 13.359 10.3801 13.8262 10.9564 13.8262H13.0434C13.6197 13.8262 14.0868 13.359 14.0868 12.7827C14.6632 12.7827 15.1303 12.3155 15.1303 11.7392H15.0956C15.6719 11.7392 16.1738 11.272 16.1738 10.6957Z" fill="#FF9811"/>
</g>
</svg>
