<svg xmlns="http://www.w3.org/2000/svg" fill="none" viewBox="0 0 24 24">
  <g clip-path="url(#a)">
    <g clip-path="url(#b)">
      <path fill="#000" d="M36.068.18H0v7.87h36.068V.18Z"/>
      <path fill="green" d="M36.068 15.921H0v7.87h36.068v-7.87Z"/>
      <path fill="#fff" d="M36.068 8.05H0v7.871h36.068v-7.87Z"/>
      <path fill="#C00" d="m0 .18 6.543 11.834L0 23.791V.181Zm10.942 14.945c1.465 0 2.653-1.405 2.653-3.139 0-1.734-1.188-3.139-2.653-3.139s-2.653 1.405-2.653 3.139c0 1.733 1.188 3.139 2.653 3.139Z"/>
      <path fill="#fff" d="M11.956 15.125c1.465 0 2.653-1.405 2.653-3.139 0-1.734-1.188-3.139-2.653-3.139-1.466 0-2.654 1.405-2.654 3.139 0 1.733 1.188 3.139 2.654 3.139Z"/>
      <path fill="#C00" d="m10.228 13.892 1.134-.96 1.126.974-.42-1.573 1.13-.965-1.394-.013-.427-1.571-.441 1.565-1.395-.005 1.122.98-.435 1.568Z"/>
      <path fill="#C1272D" d="M36.068 23.82h-6.132L6.132.18h29.936v23.64Z"/>
      <path stroke="#fff" stroke-width=".361" d="m6.132.18 23.804 23.64"/>
    </g>
  </g>
  <defs>
    <clipPath id="a">
      <rect fill="#fff" rx="12"/>
    </clipPath>
    <clipPath id="b">
      <path fill="#fff" d="M0 0h36.068v24H0z"/>
    </clipPath>
  </defs>
</svg>
