<svg viewBox="0 0 24 24" fill="none" xmlns="http://www.w3.org/2000/svg">
<g clip-path="url(#clip0_37_7116)">
<path d="M0 12C0 13.4678 0.264047 14.8739 0.746391 16.1739L12 17.2173L23.2536 16.1739C23.736 14.8739 24 13.4678 24 12C24 10.5321 23.736 9.12606 23.2536 7.82608L12 6.78259L0.746391 7.82608C0.264047 9.12606 0 10.5321 0 12H0Z" fill="#FFDA44"/>
<path d="M23.2533 7.82611C21.5578 3.25655 17.1593 0 11.9997 0C6.84012 0 2.44161 3.25655 0.746094 7.82611H23.2533Z" fill="#D80027"/>
<path d="M0.746094 16.174C2.44161 20.7435 6.84012 24.0001 11.9997 24.0001C17.1593 24.0001 21.5578 20.7435 23.2533 16.174H0.746094Z" fill="#D80027"/>
</g>
</svg>
