<svg viewBox="0 0 24 24" fill="none" xmlns="http://www.w3.org/2000/svg">
<g clip-path="url(#clip0_37_6072)">
<path d="M0 12.9892C0 14.4572 0.264047 15.8632 0.746437 17.1633L12 18.2066L23.2536 17.1632C23.736 15.8632 24 14.4571 24 12.9892C24 11.5415 23.7435 10.1537 23.2737 8.86868L12 7.77185L0.726281 8.86873C0.256453 10.1537 0 11.5415 0 12.9892H0Z" fill="#FFDA44"/>
<path d="M11.9997 24.9892C17.1593 24.9892 21.5578 21.7327 23.2533 17.1631H0.746094C2.44161 21.7327 6.84012 24.9892 11.9997 24.9892Z" fill="#D80027"/>
<path d="M11.9997 0.989258C6.84013 0.989258 2.44161 4.24576 0.746094 8.81537H23.2534C21.5578 4.24576 17.1593 0.989258 11.9997 0.989258Z" fill="#6DA544"/>
<path d="M11.9999 18.7284C15.1695 18.7284 17.739 16.1589 17.739 12.9893C17.739 9.81962 15.1695 7.25012 11.9999 7.25012C8.83024 7.25012 6.26074 9.81962 6.26074 12.9893C6.26074 16.1589 8.83024 18.7284 11.9999 18.7284Z" fill="#0052B4"/>
<path d="M11.9988 8.54504L13.0348 11.7336H16.3928L13.6751 13.7042L14.7192 16.9022L11.9988 14.9222L9.28244 16.8986L10.3224 13.7042L7.60718 11.7336H10.9627L11.9988 8.54504Z" fill="#FFDA44"/>
<path d="M16.1305 13.7828L12.8438 12.7148L14.8751 9.91919L14.0309 9.30579L11.9996 12.1016L9.96847 9.30583L9.12426 9.91915L11.1554 12.715L7.8689 13.7828L8.1913 14.7753L11.478 13.7074V17.1631H12.5214V13.7073L15.808 14.7753L16.1305 13.7828Z" fill="#FFDA44"/>
</g>
</svg>
