<svg viewBox="0 0 24 24" fill="none" xmlns="http://www.w3.org/2000/svg">
<g clip-path="url(#clip0_37_6109)">
<path d="M24 12C24 18.6274 18.6274 24 12 24C5.37262 24 0 18.6274 0 12C0 12.0029 12 0.0013125 12 0C18.6274 0 24 5.37262 24 12Z" fill="#338AF3"/>
<path d="M12.0001 5.73914V9.78646L7.82617 5.73914H12.0001Z" fill="#0052B4"/>
<path d="M6.26098 12H9.78654L6.26098 7.30432L5.73926 10.9565L6.26098 12Z" fill="#0052B4"/>
<path d="M11.9678 12H11.9999C11.9999 11.9892 11.9999 11.9787 11.9999 11.9679C11.9892 11.9786 11.9785 11.9893 11.9678 12Z" fill="#F0F0F0"/>
<path d="M12 6.26086C12 4.14937 12 2.76586 12 0H11.998C5.3715 0.001125 0 5.37323 0 12H6.26086V8.47448L9.78642 12H11.968C11.9787 11.9893 11.9894 11.9786 12.0001 11.9679C12.0001 11.1594 12.0001 10.4381 12.0001 9.78647L8.47444 6.26086H12Z" fill="#F0F0F0"/>
<path d="M6.071 1.56519C4.19417 2.63389 2.63389 4.19417 1.56519 6.071V12H4.69564V4.69573V4.69564H12C12 3.70831 12 2.76772 12 1.56519H6.071Z" fill="#D80027"/>
<path d="M11.9996 10.5244L7.73617 6.26099H6.2605V6.26108L11.9995 12.0001H11.9996C11.9996 12.0001 11.9996 10.9826 11.9996 10.5244Z" fill="#D80027"/>
<path d="M13.5652 7.82608V11.9999C13.5652 14.7955 17.2174 15.6521 17.2174 15.6521C17.2174 15.6521 20.8695 14.7955 20.8695 11.9999V7.82608L17.2174 6.78259L13.5652 7.82608Z" fill="#F3F3F3"/>
<path d="M20.8695 7.82607V6.26086H13.5652V7.82607H16.6955V10.9566H13.5652V12V12.0001L16.6955 12.0001V15.4921C17.0105 15.6035 17.2174 15.6522 17.2174 15.6522C17.2174 15.6522 17.4242 15.6036 17.739 15.4921V12.0001H20.8695V12V10.9565H17.739V7.82602H20.8695V7.82607Z" fill="#D80027"/>
</g>
</svg>
