<svg viewBox="0 0 24 24" fill="none" xmlns="http://www.w3.org/2000/svg">
<g clip-path="url(#clip0_37_6091)">
<path d="M24 12.001C24 18.6284 18.6274 24.001 12 24.001C5.37262 24.001 0 18.6284 0 12.001C0 12.0038 12 0.00228906 12 0.000976562C18.6274 0.000976562 24 5.3736 24 12.001Z" fill="#0052B4"/>
<path d="M11.9678 12.001H11.9999C11.9999 11.9902 11.9999 11.9797 11.9999 11.9689C11.9892 11.9796 11.9785 11.9903 11.9678 12.001Z" fill="#F0F0F0"/>
<path d="M12 6.26184C12 4.15035 12 2.76684 12 0.000976562H11.998C5.3715 0.00210156 0 5.37421 0 12.001H6.26086V8.47546L9.78642 12.001H11.9679L12 11.9689C12 11.1604 12 10.4391 12 9.78745L8.47444 6.26184H12Z" fill="#F0F0F0"/>
<path d="M6.071 1.56616C4.19417 2.63487 2.63389 4.19515 1.56519 6.07197V12.001H4.69564V4.69671V4.69662H12C12 3.70929 12 2.76869 12 1.56616H6.071Z" fill="#D80027"/>
<path d="M11.9996 10.5254L7.73617 6.26196H6.2605V6.26206L11.9995 12.0011H11.9996C11.9996 12.0011 11.9996 10.9835 11.9996 10.5254Z" fill="#D80027"/>
<path d="M19.3043 14.0879V14.6096H15.1304V14.0879H13.5652V16.1748H14.6087V16.6966H19.8261V16.1748H20.8695V14.0879H19.3043Z" fill="#FFDA44"/>
<path d="M13.5652 6.26184V12.001C13.5652 14.7966 17.2174 15.6532 17.2174 15.6532C17.2174 15.6532 20.8695 14.7966 20.8695 12.001V6.26184H13.5652Z" fill="#338AF3"/>
<path d="M17.2171 10.5427C16.3041 10.5427 16.3041 11.3775 15.3912 11.3775C14.4782 11.3775 14.4782 10.5427 13.5652 10.5427V12.0036C14.4782 12.0036 14.4782 12.8384 15.3912 12.8384C16.3041 12.8384 16.3041 12.0036 17.2171 12.0036C18.1302 12.0036 18.1302 12.8384 19.0433 12.8384C19.9565 12.8384 19.9564 12.0036 20.8695 12.0036V10.5427C19.9565 10.5427 19.9565 11.3775 19.0433 11.3775C18.1302 11.3775 18.1302 10.5427 17.2171 10.5427Z" fill="#F3F3F3"/>
<path d="M17.2171 7.61841C16.3041 7.61841 16.3041 8.45321 15.3912 8.45321C14.4782 8.45321 14.4782 7.61841 13.5652 7.61841V9.07927C14.4782 9.07927 14.4782 9.91406 15.3912 9.91406C16.3041 9.91406 16.3041 9.07927 17.2171 9.07927C18.1302 9.07927 18.1302 9.91406 19.0433 9.91406C19.9565 9.91406 19.9564 9.07927 20.8695 9.07927V7.61841C19.9565 7.61841 19.9565 8.45321 19.0433 8.45321C18.1302 8.45321 18.1302 7.61841 17.2171 7.61841Z" fill="#F3F3F3"/>
</g>
</svg>
