<svg viewBox="0 0 24 24" fill="none" xmlns="http://www.w3.org/2000/svg">
<g clip-path="url(#clip0_37_6579)">
<path d="M12 24C18.6274 24 24 18.6274 24 12C24 5.37258 18.6274 0 12 0C5.37258 0 0 5.37258 0 12C0 18.6274 5.37258 24 12 24Z" fill="#338AF3"/>
<path d="M12 5.21729L12.518 6.8116H14.1944L12.8382 7.79696L13.3562 9.39122L12 8.40591L10.6438 9.39122L11.1619 7.79696L9.80566 6.8116H11.4821L12 5.21729Z" fill="#F0F0F0"/>
<path d="M5.21777 12L6.81209 11.4819V9.80548L7.79745 11.1618L9.39171 10.6437L8.4064 12L9.39171 13.3561L7.79745 12.838L6.81209 14.1942V12.5179L5.21777 12Z" fill="#F0F0F0"/>
<path d="M12.0001 18.7826L11.4821 17.1883H9.80566L11.1619 16.2029L10.6439 14.6086L12.0001 15.594L13.3563 14.6086L12.8382 16.2029L14.1944 17.1883H12.5181L12.0001 18.7826Z" fill="#F0F0F0"/>
<path d="M18.7833 11.9998L17.189 12.5178V14.1942L16.2036 12.838L14.6094 13.356L15.5947 11.9998L14.6094 10.6436L16.2036 11.1617L17.189 9.80542V11.4818L18.7833 11.9998Z" fill="#F0F0F0"/>
</g>
</svg>
