<svg viewBox="0 0 24 24" fill="none" xmlns="http://www.w3.org/2000/svg">
<g clip-path="url(#clip0_37_6141)">
<path d="M23.2536 16.1739C23.736 14.8739 24 13.4678 24 12C24 10.5321 23.736 9.12611 23.2536 7.82608L12 6.78259L0.746391 7.82608C0.264047 9.12611 0 10.5321 0 12C0 13.4678 0.264047 14.8739 0.746391 16.1739L12 17.2173L23.2536 16.1739Z" fill="#FFDA44"/>
<path d="M11.9997 23.9999C17.1593 23.9999 21.5578 20.7434 23.2533 16.1738H0.746094C2.44166 20.7434 6.84012 23.9999 11.9997 23.9999Z" fill="#0052B4"/>
<path d="M11.9998 0C6.84013 0 2.44166 3.2565 0.746094 7.82611H23.2534C21.5578 3.2565 17.1593 0 11.9998 0Z" fill="#6DA544"/>
</g>
</svg>
