<svg viewBox="0 0 24 24" fill="none" xmlns="http://www.w3.org/2000/svg">
<g clip-path="url(#clip0_37_6231)">
<path d="M12 24.9893C18.6274 24.9893 24 19.6167 24 12.9893C24 6.36184 18.6274 0.989258 12 0.989258C5.37258 0.989258 0 6.36184 0 12.9893C0 19.6167 5.37258 24.9893 12 24.9893Z" fill="#F0F0F0"/>
<path d="M23.8984 11.4241H13.5653H13.5653V1.09084C13.0529 1.02413 12.5305 0.989258 12 0.989258C11.4695 0.989258 10.9471 1.02413 10.4348 1.09084V11.4241H0.101578C0.034875 11.9364 0 12.4588 0 12.9893C0 13.5197 0.034875 14.0421 0.101578 14.5545H10.4347H10.4347V24.8877C10.9471 24.9544 11.4695 24.9893 12 24.9893C12.5305 24.9893 13.0529 24.9544 13.5652 24.8877V14.5546V14.5545H23.8984C23.9651 14.0421 24 13.5197 24 12.9893C24 12.4588 23.9651 11.9364 23.8984 11.4241Z" fill="#D80027"/>
<path d="M15.3914 13.5109L16.174 14.0327V11.9457L15.3914 12.4675H12.5218V9.59789L13.0435 8.81531H10.9566L11.4783 9.59789V12.4675H8.60875L7.82617 11.9457V14.0327L8.60875 13.5109H11.4783V16.3805L10.9566 17.1631H13.0435L12.5218 16.3805V13.5109H15.3914Z" fill="#FFDA44"/>
</g>
</svg>
