<svg viewBox="0 0 24 24" fill="none" xmlns="http://www.w3.org/2000/svg">
<g clip-path="url(#clip0_37_6242)">
<path d="M16.1743 0.747414C14.8742 0.265023 13.4681 0.000976562 12.0002 0.000976562C10.5325 0.000976562 9.12639 0.265023 7.82645 0.74732L7.30469 12.001L7.82641 23.2546C9.12639 23.737 10.5325 24.001 12.0002 24.001C13.4682 24.001 14.8742 23.737 16.1743 23.2545L16.696 12.001L16.1743 0.747414Z" fill="#FFDA44"/>
<path d="M0 12.001C0 17.1605 3.2565 21.5591 7.82611 23.2545V0.747314C3.2565 2.44288 0 6.84135 0 12.001Z" fill="#D80027"/>
<path d="M23.9999 12.001C23.9999 6.84135 20.7434 2.44288 16.1738 0.747314V23.2546C20.7434 21.5591 23.9999 17.1605 23.9999 12.001Z" fill="#6DA544"/>
</g>
</svg>
