<svg viewBox="0 0 24 24" fill="none" xmlns="http://www.w3.org/2000/svg">
<g clip-path="url(#clip0_37_6149)">
<path d="M12 24.9893C18.6274 24.9893 24 19.6167 24 12.9893C24 6.36184 18.6274 0.989258 12 0.989258C5.37258 0.989258 0 6.36184 0 12.9893C0 19.6167 5.37258 24.9893 12 24.9893Z" fill="#F0F0F0"/>
<path d="M12.0003 0.989258C7.03927 0.989258 2.78171 3.99985 0.954102 8.2936H23.0465C21.2189 3.99985 16.9613 0.989258 12.0003 0.989258Z" fill="#A2001D"/>
<path d="M12.0003 24.9892C16.9613 24.9892 21.2189 21.9786 23.0465 17.6848H0.954102C2.78171 21.9786 7.03927 24.9892 12.0003 24.9892Z" fill="#496E2D"/>
<path d="M23.5866 9.85876H0.413391C0.144375 10.8569 0 11.9061 0 12.9892C0 14.0724 0.144375 15.1216 0.413391 16.1197H23.5867C23.8556 15.1216 24 14.0724 24 12.9892C24 11.9061 23.8556 10.8569 23.5866 9.85876Z" fill="#0052B4"/>
</g>
</svg>
