<svg viewBox="0 0 24 24" fill="none" xmlns="http://www.w3.org/2000/svg">
<g clip-path="url(#clip0_37_6235)">
<path d="M12.0001 0C10.917 0 9.86772 0.144375 8.86961 0.413391L7.82617 12L8.86966 23.5866C9.86772 23.8556 10.917 24 12.0001 24C18.6274 24 24.0001 18.6274 24.0001 12C24.0001 5.37262 18.6274 0 12.0001 0Z" fill="#FFDA44"/>
<path d="M7.82617 12L8.86966 23.5866C9.86772 23.8556 10.917 24 12.0001 24C18.6274 24 24.0001 18.6274 24.0001 12H7.82617Z" fill="#6DA544"/>
<path d="M0 11.9999C0 16.5484 2.53078 20.5056 6.26086 22.5408V1.45898C2.53078 3.4942 0 7.45139 0 11.9999Z" fill="#D80027"/>
<path d="M0 11.9999C0 17.5443 3.76036 22.2095 8.86955 23.5865V0.41333C3.76036 1.79033 0 6.45561 0 11.9999Z" fill="#D80027"/>
<path d="M4.53444 8.86951L5.31139 11.2609H7.82605L5.79176 12.7389L6.56867 15.1304L4.53444 13.6524L2.50011 15.1304L3.2772 12.7389L1.24292 11.2609H3.75744L4.53444 8.86951Z" fill="black"/>
</g>
</svg>
