<svg viewBox="0 0 24 24" fill="none" xmlns="http://www.w3.org/2000/svg">
<g clip-path="url(#clip0_37_6190)">
<path d="M12 24C18.6274 24 24 18.6274 24 12C24 5.37258 18.6274 0 12 0C5.37258 0 0 5.37258 0 12C0 18.6274 5.37258 24 12 24Z" fill="#FFDA44"/>
<path d="M5.23657 2.08697C7.16243 0.770437 9.49109 0 12 0C14.509 0 16.8376 0.770437 18.7635 2.08697L12 2.60869L5.23657 2.08697Z" fill="#A2001D"/>
<path d="M12.0004 12L11.2346 11.2341L11.0312 11.5984L12.0004 12Z" fill="#0052B4"/>
<path d="M3.51471 3.51465C-1.17157 8.20093 -1.17157 15.7989 3.51471 20.4853C5.45126 18.5487 7.31374 16.6862 12 12L3.51471 3.51465Z" fill="#496E2D"/>
<path d="M20.4853 3.51465C25.1716 8.20093 25.1716 15.7989 20.4853 20.4853C18.5488 18.5487 16.6863 16.6862 12 12L20.4853 3.51465Z" fill="#496E2D"/>
<path d="M12.0001 16.1738C14.3052 16.1738 16.174 14.3051 16.174 11.9999C16.174 9.69476 14.3052 7.82605 12.0001 7.82605C9.69489 7.82605 7.82617 9.69476 7.82617 11.9999C7.82617 14.3051 9.69489 16.1738 12.0001 16.1738Z" fill="#A2001D"/>
<path d="M11.9996 7.82605L12.9352 10.7055H15.9633L13.5137 12.4855L14.4492 15.3651L11.9996 13.5855L9.54996 15.3651L10.4857 12.4855L8.03613 10.7055H11.064L11.9996 7.82605Z" fill="#FFDA44"/>
<path d="M12.0001 0C11.9988 0 11.9975 9.375e-05 11.9961 9.375e-05H12.0041C12.0028 9.375e-05 12.0015 0 12.0001 0Z" fill="#FFDA44"/>
<path d="M12.0043 0H11.9963C8.68444 0.00107812 5.68627 1.34372 3.51562 3.51413H20.485C18.3143 1.34372 15.3161 0.00107812 12.0043 0Z" fill="#A2001D"/>
<path d="M3.51562 20.486C5.68716 22.6572 8.68688 24 12.0002 24C15.3136 24 18.3133 22.6572 20.4848 20.486H3.51562Z" fill="#A2001D"/>
<path d="M12.0006 1.30444L12.1949 1.90229H12.8235L12.315 2.2718L12.5093 2.86965L12.0006 2.50018L11.4921 2.86965L11.6864 2.2718L11.1777 1.90229H11.8063L12.0006 1.30444Z" fill="#FFDA44"/>
<path d="M9.09047 1.30444L9.28477 1.90229H9.91336L9.40481 2.2718L9.59911 2.86965L9.09047 2.50018L8.58197 2.86965L8.77622 2.2718L8.26758 1.90229H8.89617L9.09047 1.30444Z" fill="#FFDA44"/>
<path d="M14.9098 1.30444L15.1041 1.90229H15.7327L15.2241 2.2718L15.4184 2.86965L14.9098 2.50018L14.4013 2.86965L14.5956 2.2718L14.0869 1.90229H14.7155L14.9098 1.30444Z" fill="#FFDA44"/>
<path d="M12.0006 21.1306L12.1949 21.7285H12.8235L12.315 22.098L12.5093 22.6958L12.0006 22.3263L11.4921 22.6958L11.6864 22.098L11.1777 21.7285H11.8063L12.0006 21.1306Z" fill="#FFDA44"/>
<path d="M9.09047 21.1305L9.28477 21.7283H9.91336L9.40481 22.0979L9.59911 22.6957L9.09047 22.3262L8.58197 22.6957L8.77622 22.0979L8.26758 21.7283H8.89617L9.09047 21.1305Z" fill="#FFDA44"/>
<path d="M14.9098 21.1306L15.1041 21.7285H15.7327L15.2241 22.098L15.4184 22.6958L14.9098 22.3263L14.4013 22.6958L14.5956 22.098L14.0869 21.7285H14.7155L14.9098 21.1306Z" fill="#FFDA44"/>
<path d="M3.65663 11.8019C3.96484 12.2889 3.81999 12.9335 3.33301 13.2417C2.84607 13.55 2.20145 13.4051 1.8932 12.9182C1.33515 12.0365 1.65873 10.5967 1.65873 10.5967C1.65873 10.5967 3.09854 10.9203 3.65663 11.8019Z" fill="#FFDA44"/>
<path d="M3.0537 13.3226C3.34184 13.3226 3.57542 13.089 3.57542 12.8009C3.57542 12.5128 3.34184 12.2792 3.0537 12.2792C2.76556 12.2792 2.53198 12.5128 2.53198 12.8009C2.53198 13.089 2.76556 13.3226 3.0537 13.3226Z" fill="#A2001D"/>
</g>
</svg>
