<svg viewBox="0 0 24 24" fill="none" xmlns="http://www.w3.org/2000/svg">
<g clip-path="url(#clip0_37_6213)">
<path d="M5.23657 21.913C7.16238 23.2295 9.49114 24 12 24C14.5089 24 16.8376 23.2295 18.7635 21.913L12 20.8695L5.23657 21.913Z" fill="#D80027"/>
<path d="M18.7635 2.08697C16.8376 0.770484 14.5089 0 12 0C9.49114 0 7.16238 0.770484 5.23657 2.08697L12 3.13045L18.7635 2.08697Z" fill="#D80027"/>
<path d="M24 11.9999C24 8.02916 21.6227 4.04151 18.7635 2.08691H5.23655C2.07516 4.24804 0 7.88151 0 11.9999C0 16.1185 2.07516 19.7519 5.23655 21.913H18.7635C21.9249 19.7519 24 16.1185 24 11.9999Z" fill="#0052B4"/>
<path d="M11.3213 19.5748C11.1573 19.4342 7.30469 16.0851 7.30469 12C7.30469 7.91486 11.1572 4.56569 11.3213 4.42511L12.0003 3.84302L12.6794 4.42506C12.8434 4.56569 16.696 7.91481 16.696 12C16.696 16.0851 12.8434 19.4343 12.6794 19.5748L12.0003 20.1569L11.3213 19.5748Z" fill="#D80027"/>
<path d="M15.6522 12C15.6522 8.34786 12.0001 5.21741 12.0001 5.21741C12.0001 5.21741 8.3479 8.34795 8.3479 12C8.3479 13.1173 8.68995 14.1855 9.16442 15.1305H14.8357C15.3102 14.1855 15.6522 13.1173 15.6522 12Z" fill="#338AF3"/>
<path d="M15.6522 12C15.6522 13.1173 15.3102 14.1855 14.8357 15.1305L12.0001 15.6522L9.16442 15.1305C8.68995 14.1855 8.3479 13.1173 8.3479 12H15.6522Z" fill="#0052B4"/>
<path d="M11.9997 18.7825C11.9997 18.7825 13.7588 17.2742 14.8354 15.1304H9.16406C10.2406 17.2742 11.9997 18.7825 11.9997 18.7825Z" fill="#FFDA44"/>
<path d="M9.6521 9.91309H14.3478L11.9999 12.2609L9.6521 9.91309Z" fill="#6DA544"/>
<path d="M11.2178 11.4783H12.783V16.1739H11.2178V11.4783Z" fill="#A2001D"/>
</g>
</svg>
