<svg viewBox="0 0 24 24" fill="none" xmlns="http://www.w3.org/2000/svg">
<g clip-path="url(#clip0_37_6280)">
<path d="M12 24C18.6274 24 24 18.6274 24 12C24 5.37258 18.6274 0 12 0C5.37258 0 0 5.37258 0 12C0 18.6274 5.37258 24 12 24Z" fill="#D80027"/>
<path d="M13.239 9.07813C12.9663 10.2125 12.4817 9.99613 12.2439 10.9854C10.8431 10.6486 9.98046 9.23999 10.3173 7.83913C10.6539 6.43836 12.0626 5.57567 13.4635 5.91247C12.9878 7.89092 13.483 8.06361 13.239 9.07813Z" fill="#F0F0F0"/>
<path d="M9.6042 9.91871C10.5987 10.5286 10.2432 10.9226 11.1105 11.4545C10.3573 12.6827 8.75117 13.0678 7.52295 12.3146C6.29478 11.5615 5.9096 9.95522 6.66279 8.72705C8.39745 9.79074 8.71456 9.37322 9.6042 9.91871Z" fill="#F0F0F0"/>
<path d="M9.28068 13.6355C10.1681 12.8781 10.4329 13.338 11.2067 12.6775C12.1421 13.7733 12.012 15.4199 10.9162 16.3553C9.8204 17.2907 8.17378 17.1604 7.23853 16.0647C8.78606 14.7436 8.48695 14.3129 9.28068 13.6355Z" fill="#F0F0F0"/>
<path d="M12.7148 15.0919C12.2685 14.0139 12.7877 13.9041 12.3987 12.9641C13.7299 12.4132 15.2558 13.0457 15.8067 14.3769C16.3577 15.7081 15.725 17.2339 14.3938 17.7849C13.6158 15.9048 13.1139 16.0561 12.7148 15.0919Z" fill="#F0F0F0"/>
<path d="M15.1618 12.2754C13.9987 12.3667 14.0545 11.8389 13.0403 11.9184C12.9277 10.4822 14.0009 9.22642 15.4372 9.11368C16.8734 9.00123 18.1292 10.0743 18.2418 11.5106C16.2132 11.6697 16.202 12.1939 15.1618 12.2754Z" fill="#F0F0F0"/>
</g>
</svg>
