<svg viewBox="0 0 24 24" fill="none" xmlns="http://www.w3.org/2000/svg">
<g clip-path="url(#clip0_37_5919)">
<path d="M24 12.001C24 10.5331 23.736 9.127 23.2536 7.82706L12 7.3053L0.746391 7.82702C0.264047 9.127 0 10.5331 0 12.001C0 13.4688 0.264047 14.8749 0.746391 16.1748L12 16.6966L23.2536 16.1749C23.736 14.8749 24 13.4688 24 12.001Z" fill="#F0F0F0"/>
<path d="M11.9997 24.0009C17.1593 24.0009 21.5578 20.7444 23.2533 16.1748H0.746094C2.44161 20.7444 6.84012 24.0009 11.9997 24.0009Z" fill="#0052B4"/>
<path d="M0.746094 7.82709H23.2534C21.5578 3.25748 17.1593 0.000976562 11.9997 0.000976562C6.84013 0.000976562 2.44161 3.25748 0.746094 7.82709Z" fill="#D80027"/>
<path d="M15.1309 8.34887H13.0439L13.3918 5.74014L14.7831 4.69666L16.1744 5.74014V7.82711L15.1309 8.34887Z" fill="#338AF3"/>
<path d="M8.86961 8.34887H10.9566L10.6087 5.74014L9.21742 4.69666L7.82617 5.74014V7.82711L8.86961 8.34887Z" fill="#338AF3"/>
<path d="M13.3911 8.34875H10.6084V5.74002L11.9997 4.69653L13.3911 5.74002V8.34875Z" fill="#0052B4"/>
<path d="M7.82617 7.82715V13.5662C7.82617 14.9328 8.48627 16.1481 9.50439 16.9099L10.2348 16.7272L11.1566 17.6544C11.4292 17.7106 11.7112 17.7402 12.0001 17.7402C12.2875 17.7402 12.5681 17.711 12.8392 17.6554L13.8914 16.7793L14.4957 16.9082C15.5134 16.1464 16.174 14.9324 16.174 13.5662V7.82715H7.82617Z" fill="#F0F0F0"/>
<path d="M7.82617 7.82703H9.49572V9.49657H7.82617V7.82703Z" fill="#D80027"/>
<path d="M11.1653 7.82703H12.8348V9.49657H11.1653V7.82703Z" fill="#D80027"/>
<path d="M14.5049 7.82703H16.1744V9.49657H14.5049V7.82703Z" fill="#D80027"/>
<path d="M9.49609 9.49646H11.1656V11.166H9.49609V9.49646Z" fill="#D80027"/>
<path d="M12.835 9.49658H14.5045V11.1661H12.835V9.49658Z" fill="#D80027"/>
<path d="M7.82617 11.1656H9.49572V12.8352H7.82617V11.1656Z" fill="#D80027"/>
<path d="M9.49609 12.8351H11.1656V14.5046H9.49609V12.8351Z" fill="#D80027"/>
<path d="M11.1653 11.1656H12.8348V12.8352H11.1653V11.1656Z" fill="#D80027"/>
<path d="M14.5049 11.1656H16.1744V12.8352H14.5049V11.1656Z" fill="#D80027"/>
<path d="M12.835 12.8352H14.5045V14.5048H12.835V12.8352Z" fill="#D80027"/>
<path d="M11.1653 14.5048H12.8348V16.1743H11.1653V14.5048Z" fill="#D80027"/>
<path d="M9.49542 14.505H7.93359C8.07684 15.1256 8.35847 15.6935 8.74463 16.1746H9.49542V14.505Z" fill="#D80027"/>
<path d="M14.5049 16.1746H15.2556C15.6419 15.6935 15.9234 15.1256 16.0667 14.505H14.5049V16.1746Z" fill="#D80027"/>
<path d="M9.49609 16.1744V16.9029C9.98167 17.2683 10.5491 17.5303 11.1656 17.656V16.1744H9.49609Z" fill="#D80027"/>
<path d="M12.835 16.1744V17.656C13.4515 17.5304 14.0189 17.2683 14.5045 16.9029V16.1744H12.835Z" fill="#D80027"/>
</g>
</svg>
