<svg viewBox="0 0 24 24" fill="none" xmlns="http://www.w3.org/2000/svg">
<g clip-path="url(#clip0_37_6300)">
<path d="M12 24.9893C18.6274 24.9893 24 19.6167 24 12.9893C24 6.36184 18.6274 0.989258 12 0.989258C5.37258 0.989258 0 6.36184 0 12.9893C0 19.6167 5.37258 24.9893 12 24.9893Z" fill="#F0F0F0"/>
<path d="M11.9997 0.989258C7.24218 0.989258 3.13143 3.75793 1.19043 7.77188H22.8089C20.868 3.75793 16.7572 0.989258 11.9997 0.989258Z" fill="#FF9811"/>
<path d="M11.9997 24.9892C16.7572 24.9892 20.868 22.2205 22.809 18.2065H1.19043C3.13143 22.2205 7.24218 24.9892 11.9997 24.9892Z" fill="#6DA544"/>
<path d="M12.0001 17.1631C14.3052 17.1631 16.174 15.2944 16.174 12.9892C16.174 10.684 14.3052 8.81531 12.0001 8.81531C9.69489 8.81531 7.82617 10.684 7.82617 12.9892C7.82617 15.2944 9.69489 17.1631 12.0001 17.1631Z" fill="#0052B4"/>
<path d="M12.0003 15.598C13.441 15.598 14.609 14.43 14.609 12.9893C14.609 11.5486 13.441 10.3806 12.0003 10.3806C10.5596 10.3806 9.3916 11.5486 9.3916 12.9893C9.3916 14.43 10.5596 15.598 12.0003 15.598Z" fill="#F0F0F0"/>
<path d="M11.9997 9.77026L12.8045 11.5955L14.7875 11.3798L13.6093 12.9894L14.7875 14.5989L12.8045 14.3832L11.9997 16.2085L11.1949 14.3832L9.21191 14.5989L10.3902 12.9894L9.21191 11.3798L11.1949 11.5955L11.9997 9.77026Z" fill="#0052B4"/>
</g>
</svg>
