<svg xmlns="http://www.w3.org/2000/svg" fill="none" viewBox="0 0 24 24">
  <g clip-path="url(#a)">
    <g clip-path="url(#b)">
      <path fill="#fff" d="M0 0h36.023v24H0V0Z"/>
      <path fill="#012169" d="M36.023 20.87c-.404.324-.75 1.08-1.823 1.08-2.144 0-2.68-1.592-4.289-1.592-1.072 0-1.608 1.592-2.68 1.592-2.144 0-2.68-1.592-4.288-1.592-1.072 0-1.608 1.592-2.68 1.592-2.145 0-2.68-1.592-4.289-1.592-1.072 0-1.608 1.592-2.68 1.592-2.144 0-2.68-1.592-4.288-1.592-1.073 0-1.609 1.592-2.68 1.592-2.145 0-2.68-1.592-4.289-1.592-1.072 0-1.394 1.135-2.037 1.135v2.05c.643 0 .965-1.135 2.037-1.135C3.645 22.408 4.181 24 6.325 24c1.072 0 1.608-1.592 2.68-1.592 1.609 0 2.145 1.592 4.289 1.592 1.072 0 1.608-1.592 2.68-1.592 1.608 0 2.145 1.592 4.289 1.592 1.072 0 1.608-1.592 2.68-1.592 1.608 0 2.144 1.592 4.288 1.592 1.072 0 1.608-1.592 2.68-1.592C31.52 22.408 32.056 24 34.2 24c1.072 0 1.419-.451 1.822-.775V20.87Zm0-3.98c-.404.324-.75 1.08-1.823 1.08-2.144 0-2.68-1.592-4.289-1.592-1.072 0-1.608 1.592-2.68 1.592-2.144 0-2.68-1.592-4.288-1.592-1.072 0-1.608 1.592-2.68 1.592-2.145 0-2.68-1.592-4.289-1.592-1.072 0-1.608 1.592-2.68 1.592-2.144 0-2.68-1.592-4.288-1.592-1.073 0-1.609 1.592-2.68 1.592-2.145 0-2.68-1.592-4.289-1.592-1.072 0-1.394 1.134-2.037 1.134v2.05c.643 0 .965-1.134 2.037-1.134 1.608 0 2.144 1.592 4.288 1.592 1.072 0 1.608-1.592 2.68-1.592 1.609 0 2.145 1.592 4.289 1.592 1.072 0 1.608-1.592 2.68-1.592 1.608 0 2.145 1.592 4.289 1.592 1.072 0 1.608-1.592 2.68-1.592 1.608 0 2.144 1.592 4.288 1.592 1.072 0 1.608-1.592 2.68-1.592 1.609 0 2.145 1.592 4.289 1.592 1.072 0 1.419-.451 1.822-.775V16.89Zm0-3.98c-.404.323-.75 1.08-1.823 1.08-2.144 0-2.68-1.592-4.289-1.592-1.072 0-1.608 1.592-2.68 1.592-2.144 0-2.68-1.592-4.288-1.592-1.072 0-1.608 1.592-2.68 1.592-2.145 0-2.68-1.592-4.289-1.592-1.072 0-1.608 1.592-2.68 1.592-2.144 0-2.68-1.592-4.288-1.592-1.073 0-1.609 1.592-2.68 1.592-2.145 0-2.68-1.592-4.289-1.592-1.072 0-1.394 1.134-2.037 1.134v2.05c.643 0 .965-1.135 2.037-1.135 1.608 0 2.144 1.592 4.288 1.592 1.072 0 1.608-1.592 2.68-1.592 1.609 0 2.145 1.592 4.289 1.592 1.072 0 1.608-1.592 2.68-1.592 1.608 0 2.145 1.592 4.289 1.592 1.072 0 1.608-1.592 2.68-1.592 1.608 0 2.144 1.592 4.288 1.592 1.072 0 1.608-1.592 2.68-1.592 1.609 0 2.145 1.592 4.289 1.592 1.072 0 1.419-.45 1.822-.774V12.91Zm0-3.98c-.404.323-.75 1.08-1.823 1.08-2.144 0-2.68-1.593-4.289-1.593-1.072 0-1.608 1.592-2.68 1.592-2.144 0-2.68-1.592-4.288-1.592-1.072 0-1.608 1.592-2.68 1.592-2.145 0-2.68-1.592-4.289-1.592-1.072 0-1.608 1.592-2.68 1.592-2.144 0-2.68-1.592-4.288-1.592-1.073 0-1.609 1.592-2.68 1.592-2.145 0-2.68-1.592-4.289-1.592C.965 8.417.643 9.552 0 9.552v2.05c.643 0 .965-1.135 2.037-1.135 1.608 0 2.144 1.592 4.288 1.592 1.072 0 1.608-1.592 2.68-1.592 1.609 0 2.145 1.592 4.289 1.592 1.072 0 1.608-1.592 2.68-1.592 1.608 0 2.145 1.592 4.289 1.592 1.072 0 1.608-1.592 2.68-1.592 1.608 0 2.144 1.592 4.288 1.592 1.072 0 1.608-1.592 2.68-1.592 1.609 0 2.145 1.592 4.289 1.592 1.072 0 1.419-.451 1.822-.774V8.93Zm0-3.98c-.404.323-.75 1.08-1.823 1.08-2.144 0-2.68-1.593-4.289-1.593-1.072 0-1.608 1.592-2.68 1.592-2.144 0-2.68-1.592-4.288-1.592-1.072 0-1.608 1.592-2.68 1.592-2.145 0-2.68-1.592-4.289-1.592-1.072 0-1.608 1.592-2.68 1.592-2.144 0-2.68-1.592-4.288-1.592-1.073 0-1.609 1.592-2.68 1.592-2.145 0-2.68-1.592-4.289-1.592C.965 4.437.643 5.572 0 5.572v2.05c.643 0 .965-1.135 2.037-1.135 1.608 0 2.144 1.592 4.288 1.592 1.072 0 1.608-1.592 2.68-1.592 1.609 0 2.145 1.592 4.289 1.592 1.072 0 1.608-1.592 2.68-1.592 1.608 0 2.145 1.592 4.289 1.592 1.072 0 1.608-1.592 2.68-1.592 1.608 0 2.144 1.592 4.288 1.592 1.072 0 1.608-1.592 2.68-1.592 1.609 0 2.145 1.592 4.289 1.592 1.072 0 1.419-.451 1.822-.775V4.95Zm0-3.981c-.404.324-.75 1.08-1.823 1.08-2.144 0-2.68-1.592-4.289-1.592-1.072 0-1.608 1.592-2.68 1.592-2.144 0-2.68-1.592-4.288-1.592-1.072 0-1.608 1.592-2.68 1.592-2.145 0-2.68-1.592-4.289-1.592-1.072 0-1.608 1.592-2.68 1.592-2.144 0-2.68-1.592-4.288-1.592-1.073 0-1.609 1.592-2.68 1.592-2.145 0-2.68-1.592-4.289-1.592C.965.457.643 1.59 0 1.59v2.05c.643 0 .965-1.135 2.037-1.135 1.608 0 2.144 1.593 4.288 1.593 1.072 0 1.608-1.593 2.68-1.593 1.609 0 2.145 1.593 4.289 1.593 1.072 0 1.608-1.593 2.68-1.593 1.608 0 2.145 1.593 4.289 1.593 1.072 0 1.608-1.593 2.68-1.593 1.608 0 2.144 1.593 4.288 1.593 1.072 0 1.608-1.593 2.68-1.593 1.609 0 2.145 1.593 4.289 1.593 1.072 0 1.419-.452 1.822-.775V.969Z"/>
      <path fill="#fff" d="M0 0h17.41v12.16H0V0Z"/>
      <mask id="c" width="19" height="12" x="0" y="0" maskUnits="userSpaceOnUse" style="mask-type:luminance">
        <path fill="#fff" d="M0 0h18.011v12H0V0Z"/>
      </mask>
      <g mask="url(#c)">
        <path fill="#012169" d="M0 0h18.011v12H0V0Z"/>
        <path fill="#000" d="m0 0 18.011 12L0 0Zm18.011 0L0 12 18.011 0Z"/>
        <path stroke="#fff" stroke-width="2.079" d="m0 0 18.011 12m0-12L0 12"/>
        <mask id="d" width="22" height="16" x="0" y="0" maskUnits="userSpaceOnUse" style="mask-type:luminance">
          <path fill="#fff" d="M0 0v6h21.013v6h-3.002L0 0Zm18.011 0H9.006v16H0v-4L18.011 0Z"/>
        </mask>
        <g mask="url(#d)">
          <path fill="#000" d="m0 0 18.011 12L0 0Zm18.011 0L0 12 18.011 0Z"/>
          <path stroke="#C8102E" stroke-width="1.386" d="m0 0 18.011 12m0-12L0 12"/>
        </g>
        <path fill="#000" d="M9.006 0v16V0ZM0 6h21.013H0Z"/>
        <path stroke="#fff" stroke-width="3.465" d="M9.006 0v16M0 6h21.013"/>
        <path fill="#000" d="M9.006 0v16V0ZM0 6h21.013H0Z"/>
        <path stroke="#C8102E" stroke-width="2.079" d="M9.006 0v16M0 6h21.013"/>
      </g>
      <path fill="#006D00" stroke="#000" stroke-width=".056" d="m22.54 3.696.908.346-.265-.687.794.783-.075-.562.643.938-.075-.562.642.938-.075-.561.831 1.062-.075-.56.832 1.062-.075-.561.831 1.062.416.532.037.28-.34.03-.72-.22-1.437-.442.681-.06-1.438-.442.682-.06-1.438-.441.681-.06-1.248-.317.681-.06-1.249-.316.682-.06-1.097-.471.87.066-.605-.657Z"/>
      <path stroke="#000" stroke-width=".013" d="m22.54 3.696 5.294 3.51m-2.497-.632 1.74.131-.527-1.373m-2.726.238 1.741.132-.528-1.373"/>
      <path stroke="#000" stroke-width=".013" d="m23.257 5.194 1.552.006-.34-1.248"/>
      <path stroke="#000" stroke-width=".013" d="m22.69 4.818 1.551.006-.339-1.248"/>
      <path stroke="#000" stroke-width=".013" d="m22.274 4.287 1.59.286-.68-1.218"/>
      <path fill="#006D00" stroke="#000" stroke-width=".05" d="m23.163 10.784.473-.66-.721.103.89-.505-.569-.026 1.023-.363-.569-.026 1.024-.363-.57-.025 1.176-.493-.57-.025 1.175-.493-.569-.025 1.175-.493.587-.246.285.013-.018.271-.322.531-.642 1.062.037-.543-.642 1.061.036-.543-.642 1.061.037-.543-.491.932.036-.544-.49.933.036-.544-.624.79.188-.673-.739.376Z"/>
      <path stroke="#000" stroke-width=".011" d="m23.163 10.784 4.24-3.627M26.42 9.02l.376-1.346-1.441.208m-.599 2.564.224-1.217-1.29.079"/>
      <path stroke="#000" stroke-width=".011" d="m24.302 10.835.224-1.217-1.29.078"/>
      <path stroke="#000" stroke-width=".011" d="m23.714 11.081.51-1.204-1.309.35"/>
      <path fill="#006D00" stroke="#000" stroke-width=".041" d="m21.306 7.785 1.193-.827-.597-.308 1.045.179-.36-.473 1.016.379-.359-.473 1.016.38-.359-.474 1.225.415-.36-.473 1.196.616-.36-.473 1.225.415.598.308.18.236-.24.166-.656.093-1.06.437.194-.378-1.313.187.477-.33-1.342.388.477-.33-1.134.424.507-.531-1.164.625.507-.531-.954.66.536-.732-1.134.425Z"/>
      <path stroke="#000" stroke-width=".012" d="m21.684 7.563 1.233-.533.657-.094.548-.01.945.059.851.037 1.687.19"/>
      <path stroke="#000" stroke-width=".012" d="m24.002 7.627 1.065-.642-.969-.7M22.59 7.798l.984-.862-.793-.436"/>
      <path stroke="#000" stroke-width=".012" d="m22.153 7.856.764-.826-.61-.227m.94.9.971-.776-.78-.528"/>
    </g>
  </g>
  <defs>
    <clipPath id="a">
      <rect fill="#fff" rx="12"/>
    </clipPath>
    <clipPath id="b">
      <path fill="#fff" d="M0 0h36.023v24H0z"/>
    </clipPath>
  </defs>
</svg>
