<svg viewBox="0 0 24 24" fill="none" xmlns="http://www.w3.org/2000/svg">
<g clip-path="url(#clip0_37_6310)">
<path d="M12 24.001C18.6274 24.001 24 18.6284 24 12.001C24 5.37356 18.6274 0.000976562 12 0.000976562C5.37258 0.000976562 0 5.37356 0 12.001C0 18.6284 5.37258 24.001 12 24.001Z" fill="#F0F0F0"/>
<path d="M15.8976 8.87053H14.3275C14.3405 9.04308 14.3479 9.21717 14.3479 9.39225C14.3479 10.5531 14.0577 11.6782 13.5519 12.4791C13.3958 12.7261 13.1336 13.075 12.7826 13.3103V8.87048H11.2174V13.3103C10.8665 13.075 10.6042 12.7262 10.4481 12.4791C9.94227 11.6782 9.65216 10.5531 9.65216 9.39225C9.65216 9.21717 9.65957 9.04303 9.67251 8.87053H8.10248C8.0924 9.04223 8.08691 9.21614 8.08691 9.39225C8.08691 12.6105 9.80573 15.1314 11.9999 15.1314C14.1942 15.1314 15.913 12.6105 15.913 9.39225C15.9131 9.21614 15.9076 9.04223 15.8976 8.87053Z" fill="#D80027"/>
<path d="M4.95623 5.74012H6.52143V6.7836H8.08663V5.74012H9.65184V6.7836H11.217V5.74012H12.7822V6.7836H14.3474V5.74012H15.9126V6.7836H17.4779V5.74012H19.0431V6.7836H22.8089C20.868 2.76965 16.7572 0.000976562 11.9997 0.000976562C7.24223 0.000976562 3.13143 2.76965 1.19043 6.7836H4.95623V5.74012Z" fill="#6DA544"/>
<path d="M19.0432 17.2183V18.2617H17.478V17.2183H15.9128V18.2617H14.3476V17.2183H12.7824V18.2617H11.2172V17.2183H9.65198V18.2617H8.08677V17.2183H6.52143V18.2617H4.95623V17.2183H1.19043C3.13143 21.2322 7.24218 24.0009 11.9997 24.0009C16.7572 24.0009 20.868 21.2322 22.809 17.2183H19.0432Z" fill="#D80027"/>
</g>
</svg>
