<svg viewBox="0 0 24 24" fill="none" xmlns="http://www.w3.org/2000/svg">
<g clip-path="url(#clip0_37_6358)">
<path d="M12 24.001C18.6274 24.001 24 18.6284 24 12.001C24 5.37356 18.6274 0.000976562 12 0.000976562C5.37258 0.000976562 0 5.37356 0 12.001C0 18.6284 5.37258 24.001 12 24.001Z" fill="#F0F0F0"/>
<path d="M7.30388 7.82709H23.2531C21.5576 3.25748 17.1591 0.000976562 11.9995 0.000976562C8.68576 0.000976562 5.68609 1.34437 3.51465 3.51609L7.30388 7.82709Z" fill="black"/>
<path d="M7.30388 16.1748H23.2531C21.5576 20.7444 17.1591 24.0009 11.9995 24.0009C8.68576 24.0009 5.68609 22.6575 3.51465 20.4858L7.30388 16.1748Z" fill="#6DA544"/>
<path d="M3.51471 3.51562C-1.17157 8.20191 -1.17157 15.7999 3.51471 20.4862C5.45126 18.5497 7.31374 16.6872 12 12.0009L3.51471 3.51562Z" fill="#D80027"/>
<path d="M4.76268 9.39233L5.42123 10.7695L6.90852 10.4257L6.24243 11.7992L7.43845 12.7477L5.94937 13.0833L5.95349 14.6097L4.76268 13.6547L3.57182 14.6097L3.57599 13.0833L2.08691 12.7477L3.28288 11.7992L2.61688 10.4257L4.10409 10.7695L4.76268 9.39233Z" fill="#F0F0F0"/>
</g>
</svg>
