<svg viewBox="0 0 24 24" fill="none" xmlns="http://www.w3.org/2000/svg">
<g clip-path="url(#clip0_37_6408)">
<path d="M12 24C18.6274 24 24 18.6274 24 12C24 5.37258 18.6274 0 12 0C5.37258 0 0 5.37258 0 12C0 18.6274 5.37258 24 12 24Z" fill="#D80027"/>
<path d="M17.8691 12.0001L15.4712 13.128L16.7481 15.4505L14.144 14.9523L13.8142 17.5827L12.0004 15.6482L10.1867 17.5827L9.85676 14.9523L7.25295 15.4504L8.52982 13.1279L6.13184 12.0001L8.52982 10.8722L7.25295 8.54968L9.85666 9.04796L10.1868 6.41748L12.0004 8.35206L13.8143 6.41748L14.144 9.04796L16.7482 8.54968L15.4712 10.8724L17.8691 12.0001Z" fill="#FFDA44"/>
<path d="M12.0001 15.6521C14.0171 15.6521 15.6522 14.017 15.6522 11.9999C15.6522 9.98291 14.0171 8.34778 12.0001 8.34778C9.98303 8.34778 8.3479 9.98291 8.3479 11.9999C8.3479 14.017 9.98303 15.6521 12.0001 15.6521Z" fill="#D80027"/>
<path d="M10.1739 12C10.0859 12 9.99906 12.0045 9.91333 12.013C9.91647 12.5189 10.0995 12.9818 10.4017 13.3415C10.563 12.9076 10.8037 12.5119 11.1073 12.1733C10.8174 12.0618 10.5028 12 10.1739 12Z" fill="#FFDA44"/>
<path d="M11.2981 13.9657C11.5175 14.0441 11.7537 14.0871 12 14.0871C12.2464 14.0871 12.4826 14.0441 12.702 13.9657C12.5824 13.4964 12.3355 13.0774 12 12.7482C11.6646 13.0774 11.4177 13.4964 11.2981 13.9657Z" fill="#FFDA44"/>
<path d="M13.8074 10.9569C13.4466 10.3332 12.7726 9.91309 12.0001 9.91309C11.2276 9.91309 10.5537 10.3331 10.1929 10.9569C10.8507 10.9602 11.4676 11.1391 12.0001 11.448C12.5327 11.1391 13.1495 10.9602 13.8074 10.9569Z" fill="#FFDA44"/>
<path d="M12.8926 12.1734C13.1962 12.512 13.4369 12.9077 13.5982 13.3416C13.9004 12.982 14.0834 12.519 14.0866 12.0132C14.0008 12.0046 13.9139 12.0001 13.826 12.0001C13.4972 12.0001 13.1826 12.0619 12.8926 12.1734Z" fill="#FFDA44"/>
</g>
</svg>
