<svg viewBox="0 0 24 24" fill="none" xmlns="http://www.w3.org/2000/svg">
<g clip-path="url(#clip0_37_6382)">
<path d="M0 12C0 5.37262 5.37262 0 12 0C18.6274 0 24 5.37262 24 12" fill="#D80027"/>
<path d="M16.174 11.1599L14.4684 11.962L15.3767 13.6139L13.5247 13.2596L13.29 15.1304L12.0001 13.7544L10.7101 15.1304L10.4755 13.2596L8.62347 13.6138L9.53167 11.962L7.82617 11.1599L9.53167 10.3576L8.62347 8.70592L10.4754 9.06011L10.7101 7.18933L12.0001 8.56525L13.2901 7.18933L13.5247 9.06011L15.3767 8.70592L14.4685 10.3577L16.174 11.1599Z" fill="#FFDA44"/>
<path d="M15.13 3.913H12.7822C12.7822 3.48086 12.4318 3.13037 11.9996 3.13037C11.5674 3.13037 11.217 3.48081 11.217 3.913H8.86914C8.86914 4.34518 9.24564 4.69562 9.67783 4.69562H9.65172C9.65172 5.12781 10.0021 5.47825 10.4343 5.47825C10.4343 5.91043 10.7847 6.26087 11.217 6.26087H12.7822C13.2143 6.26087 13.5648 5.91048 13.5648 5.47825C13.9969 5.47825 14.3474 5.12786 14.3474 4.69562H14.3213C14.7535 4.69562 15.13 4.34523 15.13 3.913Z" fill="#FFDA44"/>
<path d="M24 12C24 18.6274 18.6274 24 12 24C5.37262 24 0 18.6274 0 12H24Z" fill="#F0F0F0"/>
<path d="M12.0004 23.9998C15.7515 23.9998 19.0999 22.2784 21.3005 19.5829C20.9047 19.313 20.691 18.8768 20.0003 18.8768C19.0003 18.8768 19.0003 19.7912 18.0003 19.7912C17.0004 19.7912 17.0004 18.8768 16.0004 18.8768C15.0004 18.8768 15.0004 19.7912 14.0004 19.7912C13.0004 19.7912 13.0003 18.8768 12.0002 18.8768C11.0003 18.8768 11.0003 19.7912 10.0003 19.7912C9.00048 19.7912 9.00048 18.8768 8.00049 18.8768C7.00041 18.8768 7.00041 19.7912 6.00034 19.7912C5.00026 19.7912 5.00026 18.8768 4.00018 18.8768C3.30952 18.8768 3.09582 19.313 2.7002 19.5828C4.9007 22.2784 8.24935 23.9998 12.0004 23.9998Z" fill="#0052B4"/>
<path d="M21.9999 13.5304C20.9999 13.5304 20.9999 12.6161 19.9998 12.6161C18.9999 12.6161 18.9999 13.5304 17.9999 13.5304C17 13.5304 16.9999 12.6161 16 12.6161C15 12.6161 15 13.5304 14 13.5304C13 13.5304 12.9999 12.6161 11.9998 12.6161C10.9998 12.6161 10.9998 13.5304 9.99991 13.5304C9.00006 13.5304 9.00006 12.6161 8.00008 12.6161C7 12.6161 7 13.5304 5.99992 13.5304C4.99984 13.5304 4.99984 12.6161 3.99977 12.6161C2.99992 12.6161 2.99992 13.5304 1.99994 13.5304C1.00534 13.5304 0.999578 12.6262 0.015625 12.6165C0.0433281 13.1654 0.108859 13.7043 0.207953 14.2313C1.00502 14.3484 1.07481 15.1304 1.99998 15.1304C2.99997 15.1304 2.99997 14.2162 3.99981 14.2162C4.99989 14.2162 4.99989 15.1304 5.99997 15.1304C7.00005 15.1304 7.00005 14.2162 8.00013 14.2162C9.00011 14.2162 9.00011 15.1304 9.99995 15.1304C10.9999 15.1304 10.9999 14.2162 11.9999 14.2162C13 14.2162 13 15.1304 14 15.1304C15.0001 15.1304 15.0001 14.2162 16 14.2162C17 14.2162 17 15.1304 18 15.1304C18.9999 15.1304 19 14.2162 19.9999 14.2162C21 14.2162 21 15.1304 21.9999 15.1304C22.9252 15.1304 22.995 14.3484 23.7921 14.2313C23.8912 13.7043 23.9567 13.1655 23.9845 12.6166C23.0004 12.6263 22.9945 13.5304 21.9999 13.5304Z" fill="#0052B4"/>
<path d="M19.9998 15.7466C18.9998 15.7466 18.9998 16.6609 17.9998 16.6609C16.9999 16.6609 16.9999 15.7466 15.9999 15.7466C14.9999 15.7466 14.9999 16.6609 13.9999 16.6609C12.9998 16.6609 12.9998 15.7466 11.9998 15.7466C10.9998 15.7466 10.9998 16.6609 9.99983 16.6609C8.99998 16.6609 8.99998 15.7466 8 15.7466C6.99992 15.7466 6.99992 16.6609 5.99984 16.6609C4.99977 16.6609 4.99977 15.7466 3.99969 15.7466C2.99984 15.7466 2.99984 16.6609 1.99986 16.6609C1.28534 16.6609 1.08125 16.1942 0.658203 15.9276C0.939828 16.7413 1.3062 17.5154 1.74744 18.2389C1.82417 18.2531 1.9077 18.2609 1.99986 18.2609C2.99984 18.2609 2.99984 17.3467 3.99969 17.3467C4.99977 17.3467 4.99977 18.2609 5.99984 18.2609C6.99992 18.2609 6.99992 17.3467 8 17.3467C8.99998 17.3467 8.99998 18.2609 9.99983 18.2609C10.9998 18.2609 10.9998 17.3467 11.9998 17.3467C12.9998 17.3467 12.9998 18.2609 13.9999 18.2609C15 18.2609 15 17.3467 15.9999 17.3467C16.9999 17.3467 16.9999 18.2609 17.9998 18.2609C18.9998 18.2609 18.9998 17.3467 19.9998 17.3467C20.9998 17.3467 20.9998 18.2609 21.9998 18.2609C22.092 18.2609 22.1756 18.2531 22.2523 18.2389C22.6935 17.5154 23.0599 16.7413 23.3416 15.9277C22.9185 16.1941 22.7144 16.6609 21.9998 16.6609C20.9998 16.6609 20.9998 15.7466 19.9998 15.7466Z" fill="#0052B4"/>
<path d="M23.9628 11.0519C23.0004 11.0747 22.9872 11.9652 21.9998 11.9652C20.9999 11.9652 20.9999 11.0509 19.9998 11.0509C18.9998 11.0509 18.9998 11.9652 17.9999 11.9652C17 11.9652 16.9999 11.0509 16 11.0509C15 11.0509 15 11.9652 14 11.9652C12.9999 11.9652 12.9999 11.0509 11.9998 11.0509C10.9998 11.0509 10.9998 11.9652 9.99989 11.9652C9.00005 11.9652 9.00005 11.0509 8.00006 11.0509C6.99998 11.0509 6.99998 11.9652 5.99991 11.9652C4.99983 11.9652 4.99983 11.0509 3.99975 11.0509C2.99991 11.0509 2.99991 11.9652 1.99992 11.9652C1.01278 11.9652 0.999422 11.0748 0.0371719 11.0519C0.01275 11.3648 0 11.6809 0 12C0 12.2186 0.0061875 12.4357 0.0178594 12.6514C0.999563 12.6624 1.00608 13.5652 1.99997 13.5652C2.99995 13.5652 2.99995 12.6509 3.9998 12.6509C4.99988 12.6509 4.99988 13.5652 5.99995 13.5652C7.00003 13.5652 7.00003 12.6509 8.00011 12.6509C9.00009 12.6509 9.00009 13.5652 9.99994 13.5652C10.9999 13.5652 10.9999 12.6509 11.9999 12.6509C12.9999 12.6509 12.9999 13.5652 14 13.5652C15.0001 13.5652 15.0001 12.6509 16 12.6509C17 12.6509 17 13.5652 18 13.5652C18.9999 13.5652 18.9999 12.6509 19.9999 12.6509C21 12.6509 21 13.5652 21.9999 13.5652C22.9939 13.5652 23.0004 12.6624 23.9823 12.6514C23.9938 12.4357 24 12.2186 24 12C24 11.6809 23.9872 11.3648 23.9628 11.0519Z" fill="#F0F0F0"/>
</g>
</svg>
