<svg viewBox="0 0 24 24" fill="none" xmlns="http://www.w3.org/2000/svg">
<g clip-path="url(#clip0_37_7087)">
<path d="M12 23.999C18.6274 23.999 24 18.6264 24 11.999C24 5.37161 18.6274 -0.000976562 12 -0.000976562C5.37258 -0.000976562 0 5.37161 0 11.999C0 18.6264 5.37258 23.999 12 23.999Z" fill="#F0F0F0"/>
<path d="M16.174 11.999C16.174 13.0424 14.3052 15.6511 12.0001 15.6511C9.69489 15.6511 7.82617 13.0424 7.82617 11.999C7.82617 9.69375 9.69489 7.82507 12.0001 7.82507C14.3052 7.82507 16.174 9.69375 16.174 11.999Z" fill="#D80027"/>
<path d="M16.174 11.999C16.174 14.3042 14.3052 16.1729 12.0001 16.1729C9.69489 16.1729 7.82617 14.3042 7.82617 11.999" fill="#0052B4"/>
<path d="M16.4238 15.6885L17.5304 14.5819L18.2682 15.3196L17.1616 16.4262L16.4238 15.6885Z" fill="black"/>
<path d="M14.5789 17.5328L15.6855 16.4262L16.4232 17.164L15.3166 18.2706L14.5789 17.5328Z" fill="black"/>
<path d="M18.6367 17.9016L19.7433 16.795L20.4811 17.5328L19.3745 18.6394L18.6367 17.9016Z" fill="black"/>
<path d="M16.792 19.7463L17.8986 18.6397L18.6363 19.3775L17.5297 20.4841L16.792 19.7463Z" fill="black"/>
<path d="M17.5305 16.795L18.6371 15.6884L19.3749 16.4262L18.2683 17.5328L17.5305 16.795Z" fill="black"/>
<path d="M15.6865 18.6394L16.7931 17.5328L17.5309 18.2706L16.4243 19.3771L15.6865 18.6394Z" fill="black"/>
<path d="M18.6416 8.31152L15.6907 5.36058L16.4284 4.62284L19.3793 7.57378L18.6416 8.31152Z" fill="black"/>
<path d="M15.6907 7.57422L14.5841 6.46762L15.3218 5.72991L16.4284 6.83651L15.6907 7.57422Z" fill="black"/>
<path d="M17.5349 9.41895L16.4283 8.31235L17.166 7.57464L18.2726 8.68124L17.5349 9.41895Z" fill="black"/>
<path d="M17.9036 5.3606L16.797 4.254L17.5347 3.51625L18.6413 4.62285L17.9036 5.3606Z" fill="black"/>
<path d="M19.749 7.20557L18.6424 6.09897L19.3802 5.36122L20.4868 6.46782L19.749 7.20557Z" fill="black"/>
<path d="M4.25415 16.793L7.20509 19.7439L6.46735 20.4817L3.51641 17.5307L4.25415 16.793Z" fill="black"/>
<path d="M7.20483 17.5302L8.31143 18.6367L7.57372 19.3745L6.46712 18.2679L7.20483 17.5302Z" fill="black"/>
<path d="M5.36035 15.6862L6.46695 16.7928L5.72921 17.5305L4.62261 16.4239L5.36035 15.6862Z" fill="black"/>
<path d="M6.4668 14.5793L9.41774 17.5303L8.67999 18.268L5.72905 15.3171L6.4668 14.5793Z" fill="black"/>
<path d="M7.20508 4.25171L4.25414 7.20265L3.51639 6.46491L6.46733 3.51397L7.20508 4.25171Z" fill="black"/>
<path d="M8.31128 5.35815L5.36034 8.3091L4.62259 7.57135L7.57354 4.62041L8.31128 5.35815Z" fill="black"/>
<path d="M9.41895 6.46545L6.468 9.41639L5.73029 8.67868L8.68123 5.72774L9.41895 6.46545Z" fill="black"/>
</g>
</svg>
