<svg viewBox="0 0 24 24" fill="none" xmlns="http://www.w3.org/2000/svg">
<g clip-path="url(#clip0_37_6417)">
<path d="M22.809 6.78263C20.868 2.76867 16.7572 0 11.9997 0C7.24218 0 3.13143 2.76867 1.19043 6.78263L11.9997 7.82611L22.809 6.78263Z" fill="#D80027"/>
<path d="M1.19043 17.2174C3.13143 21.2314 7.24218 24.0001 11.9997 24.0001C16.7572 24.0001 20.868 21.2314 22.809 17.2174L11.9997 16.174L1.19043 17.2174Z" fill="#D80027"/>
<path d="M22.8093 6.78259H1.19072C0.427875 8.36017 0 10.1301 0 12C0 13.8699 0.427875 15.6398 1.19072 17.2173H22.8092C23.5722 15.6398 24 13.8699 24 12C24 10.1301 23.5722 8.36017 22.8093 6.78259Z" fill="#0052B4"/>
<path d="M12.0001 16.1738C14.3052 16.1738 16.174 14.3051 16.174 11.9999C16.174 9.69476 14.3052 7.82605 12.0001 7.82605C9.69489 7.82605 7.82617 9.69476 7.82617 11.9999C7.82617 14.3051 9.69489 16.1738 12.0001 16.1738Z" fill="#F0F0F0"/>
</g>
</svg>
