<svg viewBox="0 0 24 24" fill="none" xmlns="http://www.w3.org/2000/svg">
<g clip-path="url(#clip0_37_6428)">
<path d="M12 24C18.6274 24 24 18.6274 24 12C24 5.37258 18.6274 0 12 0C5.37258 0 0 5.37258 0 12C0 18.6274 5.37258 24 12 24Z" fill="#F0F0F0"/>
<path d="M11.9997 0C7.24218 0 3.13143 2.76867 1.19043 6.78263H22.8089C20.868 2.76867 16.7572 0 11.9997 0Z" fill="#D80027"/>
<path d="M11.9997 24C16.7572 24 20.868 21.2314 22.809 17.2174H1.19043C3.13143 21.2314 7.24218 24 11.9997 24Z" fill="#D80027"/>
<path d="M15.13 14.087L11.9996 8.3479L8.86914 14.087H11.217V15.6522H12.7822V14.087H15.13Z" fill="#6DA544"/>
</g>
</svg>
