<svg viewBox="0 0 24 24" fill="none" xmlns="http://www.w3.org/2000/svg">
<g clip-path="url(#clip0_37_6439)">
<path d="M12 24C18.6274 24 24 18.6274 24 12C24 5.37258 18.6274 0 12 0C5.37258 0 0 5.37258 0 12C0 18.6274 5.37258 24 12 24Z" fill="#F0F0F0"/>
<path d="M2.74292 4.36368H21.257C20.5732 3.53563 19.7801 2.80134 18.9003 2.18188H5.09965C4.21986 2.80124 3.42678 3.53559 2.74292 4.36368Z" fill="#F0F0F0"/>
<path d="M0 12C0 12.3678 0.0174844 12.7315 0.049875 13.0909H23.9501C23.9825 12.7315 24 12.3678 24 12C24 11.6322 23.9825 11.2685 23.9501 10.9091H0.049875C0.0174844 11.2685 0 11.6322 0 12H0Z" fill="#F0F0F0"/>
<path d="M1.30884 17.4545H22.6917C23.0451 16.7632 23.3332 16.0333 23.5484 15.2727H0.452148C0.667258 16.0333 0.955539 16.7633 1.30884 17.4545Z" fill="#F0F0F0"/>
<path d="M5.09965 21.8182H18.9003C19.7801 21.1988 20.5732 20.4645 21.257 19.6364H2.74292C3.42678 20.4644 4.21986 21.1988 5.09965 21.8182Z" fill="#F0F0F0"/>
<path d="M0.452148 8.72721H23.5485C23.3333 7.96652 23.0451 7.23658 22.6918 6.54541H1.30888C0.955586 7.23658 0.667305 7.96652 0.452148 8.72721Z" fill="#F0F0F0"/>
<path d="M5.73901 2.1818H18.9002C16.9483 0.807516 14.5685 0 11.9999 0C10.4347 0 7.69089 0.807516 5.73901 2.1818Z" fill="#D80027"/>
<path d="M11.4785 6.54557H22.6917C22.2926 5.76496 21.8107 5.03375 21.2573 4.36377H11.4785V6.54557Z" fill="#D80027"/>
<path d="M11.4785 10.9091H23.9504C23.8829 10.1599 23.7472 9.43037 23.5484 8.72729H11.4785V10.9091Z" fill="#D80027"/>
<path d="M0.451805 15.2727H23.5481C23.7469 14.5697 23.8826 13.8401 23.9501 13.0909H0.0498047C0.117305 13.8401 0.252961 14.5697 0.451805 15.2727Z" fill="#D80027"/>
<path d="M2.74297 19.6363H21.2571C21.8105 18.9662 22.2924 18.2351 22.6915 17.4545H1.30859C1.70764 18.2351 2.18961 18.9663 2.74297 19.6363Z" fill="#D80027"/>
<path d="M11.9999 24C14.5685 24 16.9484 23.1925 18.9003 21.8182H5.09961C7.05148 23.1925 9.43133 24 11.9999 24Z" fill="#D80027"/>
<path d="M0.451758 8.72728C0.252914 9.43041 0.117305 10.1599 0.0498047 10.9091H11.9999V0C6.50712 0 1.87638 3.69056 0.451758 8.72728Z" fill="#0052B4"/>
<path d="M7.14308 3.13043L7.92003 5.52176H10.4347L8.40041 6.99982L9.17731 9.39129L7.14308 7.91332L5.10875 9.39129L5.88584 6.99982L3.85156 5.52176H6.36608L7.14308 3.13043Z" fill="#F0F0F0"/>
</g>
</svg>
