<svg viewBox="0 0 24 24" fill="none" xmlns="http://www.w3.org/2000/svg">
<g clip-path="url(#clip0_37_6456)">
<path d="M1.19072 6.78262C0.427875 8.36025 0 10.1301 0 12C0 13.8699 0.427875 15.6397 1.19072 17.2174L12 18.2609L22.8093 17.2174C23.5721 15.6397 24 13.8699 24 12C24 10.1301 23.5721 8.36025 22.8093 6.78262L12 5.73914L1.19072 6.78262Z" fill="black"/>
<path d="M1.19141 17.2173C3.13231 21.2312 7.24273 23.9999 12.0003 23.9999C16.7577 23.9999 20.8682 21.2312 22.8091 17.2173H1.19141Z" fill="#496E2D"/>
<path d="M1.19141 6.78263H22.8091C20.8682 2.76867 16.7577 0 12.0003 0C7.24273 0 3.13231 2.76867 1.19141 6.78263Z" fill="#D80027"/>
<path d="M14.7927 9.80554L15.7773 11.1623L17.3718 10.6453L16.3856 12.0009L17.3701 13.3577L15.7762 12.8387L14.79 14.1943L14.7911 12.518L13.197 11.999L14.7916 11.482L14.7927 9.80554Z" fill="#F0F0F0"/>
<path d="M12.1059 15.3913C10.233 15.3913 8.71461 13.8729 8.71461 12C8.71461 10.127 10.233 8.60867 12.1059 8.60867C12.6899 8.60867 13.2394 8.75633 13.7191 9.0163C12.9665 8.28032 11.9373 7.82605 10.8016 7.82605C8.49636 7.82605 6.62769 9.69477 6.62769 11.9999C6.62769 14.3051 8.4964 16.1738 10.8016 16.1738C11.9374 16.1738 12.9665 15.7196 13.7191 14.9836C13.2394 15.2436 12.6899 15.3913 12.1059 15.3913Z" fill="#F0F0F0"/>
</g>
</svg>
