<svg viewBox="0 0 24 24" fill="none" xmlns="http://www.w3.org/2000/svg">
<g clip-path="url(#clip0_37_6434)">
<path d="M0 12.001C0 13.8708 0.427828 15.6407 1.19072 17.2184L12 17.7401L22.8093 17.2184C23.5722 15.6407 24 13.8708 24 12.001C24 10.1311 23.5722 8.36123 22.8093 6.78361L12 6.26184L1.19072 6.78356C0.427828 8.36123 0 10.1311 0 12.001H0Z" fill="#F0F0F0"/>
<path d="M11.9997 24.0009C16.7572 24.0009 20.868 21.2322 22.809 17.2183H1.19043C3.13143 21.2322 7.24218 24.0009 11.9997 24.0009Z" fill="#6DA544"/>
<path d="M11.9997 0.000976562C7.24218 0.000976562 3.13143 2.76965 1.19043 6.7836H22.8089C20.868 2.76965 16.7572 0.000976562 11.9997 0.000976562Z" fill="#0052B4"/>
<path d="M12.7826 11.7402V8.87061H11.2174V11.7402L9.3269 13.6307C9.8767 14.5307 10.8682 15.1315 12 15.1315C13.1318 15.1315 14.1232 14.5307 14.6731 13.6307L12.7826 11.7402Z" fill="black"/>
</g>
</svg>
