<svg viewBox="0 0 24 24" fill="none" xmlns="http://www.w3.org/2000/svg">
<g clip-path="url(#clip0_37_6586)">
<path d="M17.2175 1.19072C15.6399 0.427875 13.87 0 12.0001 0C10.1303 0 8.36037 0.427875 6.78274 1.19072L5.73926 12L6.78274 22.8093C8.36037 23.5721 10.1303 24 12.0001 24C13.87 24 15.6399 23.5721 17.2175 22.8093L18.261 12L17.2175 1.19072Z" fill="#FFDA44"/>
<path d="M6.78263 1.19116C2.76872 3.13212 0 7.24254 0 12C0 16.7575 2.76872 20.8679 6.78263 22.8089V1.19116Z" fill="#0052B4"/>
<path d="M17.2178 1.19116V22.8089C21.2317 20.8679 24.0004 16.7575 24.0004 12C24.0004 7.24254 21.2317 3.13212 17.2178 1.19116Z" fill="#D80027"/>
<path d="M16.174 9.44149H13.3044C13.3044 8.72111 12.7204 8.13715 12.0001 8.13715C11.2797 8.13715 10.6957 8.72111 10.6957 9.44149H7.82617C7.82617 10.1508 8.44403 10.7257 9.1532 10.7257H9.11045C9.11045 11.435 9.68542 12.01 10.3947 12.01C10.3947 12.638 10.8458 13.1598 11.4415 13.2714L10.4294 15.5561C10.9143 15.7533 11.4443 15.8628 12.0001 15.8628C12.5558 15.8628 13.0858 15.7533 13.5707 15.5561L12.5587 13.2714C13.1544 13.1598 13.6054 12.638 13.6054 12.01C14.3147 12.01 14.8897 11.435 14.8897 10.7257H14.8469C15.5561 10.7257 16.174 10.1507 16.174 9.44149Z" fill="#FF9811"/>
<path d="M12.0003 11.2173L10.3047 11.9999V13.5651L12.0003 14.6086L13.696 13.5651V11.9999L12.0003 11.2173Z" fill="#0052B4"/>
<path d="M10.3047 10.4348H13.696V12H10.3047V10.4348Z" fill="#D80027"/>
</g>
</svg>
