<svg viewBox="0 0 24 24" fill="none" xmlns="http://www.w3.org/2000/svg">
<g clip-path="url(#clip0_37_6572)">
<path d="M12 24C18.6274 24 24 18.6274 24 12C24 5.37258 18.6274 0 12 0C5.37258 0 0 5.37258 0 12C0 18.6274 5.37258 24 12 24Z" fill="#F0F0F0"/>
<path d="M24.0004 12C24.0004 7.24242 21.2317 3.13167 17.2178 1.19067V22.8092C21.2317 20.8682 24.0004 16.7575 24.0004 12Z" fill="#D80027"/>
<path d="M0 12C0 16.7575 2.76867 20.8683 6.78263 22.8093V1.19073C2.76867 3.13173 0 7.24248 0 12Z" fill="#6DA544"/>
<path d="M8.86914 12.0001C8.86914 13.729 10.2707 15.1305 11.9996 15.1305C13.7285 15.1305 15.13 13.729 15.13 12.0001V10.9566H8.86914V12.0001Z" fill="#6DA544"/>
<path d="M16.1738 9.91305H13.0434C13.0434 9.33677 12.5761 8.86957 11.9999 8.86957C11.4236 8.86957 10.9564 9.33677 10.9564 9.91305H7.82593C7.82593 10.4894 8.32791 10.9565 8.90415 10.9565H8.86941C8.86941 11.5329 9.33657 12 9.9129 12C9.9129 12.5763 10.3801 13.0435 10.9564 13.0435H13.0434C13.6197 13.0435 14.0868 12.5763 14.0868 12C14.6632 12 15.1303 11.5329 15.1303 10.9565H15.0955C15.6719 10.9565 16.1738 10.4894 16.1738 9.91305Z" fill="#FF9811"/>
</g>
</svg>
