<svg viewBox="0 0 24 24" fill="none" xmlns="http://www.w3.org/2000/svg">
<g clip-path="url(#clip0_37_6553)">
<path d="M12 24C18.6274 24 24 18.6274 24 12C24 5.37258 18.6274 0 12 0C5.37258 0 0 5.37258 0 12C0 18.6274 5.37258 24 12 24Z" fill="#338AF3"/>
<path d="M5.73926 13.0435H18.261V14.6087H5.73926V13.0435Z" fill="#818085"/>
<path d="M7.82617 8.34783L12.0001 8.86964L16.174 8.34783V5.84348L14.5044 6.67828L12.0001 4.17389L9.49572 6.67828L7.82617 5.84348V8.34783Z" fill="#FFDA44"/>
<path d="M6.78302 16.174H5.21777V13.3044L5.73954 12.5217L5.21777 11.7391V9.91309H6.78302V16.174Z" fill="#F0F0F0"/>
<path d="M18.783 16.174H17.2178V9.91309H18.783V11.7391L18.2613 12.5349L18.783 13.3045V16.174Z" fill="#F0F0F0"/>
<path d="M5.21777 11.7393H18.783V13.3045H5.21777V11.7393Z" fill="#ACABB1"/>
<path d="M12.0001 18.2609C9.69855 18.2609 7.82617 16.3885 7.82617 14.087V8.3479H16.174V14.087C16.174 16.3885 14.3016 18.2609 12.0001 18.2609Z" fill="#F0F0F0"/>
<path d="M12.0003 16.6956C10.5618 16.6956 9.3916 15.5253 9.3916 14.0869V9.91309H14.609V14.0869C14.609 15.5253 13.4387 16.6956 12.0003 16.6956Z" fill="#0052B4"/>
<path d="M7.82617 8.34784H9.39138V9.91304H7.82617V8.34784Z" fill="#D80027"/>
<path d="M14.6084 8.34784H16.1736V9.91304H14.6084V8.34784Z" fill="#D80027"/>
<path d="M14.6084 11.7392H16.1736V13.3044H14.6084V11.7392Z" fill="#D80027"/>
<path d="M7.82617 11.7391H9.39138V13.3043H7.82617V11.7391Z" fill="#D80027"/>
<path d="M11.2178 8.34784H12.783V9.91304H11.2178V8.34784Z" fill="#D80027"/>
<path d="M12.0004 16.6957C11.7278 16.6957 11.4649 16.6535 11.2178 16.5756V18.1863C11.4715 18.2347 11.7328 18.261 12.0004 18.261C12.268 18.261 12.5293 18.2347 12.783 18.1863V16.5756C12.5359 16.6535 12.273 16.6957 12.0004 16.6957Z" fill="#D80027"/>
<path d="M9.42588 14.5104L8.17676 15.7596C8.39332 16.2526 8.70232 16.696 9.0821 17.0677L10.1884 15.9615C9.79357 15.5801 9.51855 15.0757 9.42588 14.5104Z" fill="#D80027"/>
<path d="M15.8231 15.7597L14.5739 14.5106C14.4812 15.0758 14.2063 15.5801 13.8115 15.9617L14.9178 17.0679C15.2975 16.6962 15.6065 16.2528 15.8231 15.7597Z" fill="#D80027"/>
</g>
</svg>
