<svg viewBox="0 0 24 24" fill="none" xmlns="http://www.w3.org/2000/svg">
<g clip-path="url(#clip0_37_6518)">
<path d="M16.1735 0.746391C14.8735 0.264047 13.4674 0 11.9996 0C10.5318 0 9.1257 0.264047 7.82571 0.746391L6.78223 12L7.82571 23.2536C9.1257 23.736 10.5318 24 11.9996 24C13.4674 24 14.8735 23.736 16.1735 23.2536L17.217 12L16.1735 0.746391Z" fill="#FFDA44"/>
<path d="M23.9999 12C23.9999 6.84049 20.7434 2.44193 16.1738 0.74646V23.2537C20.7434 21.5581 23.9999 17.1596 23.9999 12Z" fill="#D80027"/>
<path d="M0 12C0 17.1596 3.2565 21.5581 7.82611 23.2537V0.74646C3.2565 2.44193 0 6.84049 0 12Z" fill="#6DA544"/>
</g>
</svg>
