<svg viewBox="0 0 24 24" fill="none" xmlns="http://www.w3.org/2000/svg">
<g clip-path="url(#clip0_37_6609)">
<path d="M12 24C18.6274 24 24 18.6274 24 12C24 5.37258 18.6274 0 12 0C5.37258 0 0 5.37258 0 12C0 18.6274 5.37258 24 12 24Z" fill="#FFDA44"/>
<path d="M24 12C24 7.88152 21.9249 4.24805 18.7635 2.08698H5.23655C2.07516 4.24805 0 7.88152 0 12C0 16.1186 2.07516 19.752 5.23655 21.913H18.7635C21.9249 19.752 24 16.1186 24 12Z" fill="#A2001D"/>
<path d="M9.39185 8.86966H14.6092V6.78274L13.5657 7.30446L12.0005 5.73926L10.4353 7.30446L9.39185 6.78274V8.86966Z" fill="#FFDA44"/>
<path d="M16.6961 12.0001H14.0884C14.1907 11.8232 14.2501 11.6185 14.2501 11.3995C14.2501 10.7345 13.711 10.1955 13.0461 10.1955C12.5867 10.1955 12.1877 10.4529 11.9846 10.8312C11.7816 10.4529 11.3826 10.1955 10.9232 10.1955C10.2583 10.1955 9.71917 10.7345 9.71917 11.3995C9.71917 11.6186 9.7787 11.8233 9.88089 12.0001H7.30469C7.30469 12.7981 7.9997 13.4449 8.79761 13.4449H8.74952C8.74952 14.0994 9.18484 14.6521 9.7817 14.8296L8.60903 16.0024L9.7158 17.1091L11.2858 15.5392C11.3473 15.5617 11.4109 15.5797 11.4767 15.5921L10.528 17.734C10.9826 17.9189 11.4794 18.0215 12.0004 18.0215C12.5214 18.0215 13.0182 17.9189 13.4729 17.734L12.5242 15.5921C12.5899 15.5797 12.6535 15.5617 12.715 15.5392L14.285 17.1091L15.3917 16.0024L14.219 14.8297C14.8158 14.652 15.2512 14.0995 15.2512 13.445H15.203C16.001 13.4449 16.6961 12.7981 16.6961 12.0001Z" fill="#FFDA44"/>
<path d="M12.0003 12.7827L10.3047 13.5653V15.1305L12.0003 16.174L13.696 15.1305V13.5653L12.0003 12.7827Z" fill="#6DA544"/>
<path d="M10.3047 12H13.696V14.087H10.3047V12Z" fill="#0052B4"/>
</g>
</svg>
