<svg viewBox="0 0 24 24" fill="none" xmlns="http://www.w3.org/2000/svg">
<g clip-path="url(#clip0_37_6596)">
<path d="M12.0003 24C13.4682 24 14.8743 23.736 16.1742 23.2536L16.696 12L16.1743 0.746391C14.8743 0.264047 13.4682 0 12.0003 0C10.5325 0 9.12639 0.264047 7.82645 0.746391L7.30469 12L7.82641 23.2536C9.12639 23.736 10.5325 24 12.0003 24Z" fill="#0052B4"/>
<path d="M0 12C0 17.1596 3.2565 21.5581 7.82611 23.2536V0.746399C3.2565 2.44191 0 6.84043 0 12Z" fill="#A2001D"/>
<path d="M16.1738 0.746399V23.2537C20.7434 21.5581 23.9999 17.1596 23.9999 12C23.9999 6.84043 20.7434 2.44191 16.1738 0.746399Z" fill="#A2001D"/>
<path d="M5.73901 12H6.7825V16.1739H5.73901V12Z" fill="#FFDA44"/>
<path d="M1.56519 12H2.60867V16.1739H1.56519V12Z" fill="#FFDA44"/>
<path d="M4.17386 14.6087C4.75016 14.6087 5.21734 14.1415 5.21734 13.5652C5.21734 12.9889 4.75016 12.5217 4.17386 12.5217C3.59756 12.5217 3.13037 12.9889 3.13037 13.5652C3.13037 14.1415 3.59756 14.6087 4.17386 14.6087Z" fill="#FFDA44"/>
<path d="M4.17382 10.4347C4.46196 10.4347 4.69554 10.2012 4.69554 9.91301C4.69554 9.62488 4.46196 9.3913 4.17382 9.3913C3.88568 9.3913 3.6521 9.62488 3.6521 9.91301C3.6521 10.2012 3.88568 10.4347 4.17382 10.4347Z" fill="#FFDA44"/>
<path d="M3.13037 15.1304H5.21734V16.1739H3.13037V15.1304Z" fill="#FFDA44"/>
<path d="M3.13037 10.9565H5.21734V12H3.13037V10.9565Z" fill="#FFDA44"/>
<path d="M4.17433 6.26086L4.5439 7.39805H5.73958L4.77232 8.1009L5.1416 9.23808L4.17433 8.53524L3.20712 9.23808L3.5764 8.1009L2.60913 7.39805H3.80482L4.17433 6.26086Z" fill="#FFDA44"/>
</g>
</svg>
