<svg viewBox="0 0 24 24" fill="none" xmlns="http://www.w3.org/2000/svg">
<g clip-path="url(#clip0_37_6632)">
<path d="M12 24C18.6274 24 24 18.6274 24 12C24 5.37258 18.6274 0 12 0C5.37258 0 0 5.37258 0 12C0 18.6274 5.37258 24 12 24Z" fill="#F0F0F0"/>
<path d="M6.48568 16.6956L3.51465 20.4848C5.68609 22.6565 8.68576 23.9999 11.9995 23.9999C16.9603 23.9999 21.2172 20.9892 23.0447 16.6956H6.48568Z" fill="#FFDA44"/>
<path d="M23.0634 7.3478C21.2461 3.03103 16.9771 0 11.9995 0C8.68576 0 5.68609 1.34339 3.51465 3.51511L6.5198 7.3478H23.0634Z" fill="#496E2D"/>
<path d="M2.6084 8.82617V15.1305H23.5864C23.8555 14.1325 23.9997 13.0832 23.9997 12.0001C23.9997 10.9012 23.8517 9.83717 23.575 8.82617H2.6084Z" fill="black"/>
<path d="M3.51471 3.51471C-1.17157 8.20099 -1.17157 15.799 3.51471 20.4853C5.45126 18.5488 7.31374 16.6863 12 12L3.51471 3.51471Z" fill="#A2001D"/>
<path d="M4.8567 8.86957L5.63365 11.2609H8.14831L6.11403 12.739L6.89094 15.1305L4.8567 13.6525L2.82237 15.1305L3.59947 12.739L1.56519 11.2609H4.07965L4.8567 8.86957Z" fill="#FFDA44"/>
<path d="M2.58325 12H7.13125V14.087H2.58325V12Z" fill="#F0F0F0"/>
<path d="M7.99252 9.60754L7.25466 8.86963L4.8571 11.2672L2.45954 8.86963L1.72168 9.60754L4.12135 12.0029L1.72168 14.4027L2.45954 15.1305L4.8571 12.7373L7.25466 15.1305L7.99252 14.4027L5.59285 12.0029L7.99252 9.60754Z" fill="black"/>
</g>
</svg>
