<svg viewBox="0 0 24 24" fill="none" xmlns="http://www.w3.org/2000/svg">
<g clip-path="url(#clip0_37_6531)">
<path d="M12 24C18.6274 24 24 18.6274 24 12C24 5.37258 18.6274 0 12 0C5.37258 0 0 5.37258 0 12C0 18.6274 5.37258 24 12 24Z" fill="#F0F0F0"/>
<path d="M23.8974 10.4347C23.5664 7.90414 22.4296 5.45886 20.4855 3.51472C18.5414 1.57058 16.096 0.433814 13.5654 0.102783L13.5655 10.4347H23.8974Z" fill="#0052B4"/>
<path d="M10.4345 0.102783C7.9039 0.433814 5.45857 1.57053 3.51443 3.51467C1.57034 5.45886 0.43357 7.90419 0.102539 10.4348L10.4345 10.4348L10.4345 0.102783Z" fill="#0052B4"/>
<path d="M0.102539 13.5652C0.43357 16.0958 1.57034 18.5412 3.51443 20.4853C5.45857 22.4294 7.90385 23.5661 10.4345 23.8973L10.4345 13.5653L0.102539 13.5652Z" fill="#0052B4"/>
<path d="M13.5654 23.8971C16.096 23.5661 18.5413 22.4293 20.4854 20.4852C22.4296 18.5411 23.5663 16.0958 23.8973 13.5652H13.5654V23.8971Z" fill="#0052B4"/>
<path d="M16.097 7.61422C16.097 7.45466 16.2267 7.32496 16.3864 7.32496H17.0062C17.9861 7.32496 18.7833 6.5278 18.7833 5.54797C18.7833 4.56814 17.9862 3.77094 17.0062 3.77094H16.4176C16.2254 3.62661 15.9677 3.5376 15.6833 3.5376C15.0902 3.5376 14.6094 3.92221 14.6094 4.39668C14.6094 4.86655 15.081 5.24774 15.6662 5.25514L15.6659 5.25857H17.0062C17.1658 5.25857 17.2955 5.38832 17.2955 5.54788C17.2955 5.70744 17.1658 5.83714 17.0062 5.83714H16.3864C15.4065 5.83714 14.6094 6.6343 14.6094 7.61413C14.6094 8.59396 15.4064 9.39116 16.3864 9.39116H18.7833V7.90344H16.3864C16.2267 7.90349 16.097 7.77379 16.097 7.61422Z" fill="#F0F0F0"/>
<path d="M6.7054 7.61422C6.7054 7.45466 6.8351 7.32496 6.99471 7.32496H7.61459C8.59446 7.32496 9.39166 6.5278 9.39166 5.54797C9.39166 4.56814 8.59451 3.77094 7.61459 3.77094H7.02593C6.83379 3.62661 6.57602 3.5376 6.29168 3.5376C5.69857 3.5376 5.21777 3.92221 5.21777 4.39668C5.21777 4.86655 5.68938 5.24774 6.27457 5.25514L6.27429 5.25857H7.61463C7.77424 5.25857 7.90394 5.38832 7.90394 5.54788C7.90394 5.70744 7.77424 5.83714 7.61463 5.83714H6.99476C6.01488 5.83714 5.21777 6.6343 5.21777 7.61413C5.21777 8.59396 6.01484 9.39116 6.99476 9.39116H9.39162V7.90344H6.99471C6.8351 7.90349 6.7054 7.77379 6.7054 7.61422Z" fill="#F0F0F0"/>
<path d="M16.0971 18.6853C16.0971 18.5257 16.2268 18.396 16.3864 18.396H17.0063C17.9862 18.396 18.7834 17.5988 18.7834 16.619C18.7834 15.6392 17.9862 14.842 17.0063 14.842H16.4176C16.2255 14.6977 15.9677 14.6086 15.6834 14.6086C15.0902 14.6086 14.6094 14.9933 14.6094 15.4677C14.6094 15.9376 15.081 16.3188 15.6662 16.3262L15.6659 16.3296H17.0062C17.1658 16.3296 17.2955 16.4594 17.2955 16.6189C17.2955 16.7785 17.1658 16.9082 17.0062 16.9082H16.3864C15.4065 16.9082 14.6094 17.7053 14.6094 18.6852C14.6094 19.665 15.4064 20.4622 16.3864 20.4622H18.7833V18.9745H16.3864C16.2268 18.9746 16.0971 18.8448 16.0971 18.6853Z" fill="#F0F0F0"/>
<path d="M6.70545 18.6853C6.70545 18.5257 6.83515 18.396 6.99476 18.396H7.61463C8.59451 18.396 9.39171 17.5988 9.39171 16.619C9.39171 15.6392 8.59455 14.842 7.61463 14.842H7.02598C6.83384 14.6977 6.57607 14.6086 6.29173 14.6086C5.69857 14.6086 5.21777 14.9933 5.21777 15.4677C5.21777 15.9376 5.68938 16.3188 6.27457 16.3262L6.27429 16.3296H7.61463C7.77424 16.3296 7.90395 16.4594 7.90395 16.6189C7.90395 16.7785 7.77424 16.9082 7.61463 16.9082H6.99476C6.01488 16.9082 5.21777 17.7053 5.21777 18.6852C5.21777 19.665 6.01484 20.4622 6.99476 20.4622H9.39166V18.9745H6.99476C6.83515 18.9746 6.70545 18.8448 6.70545 18.6853Z" fill="#F0F0F0"/>
</g>
</svg>
