<svg viewBox="0 0 24 24" fill="none" xmlns="http://www.w3.org/2000/svg">
<g clip-path="url(#clip0_37_6503)">
<path d="M12 24C18.6274 24 24 18.6274 24 12C24 5.37258 18.6274 0 12 0C5.37258 0 0 5.37258 0 12C0 18.6274 5.37258 24 12 24Z" fill="#F0F0F0"/>
<path d="M11.4775 11.9998H23.9993C23.9993 10.9167 23.8549 9.86754 23.5859 8.86938H11.4775V11.9998Z" fill="#D80027"/>
<path d="M11.4775 5.7391H22.238C21.5034 4.54041 20.5643 3.48089 19.4691 2.60864H11.4775V5.7391Z" fill="#D80027"/>
<path d="M12.0001 24C14.8243 24 17.4201 23.0239 19.47 21.3914H4.53027C6.58016 23.0239 9.17596 24 12.0001 24Z" fill="#D80027"/>
<path d="M1.76098 18.2608H22.2384C22.8281 17.2986 23.2855 16.2467 23.5863 15.1304H0.413086C0.713883 16.2467 1.17124 17.2986 1.76098 18.2608Z" fill="#D80027"/>
<path d="M12 12C12 5.37262 12 4.59131 12 0C5.37262 0 0 5.37262 0 12H12Z" fill="#0052B4"/>
<path d="M7.98001 10.2716C6.34116 10.2716 5.01263 8.94302 5.01263 7.30422C5.01263 5.66543 6.34121 4.33685 7.98001 4.33685C8.49099 4.33685 8.97179 4.46608 9.39155 4.69352C8.73305 4.0496 7.83249 3.6521 6.8387 3.6521C4.82171 3.6521 3.18652 5.28724 3.18652 7.30427C3.18652 9.3213 4.82171 10.9564 6.8387 10.9564C7.83249 10.9564 8.73305 10.5589 9.39155 9.91502C8.97179 10.1424 8.49104 10.2716 7.98001 10.2716Z" fill="#FFDA44"/>
<path d="M8.81647 5.21729L9.3433 6.31894L10.533 6.04407L10.0003 7.14277L10.9571 7.90153L9.76578 8.17008L9.76911 9.39122L8.81647 8.62725L7.86378 9.39122L7.86706 8.17008L6.67578 7.90153L7.63259 7.14277L7.09977 6.04407L8.28959 6.31894L8.81647 5.21729Z" fill="#FFDA44"/>
</g>
</svg>
