<svg viewBox="0 0 24 24" fill="none" xmlns="http://www.w3.org/2000/svg">
<g clip-path="url(#clip0_37_6646)">
<path d="M12 24C18.6274 24 24 18.6274 24 12C24 5.37258 18.6274 0 12 0C5.37258 0 0 5.37258 0 12C0 18.6274 5.37258 24 12 24Z" fill="#F0F0F0"/>
<path d="M3.51475 20.4853C4.01814 20.9887 4.55524 21.4376 5.11863 21.8328L21.8328 5.11863C21.4376 4.55524 20.9887 4.01814 20.4852 3.51475C19.9818 3.01136 19.4448 2.56249 18.8814 2.16724L2.16724 18.8815C2.56244 19.4448 3.01136 19.9819 3.51475 20.4853Z" fill="#A2001D"/>
<path d="M3.51428 3.51465C-0.271532 7.30047 -0.998282 12.986 1.33248 17.5021L17.5016 1.33295C12.9856 -0.997814 7.3 -0.27097 3.51428 3.51465Z" fill="#0052B4"/>
<path d="M20.4852 20.4853C24.2709 16.6996 24.9976 11.014 22.667 6.49792L6.4978 22.6671C11.0138 24.9978 16.6994 24.2711 20.4852 20.4853Z" fill="#496E2D"/>
<path d="M9.91259 6.78255L8.56793 7.41504L9.28399 8.71732L7.82388 8.43804L7.63882 9.91296L6.62182 8.82813L5.60477 9.91296L5.41981 8.43804L3.95965 8.71727L4.67566 7.41499L3.33105 6.78255L4.67571 6.15002L3.95965 4.84783L5.41976 5.12712L5.60482 3.6521L6.62182 4.73697L7.63887 3.6521L7.82388 5.12712L9.28399 4.84783L8.56802 6.15007L9.91259 6.78255Z" fill="#FFDA44"/>
</g>
</svg>
