<svg xmlns="http://www.w3.org/2000/svg" fill="none" viewBox="0 0 24 24">
  <g clip-path="url(#a)">
    <g clip-path="url(#b)">
      <path fill="#0035AD" d="M44 0H-4v8h48V0Z"/>
      <path fill="#ED4135" d="M44 8H-4v8h48V8Z"/>
      <path fill="#009543" d="M44 16H-4v8h48v-8Z"/>
      <path fill="#FAE600" d="M12 20a8 8 0 1 0 0-16 8 8 0 0 0 0 16Z"/>
      <path fill="#000" d="M10.644 13.193h2.712-2.712Zm0-2.007h2.712-2.712ZM12 4.026v13.67-13.67Z"/>
      <path stroke="#000" stroke-width=".325" d="M10.644 13.193h2.712m-2.712-2.007h2.712M12 4.026v13.67"/>
      <path fill="#000" d="M11.929 17.34c-.57.002-1.14.123-1.43.355-.41.328-1.462 1.396-1.682 1.634a8 8 0 0 0 3.176.67h.016a8.002 8.002 0 0 0 3.027-.614c-.178-.195-1.14-1.24-1.679-1.69-.289-.242-.858-.358-1.428-.356Zm.071-.35c.494 0 .895-.582.895-1.301 0-.72-.4-1.302-.895-1.302-.494 0-.895.583-.895 1.302 0 .719.4 1.302.895 1.302Zm0-4.113c.6 0 1.085-.308 1.085-.687 0-.38-.486-.687-1.085-.687-.6 0-1.085.308-1.085.687 0 .38.486.687 1.085.687Zm0-2.776a1.085 1.085 0 1 0 0-2.17 1.085 1.085 0 0 0 0 2.17Zm1.302-5.126s.094.156-.104.512c-.945 1.703-1.894 1.74-2.074 1.886-.198.162-.282.15-.282.15.014-.145.027-.742.038-.799.143-.795 1.345-.784 2.285-1.599.147-.127.137-.15.137-.15Z"/>
      <path fill="#000" d="M10.129 8.637s.212.609.244 1.22c.05.977.986 1.004 1.627 1.004v-.543c-.48 0-.898-.071-1.248-.786-.172-.353-.623-.895-.623-.895Zm-.027 7.865s.341-.42.74-1.409c.21-.515.703-.815 1.158-.815v-.76c-1.032 0-1.527.384-1.58.943-.106 1.149-.318 2.041-.318 2.041Zm3.77-7.865s-.213.609-.245 1.22c-.05.977-.986 1.004-1.627 1.004v-.543c.48 0 .898-.071 1.248-.786.172-.353.624-.895.624-.895Zm.027 7.865s-.342-.42-.741-1.409c-.209-.515-.703-.815-1.158-.815v-.76c1.032 0 1.527.384 1.58.943.107 1.149.319 2.041.319 2.041Z"/>
    </g>
  </g>
  <defs>
    <clipPath id="a">
      <rect fill="#fff" rx="12"/>
    </clipPath>
    <clipPath id="b">
      <path fill="#fff" d="M-4 0h48v24H-4z"/>
    </clipPath>
  </defs>
</svg>
