<svg viewBox="0 0 24 24" fill="none" xmlns="http://www.w3.org/2000/svg">
<g clip-path="url(#clip0_37_6708)">
<path d="M1.19072 6.78262C0.427875 8.36025 0 10.1301 0 12C0 13.8699 0.427875 15.6397 1.19072 17.2174L12 18.2609L22.8093 17.2174C23.5721 15.6397 24 13.8699 24 12C24 10.1301 23.5721 8.36025 22.8093 6.78262L12 5.73914L1.19072 6.78262Z" fill="#F0F0F0"/>
<path d="M1.19141 17.2173C3.13231 21.2312 7.24273 23.9999 12.0003 23.9999C16.7578 23.9999 20.8682 21.2312 22.8091 17.2173H1.19141Z" fill="#6DA544"/>
<path d="M1.19141 6.78263H22.8091C20.8682 2.76867 16.7577 0 12.0003 0C7.24278 0 3.13231 2.76867 1.19141 6.78263Z" fill="#FF9811"/>
<path d="M12.0003 16.1739C14.3055 16.1739 16.1742 14.3052 16.1742 12C16.1742 9.69483 14.3055 7.82611 12.0003 7.82611C9.69513 7.82611 7.82642 9.69483 7.82642 12C7.82642 14.3052 9.69513 16.1739 12.0003 16.1739Z" fill="#FF9811"/>
</g>
</svg>
