<svg viewBox="0 0 24 24" fill="none" xmlns="http://www.w3.org/2000/svg">
<g clip-path="url(#clip0_37_6699)">
<path d="M12 24C18.6274 24 24 18.6274 24 12C24 5.37258 18.6274 0 12 0C5.37258 0 0 5.37258 0 12C0 18.6274 5.37258 24 12 24Z" fill="#F0F0F0"/>
<path d="M11.9997 0C7.24218 0 3.13143 2.76867 1.19043 6.78263H22.8089C20.868 2.76867 16.7572 0 11.9997 0Z" fill="#338AF3"/>
<path d="M11.9997 24C16.7572 24 20.868 21.2313 22.809 17.2173H1.19043C3.13143 21.2313 7.24218 24 11.9997 24Z" fill="#338AF3"/>
<path d="M12.0001 8.34784C9.98304 8.34784 8.3479 9.98298 8.3479 12C8.3479 14.017 9.98304 15.6522 12.0001 15.6522C14.0171 15.6522 15.6522 14.017 15.6522 12C15.6522 9.98298 14.0171 8.34784 12.0001 8.34784ZM12.0001 14.087C10.8475 14.087 9.9131 13.1527 9.9131 12C9.9131 10.8474 10.8475 9.91304 12.0001 9.91304C13.1527 9.91304 14.087 10.8474 14.087 12C14.087 13.1527 13.1526 14.087 12.0001 14.087Z" fill="#FFDA44"/>
<path d="M13.8071 12.5217L11.9997 12L10.1923 12.5217L9.58984 13.5652H14.4095L13.8071 12.5217Z" fill="#0052B4"/>
<path d="M12.0001 9.3913L10.7952 11.4783L12.0001 12L13.205 11.4783L12.0001 9.3913Z" fill="#338AF3"/>
<path d="M10.1926 12.5217H13.8074L13.205 11.4783H10.7951L10.1926 12.5217Z" fill="#6DA544"/>
</g>
</svg>
