<svg viewBox="0 0 24 24" fill="none" xmlns="http://www.w3.org/2000/svg">
<g clip-path="url(#clip0_37_6672)">
<path d="M12 24C18.6274 24 24 18.6274 24 12C24 5.37258 18.6274 0 12 0C5.37258 0 0 5.37258 0 12C0 18.6274 5.37258 24 12 24Z" fill="#F0F0F0"/>
<path d="M23.93 13.3045L23.9297 13.3041L23.9297 13.3045H23.93Z" fill="#0052B4"/>
<path d="M23.9292 13.3043C23.9292 13.3042 23.9293 13.3041 23.9293 13.304L10.7693 0.0623779C10.1757 0.122894 9.59475 0.226675 9.02986 0.370534C3.83897 1.69217 0 12 0 12C0 12 16.7999 23.2423 18.7165 21.9452C19.1 21.6857 19.4677 21.4046 19.8177 21.1036L12.0185 13.3043H23.9292Z" fill="#0052B4"/>
<path d="M20.8695 12L9.19898 0.329468C3.92287 1.5912 0 6.33711 0 12C0 18.6274 5.37262 24 12 24C14.5139 24 16.8467 23.2265 18.7748 21.9052L8.86955 12H20.8695Z" fill="#D80027"/>
<path d="M11.4128 17.7184L9.94728 17.0291L10.7277 15.6097L9.1363 15.9142L8.93464 14.3065L7.82619 15.4889L6.71774 14.3065L6.51603 15.9142L4.92467 15.6097L5.7051 17.0291L4.2395 17.7184L5.7051 18.4077L4.92467 19.8271L6.51613 19.5227L6.71769 21.1303L7.82619 19.9479L8.93464 21.1303L9.1363 19.5227L10.7277 19.8271L9.94724 18.4078L11.4128 17.7184Z" fill="#F0F0F0"/>
<path d="M10.4345 6.65545L9.36853 6.15412L9.93613 5.1218L8.77865 5.34323L8.63198 4.17389L7.82578 5.0339L7.01957 4.17389L6.87285 5.34323L5.71537 5.1218L6.28303 6.15412L5.21704 6.65545L7.82578 7.17726L10.4345 6.65545Z" fill="#F0F0F0"/>
<path d="M10.9567 6.65546C10.9567 8.38435 9.55514 9.78591 7.82625 9.78591C6.09736 9.78591 4.6958 8.38435 4.6958 6.65546" fill="#F0F0F0"/>
</g>
</svg>
