<svg viewBox="0 0 24 24" fill="none" xmlns="http://www.w3.org/2000/svg">
<g clip-path="url(#clip0_37_6686)">
<path d="M24 12C24 18.6274 18.6274 24 12 24C5.37262 24 0 18.6274 0 12C0 12.0029 12 0.0013125 12 0C18.6274 0 24 5.37262 24 12Z" fill="#0052B4"/>
<path d="M11.9678 12H11.9999C11.9999 11.9892 11.9999 11.9787 11.9999 11.9679C11.9892 11.9786 11.9785 11.9893 11.9678 12Z" fill="#F0F0F0"/>
<path d="M12 6.26086C12 4.14937 12 2.76586 12 0H11.998C5.3715 0.001125 0 5.37323 0 12H6.26086V8.47448L9.78642 12H11.9679C11.9786 11.9893 11.9894 11.9786 12 11.9679C12 11.1594 12 10.4381 12 9.78647L8.47444 6.26086H12Z" fill="#F0F0F0"/>
<path d="M6.071 1.56519C4.19417 2.63389 2.63389 4.19417 1.56519 6.071V12H4.69564V4.69573V4.69564H12C12 3.70831 12 2.76772 12 1.56519H6.071Z" fill="#D80027"/>
<path d="M11.9996 10.5244L7.73617 6.26099C7.73617 6.26099 6.2605 6.26108 6.2605 6.26099V6.26108L11.9995 12.0001H11.9996C11.9996 12.0001 11.9996 10.9826 11.9996 10.5244Z" fill="#D80027"/>
<path d="M20.7806 8.9043L21.0396 9.70145H21.8778L21.1997 10.1941L21.4587 10.9912L20.7806 10.4986L20.1025 10.9912L20.3615 10.1941L19.6833 9.70145H20.5215L20.7806 8.9043Z" fill="#D80027"/>
<path d="M17.7852 14.6433L18.1737 15.8391H19.431L18.4138 16.578L18.8024 17.7738L17.7852 17.0348L16.768 17.7738L17.1566 16.578L16.1394 15.8391H17.3966L17.7852 14.6433Z" fill="#D80027"/>
<path d="M17.8975 5.2522L18.2214 6.24871H19.2691L18.4214 6.86442L18.7452 7.86088L17.8975 7.24499L17.05 7.86088L17.3737 6.86442L16.5261 6.24871H17.5738L17.8975 5.2522Z" fill="#D80027"/>
<path d="M15.0147 8.86963L15.4032 10.0654H16.6605L15.6433 10.8043L16.0319 12.0001L15.0147 11.2611L13.9975 12.0001L14.3861 10.8043L13.3689 10.0654H14.6261L15.0147 8.86963Z" fill="#D80027"/>
</g>
</svg>
