<svg viewBox="0 0 24 24" fill="none" xmlns="http://www.w3.org/2000/svg">
<g clip-path="url(#clip0_37_6791)">
<path d="M12 24C18.6274 24 24 18.6274 24 12C24 5.37258 18.6274 0 12 0C5.37258 0 0 5.37258 0 12C0 18.6274 5.37258 24 12 24Z" fill="#F0F0F0"/>
<path d="M0 12C0 16.5485 2.53073 20.5057 6.26086 22.5409V1.45911C2.53073 3.49437 0 7.45151 0 12Z" fill="#F0F0F0"/>
<path d="M11.9999 0C9.92098 0 7.96563 0.528891 6.26074 1.45908V22.5409C7.96563 23.4711 9.92098 24 11.9999 24C18.6273 24 23.9999 18.6274 23.9999 12C23.9999 5.37262 18.6273 0 11.9999 0Z" fill="#496E2D"/>
<path d="M17.1307 13.9846C15.6126 15.0815 13.4926 14.7401 12.3957 13.222C11.2987 11.7038 11.6402 9.58387 13.1584 8.48699C13.6317 8.14499 14.1636 7.94282 14.7046 7.87255C13.6637 7.71688 12.5633 7.95144 11.6428 8.61655C9.77437 9.96665 9.35404 12.5758 10.7041 14.4443C12.0541 16.3127 14.6633 16.7331 16.5318 15.3829C17.4524 14.7178 18.0206 13.7468 18.1995 12.7095C17.963 13.2011 17.6041 13.6425 17.1307 13.9846Z" fill="#F0F0F0"/>
<path d="M17.0657 7.82623L17.9208 8.74784L19.0616 8.21947L18.4493 9.31747L19.3044 10.2392L18.0708 9.99612L17.4586 11.0942L17.3085 9.84594L16.075 9.60289L17.2157 9.07451L17.0657 7.82623Z" fill="#F0F0F0"/>
</g>
</svg>
