<svg viewBox="0 0 24 24" fill="none" xmlns="http://www.w3.org/2000/svg">
<g clip-path="url(#clip0_37_6843)">
<path d="M24 12C24 18.6274 18.6274 24 12 24C5.37262 24 0 18.6274 0 12C0 12.0029 12 0.0013125 12 0C18.6274 0 24 5.37262 24 12Z" fill="#0052B4"/>
<path d="M11.9678 12H11.9999C11.9999 11.9892 11.9999 11.9787 11.9999 11.9679C11.9892 11.9786 11.9785 11.9893 11.9678 12Z" fill="#F0F0F0"/>
<path d="M12 6.26086C12 4.14937 12 2.76586 12 0H11.998C5.37145 0.001125 0 5.37323 0 12H6.26086V8.47448L9.78638 12H11.9679C11.9786 11.9893 11.9893 11.9786 12 11.9679C12 11.1594 12 10.4381 12 9.78647L8.47444 6.26086H12Z" fill="#F0F0F0"/>
<path d="M6.071 1.56519C4.19417 2.63389 2.63384 4.19417 1.56519 6.071V12H4.69564V4.69573V4.69564H12C12 3.70831 12 2.76772 12 1.56519H6.071Z" fill="#D80027"/>
<path d="M11.9996 10.5244L7.73612 6.26099H6.2605V6.26108L11.9995 12.0001H11.9996C11.9996 12.0001 11.9996 10.9826 11.9996 10.5244Z" fill="#D80027"/>
<path d="M18.783 7.30424L17.2178 7.82601L15.6526 7.30424L15.1309 5.9999L15.6526 4.69556H18.783L18.2613 5.9999L18.783 7.30424Z" fill="#ACABB1"/>
<path d="M13.5652 7.30432V13.0434C13.5652 15.839 17.2174 16.6956 17.2174 16.6956C17.2174 16.6956 20.8695 15.839 20.8695 13.0434V7.30432H13.5652Z" fill="#338AF3"/>
<path d="M13.8945 14.4031C14.7923 16.1267 17.2175 16.6957 17.2175 16.6957C17.2175 16.6957 19.6427 16.1267 20.5405 14.4031L17.2175 8.86963L13.8945 14.4031Z" fill="#6DA544"/>
<path d="M20.8695 12.9854L17.2174 7.30432L13.5652 12.9855V13.0434C13.5652 13.5608 13.6905 14.0117 13.8944 14.4031L17.2174 9.23393L20.5403 14.403C20.7442 14.0116 20.8695 13.5608 20.8695 13.0434V12.9854Z" fill="#FFDA44"/>
</g>
</svg>
