<svg viewBox="0 0 24 24" fill="none" xmlns="http://www.w3.org/2000/svg">
<g clip-path="url(#clip0_37_6834)">
<path d="M12 24C18.6274 24 24 18.6274 24 12C24 5.37258 18.6274 0 12 0C5.37258 0 0 5.37258 0 12C0 18.6274 5.37258 24 12 24Z" fill="#F0F0F0"/>
<path d="M12 0V12L3.51465 20.4853C5.68623 22.6568 8.68623 24 12 24C18.6273 24 24 18.6274 24 12C24 5.37262 12 0 12 0Z" fill="#D80027"/>
<path d="M12 0C8.68623 0 5.68623 1.34316 3.51465 3.51469C6.45887 6.45891 7.50404 7.50412 12 12H24C24 5.37262 18.6273 0 12 0Z" fill="#0052B4"/>
<path d="M8.21723 11.9999L6.75173 11.3106L7.53215 9.89123L5.94074 10.1957L5.73909 8.58801L4.63059 9.77039L3.52213 8.58801L3.32043 10.1957L1.72907 9.89119L2.50949 11.3106L1.04395 11.9999L2.50949 12.6892L1.72907 14.1086L3.32057 13.8042L3.52209 15.4118L4.63059 14.2294L5.73909 15.4118L5.94074 13.8042L7.53205 14.1086L6.75168 12.6893L8.21723 11.9999Z" fill="#FFDA44"/>
<path d="M3.20082 4.69556L3.68851 5.37726L4.48749 5.12418L3.98977 5.79862L4.47746 6.48032L3.68218 6.21543L3.18451 6.88982L3.19074 6.0517L2.39551 5.78676L3.19463 5.53368L3.20082 4.69556Z" fill="#FFDA44"/>
<path d="M3.20082 17.11L3.68851 17.7917L4.48749 17.5386L3.98977 18.213L4.47746 18.8948L3.68218 18.6299L3.18451 19.3042L3.19074 18.4661L2.39551 18.2012L3.19463 17.9481L3.20082 17.11Z" fill="#FFDA44"/>
<path d="M10.1568 10.9028L9.66915 11.5845L8.87012 11.3314L9.36784 12.0058L8.88015 12.6876L9.67543 12.4227L10.1731 13.0971L10.1669 12.259L10.9621 11.994L10.163 11.741L10.1568 10.9028Z" fill="#FFDA44"/>
</g>
</svg>
