<svg viewBox="0 0 24 24" fill="none" xmlns="http://www.w3.org/2000/svg">
<g clip-path="url(#clip0_37_6865)">
<path d="M12 24C18.6274 24 24 18.6274 24 12C24 5.37258 18.6274 0 12 0C5.37258 0 0 5.37258 0 12C0 18.6274 5.37258 24 12 24Z" fill="#F0F0F0"/>
<path d="M11.9999 0C8.07405 0 4.58866 1.88545 2.39941 4.8H21.6004C19.4112 1.88545 15.9258 0 11.9999 0Z" fill="#D80027"/>
<path d="M11.9999 24C15.9258 24 19.4112 22.1145 21.6004 19.2H2.39941C4.58866 22.1145 8.07405 24 11.9999 24Z" fill="#D80027"/>
<path d="M0 12C0 12.8219 0.082875 13.6245 0.240328 14.4H23.7598C23.9172 13.6245 24 12.8219 24 12C24 11.178 23.9171 10.3754 23.7597 9.59998H0.240328C0.082875 10.3754 0 11.178 0 12H0Z" fill="#D80027"/>
<path d="M3.51471 3.51465C-1.17157 8.20093 -1.17157 15.7989 3.51471 20.4853C5.45126 18.5487 7.31374 16.6862 12 12L3.51471 3.51465Z" fill="#0052B4"/>
<path d="M4.8567 8.86951L5.63365 11.2609H8.14831L6.11403 12.7389L6.89094 15.1304L4.8567 13.6524L2.82237 15.1304L3.59947 12.7389L1.56519 11.2609H4.07965L4.8567 8.86951Z" fill="#F0F0F0"/>
</g>
</svg>
