<svg viewBox="0 0 24 24" fill="none" xmlns="http://www.w3.org/2000/svg">
<g clip-path="url(#clip0_37_6859)">
<path d="M0 11.9999C0 17.1595 3.2565 21.558 7.82602 23.2535L8.86955 11.9999L7.82602 0.746338C3.2565 2.4419 0 6.84037 0 11.9999Z" fill="#6DA544"/>
<path d="M23.9999 12C23.9999 5.37262 18.6273 0 11.9999 0C10.5321 0 9.12596 0.264047 7.82593 0.746391V23.2536C9.12596 23.736 10.5321 24 11.9999 24C18.6273 24 23.9999 18.6274 23.9999 12Z" fill="#D80027"/>
<path d="M7.82599 16.1738C10.1312 16.1738 11.9999 14.3051 11.9999 11.9999C11.9999 9.69476 10.1312 7.82605 7.82599 7.82605C5.52081 7.82605 3.6521 9.69476 3.6521 11.9999C3.6521 14.3051 5.52081 16.1738 7.82599 16.1738Z" fill="#FFDA44"/>
<path d="M5.47827 9.91309V12.5218C5.47827 13.8184 6.5294 14.8696 7.8261 14.8696C9.1228 14.8696 10.1739 13.8185 10.1739 12.5218V9.91309H5.47827Z" fill="#D80027"/>
<path d="M7.82657 13.3043C7.39504 13.3043 7.04395 12.9532 7.04395 12.5217V11.4783H8.60915V12.5218C8.60915 12.9532 8.25805 13.3043 7.82657 13.3043Z" fill="#F0F0F0"/>
</g>
</svg>
