<svg viewBox="0 0 24 24" fill="none" xmlns="http://www.w3.org/2000/svg">
<g clip-path="url(#clip0_37_6966)">
<path d="M12 24C18.6274 24 24 18.6274 24 12C24 5.37258 18.6274 0 12 0C5.37258 0 0 5.37258 0 12C0 18.6274 5.37258 24 12 24Z" fill="#6DA544"/>
<path d="M6.78223 14.3478C6.78223 15.2122 7.48301 15.913 8.34743 15.913H13.0431C13.0431 16.6334 13.6271 17.2173 14.3474 17.2173H15.9126C16.633 17.2173 17.217 16.6334 17.217 15.913V14.3478H6.78223Z" fill="#F0F0F0"/>
<path d="M17.3482 6.78259V10.4348C17.3482 11.0102 16.8801 11.4782 16.3047 11.4782V13.0435C17.7431 13.0435 18.9134 11.8732 18.9134 10.4348V6.78259H17.3482Z" fill="#F0F0F0"/>
<path d="M6.1304 10.4348C6.1304 11.0102 5.6623 11.4782 5.08691 11.4782V13.0435C6.52537 13.0435 7.6956 11.8732 7.6956 10.4348V6.78259H6.1304V10.4348Z" fill="#F0F0F0"/>
<path d="M15 6.78259H16.5652V10.4348H15V6.78259Z" fill="#F0F0F0"/>
<path d="M12.6524 8.86956C12.6524 9.01342 12.5354 9.13042 12.3915 9.13042C12.2477 9.13042 12.1307 9.01337 12.1307 8.86956V6.78259H10.5655V8.86956C10.5655 9.01342 10.4484 9.13042 10.3046 9.13042C10.1608 9.13042 10.0438 9.01337 10.0438 8.86956V6.78259H8.47852V8.86956C8.47852 9.87648 9.2977 10.6957 10.3046 10.6957C10.6924 10.6957 11.052 10.5738 11.3481 10.3668C11.6441 10.5737 12.0038 10.6957 12.3916 10.6957C12.4697 10.6957 12.5465 10.6902 12.622 10.6806C12.5111 11.1376 12.0995 11.4782 11.609 11.4782V13.0435C13.0474 13.0435 14.2177 11.8732 14.2177 10.4348V8.86956V6.78259H12.6525V8.86956H12.6524Z" fill="#F0F0F0"/>
<path d="M8.47852 11.4784H10.8263V13.0436H8.47852V11.4784Z" fill="#F0F0F0"/>
</g>
</svg>
