<svg viewBox="0 0 24 24" fill="none" xmlns="http://www.w3.org/2000/svg">
<g clip-path="url(#clip0_37_7008)">
<path d="M12 24C18.6274 24 24 18.6274 24 12C24 5.37258 18.6274 0 12 0C5.37258 0 0 5.37258 0 12C0 18.6274 5.37258 24 12 24Z" fill="#F0F0F0"/>
<path d="M0 12C0 5.37263 5.37262 0 12 0C18.6274 0 24 5.37263 24 12" fill="#D80027"/>
<path d="M7.30426 6.26077C7.30426 4.51242 8.533 3.05189 10.1738 2.69353C9.92162 2.6385 9.66001 2.60864 9.39119 2.60864C7.37411 2.60864 5.73901 4.24374 5.73901 6.26081C5.73901 8.27789 7.37411 9.91299 9.39119 9.91299C9.65992 9.91299 9.92158 9.88313 10.1738 9.82805C8.533 9.46969 7.30426 8.00916 7.30426 6.26077Z" fill="#F0F0F0"/>
<path d="M12.0002 2.86938L12.2593 3.66649H13.0974L12.4193 4.1592L12.6783 4.95631L12.0002 4.4637L11.3221 4.95631L11.5812 4.1592L10.9031 3.66649H11.7412L12.0002 2.86938Z" fill="#F0F0F0"/>
<path d="M9.96712 4.43481L10.2261 5.23197H11.0643L10.3862 5.72463L10.6452 6.52174L9.96712 6.02913L9.28894 6.52174L9.54801 5.72463L8.86987 5.23197H9.70805L9.96712 4.43481Z" fill="#F0F0F0"/>
<path d="M14.0334 4.43481L14.2925 5.23197H15.1306L14.4525 5.72463L14.7116 6.52174L14.0334 6.02913L13.3553 6.52174L13.6144 5.72463L12.9363 5.23197H13.7744L14.0334 4.43481Z" fill="#F0F0F0"/>
<path d="M13.2502 6.78247L13.5093 7.57963H14.3474L13.6693 8.07228L13.9283 8.86939L13.2502 8.37678L12.5721 8.86939L12.8312 8.07228L12.1531 7.57963H12.9912L13.2502 6.78247Z" fill="#F0F0F0"/>
<path d="M10.7493 6.78259L11.0083 7.57975H11.8465L11.1684 8.0724L11.4274 8.86951L10.7493 8.3769L10.0712 8.86951L10.3302 8.0724L9.6521 7.57975H10.4903L10.7493 6.78259Z" fill="#F0F0F0"/>
</g>
</svg>
