<svg xmlns="http://www.w3.org/2000/svg" fill="none" viewBox="0 0 24 24">
  <g clip-path="url(#a)">
    <g clip-path="url(#b)">
      <path fill="#EF2B2D" d="M4.296-.518H-1.48a3.852 3.852 0 0 0-3.852 3.851v5.778h9.63v-9.63Zm21.186 0H10.074v9.63h19.26v-5.78a3.852 3.852 0 0 0-3.852-3.851ZM4.296 24.519H-1.48a3.852 3.852 0 0 1-3.852-3.852v-5.778h9.63v9.63Zm21.186 0H10.074v-9.63h19.26v5.778a3.852 3.852 0 0 1-3.852 3.852Z"/>
      <path fill="#002868" d="M8.63-.518H5.795L5.77 10.556H-5.333v2.889H5.765L5.74 24.518h2.89V13.445h20.703v-2.89H8.63V-.517Z"/>
      <path fill="#EEE" d="M8.63 24.519h1.444v-9.63h19.26v-1.444H8.63v11.074ZM10.074-.518H8.63v11.074h20.703V9.11H10.074V-.52Zm-4.333 0H4.296v9.63h-9.63v1.444H5.742V-.518ZM-5.333 13.445v1.444h9.63v9.63H5.74V13.445H-5.333Z"/>
    </g>
  </g>
  <defs>
    <clipPath id="a">
      <rect fill="#fff" rx="12"/>
    </clipPath>
    <clipPath id="b">
      <path fill="#fff" d="M-5.333-1h34.667v26H-5.333z"/>
    </clipPath>
  </defs>
</svg>
