<svg viewBox="0 0 24 24" fill="none" xmlns="http://www.w3.org/2000/svg">
<g clip-path="url(#clip0_37_7056)">
<path d="M20.4856 20.4856C24.9861 15.9851 25.1638 8.79988 21.0206 4.08618L12 11.9999L4.08618 21.0206C8.79988 25.1638 15.9851 24.9861 20.4856 20.4856Z" fill="#496E2D"/>
<path d="M3.51438 3.5144C8.01488 -0.986107 15.2001 -1.16381 19.9138 2.97942L12 12.0001L2.97944 19.9138C-1.16383 15.2001 -0.986083 8.01491 3.51438 3.5144Z" fill="#0052B4"/>
<path d="M19.9136 2.97937L2.97925 19.9138C3.15044 20.1085 3.32818 20.2996 3.51423 20.4856C3.70023 20.6716 3.89134 20.8493 4.08615 21.0206L21.0204 4.08618C20.8492 3.89137 20.6714 3.70031 20.4854 3.51426C20.2995 3.32835 20.1084 3.15056 19.9136 2.97937Z" fill="#FFDA44"/>
<path d="M5.05594 4.17358L5.31502 4.97079H6.15319L5.4751 5.46339L5.73408 6.2606L5.05594 5.76789L4.3778 6.2606L4.63688 5.46339L3.95874 4.97079H4.79696L5.05594 4.17358Z" fill="#F0F0F0"/>
<path d="M9.33719 4.17358L9.59627 4.97079H10.4344L9.7563 5.46339L10.0153 6.2606L9.33719 5.76789L8.65905 6.2606L8.91813 5.46339L8.23999 4.97079H9.07816L9.33719 4.17358Z" fill="#F0F0F0"/>
<path d="M5.05594 8.34766L5.31502 9.14486H6.15319L5.4751 9.63751L5.73408 10.4347L5.05594 9.94201L4.3778 10.4347L4.63688 9.63751L3.95874 9.14486H4.79696L5.05594 8.34766Z" fill="#F0F0F0"/>
<path d="M9.33719 8.34766L9.59627 9.14486H10.4344L9.7563 9.63751L10.0153 10.4347L9.33719 9.94201L8.65905 10.4347L8.91813 9.63751L8.23999 9.14486H9.07816L9.33719 8.34766Z" fill="#F0F0F0"/>
<path d="M7.19661 6.26062L7.45569 7.05782H8.29381L7.61572 7.55048L7.87475 8.34768L7.19661 7.85498L6.51847 8.34768L6.7775 7.55048L6.09937 7.05782H6.93758L7.19661 6.26062Z" fill="#F0F0F0"/>
</g>
</svg>
