<svg viewBox="0 0 24 24" fill="none" xmlns="http://www.w3.org/2000/svg">
<g clip-path="url(#clip0_37_7004)">
<path d="M23.2536 16.1729C23.736 14.8729 24 13.4668 24 11.999C24 10.5311 23.736 9.12509 23.2536 7.8251L12 6.78162L0.746391 7.8251C0.264 9.12509 0 10.5311 0 11.999C0 13.4668 0.264 14.8729 0.746391 16.1729L12 17.2164L23.2536 16.1729Z" fill="#F0F0F0"/>
<path d="M11.9997 23.999C17.1593 23.999 21.5578 20.7425 23.2533 16.1729H0.746094C2.44166 20.7425 6.84012 23.999 11.9997 23.999Z" fill="#338AF3"/>
<path d="M11.9998 -0.000976562C6.84013 -0.000976562 2.44166 3.25552 0.746094 7.82513H23.2534C21.5578 3.25552 17.1593 -0.000976562 11.9998 -0.000976562Z" fill="#6DA544"/>
</g>
</svg>
