<svg viewBox="0 0 24 24" fill="none" xmlns="http://www.w3.org/2000/svg">
<g clip-path="url(#clip0_37_7109)">
<path d="M12 24C18.6274 24 24 18.6274 24 12C24 5.37258 18.6274 0 12 0C5.37258 0 0 5.37258 0 12C0 18.6274 5.37258 24 12 24Z" fill="#F0F0F0"/>
<path d="M23.0634 7.3478C21.2461 3.03103 16.9771 0 11.9995 0C8.68576 0 5.68609 1.34339 3.51465 3.51511L6.5198 7.3478H23.0634Z" fill="black"/>
<path d="M6.55388 16.6086L3.51465 20.4848C5.68609 22.6565 8.68576 23.9999 11.9995 23.9999C16.9939 23.9999 21.2751 20.9486 23.0819 16.6086H6.55388Z" fill="#496E2D"/>
<path d="M2.6084 8.82617V15.1305H23.5864C23.8555 14.1325 23.9997 13.0832 23.9997 12.0001C23.9997 10.9012 23.8517 9.83717 23.575 8.82617H2.6084Z" fill="#A2001D"/>
<path d="M3.51471 3.51465C-1.17157 8.20093 -1.17157 15.7989 3.51471 20.4853C5.45126 18.5487 7.31374 16.6862 12 12L3.51471 3.51465Z" fill="#0052B4"/>
<path d="M3.90865 9.01648L5.37326 11.0603L7.76988 10.2988L6.27874 12.3235L7.74335 14.3674L5.35704 13.5748L3.86585 15.5995L3.88226 13.0849L1.49585 12.2923L3.89229 11.5309L3.90865 9.01648Z" fill="#FFDA44"/>
</g>
</svg>
