<svg viewBox="0 0 24 24" fill="none" xmlns="http://www.w3.org/2000/svg">
<g clip-path="url(#clip0_37_7043)">
<path d="M12 24.001C18.6274 24.001 24 18.6284 24 12.001C24 5.37356 18.6274 0.000976562 12 0.000976562C5.37258 0.000976562 0 5.37356 0 12.001C0 18.6284 5.37258 24.001 12 24.001Z" fill="#F0F0F0"/>
<path d="M12 24.0009C18.6274 24.0009 24 18.6283 24 12.0009C24 10.5331 23.736 9.12696 23.2536 7.82703H0.746391C0.264047 9.12696 0 10.5331 0 12.0009C0 18.6283 5.37262 24.0009 12 24.0009Z" fill="#0052B4"/>
<path d="M11.9997 24.0009C17.1593 24.0009 21.5578 20.7444 23.2533 16.1748H0.746094C2.44161 20.7444 6.84012 24.0009 11.9997 24.0009Z" fill="#D80027"/>
<path d="M3.10352 6.78369V12.7699C3.10352 16.1751 7.552 17.2185 7.552 17.2185C7.552 17.2185 12.0004 16.1751 12.0004 12.7699V6.78369H3.10352Z" fill="#F0F0F0"/>
<path d="M4.14648 6.78357V12.7698C4.14648 13.1695 4.23527 13.5471 4.41114 13.901H10.6918C10.8677 13.5471 10.9564 13.1695 10.9564 12.7698V6.78357H4.14648Z" fill="#D80027"/>
<path d="M9.63873 10.9576H8.07358V9.91407H9.11706V8.87059H8.07358V7.82715H7.03009V8.87059H5.98666V9.91407H7.03009V10.9576H5.46484V12.001H7.03009V13.0445H8.07358V12.001H9.63873V10.9576Z" fill="#F0F0F0"/>
<path d="M5.83464 15.3577C6.50706 15.7802 7.19791 16.0256 7.55158 16.1347C7.90525 16.0256 8.5961 15.7802 9.26852 15.3577C9.94661 14.9315 10.422 14.4441 10.6919 13.901C10.3942 13.6904 10.0309 13.5662 9.63855 13.5662C9.49567 13.5662 9.35688 13.5831 9.22342 13.6142C8.94063 12.9716 8.29867 12.5227 7.55163 12.5227C6.80458 12.5227 6.16258 12.9716 5.87983 13.6142C5.74638 13.5831 5.60753 13.5662 5.46471 13.5662C5.07231 13.5662 4.70908 13.6904 4.41138 13.901C4.68114 14.444 5.1565 14.9314 5.83464 15.3577Z" fill="#0052B4"/>
</g>
</svg>
