<svg viewBox="0 0 24 24" fill="none" xmlns="http://www.w3.org/2000/svg">
<g clip-path="url(#clip0_37_7051)">
<path d="M12 24C18.6274 24 24 18.6274 24 12C24 5.37258 18.6274 0 12 0C5.37258 0 0 5.37258 0 12C0 18.6274 5.37258 24 12 24Z" fill="#F0F0F0"/>
<path d="M23.2536 7.82613H10.4348V4.69568H4.17389V7.82613H0.746391C0.264047 9.12607 0 10.5322 0 12C0 13.4679 0.264047 14.8739 0.746391 16.1739L12 17.2174L23.2536 16.1739C23.736 14.8739 24 13.4679 24 12C24 10.5322 23.736 9.12607 23.2536 7.82613Z" fill="#0052B4"/>
<path d="M11.9997 23.9999C17.1593 23.9999 21.5578 20.7434 23.2533 16.1738H0.746094C2.44161 20.7434 6.84012 23.9999 11.9997 23.9999Z" fill="#D80027"/>
<path d="M4.17383 7.82616V8.8696C4.17383 11.2659 7.30428 12.0001 7.30428 12.0001C7.30428 12.0001 10.4347 11.2659 10.4347 8.8696V7.82616L9.39125 8.86965L7.30428 7.30444L5.21731 8.86965L4.17383 7.82616Z" fill="#F0F0F0"/>
</g>
</svg>
