<svg viewBox="0 0 24 24" fill="none" xmlns="http://www.w3.org/2000/svg">
<g clip-path="url(#clip0_37_7177)">
<path d="M12 23.999C18.6274 23.999 24 18.6264 24 11.999C24 5.37161 18.6274 -0.000976562 12 -0.000976562C5.37258 -0.000976562 0 5.37161 0 11.999C0 18.6264 5.37258 23.999 12 23.999Z" fill="#FFDA44"/>
<path d="M9.39165 10.4338H23.8987C23.1317 4.54599 18.0972 -0.000976562 12.0003 -0.000976562C11.1043 -0.000976562 10.2316 0.0980703 9.3916 0.284258V10.4338H9.39165Z" fill="#0052B4"/>
<path d="M6.26084 10.4338V1.45813C2.96581 3.25597 0.607016 6.55368 0.101562 10.4338H6.26084V10.4338Z" fill="#0052B4"/>
<path d="M6.2608 13.5642H0.101562C0.607016 17.4444 2.96581 20.7421 6.26084 22.5399L6.2608 13.5642Z" fill="#0052B4"/>
<path d="M9.3916 13.5643V23.7138C10.2316 23.9 11.1043 23.999 12.0003 23.999C18.0972 23.999 23.1317 19.452 23.8987 13.5642H9.3916V13.5643Z" fill="#0052B4"/>
</g>
</svg>
