<svg viewBox="0 0 24 24" fill="none" xmlns="http://www.w3.org/2000/svg">
<g clip-path="url(#clip0_37_7162)">
<path d="M22.8093 17.2174C23.5721 15.6398 24 13.8698 24 12C24 10.1302 23.5721 8.36021 22.8093 6.78263L12 6.26086L1.19072 6.78258C0.427875 8.36021 0 10.1302 0 12C0 13.8698 0.427875 15.6398 1.19072 17.2174L12 17.7391L22.8093 17.2174Z" fill="#FFDA44"/>
<path d="M11.9997 0C7.24218 0 3.13143 2.76867 1.19043 6.78263H22.8089C20.868 2.76867 16.7572 0 11.9997 0Z" fill="black"/>
<path d="M11.9997 23.9999C7.24218 23.9999 3.13143 21.2312 1.19043 17.2173H22.8089C20.868 21.2312 16.7572 23.9999 11.9997 23.9999Z" fill="#0052B4"/>
<path d="M23.4333 8.34778H0.566672C0.199078 9.49945 0 10.7264 0 11.9999C0 13.2735 0.199078 14.5004 0.566672 15.6521H23.4333C23.8009 14.5004 24 13.2735 24 11.9999C24 10.7264 23.8009 9.49945 23.4333 8.34778Z" fill="#A2001D"/>
<path d="M4.17383 11.4783H19.826V12.5218H4.17383V11.4783Z" fill="#FFDA44"/>
<path d="M6.26074 9.39136H17.739V10.4348H6.26074V9.39136Z" fill="#FFDA44"/>
<path d="M17.8133 12.0001C17.8133 12.0001 15.13 15.1305 11.9996 15.1305C8.86919 15.1305 8.86914 12.0001 8.86914 12.0001C8.86914 12.0001 8.86914 8.86963 11.9996 8.86963C15.13 8.86963 17.8133 12.0001 17.8133 12.0001Z" fill="#F0F0F0"/>
<path d="M12 15.1304C8.8695 15.1304 6.18628 12 6.18628 12C6.18628 12 8.8695 8.86951 12 8.86951" fill="black"/>
<path d="M9.91309 10.9565H10.9566V13.0435H9.91309V10.9565Z" fill="#F0F0F0"/>
<path d="M13.0439 10.9565H14.0874V13.0435H13.0439V10.9565Z" fill="black"/>
<path d="M4.17434 13.0435C4.75064 13.0435 5.21783 12.5763 5.21783 12C5.21783 11.4237 4.75064 10.9565 4.17434 10.9565C3.59804 10.9565 3.13086 11.4237 3.13086 12C3.13086 12.5763 3.59804 13.0435 4.17434 13.0435Z" fill="#0052B4"/>
<path d="M19.8264 13.0435C20.4027 13.0435 20.8699 12.5763 20.8699 12C20.8699 11.4237 20.4027 10.9565 19.8264 10.9565C19.2501 10.9565 18.783 11.4237 18.783 12C18.783 12.5763 19.2501 13.0435 19.8264 13.0435Z" fill="#0052B4"/>
</g>
</svg>
