<svg viewBox="0 0 24 24" fill="none" xmlns="http://www.w3.org/2000/svg">
<g clip-path="url(#clip0_37_7033)">
<path d="M10.9565 13.0435C10.9565 13.0435 3.52168 3.51305 3.51465 3.51473C5.68618 1.34316 8.68623 0 12 0C18.6273 0 24 5.37262 24 12L10.9565 13.0435Z" fill="#D80027"/>
<path d="M10.9565 12C10.9565 12 3.52168 20.487 3.51465 20.4853C5.68618 22.6568 8.68623 24 12 24C18.6273 24 24 18.6274 24 12H10.9565Z" fill="#0052B4"/>
<path d="M3.51471 3.51465C-1.17157 8.20093 -1.17157 15.7989 3.51471 20.4853C5.45126 18.5487 7.31374 16.6862 12 12L3.51471 3.51465Z" fill="#F0F0F0"/>
<path d="M1.3157 12.0001C1.30914 12.0863 1.30469 12.1731 1.30469 12.2609C1.30469 14.1339 2.82306 15.6522 4.696 15.6522C6.56894 15.6522 8.08731 14.1339 8.08731 12.2609C8.08731 12.1731 8.08286 12.0862 8.0763 12.0001H1.3157Z" fill="#FFDA44"/>
<path d="M4.69607 10.4349C5.27237 10.4349 5.73956 9.96769 5.73956 9.39138C5.73956 8.81508 5.27237 8.3479 4.69607 8.3479C4.11977 8.3479 3.65259 8.81508 3.65259 9.39138C3.65259 9.96769 4.11977 10.4349 4.69607 10.4349Z" fill="#FFDA44"/>
<path d="M2.3479 9.13049V12.5218C2.3479 14.319 4.69573 14.8696 4.69573 14.8696C4.69573 14.8696 7.04356 14.319 7.04356 12.5218V9.13049H2.3479Z" fill="#D80027"/>
<path d="M4.69712 13.7774C4.26155 13.6207 3.3916 13.2201 3.3916 12.5217V10.1738H6.00034V12.5217C6.00034 13.2224 5.13048 13.622 4.69712 13.7774Z" fill="#338AF3"/>
<path d="M5.21743 11.4783V10.9565L4.69571 10.6957L4.17395 10.9565V11.4783L3.91309 11.7392V12.7826H5.47834V11.7392L5.21743 11.4783Z" fill="#F3F3F3"/>
</g>
</svg>
