<svg viewBox="0 0 24 24" fill="none" xmlns="http://www.w3.org/2000/svg">
<g clip-path="url(#clip0_37_7311)">
<path d="M24 12.001C24 18.6284 18.6274 24.001 12 24.001C5.37262 24.001 0 18.6284 0 12.001C0 12.0038 12 0.00228906 12 0.000976562C18.6274 0.000976562 24 5.3736 24 12.001Z" fill="#0052B4"/>
<path d="M11.9678 12.001H11.9999C11.9999 11.9902 11.9999 11.9797 11.9999 11.9689C11.9892 11.9796 11.9785 11.9903 11.9678 12.001Z" fill="#F0F0F0"/>
<path d="M12 6.26184C12 4.15035 12 2.76684 12 0.000976562H11.998C5.37145 0.00210156 0 5.37421 0 12.001H6.26086V8.47546L9.78638 12.001H11.9679C11.9786 11.9903 11.9893 11.9796 12 11.9689C12 11.1604 12 10.4391 12 9.78745L8.47444 6.26184H12Z" fill="#F0F0F0"/>
<path d="M6.071 1.56616C4.19417 2.63487 2.63384 4.19515 1.56519 6.07197V12.001H4.69564V4.69671V4.69662H12C12 3.70929 12 2.76869 12 1.56616H6.071Z" fill="#D80027"/>
<path d="M11.9996 10.5254L7.73612 6.26196H6.2605V6.26206L11.9995 12.0011H11.9996C11.9996 12.0011 11.9996 10.9835 11.9996 10.5254Z" fill="#D80027"/>
<path d="M13.5652 6.26184V12.0009C13.5652 14.7966 17.2174 15.6532 17.2174 15.6532C17.2174 15.6532 20.8695 14.7966 20.8695 12.0009V6.26184H13.5652Z" fill="#FFDA44"/>
<path d="M16.6954 8.3489C16.6954 8.92523 16.2282 10.4359 15.6519 10.4359C15.0756 10.4359 14.6084 8.92523 14.6084 8.3489C14.6084 7.77258 15.6519 7.30542 15.6519 7.30542C15.6519 7.30542 16.6954 7.77258 16.6954 8.3489Z" fill="#FF9811"/>
<path d="M19.4642 9.48539C19.6326 9.07453 19.7635 8.47397 19.7635 8.175C19.7635 7.69472 19.1374 7.30542 19.1374 7.30542C19.1374 7.30542 18.5113 7.69476 18.5113 8.175C18.5113 8.47397 18.6423 9.07453 18.8107 9.48539L18.4492 10.3015C18.6617 10.3878 18.8939 10.4358 19.1374 10.4358C19.3809 10.4358 19.6131 10.3878 19.8256 10.3015L19.4642 9.48539Z" fill="#A2001D"/>
<path d="M16.4348 12.001C16.4348 12.001 15.9131 13.0445 15.9131 14.0879H18.5218C18.5217 13.0445 18 12.001 18 12.001L17.2174 11.4792L16.4348 12.001Z" fill="#6DA544"/>
<path d="M18.0001 12.001V11.7401C18.0001 11.308 17.6497 10.9575 17.2174 10.9575C16.7853 10.9575 16.4348 11.3079 16.4348 11.7401V12.001H18.0001Z" fill="#D80027"/>
</g>
</svg>
