<svg viewBox="0 0 24 24" fill="none" xmlns="http://www.w3.org/2000/svg">
<g clip-path="url(#clip0_37_5846)">
<path d="M12.0003 0.000976562C10.5325 0.000976562 9.12639 0.265023 7.82645 0.747367L7.30469 12.001L7.82641 23.2546C9.12639 23.737 10.5325 24.001 12.0003 24.001C13.4682 24.001 14.8743 23.737 16.1742 23.2546L16.696 12.001L16.1743 0.747367C14.8743 0.265023 13.4682 0.000976563 12.0003 0.000976563V0.000976562Z" fill="#FFDA44"/>
<path d="M23.9999 12.001C23.9999 6.84141 20.7434 2.44289 16.1738 0.747375V23.2546C20.7434 21.5591 23.9999 17.1606 23.9999 12.001Z" fill="#D80027"/>
<path d="M7.82611 23.2546V0.747375C3.2565 2.44289 0 6.84141 0 12.001C0 17.1606 3.2565 21.5591 7.82611 23.2546Z" fill="#0052B4"/>
</g>
</svg>
