<svg viewBox="0 0 24 24" fill="none" xmlns="http://www.w3.org/2000/svg">
<g clip-path="url(#clip0_37_7218)">
<path d="M12 24.001C18.6274 24.001 24 18.6284 24 12.001C24 5.37356 18.6274 0.000976562 12 0.000976562C5.37258 0.000976562 0 5.37356 0 12.001C0 18.6284 5.37258 24.001 12 24.001Z" fill="#F0F0F0"/>
<path d="M23.2536 7.82703H0.746391C0.264 9.12701 0 10.5331 0 12.0009C0 13.4688 0.264 14.8748 0.746391 16.1748H23.2537C23.736 14.8748 24 13.4688 24 12.0009C24 10.5331 23.736 9.12701 23.2536 7.82703Z" fill="#0052B4"/>
<path d="M11.9999 0.000976562C8.36285 0.000976562 5.10396 1.61929 2.90332 4.17487H21.0965C18.8959 1.61929 15.637 0.000976562 11.9999 0.000976562Z" fill="#D80027"/>
<path d="M21.0965 19.827H2.90332C5.10396 22.3826 8.36285 24.0009 11.9999 24.0009C15.637 24.0009 18.8959 22.3826 21.0965 19.827Z" fill="#D80027"/>
</g>
</svg>
