<svg viewBox="0 0 24 24" fill="none" xmlns="http://www.w3.org/2000/svg">
<g clip-path="url(#clip0_37_7200)">
<path d="M1.19072 7.36367C0.427875 8.9413 0 10.7112 0 12.581C0 14.4509 0.427875 16.2208 1.19072 17.7984L12 18.8419L22.8093 17.7984C23.5721 16.2208 24 14.4509 24 12.581C24 10.7112 23.5721 8.9413 22.8093 7.36367L12 6.32019L1.19072 7.36367Z" fill="#F0F0F0"/>
<path d="M1.19141 17.7983C3.13236 21.8122 7.24278 24.581 12.0003 24.581C16.7577 24.581 20.8682 21.8122 22.8091 17.7983H1.19141Z" fill="#6DA544"/>
<path d="M1.19141 7.36368H22.8091C20.8682 3.34977 16.7577 0.581055 12.0003 0.581055C7.24278 0.581055 3.13236 3.34977 1.19141 7.36368Z" fill="#D80027"/>
<path d="M9.91309 15.7115H14.087V13.9376L13.2522 14.355L12.0001 13.1028L10.7479 14.355L9.91309 13.9376V15.7115Z" fill="#FFDA44"/>
<path d="M7.52504 13.6245L7.71934 14.2224H8.34793L7.83934 14.5919L8.03363 15.1897L7.52504 14.8202L7.01645 15.1897L7.21074 14.5919L6.70215 14.2224H7.33074L7.52504 13.6245Z" fill="#FFDA44"/>
<path d="M8.12733 11.5376L8.32163 12.1354H8.95022L8.44163 12.505L8.63588 13.1028L8.12733 12.7333L7.61874 13.1028L7.81304 12.505L7.30444 12.1354H7.93304L8.12733 11.5376Z" fill="#FFDA44"/>
<path d="M9.84926 9.97241L10.0436 10.5703H10.6721L10.1636 10.9398L10.3578 11.5376L9.84926 11.1681L9.34071 11.5376L9.53496 10.9398L9.02637 10.5703H9.65501L9.84926 9.97241Z" fill="#FFDA44"/>
<path d="M16.4752 13.6245L16.2809 14.2224H15.6523L16.1609 14.5919L15.9666 15.1897L16.4752 14.8202L16.9838 15.1897L16.7895 14.5919L17.2981 14.2224H16.6695L16.4752 13.6245Z" fill="#FFDA44"/>
<path d="M15.8729 11.5376L15.6786 12.1354H15.05L15.5586 12.505L15.3643 13.1028L15.8729 12.7333L16.3815 13.1028L16.1872 12.505L16.6958 12.1354H16.0672L15.8729 11.5376Z" fill="#FFDA44"/>
<path d="M14.151 9.97241L13.9567 10.5703H13.3281L13.8366 10.9398L13.6424 11.5376L14.151 11.1681L14.6595 11.5376L14.4653 10.9398L14.9738 10.5703H14.3452L14.151 9.97241Z" fill="#FFDA44"/>
<path d="M11.9996 9.1897L12.1939 9.78754H12.8225L12.3139 10.1571L12.5082 10.7549L11.9996 10.3854L11.4911 10.7549L11.6854 10.1571L11.1768 9.78754H11.8054L11.9996 9.1897Z" fill="#FFDA44"/>
</g>
</svg>
