<svg viewBox="0 0 24 24" fill="none" xmlns="http://www.w3.org/2000/svg">
<g clip-path="url(#clip0_37_7283)">
<path d="M11.9995 0C11.1035 0 10.2308 0.0990469 9.39086 0.285234L8.86914 12L9.39086 23.7147C10.2308 23.9009 11.1036 24 11.9995 24C18.6269 24 23.9995 18.6274 23.9995 12C23.9995 5.37258 18.6269 0 11.9995 0V0Z" fill="#496E2D"/>
<path d="M3.13041 3.91736C1.18584 6.04998 0 8.88639 0 11.9999C0 15.1135 1.18589 17.9499 3.13045 20.0826L3.65217 11.9999L3.13041 3.91736Z" fill="#496E2D"/>
<path d="M17.5514 9.05156C18.1418 7.40596 17.4785 5.61623 16.0551 4.72485C16.3111 4.75818 16.5674 4.81846 16.8204 4.90917C18.7189 5.59035 19.7058 7.68154 19.0247 9.58007C18.3435 11.4787 16.2523 12.4656 14.3537 11.7844C14.1007 11.6936 13.8645 11.5771 13.6458 11.4401C15.3112 11.657 16.961 10.6972 17.5514 9.05156Z" fill="#F0F0F0"/>
<path d="M14.2769 4.27368L13.7638 4.93659L12.9749 4.65351L13.4468 5.34623L12.9338 6.00904L13.7384 5.77438L14.2104 6.46701L14.2357 5.62926L15.0404 5.39456L14.2515 5.11157L14.2769 4.27368Z" fill="#F0F0F0"/>
<path d="M15.6617 6.43359L15.1486 7.09645L14.3597 6.81338L14.8316 7.50609L14.3186 8.16891L15.1232 7.93416L15.5952 8.62692L15.6206 7.78912L16.4252 7.55438L15.6363 7.27134L15.6617 6.43359Z" fill="#F0F0F0"/>
<path d="M11.8345 5.0603L11.3214 5.72312L10.5326 5.44013L11.0045 6.1328L10.4915 6.79566L11.296 6.56096L11.768 7.25363L11.7934 6.41588L12.598 6.18118L11.8091 5.8981L11.8345 5.0603Z" fill="#F0F0F0"/>
<path d="M11.7779 7.53455L11.2649 8.19741L10.476 7.91437L10.9479 8.60709L10.4348 9.26991L11.2395 9.03525L11.7114 9.72787L11.7368 8.89012L12.5414 8.65542L11.7525 8.37234L11.7779 7.53455Z" fill="#F0F0F0"/>
<path d="M14.1321 8.37927L13.6191 9.04208L12.8302 8.75905L13.3022 9.45177L12.7891 10.1145L13.5938 9.87988L14.0657 10.5726L14.091 9.73476L14.8957 9.5001L14.1067 9.21707L14.1321 8.37927Z" fill="#F0F0F0"/>
<path d="M3.13086 3.91731V20.0825C4.76586 21.8756 6.93758 23.1706 9.39172 23.7146V0.285156C6.93753 0.829188 4.76591 2.12411 3.13086 3.91731Z" fill="#D80027"/>
<path d="M5.51961 6.3181L4.47144 5.53725V4.43302L5.51961 3.65222H7.00203L8.0502 4.43302V5.53725L7.00203 6.3181H5.51961Z" fill="#F0F0F0"/>
<path d="M6.26084 3.65222H5.51961L4.47144 4.43302V4.97288H6.26084V3.65222Z" fill="#FF9811"/>
<path d="M6.2605 6.31814H7.00169L8.04986 5.5373V4.974H6.2605V6.31814Z" fill="#FF9811"/>
<path d="M5.51961 20.3478L4.47144 19.5669V18.4627L5.51961 17.6819H7.00203L8.0502 18.4627V19.5669L7.00203 20.3478H5.51961Z" fill="#F0F0F0"/>
<path d="M6.26084 17.6819H5.51961L4.47144 18.4627V19.0026H6.26084V17.6819Z" fill="#FF9811"/>
<path d="M6.2605 20.3478H7.00169L8.04986 19.5669V19.0037H6.2605V20.3478Z" fill="#FF9811"/>
<path d="M5.51985 13.3329L4.47168 12.552V11.4478L5.51985 10.667H7.00227L8.05045 11.4478V12.552L7.00227 13.3329H5.51985Z" fill="#496E2D"/>
<path d="M8.0867 15.0509H7.63013V14.5944H6.82787L6.26059 14.0271L5.69335 14.5944H4.89109V15.0509H4.43457V15.9639H4.89109V16.4204H5.6933L6.26063 16.9878L6.82787 16.4204H7.63013V15.9639H8.0867V15.0509Z" fill="#496E2D"/>
<path d="M8.0867 8.03605H7.63013V7.57949H6.82787L6.26059 7.01221L5.69335 7.57949H4.89109V8.03605H4.43457V8.94908H4.89109V9.4056H5.6933L6.26063 9.97297L6.82787 9.4056H7.63013V8.94908H8.0867V8.03605Z" fill="#496E2D"/>
<path d="M5.73901 11.4781H6.7825V12.5216H5.73901V11.4781Z" fill="#D80027"/>
<path d="M6.26073 9.01402C6.54887 9.01402 6.78245 8.78044 6.78245 8.4923C6.78245 8.20416 6.54887 7.97058 6.26073 7.97058C5.97259 7.97058 5.73901 8.20416 5.73901 8.4923C5.73901 8.78044 5.97259 9.01402 6.26073 9.01402Z" fill="#D80027"/>
<path d="M6.26073 16.0293C6.54887 16.0293 6.78245 15.7957 6.78245 15.5076C6.78245 15.2194 6.54887 14.9858 6.26073 14.9858C5.97259 14.9858 5.73901 15.2194 5.73901 15.5076C5.73901 15.7957 5.97259 16.0293 6.26073 16.0293Z" fill="#D80027"/>
</g>
</svg>
