<svg viewBox="0 0 24 24" fill="none" xmlns="http://www.w3.org/2000/svg">
<g clip-path="url(#clip0_37_6027)">
<path d="M12 24.001C18.6274 24.001 24 18.6284 24 12.001C24 5.37356 18.6274 0.000976562 12 0.000976562C5.37258 0.000976562 0 5.37356 0 12.001C0 18.6284 5.37258 24.001 12 24.001Z" fill="#FFDA44"/>
<path d="M12.0001 0.000976562C9.06209 0.000976562 6.37119 1.0574 4.28516 2.81038L17.2175 12.001L4.28516 21.1916C6.37119 22.9446 9.06209 24.001 12.0001 24.001C18.6275 24.001 24.0001 18.6284 24.0001 12.001C24.0001 5.3736 18.6275 0.000976562 12.0001 0.000976562Z" fill="#D80027"/>
<path d="M3.51471 3.51562C-1.17157 8.20191 -1.17157 15.7999 3.51471 20.4862C5.45126 18.5497 7.31374 16.6872 12 12.0009L3.51471 3.51562Z" fill="black"/>
<path d="M3.32757 9.25195L5.15382 10.9803L7.36201 9.77733L6.28271 12.0484L8.10901 13.7768L5.61554 13.4521L4.5361 15.7231L4.07452 13.2513L1.58105 12.9265L3.78915 11.7236L3.32757 9.25195Z" fill="#F0F0F0"/>
</g>
</svg>
