<svg viewBox="0 0 24 24" fill="none" xmlns="http://www.w3.org/2000/svg">
<g clip-path="url(#clip0_37_7256)">
<path d="M12 23.999C18.6274 23.999 24 18.6264 24 11.999C24 5.37161 18.6274 -0.000976562 12 -0.000976562C5.37258 -0.000976562 0 5.37161 0 11.999C0 18.6264 5.37258 23.999 12 23.999Z" fill="#F0F0F0"/>
<path d="M7.82577 6.25978V4.69458H6.26052V6.25978H4.69531V7.82503H6.26052V9.39024H7.82577V7.82503H9.39097V6.25978H7.82577Z" fill="#D80027"/>
<path d="M12 -0.000976562V11.999C5.37262 11.9991 2.73867 11.999 0 11.9991C0 18.6264 5.37262 23.999 12 23.999C18.6274 23.999 24 18.6264 24 11.999C24 5.37165 18.6274 -0.000976562 12 -0.000976562Z" fill="#D80027"/>
</g>
</svg>
