<svg viewBox="0 0 24 24" fill="none" xmlns="http://www.w3.org/2000/svg">
<g clip-path="url(#clip0_37_7266)">
<path d="M6.49714 1.33252C5.42286 1.887 4.41444 2.6138 3.51388 3.51436C2.61327 4.41497 1.88647 5.42339 1.33203 6.49768L9.04798 14.9515L17.5018 22.6675C18.5762 22.113 19.5846 21.3862 20.4852 20.4857C21.3858 19.5851 22.1125 18.5767 22.667 17.5024L14.951 9.04847L6.49714 1.33252Z" fill="#F0F0F0"/>
<path d="M20.4856 20.4856C20.989 19.9822 21.438 19.4451 21.8332 18.8817L5.11828 2.16675C4.55489 2.56195 4.01775 3.01092 3.51436 3.51431C3.01097 4.0177 2.562 4.55484 2.16675 5.11828L18.8817 21.8332C19.445 21.4379 19.9822 20.989 20.4856 20.4856Z" fill="black"/>
<path d="M3.51431 20.4856C7.30026 24.2715 12.9861 24.9983 17.5023 22.6674L1.33251 6.49756C-0.998347 11.0138 -0.271457 16.6996 3.51431 20.4856Z" fill="#D80027"/>
<path d="M20.486 3.51437C16.7001 -0.271537 11.0143 -0.998287 6.49805 1.33248L22.6678 17.5024C24.9987 12.9862 24.272 7.30027 20.486 3.51437Z" fill="#D80027"/>
</g>
</svg>
