<svg viewBox="0 0 24 24" fill="none" xmlns="http://www.w3.org/2000/svg">
<g clip-path="url(#clip0_37_7272)">
<path d="M12 23.999C18.6274 23.999 24 18.6264 24 11.999C24 5.37161 18.6274 -0.000976562 12 -0.000976562C5.37258 -0.000976562 0 5.37161 0 11.999C0 18.6264 5.37258 23.999 12 23.999Z" fill="#D80027"/>
<path d="M11.9999 17.7382C15.1695 17.7382 17.739 15.1687 17.739 11.999C17.739 8.82939 15.1695 6.25989 11.9999 6.25989C8.83024 6.25989 6.26074 8.82939 6.26074 11.999C6.26074 15.1687 8.83024 17.7382 11.9999 17.7382Z" fill="#F0F0F0"/>
<path d="M12.7072 9.80457L13.6918 11.1614L15.2863 10.6443L14.3002 12L15.2847 13.3567L13.6906 12.8377L12.7045 14.1933L12.7056 12.517L11.1116 11.998L12.7062 11.481L12.7072 9.80457Z" fill="#D80027"/>
<path d="M13.3044 15.3903C11.4315 15.3903 9.91309 13.8719 9.91309 11.999C9.91309 10.1261 11.4315 8.6077 13.3044 8.6077C13.8884 8.6077 14.4379 8.75536 14.9176 9.01532C14.165 8.27934 13.1359 7.82507 12.0001 7.82507C9.69494 7.82507 7.82617 9.69379 7.82617 11.999C7.82617 14.3041 9.69494 16.1729 12.0001 16.1729C13.1359 16.1729 14.1651 15.7186 14.9176 14.9826C14.4379 15.2427 13.8884 15.3903 13.3044 15.3903Z" fill="#D80027"/>
</g>
</svg>
