<svg viewBox="0 0 24 24" fill="none" xmlns="http://www.w3.org/2000/svg">
<g clip-path="url(#clip0_37_7278)">
<path d="M12 24.5811C18.6274 24.5811 24 19.2085 24 12.5811C24 5.95364 18.6274 0.581055 12 0.581055C5.37258 0.581055 0 5.95364 0 12.5811C0 19.2085 5.37258 24.5811 12 24.5811Z" fill="#D80027"/>
<path d="M11.5087 10.3867L12.4933 11.7435L14.0879 11.2265L13.1017 12.5821L14.0862 13.9389L12.4922 13.4199L11.5061 14.7755L11.5071 13.0992L9.91309 12.5802L11.5077 12.0632L11.5087 10.3867Z" fill="#F0F0F0"/>
<path d="M8.82198 15.9725C6.94905 15.9725 5.43067 14.4541 5.43067 12.5812C5.43067 10.7082 6.94905 9.18985 8.82198 9.18985C9.40595 9.18985 9.95542 9.33756 10.4351 9.59748C9.68256 8.86145 8.65333 8.40723 7.51764 8.40723C5.21242 8.40723 3.34375 10.2759 3.34375 12.5811C3.34375 14.8863 5.21247 16.755 7.51764 16.755C8.65342 16.755 9.68261 16.3007 10.4351 15.5648C9.95542 15.8248 9.40595 15.9725 8.82198 15.9725Z" fill="#F0F0F0"/>
</g>
</svg>
