<svg viewBox="0 0 24 24" fill="none" xmlns="http://www.w3.org/2000/svg">
<g clip-path="url(#clip0_37_7325)">
<path d="M24 12C24 18.6274 18.6274 24 12 24C5.37263 24 0 18.6274 0 12C0 12.0029 12 0.0013125 12 0C18.6274 0 24 5.37262 24 12Z" fill="#338AF3"/>
<path d="M5.73926 11.9999H9.78654L6.26098 7.82605L5.73926 9.39125V11.9999Z" fill="#0052B4"/>
<path d="M12.0001 9.78646L7.82617 5.73914H12.0001L12.0001 9.78646Z" fill="#0052B4"/>
<path d="M11.9678 12H11.9999C11.9999 11.9892 11.9999 11.9787 11.9999 11.9679C11.9892 11.9786 11.9785 11.9893 11.9678 12Z" fill="#F0F0F0"/>
<path d="M12 6.26086C12 4.14937 12 2.76581 12 0H11.998C5.3715 0.001125 0 5.37323 0 12H6.26091V8.47448L9.78642 12H11.968C11.9787 11.9893 11.9894 11.9786 12.0001 11.9679C12.0001 11.1594 12.0001 10.4381 12.0001 9.78647L8.47444 6.26086H12Z" fill="#F0F0F0"/>
<path d="M6.071 1.56519C4.19417 2.63389 2.63389 4.19417 1.56519 6.071V12H4.69564V4.69573V4.69564H12C12 3.70831 12 2.76772 12 1.56519H6.071Z" fill="#D80027"/>
<path d="M11.9996 10.5244L7.73612 6.26099H6.2605V6.26108L11.9995 12.0001H11.9996C11.9996 12.0001 11.9996 10.9826 11.9996 10.5244Z" fill="#D80027"/>
<path d="M13.0972 19.826L13.3562 20.6232H14.1944L13.5163 21.1159L13.7753 21.913L13.0972 21.4204L12.4191 21.913L12.6781 21.1159L12 20.6232H12.8381L13.0972 19.826Z" fill="#FFDA44"/>
<path d="M19.772 14.6088L20.031 15.4059H20.8692L20.1911 15.8986L20.4502 16.6957L19.772 16.2031L19.094 16.6957L19.353 15.8986L18.6748 15.4059H19.513L19.772 14.6088Z" fill="#FFDA44"/>
<path d="M21.4451 6.78259L21.7041 7.57975H22.5423L21.8642 8.07241L22.1232 8.86951L21.4451 8.3769L20.767 8.86951L21.026 8.07241L20.3479 7.57975H21.1861L21.4451 6.78259Z" fill="#FFDA44"/>
<path d="M21.8589 12.5216L22.1179 13.3188H22.9561L22.278 13.8115L22.5371 14.6086L21.8589 14.116L21.1809 14.6086L21.4399 13.8115L20.7617 13.3188H21.5999L21.8589 12.5216Z" fill="#FFDA44"/>
<path d="M14.299 17.9512L15.0459 18.3318L15.6386 17.7391L15.5075 18.5669L16.2543 18.9474L15.4264 19.0786L15.2953 19.9064L14.9148 19.1596L14.0869 19.2908L14.6796 18.6982L14.299 17.9512Z" fill="#FFDA44"/>
<path d="M14.299 14.8208L15.0459 15.2013L15.6386 14.6086L15.5075 15.4365L16.2543 15.8169L15.4264 15.9481L15.2953 16.776L14.9148 16.0291L14.0869 16.1603L14.6796 15.5677L14.299 14.8208Z" fill="#FFDA44"/>
<path d="M16.9074 16.8274L17.6543 17.208L18.247 16.6154L18.1159 17.4431L18.8627 17.8237L18.0348 17.9548L17.9037 18.7827L17.5232 18.0358L16.6953 18.167L17.288 17.5744L16.9074 16.8274Z" fill="#FFDA44"/>
<path d="M16.9074 10.1251L17.6543 10.5056L18.247 9.91296L18.1159 10.7408L18.8627 11.1213L18.0348 11.2524L17.9037 12.0803L17.5232 11.3335L16.6953 11.4646L17.288 10.872L16.9074 10.1251Z" fill="#FFDA44"/>
<path d="M19.4357 10.0448L20.1826 10.4253L20.7753 9.83264L20.6442 10.6605L21.391 11.0409L20.5631 11.1721L20.432 12L20.0515 11.2531L19.2236 11.3843L19.8163 10.7917L19.4357 10.0448Z" fill="#FFDA44"/>
</g>
</svg>
