<svg viewBox="0 0 24 24" fill="none" xmlns="http://www.w3.org/2000/svg">
<g clip-path="url(#clip0_37_7194)">
<path d="M24 11.999C24 18.6264 18.6274 23.999 12 23.999C5.37262 23.999 0 18.6264 0 11.999C4.12172 7.8773 7.61737 4.38165 12 -0.000976562C18.6274 -0.000976562 24 5.37165 24 11.999Z" fill="#D80027"/>
<path d="M12 11.999C12 5.37165 12 4.59034 12 -0.000976562C5.37262 -0.000976562 0 5.37165 0 11.999H12Z" fill="#0052B4"/>
<path d="M10.4348 7.02183L8.96921 7.71127L9.74958 9.13059L8.15822 8.82609L7.95652 10.4338L6.84811 9.25139L5.73961 10.4338L5.53801 8.82609L3.9466 9.1305L4.72697 7.71117L3.26147 7.02183L4.72702 6.33253L3.9466 4.91316L5.53796 5.21761L5.73966 3.60999L6.84811 4.79236L7.95657 3.60999L8.15822 5.21761L9.74963 4.91316L8.96921 6.33258L10.4348 7.02183Z" fill="#F0F0F0"/>
<path d="M6.84799 9.25531C8.08165 9.25531 9.08173 8.25523 9.08173 7.02158C9.08173 5.78792 8.08165 4.78784 6.84799 4.78784C5.61434 4.78784 4.61426 5.78792 4.61426 7.02158C4.61426 8.25523 5.61434 9.25531 6.84799 9.25531Z" fill="#0052B4"/>
<path d="M6.84841 8.21204C6.19211 8.21204 5.6582 7.67809 5.6582 7.02179C5.6582 6.3655 6.19216 5.83154 6.84841 5.83154C7.5047 5.83154 8.03866 6.3655 8.03866 7.02179C8.03861 7.67809 7.50461 8.21204 6.84841 8.21204Z" fill="#F0F0F0"/>
</g>
</svg>
