<svg viewBox="0 0 24 24" fill="none" xmlns="http://www.w3.org/2000/svg">
<g clip-path="url(#clip0_37_7393)">
<path d="M12 24.5811C18.6274 24.5811 24 19.2085 24 12.5811C24 5.95364 18.6274 0.581055 12 0.581055C5.37258 0.581055 0 5.95364 0 12.5811C0 19.2085 5.37258 24.5811 12 24.5811Z" fill="#F0F0F0"/>
<path d="M12 9.45064H23.5866C23.2857 8.33436 22.8284 7.28244 22.2387 6.32019H12V9.45064Z" fill="#338AF3"/>
<path d="M4.53058 21.9724H19.4702C20.5654 21.1001 21.5046 20.0407 22.2391 18.8419H1.76172C2.4963 20.0406 3.43548 21.1001 4.53058 21.9724Z" fill="#338AF3"/>
<path d="M12 0.581055V3.18974H19.4699C17.42 1.55718 14.8242 0.581055 12 0.581055Z" fill="#338AF3"/>
<path d="M12 9.45064H23.5866C23.2857 8.33436 22.8284 7.28244 22.2387 6.32019H12V9.45064Z" fill="#338AF3"/>
<path d="M0 12.5811C0 13.6642 0.144375 14.7134 0.413391 15.7115H23.5867C23.8556 14.7134 24 13.6642 24 12.5811H0Z" fill="#338AF3"/>
<path d="M10.4348 7.60386L8.96916 8.29325L9.74958 9.71263L8.15818 9.40822L7.95652 11.0158L6.84811 9.83342L5.73961 11.0158L5.53801 9.40822L3.9466 9.71253L4.72697 8.2932L3.26147 7.60386L4.72702 6.91456L3.9466 5.49519L5.53796 5.79959L5.73966 4.19202L6.84811 5.37439L7.95657 4.19202L8.15818 5.79959L9.74963 5.49519L8.96921 6.91461L10.4348 7.60386Z" fill="#FFDA44"/>
</g>
</svg>
