<svg viewBox="0 0 24 24" fill="none" xmlns="http://www.w3.org/2000/svg">
<g clip-path="url(#clip0_37_7385)">
<path d="M12 23.999C18.6274 23.999 24 18.6264 24 11.999C24 5.37161 18.6274 -0.000976562 12 -0.000976562C5.37258 -0.000976562 0 5.37161 0 11.999C0 18.6264 5.37258 23.999 12 23.999Z" fill="#F0F0F0"/>
<path d="M11.4775 11.9989H23.9993C23.9993 10.9158 23.8549 9.86652 23.5859 8.86841H11.4775V11.9989Z" fill="#D80027"/>
<path d="M11.4775 5.73812H22.238C21.5034 4.53943 20.5642 3.47992 19.4691 2.60767H11.4775V5.73812Z" fill="#D80027"/>
<path d="M12.0001 23.9991C14.8243 23.9991 17.4201 23.0229 19.4699 21.3904H4.53027C6.58012 23.0229 9.17591 23.9991 12.0001 23.9991Z" fill="#D80027"/>
<path d="M1.76098 18.2598H22.2384C22.8281 17.2976 23.2855 16.2457 23.5863 15.1294H0.413086C0.713883 16.2457 1.17124 17.2976 1.76098 18.2598Z" fill="#D80027"/>
<path d="M5.55863 1.87299H6.65217L5.63498 2.61198L6.02353 3.80771L5.00639 3.06873L3.98925 3.80771L4.32487 2.77473C3.42928 3.52074 2.64431 4.39477 1.99744 5.36865H2.34783L1.70034 5.83904C1.59947 6.00732 1.50272 6.17827 1.41 6.35176L1.71919 7.30337L1.14234 6.88426C0.998953 7.18805 0.867797 7.49869 0.749906 7.8158L1.09055 8.86431H2.34783L1.33064 9.60329L1.71919 10.799L0.702047 10.06L0.0927656 10.5027C0.0317812 10.9929 0 11.4923 0 11.999H12C12 5.37165 12 4.59034 12 -0.000976562C9.62944 -0.000976562 7.41961 0.68668 5.55863 1.87299ZM6.02353 10.799L5.00639 10.06L3.98925 10.799L4.3778 9.60329L3.36061 8.86431H4.61789L5.00639 7.66857L5.39489 8.86431H6.65217L5.63498 9.60329L6.02353 10.799ZM5.63498 6.10763L6.02353 7.30337L5.00639 6.56438L3.98925 7.30337L4.3778 6.10763L3.36061 5.36865H4.61789L5.00639 4.17291L5.39489 5.36865H6.65217L5.63498 6.10763ZM10.3279 10.799L9.31073 10.06L8.29359 10.799L8.68214 9.60329L7.66495 8.86431H8.92223L9.31073 7.66857L9.69923 8.86431H10.9565L9.93933 9.60329L10.3279 10.799ZM9.93933 6.10763L10.3279 7.30337L9.31073 6.56438L8.29359 7.30337L8.68214 6.10763L7.66495 5.36865H8.92223L9.31073 4.17291L9.69923 5.36865H10.9565L9.93933 6.10763ZM9.93933 2.61198L10.3279 3.80771L9.31073 3.06873L8.29359 3.80771L8.68214 2.61198L7.66495 1.87299H8.92223L9.31073 0.677258L9.69923 1.87299H10.9565L9.93933 2.61198Z" fill="#0052B4"/>
</g>
</svg>
