<svg viewBox="0 0 24 24" fill="none" xmlns="http://www.w3.org/2000/svg">
<g clip-path="url(#clip0_37_7142)">
<path d="M17.7395 1.46005C16.0346 0.529867 14.0793 0.000976562 12.0004 0.000976562C9.92149 0.000976562 7.96615 0.529867 6.26126 1.46005L5.21777 12.001L6.26126 22.5419C7.96615 23.4721 9.92149 24.001 12.0004 24.001C14.0793 24.001 16.0346 23.4721 17.7395 22.5419L18.783 12.001L17.7395 1.46005Z" fill="#FFDA44"/>
<path d="M6.26086 22.5418V1.45996C2.53073 3.49527 0 7.45241 0 12.0009C0 16.5494 2.53073 20.5066 6.26086 22.5418Z" fill="#338AF3"/>
<path d="M24.0001 12.0009C24.0001 7.45241 21.4694 3.49527 17.7393 1.45996V22.5418C21.4694 20.5066 24.0001 16.5494 24.0001 12.0009Z" fill="#6DA544"/>
<path d="M9.3917 15.1314L7.30469 12.0009L9.39166 8.87048L11.4787 12.0009L9.3917 15.1314Z" fill="#6DA544"/>
<path d="M14.6094 15.1313L12.5225 12.0008L14.6094 8.87036L16.6964 12.0008L14.6094 15.1313Z" fill="#6DA544"/>
<path d="M12.0001 19.3053L9.91309 16.1748L12.0001 13.0444L14.087 16.1748L12.0001 19.3053Z" fill="#6DA544"/>
</g>
</svg>
