<svg viewBox="0 0 24 24" fill="none" xmlns="http://www.w3.org/2000/svg">
<g clip-path="url(#clip0_37_7455)">
<path d="M22.8093 17.2174C23.5722 15.6397 24 13.8699 24 12C24 10.1301 23.5722 8.36025 22.8093 6.78262L12 5.73914L1.19072 6.78262C0.427828 8.36025 0 10.1301 0 12C0 13.8699 0.427828 15.6397 1.19072 17.2174L12 18.2609L22.8093 17.2174Z" fill="#0052B4"/>
<path d="M11.9997 23.9999C16.7572 23.9999 20.868 21.2312 22.809 17.2173H1.19043C3.13143 21.2312 7.24218 23.9999 11.9997 23.9999Z" fill="#D80027"/>
<path d="M20.7824 14.3556L20.1486 14.8509L20.4236 15.6065L19.7568 15.1569L19.1229 15.6521L19.3445 14.8789L18.6777 14.429L19.4816 14.401L19.7034 13.6278L19.9786 14.3836L20.7824 14.3556Z" fill="#F0F0F0"/>
<path d="M19.1593 11.5446L18.7331 12.2267L19.2502 12.8428L18.4697 12.6484L18.0434 13.3304L17.9872 12.5281L17.2068 12.3334L17.9527 12.032L17.8966 11.2296L18.4136 11.8459L19.1593 11.5446Z" fill="#F0F0F0"/>
<path d="M16.6724 9.45801L16.5052 10.2448L17.2018 10.647L16.4019 10.7313L16.2346 11.5179L15.9074 10.7832L15.1074 10.8671L15.7053 10.3289L15.3781 9.59418L16.0747 9.99627L16.6724 9.45801Z" fill="#F0F0F0"/>
<path d="M13.6228 8.3479L13.7349 9.14445L14.527 9.28404L13.8041 9.63682L13.916 10.4333L13.3573 9.8547L12.6342 10.2073L13.0119 9.49699L12.4531 8.91846L13.2453 9.0581L13.6228 8.3479Z" fill="#F0F0F0"/>
<path d="M10.3767 8.3479L10.7544 9.0581L11.5464 8.91837L10.9878 9.49713L11.3653 10.2074L10.6424 9.8547L10.0835 10.4332L10.1956 9.63682L9.47266 9.28423L10.2648 9.14445L10.3767 8.3479Z" fill="#F0F0F0"/>
<path d="M7.32638 9.45801L7.92423 9.99627L8.62065 9.59418L8.2936 10.3292L8.89131 10.8673L8.09138 10.7832L7.7641 11.5179L7.59709 10.7312L6.79712 10.6472L7.49368 10.2449L7.32638 9.45801Z" fill="#F0F0F0"/>
<path d="M4.83973 11.5445L5.58565 11.8459L6.10249 11.2297L6.04657 12.0323L6.79226 12.3336L6.01184 12.5281L5.95563 13.3304L5.52954 12.6484L4.74902 12.8429L5.26605 12.2267L4.83973 11.5445Z" fill="#F0F0F0"/>
<path d="M3.2168 14.3556L4.0208 14.3836L4.29577 13.6279L4.51772 14.4012L5.32148 14.4293L4.65464 14.8791L4.87627 15.6522L4.24252 15.157L3.57562 15.6067L3.85073 14.8509L3.2168 14.3556Z" fill="#F0F0F0"/>
<path d="M22.809 6.78263C20.868 2.76867 16.7572 0 11.9997 0C7.24218 0 3.13143 2.76867 1.19043 6.78263H22.809Z" fill="#FFDA44"/>
</g>
</svg>
