<svg viewBox="0 0 24 24" fill="none" xmlns="http://www.w3.org/2000/svg">
<g clip-path="url(#clip0_37_5695)">
<path d="M24 12C24 18.6274 18.6274 24 12 24C5.37262 24 0 18.6274 0 12C0 12.0029 12 0.0013125 12 0C18.6274 0 24 5.37262 24 12Z" fill="#0052B4"/>
<path d="M11.9678 12H11.9999C11.9999 11.9892 11.9999 11.9787 11.9999 11.9679C11.9892 11.9786 11.9785 11.9893 11.9678 12Z" fill="#F0F0F0"/>
<path d="M12 6.26086C12 4.14937 12 2.76586 12 0H11.998C5.37145 0.001125 0 5.37323 0 12H6.26086V8.47448L9.78638 12H11.9679C11.9786 11.9893 11.9893 11.9786 12 11.9679C12 11.1594 12 10.4381 12 9.78647L8.47444 6.26086H12Z" fill="#F0F0F0"/>
<path d="M6.071 1.56519C4.19417 2.63389 2.63384 4.19417 1.56519 6.071V12H4.69564V4.69573V4.69564H12C12 3.70831 12 2.76772 12 1.56519H6.071Z" fill="#D80027"/>
<path d="M17.2171 12L13.9736 15.2434C14.5815 16.4158 15.8053 17.2174 17.2171 17.2174C18.6288 17.2174 19.8526 16.4158 20.4605 15.2434L17.2171 12Z" fill="#FFDA44"/>
<path d="M11.9999 10.5243L7.73637 6.26093H6.26074V6.26102L11.9998 12H11.9999C11.9999 12 11.9999 10.9825 11.9999 10.5243Z" fill="#D80027"/>
<path d="M13.5652 6.26086V12V12C13.5652 14.7956 17.2174 15.6522 17.2174 15.6522C17.2174 15.6522 20.8695 14.7956 20.8695 12V12V6.26086H13.5652Z" fill="#6DA544"/>
<path d="M16.4348 8.86957H18V13.0435H16.4348V8.86957Z" fill="#F0F0F0"/>
<path d="M17.2174 9.65216C17.6497 9.65216 18.0001 9.30177 18.0001 8.86954C18.0001 8.43731 17.6497 8.08691 17.2174 8.08691C16.7852 8.08691 16.4348 8.43731 16.4348 8.86954C16.4348 9.30177 16.7852 9.65216 17.2174 9.65216Z" fill="#A2001D"/>
<path d="M14.6084 7.30444H15.6519V8.34793H14.6084V7.30444Z" fill="#FFDA44"/>
<path d="M14.6084 9.65228H15.6519V10.6958H14.6084V9.65228Z" fill="#FFDA44"/>
<path d="M14.6084 12.0001H15.6519V13.0436H14.6084V12.0001Z" fill="#FFDA44"/>
<path d="M18.7822 7.30444H19.8257V8.34793H18.7822V7.30444Z" fill="#FFDA44"/>
<path d="M18.7822 9.65228H19.8257V10.6958H18.7822V9.65228Z" fill="#FFDA44"/>
<path d="M18.7822 12.0001H19.8257V13.0436H18.7822V12.0001Z" fill="#FFDA44"/>
</g>
</svg>
