<svg viewBox="0 0 24 24" fill="none" xmlns="http://www.w3.org/2000/svg">
<g clip-path="url(#clip0_37_7471)">
<path d="M12 23.999C18.6274 23.999 24 18.6264 24 11.999C24 5.37161 18.6274 -0.000976562 12 -0.000976562C5.37258 -0.000976562 0 5.37161 0 11.999C0 18.6264 5.37258 23.999 12 23.999Z" fill="#FCFCFC"/>
<path d="M14.0381 8.38239C14.0381 7.25683 13.1256 6.34436 12 6.34436C10.8744 6.34436 9.96191 7.25683 9.96191 8.38239H5.47827C5.47827 9.49056 6.44361 10.389 7.55179 10.389H7.48504C7.48504 11.4973 8.38335 12.3958 9.49171 12.3958C9.49171 13.377 10.1964 14.1924 11.1271 14.3666L11.1219 14.3784H12.8781L12.8729 14.3666C13.8036 14.1923 14.5083 13.377 14.5083 12.3958C15.6166 12.3958 16.515 11.4973 16.515 10.389H16.4481C17.5563 10.389 18.5217 9.49056 18.5217 8.38239H14.0381Z" fill="#FFDA44"/>
<path d="M11.104 14.1704L9.84033 17.0234C10.5071 17.2944 11.2358 17.4451 12 17.4451C12.7641 17.4451 13.4928 17.2944 14.1595 17.0234L12.8959 14.1704H11.104Z" fill="#FFDA44"/>
<path d="M9.3916 9.38477V12.8953C9.3916 14.8921 12.0003 15.504 12.0003 15.504C12.0003 15.504 14.609 14.8921 14.609 12.8953V9.38477H9.3916Z" fill="#F0F0F0"/>
<path d="M2.91024 12.0835L4.32113 16.0296L5.71735 12.0835H6.78291L4.74732 17.3009H3.8949L1.84473 12.0835H2.91024Z" fill="#338AF3"/>
<path d="M19.3047 17.3009V12.0835H20.3187V17.3009H19.3047Z" fill="#338AF3"/>
<path d="M10.4348 10.5183V14.7724C10.7935 15.0364 11.1793 15.2179 11.4783 15.3342V10.5183H10.4348Z" fill="#D80027"/>
<path d="M13.5652 10.5183V14.7724C13.2066 15.0364 12.8207 15.2179 12.5217 15.3342V10.5183H13.5652Z" fill="#D80027"/>
<path d="M9.3916 9.38452H14.609V11.04H9.3916V9.38452Z" fill="#0052B4"/>
</g>
</svg>
