<svg viewBox="0 0 24 24" fill="none" xmlns="http://www.w3.org/2000/svg">
<g clip-path="url(#clip0_37_7424)">
<path d="M24 12.001C24 11.4706 23.9651 10.9482 23.8984 10.4358H10.4347C7.98306 7.98438 3.51452 3.51612 3.5147 3.51575C-1.17157 8.20202 -1.17157 15.8 3.5147 20.4863L10.4348 13.5663H23.8984C23.9651 13.0539 24 12.5315 24 12.001Z" fill="black"/>
<path d="M23.9968 12.2739C23.9963 12.2971 23.9958 12.3203 23.9951 12.3435C23.9957 12.3202 23.9962 12.2971 23.9968 12.2739Z" fill="#F0F0F0"/>
<path d="M23.9853 12.6018C23.9843 12.6247 23.9827 12.6476 23.9814 12.6704C23.9827 12.6476 23.9842 12.6247 23.9853 12.6018Z" fill="#F0F0F0"/>
<path d="M23.9684 12.8635C23.966 12.8972 23.9637 12.9309 23.9609 12.9645C23.9637 12.9309 23.966 12.8972 23.9684 12.8635Z" fill="#F0F0F0"/>
<path d="M23.9287 10.6931C23.9331 10.7332 23.9375 10.7733 23.9415 10.8135C23.9375 10.7733 23.9331 10.7332 23.9287 10.6931Z" fill="#F0F0F0"/>
<path d="M23.9814 11.3315C23.9827 11.3544 23.9843 11.3772 23.9853 11.4002C23.9842 11.3772 23.9827 11.3544 23.9814 11.3315Z" fill="#F0F0F0"/>
<path d="M23.9951 11.6587C23.9958 11.6818 23.9962 11.7051 23.9968 11.7283C23.9963 11.705 23.9957 11.6818 23.9951 11.6587Z" fill="#F0F0F0"/>
<path d="M23.9609 11.0376C23.9637 11.0712 23.966 11.1049 23.9684 11.1386C23.966 11.1049 23.9637 11.0712 23.9609 11.0376Z" fill="#F0F0F0"/>
<path d="M23.8984 10.4357C23.9038 10.4768 23.9086 10.5182 23.9135 10.5594C23.2013 4.61178 18.1395 0.000976562 12 0.000976562C8.68626 0.000976562 5.68622 1.34418 3.51465 3.51584L10.4345 10.4358H23.8984V10.4357Z" fill="#D80027"/>
<path d="M23.8984 13.5662H10.4345L3.51465 20.4861C5.68622 22.6577 8.68626 24.0009 12 24.0009C18.1395 24.0009 23.2014 19.3901 23.9135 13.4425C23.9086 13.4837 23.9037 13.5251 23.8984 13.5662Z" fill="#6DA544"/>
<path d="M23.9415 13.1885C23.9375 13.2287 23.9331 13.2688 23.9287 13.3089C23.9331 13.2688 23.9376 13.2287 23.9415 13.1885Z" fill="#F0F0F0"/>
<path d="M23.9688 11.1385C23.9733 11.2027 23.9774 11.267 23.9809 11.3315C23.9774 11.267 23.9733 11.2027 23.9688 11.1385Z" fill="black"/>
<path d="M23.9131 10.5593C23.9185 10.6038 23.9236 10.6484 23.9284 10.693C23.9235 10.6484 23.9184 10.6039 23.9131 10.5593Z" fill="black"/>
<path d="M23.9414 10.8135C23.9487 10.888 23.9553 10.9626 23.9613 11.0376C23.9554 10.9626 23.9488 10.8879 23.9414 10.8135Z" fill="black"/>
<path d="M23.9995 12.001C23.9995 12.0922 23.9981 12.1831 23.9961 12.2738C23.9981 12.1831 23.9995 12.0922 23.9995 12.001Z" fill="black"/>
<path d="M23.9812 12.6704C23.9776 12.7349 23.9735 12.7992 23.969 12.8633C23.9735 12.7992 23.9776 12.7349 23.9812 12.6704Z" fill="black"/>
<path d="M23.9613 12.9645C23.9553 13.0393 23.9487 13.1141 23.9414 13.1885C23.9488 13.1141 23.9554 13.0393 23.9613 12.9645Z" fill="black"/>
<path d="M23.9284 13.3088C23.9236 13.3535 23.9185 13.398 23.9131 13.4425C23.9184 13.398 23.9235 13.3535 23.9284 13.3088Z" fill="black"/>
<path d="M23.9961 11.728C23.9981 11.8188 23.9995 11.9097 23.9995 12.0009C23.9995 11.9097 23.9981 11.8188 23.9961 11.728Z" fill="black"/>
<path d="M23.9854 11.4001C23.9896 11.486 23.9928 11.5722 23.9952 11.6586C23.9928 11.5722 23.9896 11.486 23.9854 11.4001Z" fill="black"/>
<path d="M23.9952 12.3435C23.9928 12.4298 23.9896 12.5161 23.9854 12.6019C23.9897 12.516 23.9928 12.4298 23.9952 12.3435Z" fill="black"/>
<path d="M23.988 11.4749H9.99328L2.80468 4.28735C2.57233 4.53242 2.32047 4.8746 2.1647 5.1183L9.03933 11.9965L2.15894 18.8771C2.29515 19.1194 2.59192 19.4781 2.80028 19.7115L9.99342 12.5184H23.9897C23.9972 12.3453 23.9995 12.1715 23.9995 11.9966C23.9995 11.7624 23.993 11.5896 23.988 11.4749Z" fill="#FFDA44"/>
<path d="M2.9149 14.559V13.5539C3.91793 13.5539 4.73388 12.7378 4.73388 11.7349C4.73388 11.0253 4.15652 10.4479 3.44693 10.4479C2.96351 10.4479 2.57018 10.8412 2.57018 11.3247C2.57018 11.6339 2.82167 11.8854 3.13085 11.8854C3.3056 11.8854 3.44778 11.7431 3.44778 11.5684H4.45287C4.45287 12.2974 3.85981 12.8905 3.1309 12.8905C2.26751 12.8905 1.56519 12.1881 1.56519 11.3248C1.56519 10.2872 2.4094 9.44299 3.44698 9.44299C4.71082 9.44299 5.73907 10.4712 5.73907 11.735C5.73902 13.2921 4.47213 14.559 2.9149 14.559Z" fill="#FFDA44"/>
</g>
</svg>
