<svg viewBox="0 0 24 24" fill="none" xmlns="http://www.w3.org/2000/svg">
<g clip-path="url(#clip0_37_6393)">
<path d="M12 24C18.6274 24 24 18.6274 24 12C24 5.37258 18.6274 0 12 0C5.37258 0 0 5.37258 0 12C0 18.6274 5.37258 24 12 24Z" fill="#0052B4"/>
<path d="M5.27098 7.30432L5.53002 8.10157H6.36814L5.69009 8.59418L5.94908 9.39129L5.27098 8.89868L4.59284 9.39129L4.85192 8.59418L4.17383 8.10157H5.01191L5.27098 7.30432Z" fill="#F0F0F0"/>
<path d="M7.87934 6.52185L8.13837 7.31905H8.97649L8.29845 7.81166L8.55743 8.60877L7.87934 8.11616L7.20124 8.60877L7.46027 7.81166L6.78223 7.31905H7.62035L7.87934 6.52185Z" fill="#F0F0F0"/>
<path d="M10.4887 5.73914L10.7477 6.53634H11.5859L10.9078 7.029L11.1668 7.8261L10.4887 7.33345L9.81062 7.8261L10.0696 7.029L9.3916 6.53634H10.2297L10.4887 5.73914Z" fill="#F0F0F0"/>
<path d="M18.729 7.30432L18.47 8.10157H17.6318L18.3099 8.59418L18.0509 9.39129L18.729 8.89868L19.4071 9.39129L19.1481 8.59418L19.8261 8.10157H18.988L18.729 7.30432Z" fill="#F0F0F0"/>
<path d="M16.1206 6.52185L15.8616 7.31905H15.0234L15.7015 7.81166L15.4425 8.60877L16.1206 8.11616L16.7987 8.60877L16.5397 7.81166L17.2177 7.31905H16.3796L16.1206 6.52185Z" fill="#F0F0F0"/>
<path d="M13.5112 5.73914L13.2522 6.53634H12.4141L13.0921 7.029L12.8331 7.8261L13.5112 7.33345L14.1893 7.8261L13.9303 7.029L14.6083 6.53634H13.7702L13.5112 5.73914Z" fill="#F0F0F0"/>
<path d="M14.087 12.5218L12.0001 9.91309L10.9566 10.4348V11.4783L9.39138 12.5218H8.3479V13.8699C9.87734 14.4892 10.9566 15.9877 10.9566 17.7392H12.0001V16.6957L13.0436 15.6522L14.087 16.6957L15.1305 15.6522V14.6087L16.174 13.0435L14.087 12.5218Z" fill="#FFDA44"/>
</g>
</svg>
