<svg width="24" height="24" viewBox="0 0 24 24" fill="none" xmlns="http://www.w3.org/2000/svg">
<path fill-rule="evenodd" clip-rule="evenodd" d="M11.9992 2.44458C12.6098 2.4442 13.105 2.93884 13.1054 3.5494L13.11 10.8661L20.0696 8.60971C20.6504 8.42141 21.2739 8.73959 21.4622 9.32038C21.6505 9.90117 21.3323 10.5246 20.7515 10.7129L13.7931 12.969L18.0931 18.9013C18.4514 19.3956 18.3411 20.0869 17.8468 20.4452C17.3525 20.8035 16.6612 20.6932 16.3029 20.1989L12.0045 14.2688L7.69625 20.1998C7.33742 20.6938 6.64608 20.8034 6.1521 20.4445C5.65811 20.0857 5.54854 19.3944 5.90737 18.9004L10.2159 12.969L3.24866 10.7131C2.66779 10.525 2.34938 9.90165 2.53745 9.32079C2.72553 8.73992 3.34888 8.4215 3.92975 8.60958L10.899 10.8661L10.8944 3.55078C10.894 2.94022 11.3887 2.44496 11.9992 2.44458Z" fill="#394452"/>
</svg>
