<svg width="24" height="24" viewBox="0 0 24 24" fill="none" xmlns="http://www.w3.org/2000/svg">
<path d="M22 2L2 22" stroke="#394452" stroke-width="1.5" stroke-linecap="round"/>
<path fill-rule="evenodd" clip-rule="evenodd" d="M17.9632 5.97613C16.4002 4.84025 14.4246 4 12 4C7.81811 4 4.97196 6.49956 3.27489 8.70433C2.42496 9.80853 2 10.3606 2 12C2 13.6394 2.42496 14.1915 3.27489 15.2957C3.97326 16.203 4.86621 17.1602 5.96676 17.9726L9.31819 14.6211C8.65732 13.9451 8.25 13.0201 8.25 12C8.25 9.92893 9.92893 8.25 12 8.25C13.0201 8.25 13.9451 8.65732 14.6211 9.31819L17.9632 5.97613ZM13.5604 10.379C13.1558 9.98949 12.6059 9.75 12 9.75C10.7574 9.75 9.75 10.7574 9.75 12C9.75 12.6059 9.98949 13.1558 10.379 13.5604L13.5604 10.379ZM11.8179 14.2427L14.2427 11.8179C14.2475 11.878 14.25 11.9387 14.25 12C14.25 13.2426 13.2426 14.25 12 14.25C11.9387 14.25 11.878 14.2475 11.8179 14.2427ZM10.5863 15.4744C11.0226 15.6521 11.4999 15.75 12 15.75C14.0711 15.75 15.75 14.0711 15.75 12C15.75 11.4998 15.6521 11.0226 15.4744 10.5863L19.1246 6.93605C19.7416 7.51131 20.274 8.11824 20.7251 8.70433C21.575 9.80853 22 10.3606 22 12C22 13.6394 21.575 14.1915 20.7251 15.2957C19.028 17.5004 16.1819 20 12 20C10.1702 20 8.59616 19.5215 7.2622 18.7985L10.5863 15.4744Z" fill="#394452"/>
</svg>
