<svg width="24" height="24" viewBox="0 0 24 24" fill="none" xmlns="http://www.w3.org/2000/svg">
<path d="M15.7283 3.88396C17.1626 2.44407 19.2607 2.41383 20.4221 3.57981C21.5858 4.74798 21.5545 6.85922 20.1192 8.30009L17.6953 10.7333C17.403 11.0268 17.4039 11.5017 17.6974 11.794C17.9909 12.0863 18.4657 12.0854 18.758 11.7919L21.1819 9.35869C23.0932 7.43998 23.3331 4.37665 21.4849 2.5212C19.6344 0.663551 16.5779 0.905664 14.6656 2.82536L9.81793 7.69182C7.90663 9.61053 7.66668 12.6739 9.51494 14.5293C9.80727 14.8228 10.2821 14.8237 10.5756 14.5314C10.8691 14.2391 10.87 13.7642 10.5777 13.4707C9.414 12.3026 9.44534 10.1913 10.8806 8.75042L15.7283 3.88396Z" fill="#394452"/>
<path d="M14.4849 9.47074C14.1925 9.17728 13.7177 9.17636 13.4242 9.46868C13.1307 9.76101 13.1298 10.2359 13.4221 10.5293C14.5858 11.6975 14.5545 13.8087 13.1192 15.2496L8.27153 20.1161C6.83721 21.556 4.73913 21.5863 3.57766 20.4203C2.414 19.2521 2.44534 17.1408 3.88065 15.6999L6.30449 13.2667C6.59681 12.9732 6.59589 12.4984 6.30243 12.206C6.00897 11.9137 5.5341 11.9146 5.24177 12.2081L2.81793 14.6413C0.906631 16.5601 0.666672 19.6234 2.51495 21.4789C4.36542 23.3365 7.42197 23.0944 9.33425 21.1747L14.1819 16.3082C16.0932 14.3895 16.3331 11.3262 14.4849 9.47074Z" fill="#394452"/>
</svg>
