<svg width="24" height="24" viewBox="0 0 24 24" fill="none" xmlns="http://www.w3.org/2000/svg">
<path fill-rule="evenodd" clip-rule="evenodd" d="M12.0001 4.46448C12.5524 4.46448 13.0001 4.91219 13.0001 5.46448L13.0001 11L18.5356 11C19.0879 11 19.5356 11.4477 19.5356 12C19.5356 12.5523 19.0879 13 18.5356 13L13.0001 13V18.5355C13.0001 19.0878 12.5524 19.5355 12.0001 19.5355C11.4479 19.5355 11.0001 19.0878 11.0001 18.5355V13H5.4646C4.91231 13 4.4646 12.5523 4.4646 12C4.4646 11.4477 4.91231 11 5.4646 11H11.0001L11.0001 5.46448C11.0001 4.91219 11.4479 4.46448 12.0001 4.46448Z" fill="#394452"/>
</svg>
