<svg width="24" height="24" viewBox="0 0 24 24" fill="none" xmlns="http://www.w3.org/2000/svg">
<path d="M16 19V20H8V19H16ZM23 12C23 8.13401 19.866 5 16 5H8C4.13401 5 1 8.13401 1 12C1 15.866 4.13401 19 8 19V20L7.58789 19.9893C3.36114 19.7748 0 16.2801 0 12C0 7.71994 3.36114 4.22523 7.58789 4.01074L8 4H16L16.4121 4.01074C20.6389 4.22523 24 7.71994 24 12C24 16.2801 20.6389 19.7748 16.4121 19.9893L16 20V19C19.866 19 23 15.866 23 12Z" fill="#394452"/>
<path d="M15 12C15 8.13401 11.866 5 8 5C4.13401 5 1 8.13401 1 12C1 15.866 4.13401 19 8 19V20C3.58172 20 0 16.4183 0 12C0 7.58172 3.58172 4 8 4C12.4183 4 16 7.58172 16 12C16 16.4183 12.4183 20 8 20V19C11.866 19 15 15.866 15 12Z" fill="#394452"/>
</svg>
